%TF.GenerationSoftware,KiCad,Pcbnew,7.0.10+1*%
%TF.CreationDate,2024-02-25T15:55:41+01:00*%
%TF.ProjectId,dd8_0v2,6464385f-3076-4322-9e6b-696361645f70,rev?*%
%TF.SameCoordinates,Original*%
%TF.FileFunction,Drillmap*%
%TF.FilePolarity,Positive*%
%FSLAX45Y45*%
G04 Gerber Fmt 4.5, Leading zero omitted, Abs format (unit mm)*
G04 Created by KiCad (PCBNEW 7.0.10+1) date 2024-02-25 15:55:41*
%MOMM*%
%LPD*%
G01*
G04 APERTURE LIST*
%ADD10C,0.100000*%
%ADD11C,0.200000*%
G04 APERTURE END LIST*
D10*
X5000000Y-6900000D02*
X15000000Y-6900000D01*
X15000000Y-16900000D01*
X5000000Y-16900000D01*
X5000000Y-6900000D01*
D11*
X5255777Y-17216484D02*
X5255777Y-17016484D01*
X5255777Y-17016484D02*
X5303396Y-17016484D01*
X5303396Y-17016484D02*
X5331967Y-17026008D01*
X5331967Y-17026008D02*
X5351015Y-17045055D01*
X5351015Y-17045055D02*
X5360539Y-17064103D01*
X5360539Y-17064103D02*
X5370063Y-17102198D01*
X5370063Y-17102198D02*
X5370063Y-17130770D01*
X5370063Y-17130770D02*
X5360539Y-17168865D01*
X5360539Y-17168865D02*
X5351015Y-17187912D01*
X5351015Y-17187912D02*
X5331967Y-17206960D01*
X5331967Y-17206960D02*
X5303396Y-17216484D01*
X5303396Y-17216484D02*
X5255777Y-17216484D01*
X5455777Y-17216484D02*
X5455777Y-17083150D01*
X5455777Y-17121246D02*
X5465301Y-17102198D01*
X5465301Y-17102198D02*
X5474824Y-17092674D01*
X5474824Y-17092674D02*
X5493872Y-17083150D01*
X5493872Y-17083150D02*
X5512920Y-17083150D01*
X5579586Y-17216484D02*
X5579586Y-17083150D01*
X5579586Y-17016484D02*
X5570063Y-17026008D01*
X5570063Y-17026008D02*
X5579586Y-17035531D01*
X5579586Y-17035531D02*
X5589110Y-17026008D01*
X5589110Y-17026008D02*
X5579586Y-17016484D01*
X5579586Y-17016484D02*
X5579586Y-17035531D01*
X5703396Y-17216484D02*
X5684348Y-17206960D01*
X5684348Y-17206960D02*
X5674824Y-17187912D01*
X5674824Y-17187912D02*
X5674824Y-17016484D01*
X5808158Y-17216484D02*
X5789110Y-17206960D01*
X5789110Y-17206960D02*
X5779586Y-17187912D01*
X5779586Y-17187912D02*
X5779586Y-17016484D01*
X6036729Y-17216484D02*
X6036729Y-17016484D01*
X6036729Y-17016484D02*
X6103396Y-17159341D01*
X6103396Y-17159341D02*
X6170062Y-17016484D01*
X6170062Y-17016484D02*
X6170062Y-17216484D01*
X6351015Y-17216484D02*
X6351015Y-17111722D01*
X6351015Y-17111722D02*
X6341491Y-17092674D01*
X6341491Y-17092674D02*
X6322443Y-17083150D01*
X6322443Y-17083150D02*
X6284348Y-17083150D01*
X6284348Y-17083150D02*
X6265301Y-17092674D01*
X6351015Y-17206960D02*
X6331967Y-17216484D01*
X6331967Y-17216484D02*
X6284348Y-17216484D01*
X6284348Y-17216484D02*
X6265301Y-17206960D01*
X6265301Y-17206960D02*
X6255777Y-17187912D01*
X6255777Y-17187912D02*
X6255777Y-17168865D01*
X6255777Y-17168865D02*
X6265301Y-17149817D01*
X6265301Y-17149817D02*
X6284348Y-17140293D01*
X6284348Y-17140293D02*
X6331967Y-17140293D01*
X6331967Y-17140293D02*
X6351015Y-17130770D01*
X6446253Y-17083150D02*
X6446253Y-17283150D01*
X6446253Y-17092674D02*
X6465301Y-17083150D01*
X6465301Y-17083150D02*
X6503396Y-17083150D01*
X6503396Y-17083150D02*
X6522443Y-17092674D01*
X6522443Y-17092674D02*
X6531967Y-17102198D01*
X6531967Y-17102198D02*
X6541491Y-17121246D01*
X6541491Y-17121246D02*
X6541491Y-17178389D01*
X6541491Y-17178389D02*
X6531967Y-17197436D01*
X6531967Y-17197436D02*
X6522443Y-17206960D01*
X6522443Y-17206960D02*
X6503396Y-17216484D01*
X6503396Y-17216484D02*
X6465301Y-17216484D01*
X6465301Y-17216484D02*
X6446253Y-17206960D01*
X6627205Y-17197436D02*
X6636729Y-17206960D01*
X6636729Y-17206960D02*
X6627205Y-17216484D01*
X6627205Y-17216484D02*
X6617682Y-17206960D01*
X6617682Y-17206960D02*
X6627205Y-17197436D01*
X6627205Y-17197436D02*
X6627205Y-17216484D01*
X6627205Y-17092674D02*
X6636729Y-17102198D01*
X6636729Y-17102198D02*
X6627205Y-17111722D01*
X6627205Y-17111722D02*
X6617682Y-17102198D01*
X6617682Y-17102198D02*
X6627205Y-17092674D01*
X6627205Y-17092674D02*
X6627205Y-17111722D01*
M02*
