G04 #@! TF.GenerationSoftware,KiCad,Pcbnew,7.0.10+1*
G04 #@! TF.CreationDate,2024-02-25T15:54:48+01:00*
G04 #@! TF.ProjectId,dd8_0v2,6464385f-3076-4322-9e6b-696361645f70,rev?*
G04 #@! TF.SameCoordinates,Original*
G04 #@! TF.FileFunction,Legend,Top*
G04 #@! TF.FilePolarity,Positive*
%FSLAX46Y46*%
G04 Gerber Fmt 4.6, Leading zero omitted, Abs format (unit mm)*
G04 Created by KiCad (PCBNEW 7.0.10+1) date 2024-02-25 15:54:48*
%MOMM*%
%LPD*%
G01*
G04 APERTURE LIST*
%ADD10C,0.150000*%
%ADD11C,0.100000*%
%ADD12C,0.120000*%
%ADD13R,1.600000X1.600000*%
%ADD14O,1.600000X1.600000*%
%ADD15C,1.600000*%
%ADD16C,7.400000*%
%ADD17R,1.700000X1.700000*%
%ADD18O,1.700000X1.700000*%
%ADD19C,2.000000*%
%ADD20C,1.400000*%
%ADD21O,1.400000X1.400000*%
%ADD22C,1.500000*%
%ADD23R,2.000000X1.440000*%
%ADD24O,2.000000X1.440000*%
%ADD25R,1.800000X1.800000*%
%ADD26C,1.800000*%
%ADD27O,7.500000X5.000000*%
%ADD28O,2.500000X1.600000*%
%ADD29O,7.000000X3.500000*%
%ADD30R,1.422400X1.422400*%
%ADD31C,1.422400*%
G04 APERTURE END LIST*
D10*
X126928095Y-122124819D02*
X126928095Y-122934342D01*
X126928095Y-122934342D02*
X126975714Y-123029580D01*
X126975714Y-123029580D02*
X127023333Y-123077200D01*
X127023333Y-123077200D02*
X127118571Y-123124819D01*
X127118571Y-123124819D02*
X127309047Y-123124819D01*
X127309047Y-123124819D02*
X127404285Y-123077200D01*
X127404285Y-123077200D02*
X127451904Y-123029580D01*
X127451904Y-123029580D02*
X127499523Y-122934342D01*
X127499523Y-122934342D02*
X127499523Y-122124819D01*
X127880476Y-122124819D02*
X128499523Y-122124819D01*
X128499523Y-122124819D02*
X128166190Y-122505771D01*
X128166190Y-122505771D02*
X128309047Y-122505771D01*
X128309047Y-122505771D02*
X128404285Y-122553390D01*
X128404285Y-122553390D02*
X128451904Y-122601009D01*
X128451904Y-122601009D02*
X128499523Y-122696247D01*
X128499523Y-122696247D02*
X128499523Y-122934342D01*
X128499523Y-122934342D02*
X128451904Y-123029580D01*
X128451904Y-123029580D02*
X128404285Y-123077200D01*
X128404285Y-123077200D02*
X128309047Y-123124819D01*
X128309047Y-123124819D02*
X128023333Y-123124819D01*
X128023333Y-123124819D02*
X127928095Y-123077200D01*
X127928095Y-123077200D02*
X127880476Y-123029580D01*
X66583333Y-128309580D02*
X66535714Y-128357200D01*
X66535714Y-128357200D02*
X66392857Y-128404819D01*
X66392857Y-128404819D02*
X66297619Y-128404819D01*
X66297619Y-128404819D02*
X66154762Y-128357200D01*
X66154762Y-128357200D02*
X66059524Y-128261961D01*
X66059524Y-128261961D02*
X66011905Y-128166723D01*
X66011905Y-128166723D02*
X65964286Y-127976247D01*
X65964286Y-127976247D02*
X65964286Y-127833390D01*
X65964286Y-127833390D02*
X66011905Y-127642914D01*
X66011905Y-127642914D02*
X66059524Y-127547676D01*
X66059524Y-127547676D02*
X66154762Y-127452438D01*
X66154762Y-127452438D02*
X66297619Y-127404819D01*
X66297619Y-127404819D02*
X66392857Y-127404819D01*
X66392857Y-127404819D02*
X66535714Y-127452438D01*
X66535714Y-127452438D02*
X66583333Y-127500057D01*
X66916667Y-127404819D02*
X67583333Y-127404819D01*
X67583333Y-127404819D02*
X67154762Y-128404819D01*
X136409580Y-126316666D02*
X136457200Y-126364285D01*
X136457200Y-126364285D02*
X136504819Y-126507142D01*
X136504819Y-126507142D02*
X136504819Y-126602380D01*
X136504819Y-126602380D02*
X136457200Y-126745237D01*
X136457200Y-126745237D02*
X136361961Y-126840475D01*
X136361961Y-126840475D02*
X136266723Y-126888094D01*
X136266723Y-126888094D02*
X136076247Y-126935713D01*
X136076247Y-126935713D02*
X135933390Y-126935713D01*
X135933390Y-126935713D02*
X135742914Y-126888094D01*
X135742914Y-126888094D02*
X135647676Y-126840475D01*
X135647676Y-126840475D02*
X135552438Y-126745237D01*
X135552438Y-126745237D02*
X135504819Y-126602380D01*
X135504819Y-126602380D02*
X135504819Y-126507142D01*
X135504819Y-126507142D02*
X135552438Y-126364285D01*
X135552438Y-126364285D02*
X135600057Y-126316666D01*
X135838152Y-125459523D02*
X136504819Y-125459523D01*
X135457200Y-125697618D02*
X136171485Y-125935713D01*
X136171485Y-125935713D02*
X136171485Y-125316666D01*
X109966666Y-144854819D02*
X109966666Y-145569104D01*
X109966666Y-145569104D02*
X109919047Y-145711961D01*
X109919047Y-145711961D02*
X109823809Y-145807200D01*
X109823809Y-145807200D02*
X109680952Y-145854819D01*
X109680952Y-145854819D02*
X109585714Y-145854819D01*
X110442857Y-145854819D02*
X110442857Y-144854819D01*
X110442857Y-144854819D02*
X110823809Y-144854819D01*
X110823809Y-144854819D02*
X110919047Y-144902438D01*
X110919047Y-144902438D02*
X110966666Y-144950057D01*
X110966666Y-144950057D02*
X111014285Y-145045295D01*
X111014285Y-145045295D02*
X111014285Y-145188152D01*
X111014285Y-145188152D02*
X110966666Y-145283390D01*
X110966666Y-145283390D02*
X110919047Y-145331009D01*
X110919047Y-145331009D02*
X110823809Y-145378628D01*
X110823809Y-145378628D02*
X110442857Y-145378628D01*
X111585714Y-145283390D02*
X111490476Y-145235771D01*
X111490476Y-145235771D02*
X111442857Y-145188152D01*
X111442857Y-145188152D02*
X111395238Y-145092914D01*
X111395238Y-145092914D02*
X111395238Y-145045295D01*
X111395238Y-145045295D02*
X111442857Y-144950057D01*
X111442857Y-144950057D02*
X111490476Y-144902438D01*
X111490476Y-144902438D02*
X111585714Y-144854819D01*
X111585714Y-144854819D02*
X111776190Y-144854819D01*
X111776190Y-144854819D02*
X111871428Y-144902438D01*
X111871428Y-144902438D02*
X111919047Y-144950057D01*
X111919047Y-144950057D02*
X111966666Y-145045295D01*
X111966666Y-145045295D02*
X111966666Y-145092914D01*
X111966666Y-145092914D02*
X111919047Y-145188152D01*
X111919047Y-145188152D02*
X111871428Y-145235771D01*
X111871428Y-145235771D02*
X111776190Y-145283390D01*
X111776190Y-145283390D02*
X111585714Y-145283390D01*
X111585714Y-145283390D02*
X111490476Y-145331009D01*
X111490476Y-145331009D02*
X111442857Y-145378628D01*
X111442857Y-145378628D02*
X111395238Y-145473866D01*
X111395238Y-145473866D02*
X111395238Y-145664342D01*
X111395238Y-145664342D02*
X111442857Y-145759580D01*
X111442857Y-145759580D02*
X111490476Y-145807200D01*
X111490476Y-145807200D02*
X111585714Y-145854819D01*
X111585714Y-145854819D02*
X111776190Y-145854819D01*
X111776190Y-145854819D02*
X111871428Y-145807200D01*
X111871428Y-145807200D02*
X111919047Y-145759580D01*
X111919047Y-145759580D02*
X111966666Y-145664342D01*
X111966666Y-145664342D02*
X111966666Y-145473866D01*
X111966666Y-145473866D02*
X111919047Y-145378628D01*
X111919047Y-145378628D02*
X111871428Y-145331009D01*
X111871428Y-145331009D02*
X111776190Y-145283390D01*
X77157200Y-121333332D02*
X77204819Y-121190475D01*
X77204819Y-121190475D02*
X77204819Y-120952380D01*
X77204819Y-120952380D02*
X77157200Y-120857142D01*
X77157200Y-120857142D02*
X77109580Y-120809523D01*
X77109580Y-120809523D02*
X77014342Y-120761904D01*
X77014342Y-120761904D02*
X76919104Y-120761904D01*
X76919104Y-120761904D02*
X76823866Y-120809523D01*
X76823866Y-120809523D02*
X76776247Y-120857142D01*
X76776247Y-120857142D02*
X76728628Y-120952380D01*
X76728628Y-120952380D02*
X76681009Y-121142856D01*
X76681009Y-121142856D02*
X76633390Y-121238094D01*
X76633390Y-121238094D02*
X76585771Y-121285713D01*
X76585771Y-121285713D02*
X76490533Y-121333332D01*
X76490533Y-121333332D02*
X76395295Y-121333332D01*
X76395295Y-121333332D02*
X76300057Y-121285713D01*
X76300057Y-121285713D02*
X76252438Y-121238094D01*
X76252438Y-121238094D02*
X76204819Y-121142856D01*
X76204819Y-121142856D02*
X76204819Y-120904761D01*
X76204819Y-120904761D02*
X76252438Y-120761904D01*
X76204819Y-120428570D02*
X77204819Y-120190475D01*
X77204819Y-120190475D02*
X76490533Y-119999999D01*
X76490533Y-119999999D02*
X77204819Y-119809523D01*
X77204819Y-119809523D02*
X76204819Y-119571428D01*
X77204819Y-118666666D02*
X77204819Y-119238094D01*
X77204819Y-118952380D02*
X76204819Y-118952380D01*
X76204819Y-118952380D02*
X76347676Y-119047618D01*
X76347676Y-119047618D02*
X76442914Y-119142856D01*
X76442914Y-119142856D02*
X76490533Y-119238094D01*
X80833333Y-115109580D02*
X80785714Y-115157200D01*
X80785714Y-115157200D02*
X80642857Y-115204819D01*
X80642857Y-115204819D02*
X80547619Y-115204819D01*
X80547619Y-115204819D02*
X80404762Y-115157200D01*
X80404762Y-115157200D02*
X80309524Y-115061961D01*
X80309524Y-115061961D02*
X80261905Y-114966723D01*
X80261905Y-114966723D02*
X80214286Y-114776247D01*
X80214286Y-114776247D02*
X80214286Y-114633390D01*
X80214286Y-114633390D02*
X80261905Y-114442914D01*
X80261905Y-114442914D02*
X80309524Y-114347676D01*
X80309524Y-114347676D02*
X80404762Y-114252438D01*
X80404762Y-114252438D02*
X80547619Y-114204819D01*
X80547619Y-114204819D02*
X80642857Y-114204819D01*
X80642857Y-114204819D02*
X80785714Y-114252438D01*
X80785714Y-114252438D02*
X80833333Y-114300057D01*
X81214286Y-114300057D02*
X81261905Y-114252438D01*
X81261905Y-114252438D02*
X81357143Y-114204819D01*
X81357143Y-114204819D02*
X81595238Y-114204819D01*
X81595238Y-114204819D02*
X81690476Y-114252438D01*
X81690476Y-114252438D02*
X81738095Y-114300057D01*
X81738095Y-114300057D02*
X81785714Y-114395295D01*
X81785714Y-114395295D02*
X81785714Y-114490533D01*
X81785714Y-114490533D02*
X81738095Y-114633390D01*
X81738095Y-114633390D02*
X81166667Y-115204819D01*
X81166667Y-115204819D02*
X81785714Y-115204819D01*
X143009580Y-84766666D02*
X143057200Y-84814285D01*
X143057200Y-84814285D02*
X143104819Y-84957142D01*
X143104819Y-84957142D02*
X143104819Y-85052380D01*
X143104819Y-85052380D02*
X143057200Y-85195237D01*
X143057200Y-85195237D02*
X142961961Y-85290475D01*
X142961961Y-85290475D02*
X142866723Y-85338094D01*
X142866723Y-85338094D02*
X142676247Y-85385713D01*
X142676247Y-85385713D02*
X142533390Y-85385713D01*
X142533390Y-85385713D02*
X142342914Y-85338094D01*
X142342914Y-85338094D02*
X142247676Y-85290475D01*
X142247676Y-85290475D02*
X142152438Y-85195237D01*
X142152438Y-85195237D02*
X142104819Y-85052380D01*
X142104819Y-85052380D02*
X142104819Y-84957142D01*
X142104819Y-84957142D02*
X142152438Y-84814285D01*
X142152438Y-84814285D02*
X142200057Y-84766666D01*
X142104819Y-83861904D02*
X142104819Y-84338094D01*
X142104819Y-84338094D02*
X142581009Y-84385713D01*
X142581009Y-84385713D02*
X142533390Y-84338094D01*
X142533390Y-84338094D02*
X142485771Y-84242856D01*
X142485771Y-84242856D02*
X142485771Y-84004761D01*
X142485771Y-84004761D02*
X142533390Y-83909523D01*
X142533390Y-83909523D02*
X142581009Y-83861904D01*
X142581009Y-83861904D02*
X142676247Y-83814285D01*
X142676247Y-83814285D02*
X142914342Y-83814285D01*
X142914342Y-83814285D02*
X143009580Y-83861904D01*
X143009580Y-83861904D02*
X143057200Y-83909523D01*
X143057200Y-83909523D02*
X143104819Y-84004761D01*
X143104819Y-84004761D02*
X143104819Y-84242856D01*
X143104819Y-84242856D02*
X143057200Y-84338094D01*
X143057200Y-84338094D02*
X143009580Y-84385713D01*
X65666666Y-116144819D02*
X65666666Y-116859104D01*
X65666666Y-116859104D02*
X65619047Y-117001961D01*
X65619047Y-117001961D02*
X65523809Y-117097200D01*
X65523809Y-117097200D02*
X65380952Y-117144819D01*
X65380952Y-117144819D02*
X65285714Y-117144819D01*
X66571428Y-116144819D02*
X66380952Y-116144819D01*
X66380952Y-116144819D02*
X66285714Y-116192438D01*
X66285714Y-116192438D02*
X66238095Y-116240057D01*
X66238095Y-116240057D02*
X66142857Y-116382914D01*
X66142857Y-116382914D02*
X66095238Y-116573390D01*
X66095238Y-116573390D02*
X66095238Y-116954342D01*
X66095238Y-116954342D02*
X66142857Y-117049580D01*
X66142857Y-117049580D02*
X66190476Y-117097200D01*
X66190476Y-117097200D02*
X66285714Y-117144819D01*
X66285714Y-117144819D02*
X66476190Y-117144819D01*
X66476190Y-117144819D02*
X66571428Y-117097200D01*
X66571428Y-117097200D02*
X66619047Y-117049580D01*
X66619047Y-117049580D02*
X66666666Y-116954342D01*
X66666666Y-116954342D02*
X66666666Y-116716247D01*
X66666666Y-116716247D02*
X66619047Y-116621009D01*
X66619047Y-116621009D02*
X66571428Y-116573390D01*
X66571428Y-116573390D02*
X66476190Y-116525771D01*
X66476190Y-116525771D02*
X66285714Y-116525771D01*
X66285714Y-116525771D02*
X66190476Y-116573390D01*
X66190476Y-116573390D02*
X66142857Y-116621009D01*
X66142857Y-116621009D02*
X66095238Y-116716247D01*
X144396666Y-147864819D02*
X144396666Y-148579104D01*
X144396666Y-148579104D02*
X144349047Y-148721961D01*
X144349047Y-148721961D02*
X144253809Y-148817200D01*
X144253809Y-148817200D02*
X144110952Y-148864819D01*
X144110952Y-148864819D02*
X144015714Y-148864819D01*
X145301428Y-148198152D02*
X145301428Y-148864819D01*
X145063333Y-147817200D02*
X144825238Y-148531485D01*
X144825238Y-148531485D02*
X145444285Y-148531485D01*
X111774819Y-154436666D02*
X111298628Y-154769999D01*
X111774819Y-155008094D02*
X110774819Y-155008094D01*
X110774819Y-155008094D02*
X110774819Y-154627142D01*
X110774819Y-154627142D02*
X110822438Y-154531904D01*
X110822438Y-154531904D02*
X110870057Y-154484285D01*
X110870057Y-154484285D02*
X110965295Y-154436666D01*
X110965295Y-154436666D02*
X111108152Y-154436666D01*
X111108152Y-154436666D02*
X111203390Y-154484285D01*
X111203390Y-154484285D02*
X111251009Y-154531904D01*
X111251009Y-154531904D02*
X111298628Y-154627142D01*
X111298628Y-154627142D02*
X111298628Y-155008094D01*
X110870057Y-154055713D02*
X110822438Y-154008094D01*
X110822438Y-154008094D02*
X110774819Y-153912856D01*
X110774819Y-153912856D02*
X110774819Y-153674761D01*
X110774819Y-153674761D02*
X110822438Y-153579523D01*
X110822438Y-153579523D02*
X110870057Y-153531904D01*
X110870057Y-153531904D02*
X110965295Y-153484285D01*
X110965295Y-153484285D02*
X111060533Y-153484285D01*
X111060533Y-153484285D02*
X111203390Y-153531904D01*
X111203390Y-153531904D02*
X111774819Y-154103332D01*
X111774819Y-154103332D02*
X111774819Y-153484285D01*
X79703628Y-84776190D02*
X80179819Y-84776190D01*
X79179819Y-85109523D02*
X79703628Y-84776190D01*
X79703628Y-84776190D02*
X79179819Y-84442857D01*
X80179819Y-83585714D02*
X80179819Y-84157142D01*
X80179819Y-83871428D02*
X79179819Y-83871428D01*
X79179819Y-83871428D02*
X79322676Y-83966666D01*
X79322676Y-83966666D02*
X79417914Y-84061904D01*
X79417914Y-84061904D02*
X79465533Y-84157142D01*
X128438095Y-70654819D02*
X128438095Y-71464342D01*
X128438095Y-71464342D02*
X128485714Y-71559580D01*
X128485714Y-71559580D02*
X128533333Y-71607200D01*
X128533333Y-71607200D02*
X128628571Y-71654819D01*
X128628571Y-71654819D02*
X128819047Y-71654819D01*
X128819047Y-71654819D02*
X128914285Y-71607200D01*
X128914285Y-71607200D02*
X128961904Y-71559580D01*
X128961904Y-71559580D02*
X129009523Y-71464342D01*
X129009523Y-71464342D02*
X129009523Y-70654819D01*
X129914285Y-70988152D02*
X129914285Y-71654819D01*
X129676190Y-70607200D02*
X129438095Y-71321485D01*
X129438095Y-71321485D02*
X130057142Y-71321485D01*
X97858095Y-159844819D02*
X97858095Y-160654342D01*
X97858095Y-160654342D02*
X97905714Y-160749580D01*
X97905714Y-160749580D02*
X97953333Y-160797200D01*
X97953333Y-160797200D02*
X98048571Y-160844819D01*
X98048571Y-160844819D02*
X98239047Y-160844819D01*
X98239047Y-160844819D02*
X98334285Y-160797200D01*
X98334285Y-160797200D02*
X98381904Y-160749580D01*
X98381904Y-160749580D02*
X98429523Y-160654342D01*
X98429523Y-160654342D02*
X98429523Y-159844819D01*
X98858095Y-159940057D02*
X98905714Y-159892438D01*
X98905714Y-159892438D02*
X99000952Y-159844819D01*
X99000952Y-159844819D02*
X99239047Y-159844819D01*
X99239047Y-159844819D02*
X99334285Y-159892438D01*
X99334285Y-159892438D02*
X99381904Y-159940057D01*
X99381904Y-159940057D02*
X99429523Y-160035295D01*
X99429523Y-160035295D02*
X99429523Y-160130533D01*
X99429523Y-160130533D02*
X99381904Y-160273390D01*
X99381904Y-160273390D02*
X98810476Y-160844819D01*
X98810476Y-160844819D02*
X99429523Y-160844819D01*
X71506905Y-71744819D02*
X71506905Y-70744819D01*
X71506905Y-70744819D02*
X71745000Y-70744819D01*
X71745000Y-70744819D02*
X71887857Y-70792438D01*
X71887857Y-70792438D02*
X71983095Y-70887676D01*
X71983095Y-70887676D02*
X72030714Y-70982914D01*
X72030714Y-70982914D02*
X72078333Y-71173390D01*
X72078333Y-71173390D02*
X72078333Y-71316247D01*
X72078333Y-71316247D02*
X72030714Y-71506723D01*
X72030714Y-71506723D02*
X71983095Y-71601961D01*
X71983095Y-71601961D02*
X71887857Y-71697200D01*
X71887857Y-71697200D02*
X71745000Y-71744819D01*
X71745000Y-71744819D02*
X71506905Y-71744819D01*
X73030714Y-71744819D02*
X72459286Y-71744819D01*
X72745000Y-71744819D02*
X72745000Y-70744819D01*
X72745000Y-70744819D02*
X72649762Y-70887676D01*
X72649762Y-70887676D02*
X72554524Y-70982914D01*
X72554524Y-70982914D02*
X72459286Y-71030533D01*
X112074819Y-81238094D02*
X111074819Y-81238094D01*
X111074819Y-81238094D02*
X111074819Y-80999999D01*
X111074819Y-80999999D02*
X111122438Y-80857142D01*
X111122438Y-80857142D02*
X111217676Y-80761904D01*
X111217676Y-80761904D02*
X111312914Y-80714285D01*
X111312914Y-80714285D02*
X111503390Y-80666666D01*
X111503390Y-80666666D02*
X111646247Y-80666666D01*
X111646247Y-80666666D02*
X111836723Y-80714285D01*
X111836723Y-80714285D02*
X111931961Y-80761904D01*
X111931961Y-80761904D02*
X112027200Y-80857142D01*
X112027200Y-80857142D02*
X112074819Y-80999999D01*
X112074819Y-80999999D02*
X112074819Y-81238094D01*
X111170057Y-80285713D02*
X111122438Y-80238094D01*
X111122438Y-80238094D02*
X111074819Y-80142856D01*
X111074819Y-80142856D02*
X111074819Y-79904761D01*
X111074819Y-79904761D02*
X111122438Y-79809523D01*
X111122438Y-79809523D02*
X111170057Y-79761904D01*
X111170057Y-79761904D02*
X111265295Y-79714285D01*
X111265295Y-79714285D02*
X111360533Y-79714285D01*
X111360533Y-79714285D02*
X111503390Y-79761904D01*
X111503390Y-79761904D02*
X112074819Y-80333332D01*
X112074819Y-80333332D02*
X112074819Y-79714285D01*
X111754819Y-76951904D02*
X110754819Y-76951904D01*
X111754819Y-76380476D02*
X111183390Y-76809047D01*
X110754819Y-76380476D02*
X111326247Y-76951904D01*
X86466666Y-141749819D02*
X86466666Y-142464104D01*
X86466666Y-142464104D02*
X86419047Y-142606961D01*
X86419047Y-142606961D02*
X86323809Y-142702200D01*
X86323809Y-142702200D02*
X86180952Y-142749819D01*
X86180952Y-142749819D02*
X86085714Y-142749819D01*
X86942857Y-142749819D02*
X86942857Y-141749819D01*
X86942857Y-141749819D02*
X87323809Y-141749819D01*
X87323809Y-141749819D02*
X87419047Y-141797438D01*
X87419047Y-141797438D02*
X87466666Y-141845057D01*
X87466666Y-141845057D02*
X87514285Y-141940295D01*
X87514285Y-141940295D02*
X87514285Y-142083152D01*
X87514285Y-142083152D02*
X87466666Y-142178390D01*
X87466666Y-142178390D02*
X87419047Y-142226009D01*
X87419047Y-142226009D02*
X87323809Y-142273628D01*
X87323809Y-142273628D02*
X86942857Y-142273628D01*
X87847619Y-141749819D02*
X88514285Y-141749819D01*
X88514285Y-141749819D02*
X88085714Y-142749819D01*
X97863095Y-72004819D02*
X97863095Y-72814342D01*
X97863095Y-72814342D02*
X97910714Y-72909580D01*
X97910714Y-72909580D02*
X97958333Y-72957200D01*
X97958333Y-72957200D02*
X98053571Y-73004819D01*
X98053571Y-73004819D02*
X98244047Y-73004819D01*
X98244047Y-73004819D02*
X98339285Y-72957200D01*
X98339285Y-72957200D02*
X98386904Y-72909580D01*
X98386904Y-72909580D02*
X98434523Y-72814342D01*
X98434523Y-72814342D02*
X98434523Y-72004819D01*
X99434523Y-73004819D02*
X98863095Y-73004819D01*
X99148809Y-73004819D02*
X99148809Y-72004819D01*
X99148809Y-72004819D02*
X99053571Y-72147676D01*
X99053571Y-72147676D02*
X98958333Y-72242914D01*
X98958333Y-72242914D02*
X98863095Y-72290533D01*
X86466666Y-150149819D02*
X86466666Y-150864104D01*
X86466666Y-150864104D02*
X86419047Y-151006961D01*
X86419047Y-151006961D02*
X86323809Y-151102200D01*
X86323809Y-151102200D02*
X86180952Y-151149819D01*
X86180952Y-151149819D02*
X86085714Y-151149819D01*
X86942857Y-151149819D02*
X86942857Y-150149819D01*
X86942857Y-150149819D02*
X87323809Y-150149819D01*
X87323809Y-150149819D02*
X87419047Y-150197438D01*
X87419047Y-150197438D02*
X87466666Y-150245057D01*
X87466666Y-150245057D02*
X87514285Y-150340295D01*
X87514285Y-150340295D02*
X87514285Y-150483152D01*
X87514285Y-150483152D02*
X87466666Y-150578390D01*
X87466666Y-150578390D02*
X87419047Y-150626009D01*
X87419047Y-150626009D02*
X87323809Y-150673628D01*
X87323809Y-150673628D02*
X86942857Y-150673628D01*
X88371428Y-150149819D02*
X88180952Y-150149819D01*
X88180952Y-150149819D02*
X88085714Y-150197438D01*
X88085714Y-150197438D02*
X88038095Y-150245057D01*
X88038095Y-150245057D02*
X87942857Y-150387914D01*
X87942857Y-150387914D02*
X87895238Y-150578390D01*
X87895238Y-150578390D02*
X87895238Y-150959342D01*
X87895238Y-150959342D02*
X87942857Y-151054580D01*
X87942857Y-151054580D02*
X87990476Y-151102200D01*
X87990476Y-151102200D02*
X88085714Y-151149819D01*
X88085714Y-151149819D02*
X88276190Y-151149819D01*
X88276190Y-151149819D02*
X88371428Y-151102200D01*
X88371428Y-151102200D02*
X88419047Y-151054580D01*
X88419047Y-151054580D02*
X88466666Y-150959342D01*
X88466666Y-150959342D02*
X88466666Y-150721247D01*
X88466666Y-150721247D02*
X88419047Y-150626009D01*
X88419047Y-150626009D02*
X88371428Y-150578390D01*
X88371428Y-150578390D02*
X88276190Y-150530771D01*
X88276190Y-150530771D02*
X88085714Y-150530771D01*
X88085714Y-150530771D02*
X87990476Y-150578390D01*
X87990476Y-150578390D02*
X87942857Y-150626009D01*
X87942857Y-150626009D02*
X87895238Y-150721247D01*
D11*
X62166666Y-96577419D02*
X62166666Y-97291704D01*
X62166666Y-97291704D02*
X62119047Y-97434561D01*
X62119047Y-97434561D02*
X62023809Y-97529800D01*
X62023809Y-97529800D02*
X61880952Y-97577419D01*
X61880952Y-97577419D02*
X61785714Y-97577419D01*
X62595238Y-96672657D02*
X62642857Y-96625038D01*
X62642857Y-96625038D02*
X62738095Y-96577419D01*
X62738095Y-96577419D02*
X62976190Y-96577419D01*
X62976190Y-96577419D02*
X63071428Y-96625038D01*
X63071428Y-96625038D02*
X63119047Y-96672657D01*
X63119047Y-96672657D02*
X63166666Y-96767895D01*
X63166666Y-96767895D02*
X63166666Y-96863133D01*
X63166666Y-96863133D02*
X63119047Y-97005990D01*
X63119047Y-97005990D02*
X62547619Y-97577419D01*
X62547619Y-97577419D02*
X63166666Y-97577419D01*
D10*
X63454819Y-119793333D02*
X64169104Y-119793333D01*
X64169104Y-119793333D02*
X64311961Y-119840952D01*
X64311961Y-119840952D02*
X64407200Y-119936190D01*
X64407200Y-119936190D02*
X64454819Y-120079047D01*
X64454819Y-120079047D02*
X64454819Y-120174285D01*
X64454819Y-118793333D02*
X64454819Y-119364761D01*
X64454819Y-119079047D02*
X63454819Y-119079047D01*
X63454819Y-119079047D02*
X63597676Y-119174285D01*
X63597676Y-119174285D02*
X63692914Y-119269523D01*
X63692914Y-119269523D02*
X63740533Y-119364761D01*
X88409580Y-97766666D02*
X88457200Y-97814285D01*
X88457200Y-97814285D02*
X88504819Y-97957142D01*
X88504819Y-97957142D02*
X88504819Y-98052380D01*
X88504819Y-98052380D02*
X88457200Y-98195237D01*
X88457200Y-98195237D02*
X88361961Y-98290475D01*
X88361961Y-98290475D02*
X88266723Y-98338094D01*
X88266723Y-98338094D02*
X88076247Y-98385713D01*
X88076247Y-98385713D02*
X87933390Y-98385713D01*
X87933390Y-98385713D02*
X87742914Y-98338094D01*
X87742914Y-98338094D02*
X87647676Y-98290475D01*
X87647676Y-98290475D02*
X87552438Y-98195237D01*
X87552438Y-98195237D02*
X87504819Y-98052380D01*
X87504819Y-98052380D02*
X87504819Y-97957142D01*
X87504819Y-97957142D02*
X87552438Y-97814285D01*
X87552438Y-97814285D02*
X87600057Y-97766666D01*
X87933390Y-97195237D02*
X87885771Y-97290475D01*
X87885771Y-97290475D02*
X87838152Y-97338094D01*
X87838152Y-97338094D02*
X87742914Y-97385713D01*
X87742914Y-97385713D02*
X87695295Y-97385713D01*
X87695295Y-97385713D02*
X87600057Y-97338094D01*
X87600057Y-97338094D02*
X87552438Y-97290475D01*
X87552438Y-97290475D02*
X87504819Y-97195237D01*
X87504819Y-97195237D02*
X87504819Y-97004761D01*
X87504819Y-97004761D02*
X87552438Y-96909523D01*
X87552438Y-96909523D02*
X87600057Y-96861904D01*
X87600057Y-96861904D02*
X87695295Y-96814285D01*
X87695295Y-96814285D02*
X87742914Y-96814285D01*
X87742914Y-96814285D02*
X87838152Y-96861904D01*
X87838152Y-96861904D02*
X87885771Y-96909523D01*
X87885771Y-96909523D02*
X87933390Y-97004761D01*
X87933390Y-97004761D02*
X87933390Y-97195237D01*
X87933390Y-97195237D02*
X87981009Y-97290475D01*
X87981009Y-97290475D02*
X88028628Y-97338094D01*
X88028628Y-97338094D02*
X88123866Y-97385713D01*
X88123866Y-97385713D02*
X88314342Y-97385713D01*
X88314342Y-97385713D02*
X88409580Y-97338094D01*
X88409580Y-97338094D02*
X88457200Y-97290475D01*
X88457200Y-97290475D02*
X88504819Y-97195237D01*
X88504819Y-97195237D02*
X88504819Y-97004761D01*
X88504819Y-97004761D02*
X88457200Y-96909523D01*
X88457200Y-96909523D02*
X88409580Y-96861904D01*
X88409580Y-96861904D02*
X88314342Y-96814285D01*
X88314342Y-96814285D02*
X88123866Y-96814285D01*
X88123866Y-96814285D02*
X88028628Y-96861904D01*
X88028628Y-96861904D02*
X87981009Y-96909523D01*
X87981009Y-96909523D02*
X87933390Y-97004761D01*
X80204819Y-86916666D02*
X79728628Y-87249999D01*
X80204819Y-87488094D02*
X79204819Y-87488094D01*
X79204819Y-87488094D02*
X79204819Y-87107142D01*
X79204819Y-87107142D02*
X79252438Y-87011904D01*
X79252438Y-87011904D02*
X79300057Y-86964285D01*
X79300057Y-86964285D02*
X79395295Y-86916666D01*
X79395295Y-86916666D02*
X79538152Y-86916666D01*
X79538152Y-86916666D02*
X79633390Y-86964285D01*
X79633390Y-86964285D02*
X79681009Y-87011904D01*
X79681009Y-87011904D02*
X79728628Y-87107142D01*
X79728628Y-87107142D02*
X79728628Y-87488094D01*
X79204819Y-86583332D02*
X79204819Y-85964285D01*
X79204819Y-85964285D02*
X79585771Y-86297618D01*
X79585771Y-86297618D02*
X79585771Y-86154761D01*
X79585771Y-86154761D02*
X79633390Y-86059523D01*
X79633390Y-86059523D02*
X79681009Y-86011904D01*
X79681009Y-86011904D02*
X79776247Y-85964285D01*
X79776247Y-85964285D02*
X80014342Y-85964285D01*
X80014342Y-85964285D02*
X80109580Y-86011904D01*
X80109580Y-86011904D02*
X80157200Y-86059523D01*
X80157200Y-86059523D02*
X80204819Y-86154761D01*
X80204819Y-86154761D02*
X80204819Y-86440475D01*
X80204819Y-86440475D02*
X80157200Y-86535713D01*
X80157200Y-86535713D02*
X80109580Y-86583332D01*
X62124819Y-165063333D02*
X62839104Y-165063333D01*
X62839104Y-165063333D02*
X62981961Y-165110952D01*
X62981961Y-165110952D02*
X63077200Y-165206190D01*
X63077200Y-165206190D02*
X63124819Y-165349047D01*
X63124819Y-165349047D02*
X63124819Y-165444285D01*
X62124819Y-164682380D02*
X62124819Y-164063333D01*
X62124819Y-164063333D02*
X62505771Y-164396666D01*
X62505771Y-164396666D02*
X62505771Y-164253809D01*
X62505771Y-164253809D02*
X62553390Y-164158571D01*
X62553390Y-164158571D02*
X62601009Y-164110952D01*
X62601009Y-164110952D02*
X62696247Y-164063333D01*
X62696247Y-164063333D02*
X62934342Y-164063333D01*
X62934342Y-164063333D02*
X63029580Y-164110952D01*
X63029580Y-164110952D02*
X63077200Y-164158571D01*
X63077200Y-164158571D02*
X63124819Y-164253809D01*
X63124819Y-164253809D02*
X63124819Y-164539523D01*
X63124819Y-164539523D02*
X63077200Y-164634761D01*
X63077200Y-164634761D02*
X63029580Y-164682380D01*
X80607142Y-129909580D02*
X80559523Y-129957200D01*
X80559523Y-129957200D02*
X80416666Y-130004819D01*
X80416666Y-130004819D02*
X80321428Y-130004819D01*
X80321428Y-130004819D02*
X80178571Y-129957200D01*
X80178571Y-129957200D02*
X80083333Y-129861961D01*
X80083333Y-129861961D02*
X80035714Y-129766723D01*
X80035714Y-129766723D02*
X79988095Y-129576247D01*
X79988095Y-129576247D02*
X79988095Y-129433390D01*
X79988095Y-129433390D02*
X80035714Y-129242914D01*
X80035714Y-129242914D02*
X80083333Y-129147676D01*
X80083333Y-129147676D02*
X80178571Y-129052438D01*
X80178571Y-129052438D02*
X80321428Y-129004819D01*
X80321428Y-129004819D02*
X80416666Y-129004819D01*
X80416666Y-129004819D02*
X80559523Y-129052438D01*
X80559523Y-129052438D02*
X80607142Y-129100057D01*
X81559523Y-130004819D02*
X80988095Y-130004819D01*
X81273809Y-130004819D02*
X81273809Y-129004819D01*
X81273809Y-129004819D02*
X81178571Y-129147676D01*
X81178571Y-129147676D02*
X81083333Y-129242914D01*
X81083333Y-129242914D02*
X80988095Y-129290533D01*
X82511904Y-130004819D02*
X81940476Y-130004819D01*
X82226190Y-130004819D02*
X82226190Y-129004819D01*
X82226190Y-129004819D02*
X82130952Y-129147676D01*
X82130952Y-129147676D02*
X82035714Y-129242914D01*
X82035714Y-129242914D02*
X81940476Y-129290533D01*
X76874819Y-115466666D02*
X76398628Y-115799999D01*
X76874819Y-116038094D02*
X75874819Y-116038094D01*
X75874819Y-116038094D02*
X75874819Y-115657142D01*
X75874819Y-115657142D02*
X75922438Y-115561904D01*
X75922438Y-115561904D02*
X75970057Y-115514285D01*
X75970057Y-115514285D02*
X76065295Y-115466666D01*
X76065295Y-115466666D02*
X76208152Y-115466666D01*
X76208152Y-115466666D02*
X76303390Y-115514285D01*
X76303390Y-115514285D02*
X76351009Y-115561904D01*
X76351009Y-115561904D02*
X76398628Y-115657142D01*
X76398628Y-115657142D02*
X76398628Y-116038094D01*
X76874819Y-114514285D02*
X76874819Y-115085713D01*
X76874819Y-114799999D02*
X75874819Y-114799999D01*
X75874819Y-114799999D02*
X76017676Y-114895237D01*
X76017676Y-114895237D02*
X76112914Y-114990475D01*
X76112914Y-114990475D02*
X76160533Y-115085713D01*
X86909580Y-73216666D02*
X86957200Y-73264285D01*
X86957200Y-73264285D02*
X87004819Y-73407142D01*
X87004819Y-73407142D02*
X87004819Y-73502380D01*
X87004819Y-73502380D02*
X86957200Y-73645237D01*
X86957200Y-73645237D02*
X86861961Y-73740475D01*
X86861961Y-73740475D02*
X86766723Y-73788094D01*
X86766723Y-73788094D02*
X86576247Y-73835713D01*
X86576247Y-73835713D02*
X86433390Y-73835713D01*
X86433390Y-73835713D02*
X86242914Y-73788094D01*
X86242914Y-73788094D02*
X86147676Y-73740475D01*
X86147676Y-73740475D02*
X86052438Y-73645237D01*
X86052438Y-73645237D02*
X86004819Y-73502380D01*
X86004819Y-73502380D02*
X86004819Y-73407142D01*
X86004819Y-73407142D02*
X86052438Y-73264285D01*
X86052438Y-73264285D02*
X86100057Y-73216666D01*
X86004819Y-72359523D02*
X86004819Y-72549999D01*
X86004819Y-72549999D02*
X86052438Y-72645237D01*
X86052438Y-72645237D02*
X86100057Y-72692856D01*
X86100057Y-72692856D02*
X86242914Y-72788094D01*
X86242914Y-72788094D02*
X86433390Y-72835713D01*
X86433390Y-72835713D02*
X86814342Y-72835713D01*
X86814342Y-72835713D02*
X86909580Y-72788094D01*
X86909580Y-72788094D02*
X86957200Y-72740475D01*
X86957200Y-72740475D02*
X87004819Y-72645237D01*
X87004819Y-72645237D02*
X87004819Y-72454761D01*
X87004819Y-72454761D02*
X86957200Y-72359523D01*
X86957200Y-72359523D02*
X86909580Y-72311904D01*
X86909580Y-72311904D02*
X86814342Y-72264285D01*
X86814342Y-72264285D02*
X86576247Y-72264285D01*
X86576247Y-72264285D02*
X86481009Y-72311904D01*
X86481009Y-72311904D02*
X86433390Y-72359523D01*
X86433390Y-72359523D02*
X86385771Y-72454761D01*
X86385771Y-72454761D02*
X86385771Y-72645237D01*
X86385771Y-72645237D02*
X86433390Y-72740475D01*
X86433390Y-72740475D02*
X86481009Y-72788094D01*
X86481009Y-72788094D02*
X86576247Y-72835713D01*
X53414819Y-145011904D02*
X54224342Y-145011904D01*
X54224342Y-145011904D02*
X54319580Y-144964285D01*
X54319580Y-144964285D02*
X54367200Y-144916666D01*
X54367200Y-144916666D02*
X54414819Y-144821428D01*
X54414819Y-144821428D02*
X54414819Y-144630952D01*
X54414819Y-144630952D02*
X54367200Y-144535714D01*
X54367200Y-144535714D02*
X54319580Y-144488095D01*
X54319580Y-144488095D02*
X54224342Y-144440476D01*
X54224342Y-144440476D02*
X53414819Y-144440476D01*
X53414819Y-143488095D02*
X53414819Y-143964285D01*
X53414819Y-143964285D02*
X53891009Y-144011904D01*
X53891009Y-144011904D02*
X53843390Y-143964285D01*
X53843390Y-143964285D02*
X53795771Y-143869047D01*
X53795771Y-143869047D02*
X53795771Y-143630952D01*
X53795771Y-143630952D02*
X53843390Y-143535714D01*
X53843390Y-143535714D02*
X53891009Y-143488095D01*
X53891009Y-143488095D02*
X53986247Y-143440476D01*
X53986247Y-143440476D02*
X54224342Y-143440476D01*
X54224342Y-143440476D02*
X54319580Y-143488095D01*
X54319580Y-143488095D02*
X54367200Y-143535714D01*
X54367200Y-143535714D02*
X54414819Y-143630952D01*
X54414819Y-143630952D02*
X54414819Y-143869047D01*
X54414819Y-143869047D02*
X54367200Y-143964285D01*
X54367200Y-143964285D02*
X54319580Y-144011904D01*
X76309580Y-77916666D02*
X76357200Y-77964285D01*
X76357200Y-77964285D02*
X76404819Y-78107142D01*
X76404819Y-78107142D02*
X76404819Y-78202380D01*
X76404819Y-78202380D02*
X76357200Y-78345237D01*
X76357200Y-78345237D02*
X76261961Y-78440475D01*
X76261961Y-78440475D02*
X76166723Y-78488094D01*
X76166723Y-78488094D02*
X75976247Y-78535713D01*
X75976247Y-78535713D02*
X75833390Y-78535713D01*
X75833390Y-78535713D02*
X75642914Y-78488094D01*
X75642914Y-78488094D02*
X75547676Y-78440475D01*
X75547676Y-78440475D02*
X75452438Y-78345237D01*
X75452438Y-78345237D02*
X75404819Y-78202380D01*
X75404819Y-78202380D02*
X75404819Y-78107142D01*
X75404819Y-78107142D02*
X75452438Y-77964285D01*
X75452438Y-77964285D02*
X75500057Y-77916666D01*
X76404819Y-76964285D02*
X76404819Y-77535713D01*
X76404819Y-77249999D02*
X75404819Y-77249999D01*
X75404819Y-77249999D02*
X75547676Y-77345237D01*
X75547676Y-77345237D02*
X75642914Y-77440475D01*
X75642914Y-77440475D02*
X75690533Y-77535713D01*
X72063333Y-81124819D02*
X71730000Y-80648628D01*
X71491905Y-81124819D02*
X71491905Y-80124819D01*
X71491905Y-80124819D02*
X71872857Y-80124819D01*
X71872857Y-80124819D02*
X71968095Y-80172438D01*
X71968095Y-80172438D02*
X72015714Y-80220057D01*
X72015714Y-80220057D02*
X72063333Y-80315295D01*
X72063333Y-80315295D02*
X72063333Y-80458152D01*
X72063333Y-80458152D02*
X72015714Y-80553390D01*
X72015714Y-80553390D02*
X71968095Y-80601009D01*
X71968095Y-80601009D02*
X71872857Y-80648628D01*
X71872857Y-80648628D02*
X71491905Y-80648628D01*
X72920476Y-80458152D02*
X72920476Y-81124819D01*
X72682381Y-80077200D02*
X72444286Y-80791485D01*
X72444286Y-80791485D02*
X73063333Y-80791485D01*
X111009580Y-142716666D02*
X111057200Y-142764285D01*
X111057200Y-142764285D02*
X111104819Y-142907142D01*
X111104819Y-142907142D02*
X111104819Y-143002380D01*
X111104819Y-143002380D02*
X111057200Y-143145237D01*
X111057200Y-143145237D02*
X110961961Y-143240475D01*
X110961961Y-143240475D02*
X110866723Y-143288094D01*
X110866723Y-143288094D02*
X110676247Y-143335713D01*
X110676247Y-143335713D02*
X110533390Y-143335713D01*
X110533390Y-143335713D02*
X110342914Y-143288094D01*
X110342914Y-143288094D02*
X110247676Y-143240475D01*
X110247676Y-143240475D02*
X110152438Y-143145237D01*
X110152438Y-143145237D02*
X110104819Y-143002380D01*
X110104819Y-143002380D02*
X110104819Y-142907142D01*
X110104819Y-142907142D02*
X110152438Y-142764285D01*
X110152438Y-142764285D02*
X110200057Y-142716666D01*
X110104819Y-142383332D02*
X110104819Y-141764285D01*
X110104819Y-141764285D02*
X110485771Y-142097618D01*
X110485771Y-142097618D02*
X110485771Y-141954761D01*
X110485771Y-141954761D02*
X110533390Y-141859523D01*
X110533390Y-141859523D02*
X110581009Y-141811904D01*
X110581009Y-141811904D02*
X110676247Y-141764285D01*
X110676247Y-141764285D02*
X110914342Y-141764285D01*
X110914342Y-141764285D02*
X111009580Y-141811904D01*
X111009580Y-141811904D02*
X111057200Y-141859523D01*
X111057200Y-141859523D02*
X111104819Y-141954761D01*
X111104819Y-141954761D02*
X111104819Y-142240475D01*
X111104819Y-142240475D02*
X111057200Y-142335713D01*
X111057200Y-142335713D02*
X111009580Y-142383332D01*
X61434819Y-74558333D02*
X62149104Y-74558333D01*
X62149104Y-74558333D02*
X62291961Y-74605952D01*
X62291961Y-74605952D02*
X62387200Y-74701190D01*
X62387200Y-74701190D02*
X62434819Y-74844047D01*
X62434819Y-74844047D02*
X62434819Y-74939285D01*
X61434819Y-73605952D02*
X61434819Y-74082142D01*
X61434819Y-74082142D02*
X61911009Y-74129761D01*
X61911009Y-74129761D02*
X61863390Y-74082142D01*
X61863390Y-74082142D02*
X61815771Y-73986904D01*
X61815771Y-73986904D02*
X61815771Y-73748809D01*
X61815771Y-73748809D02*
X61863390Y-73653571D01*
X61863390Y-73653571D02*
X61911009Y-73605952D01*
X61911009Y-73605952D02*
X62006247Y-73558333D01*
X62006247Y-73558333D02*
X62244342Y-73558333D01*
X62244342Y-73558333D02*
X62339580Y-73605952D01*
X62339580Y-73605952D02*
X62387200Y-73653571D01*
X62387200Y-73653571D02*
X62434819Y-73748809D01*
X62434819Y-73748809D02*
X62434819Y-73986904D01*
X62434819Y-73986904D02*
X62387200Y-74082142D01*
X62387200Y-74082142D02*
X62339580Y-74129761D01*
X84959580Y-102242857D02*
X85007200Y-102290476D01*
X85007200Y-102290476D02*
X85054819Y-102433333D01*
X85054819Y-102433333D02*
X85054819Y-102528571D01*
X85054819Y-102528571D02*
X85007200Y-102671428D01*
X85007200Y-102671428D02*
X84911961Y-102766666D01*
X84911961Y-102766666D02*
X84816723Y-102814285D01*
X84816723Y-102814285D02*
X84626247Y-102861904D01*
X84626247Y-102861904D02*
X84483390Y-102861904D01*
X84483390Y-102861904D02*
X84292914Y-102814285D01*
X84292914Y-102814285D02*
X84197676Y-102766666D01*
X84197676Y-102766666D02*
X84102438Y-102671428D01*
X84102438Y-102671428D02*
X84054819Y-102528571D01*
X84054819Y-102528571D02*
X84054819Y-102433333D01*
X84054819Y-102433333D02*
X84102438Y-102290476D01*
X84102438Y-102290476D02*
X84150057Y-102242857D01*
X85054819Y-101290476D02*
X85054819Y-101861904D01*
X85054819Y-101576190D02*
X84054819Y-101576190D01*
X84054819Y-101576190D02*
X84197676Y-101671428D01*
X84197676Y-101671428D02*
X84292914Y-101766666D01*
X84292914Y-101766666D02*
X84340533Y-101861904D01*
X84150057Y-100909523D02*
X84102438Y-100861904D01*
X84102438Y-100861904D02*
X84054819Y-100766666D01*
X84054819Y-100766666D02*
X84054819Y-100528571D01*
X84054819Y-100528571D02*
X84102438Y-100433333D01*
X84102438Y-100433333D02*
X84150057Y-100385714D01*
X84150057Y-100385714D02*
X84245295Y-100338095D01*
X84245295Y-100338095D02*
X84340533Y-100338095D01*
X84340533Y-100338095D02*
X84483390Y-100385714D01*
X84483390Y-100385714D02*
X85054819Y-100957142D01*
X85054819Y-100957142D02*
X85054819Y-100338095D01*
D12*
X125040000Y-123670000D02*
X125040000Y-159350000D01*
X125040000Y-159350000D02*
X130340000Y-159350000D01*
X126690000Y-123670000D02*
X125040000Y-123670000D01*
X130340000Y-123670000D02*
X128690000Y-123670000D01*
X130340000Y-159350000D02*
X130340000Y-123670000D01*
X126690000Y-123670000D02*
G75*
G03*
X128690000Y-123670000I1000000J0D01*
G01*
X66121000Y-129080000D02*
X67379000Y-129080000D01*
X66121000Y-130920000D02*
X67379000Y-130920000D01*
X134920000Y-125521000D02*
X134920000Y-126779000D01*
X133080000Y-125521000D02*
X133080000Y-126779000D01*
X108070000Y-146095000D02*
X109400000Y-146095000D01*
X108070000Y-147425000D02*
X108070000Y-146095000D01*
X108070000Y-148695000D02*
X108070000Y-151295000D01*
X108070000Y-148695000D02*
X110730000Y-148695000D01*
X108070000Y-151295000D02*
X110730000Y-151295000D01*
X110730000Y-148695000D02*
X110730000Y-151295000D01*
X80250000Y-123500000D02*
X81750000Y-123500000D01*
X84250000Y-122250000D02*
X84250000Y-117750000D01*
X77750000Y-117750000D02*
X77750000Y-122250000D01*
X81750000Y-116500000D02*
X80250000Y-116500000D01*
X83804775Y-112475000D02*
X83304775Y-112475000D01*
X83554775Y-112725000D02*
X83554775Y-112225000D01*
X81000000Y-113580000D02*
X81000000Y-108420000D01*
X80960000Y-113580000D02*
X80960000Y-108420000D01*
X80920000Y-113579000D02*
X80920000Y-108421000D01*
X80880000Y-113578000D02*
X80880000Y-108422000D01*
X80840000Y-113576000D02*
X80840000Y-108424000D01*
X80800000Y-113573000D02*
X80800000Y-108427000D01*
X80760000Y-113569000D02*
X80760000Y-112040000D01*
X80760000Y-109960000D02*
X80760000Y-108431000D01*
X80720000Y-113565000D02*
X80720000Y-112040000D01*
X80720000Y-109960000D02*
X80720000Y-108435000D01*
X80680000Y-113561000D02*
X80680000Y-112040000D01*
X80680000Y-109960000D02*
X80680000Y-108439000D01*
X80640000Y-113556000D02*
X80640000Y-112040000D01*
X80640000Y-109960000D02*
X80640000Y-108444000D01*
X80600000Y-113550000D02*
X80600000Y-112040000D01*
X80600000Y-109960000D02*
X80600000Y-108450000D01*
X80560000Y-113543000D02*
X80560000Y-112040000D01*
X80560000Y-109960000D02*
X80560000Y-108457000D01*
X80520000Y-113536000D02*
X80520000Y-112040000D01*
X80520000Y-109960000D02*
X80520000Y-108464000D01*
X80480000Y-113528000D02*
X80480000Y-112040000D01*
X80480000Y-109960000D02*
X80480000Y-108472000D01*
X80440000Y-113520000D02*
X80440000Y-112040000D01*
X80440000Y-109960000D02*
X80440000Y-108480000D01*
X80400000Y-113511000D02*
X80400000Y-112040000D01*
X80400000Y-109960000D02*
X80400000Y-108489000D01*
X80360000Y-113501000D02*
X80360000Y-112040000D01*
X80360000Y-109960000D02*
X80360000Y-108499000D01*
X80320000Y-113491000D02*
X80320000Y-112040000D01*
X80320000Y-109960000D02*
X80320000Y-108509000D01*
X80279000Y-113480000D02*
X80279000Y-112040000D01*
X80279000Y-109960000D02*
X80279000Y-108520000D01*
X80239000Y-113468000D02*
X80239000Y-112040000D01*
X80239000Y-109960000D02*
X80239000Y-108532000D01*
X80199000Y-113455000D02*
X80199000Y-112040000D01*
X80199000Y-109960000D02*
X80199000Y-108545000D01*
X80159000Y-113442000D02*
X80159000Y-112040000D01*
X80159000Y-109960000D02*
X80159000Y-108558000D01*
X80119000Y-113428000D02*
X80119000Y-112040000D01*
X80119000Y-109960000D02*
X80119000Y-108572000D01*
X80079000Y-113414000D02*
X80079000Y-112040000D01*
X80079000Y-109960000D02*
X80079000Y-108586000D01*
X80039000Y-113398000D02*
X80039000Y-112040000D01*
X80039000Y-109960000D02*
X80039000Y-108602000D01*
X79999000Y-113382000D02*
X79999000Y-112040000D01*
X79999000Y-109960000D02*
X79999000Y-108618000D01*
X79959000Y-113365000D02*
X79959000Y-112040000D01*
X79959000Y-109960000D02*
X79959000Y-108635000D01*
X79919000Y-113348000D02*
X79919000Y-112040000D01*
X79919000Y-109960000D02*
X79919000Y-108652000D01*
X79879000Y-113329000D02*
X79879000Y-112040000D01*
X79879000Y-109960000D02*
X79879000Y-108671000D01*
X79839000Y-113310000D02*
X79839000Y-112040000D01*
X79839000Y-109960000D02*
X79839000Y-108690000D01*
X79799000Y-113290000D02*
X79799000Y-112040000D01*
X79799000Y-109960000D02*
X79799000Y-108710000D01*
X79759000Y-113268000D02*
X79759000Y-112040000D01*
X79759000Y-109960000D02*
X79759000Y-108732000D01*
X79719000Y-113247000D02*
X79719000Y-112040000D01*
X79719000Y-109960000D02*
X79719000Y-108753000D01*
X79679000Y-113224000D02*
X79679000Y-112040000D01*
X79679000Y-109960000D02*
X79679000Y-108776000D01*
X79639000Y-113200000D02*
X79639000Y-112040000D01*
X79639000Y-109960000D02*
X79639000Y-108800000D01*
X79599000Y-113175000D02*
X79599000Y-112040000D01*
X79599000Y-109960000D02*
X79599000Y-108825000D01*
X79559000Y-113149000D02*
X79559000Y-112040000D01*
X79559000Y-109960000D02*
X79559000Y-108851000D01*
X79519000Y-113122000D02*
X79519000Y-112040000D01*
X79519000Y-109960000D02*
X79519000Y-108878000D01*
X79479000Y-113095000D02*
X79479000Y-112040000D01*
X79479000Y-109960000D02*
X79479000Y-108905000D01*
X79439000Y-113065000D02*
X79439000Y-112040000D01*
X79439000Y-109960000D02*
X79439000Y-108935000D01*
X79399000Y-113035000D02*
X79399000Y-112040000D01*
X79399000Y-109960000D02*
X79399000Y-108965000D01*
X79359000Y-113004000D02*
X79359000Y-112040000D01*
X79359000Y-109960000D02*
X79359000Y-108996000D01*
X79319000Y-112971000D02*
X79319000Y-112040000D01*
X79319000Y-109960000D02*
X79319000Y-109029000D01*
X79279000Y-112937000D02*
X79279000Y-112040000D01*
X79279000Y-109960000D02*
X79279000Y-109063000D01*
X79239000Y-112901000D02*
X79239000Y-112040000D01*
X79239000Y-109960000D02*
X79239000Y-109099000D01*
X79199000Y-112864000D02*
X79199000Y-112040000D01*
X79199000Y-109960000D02*
X79199000Y-109136000D01*
X79159000Y-112826000D02*
X79159000Y-112040000D01*
X79159000Y-109960000D02*
X79159000Y-109174000D01*
X79119000Y-112785000D02*
X79119000Y-112040000D01*
X79119000Y-109960000D02*
X79119000Y-109215000D01*
X79079000Y-112743000D02*
X79079000Y-112040000D01*
X79079000Y-109960000D02*
X79079000Y-109257000D01*
X79039000Y-112699000D02*
X79039000Y-112040000D01*
X79039000Y-109960000D02*
X79039000Y-109301000D01*
X78999000Y-112653000D02*
X78999000Y-112040000D01*
X78999000Y-109960000D02*
X78999000Y-109347000D01*
X78959000Y-112605000D02*
X78959000Y-112040000D01*
X78959000Y-109960000D02*
X78959000Y-109395000D01*
X78919000Y-112554000D02*
X78919000Y-112040000D01*
X78919000Y-109960000D02*
X78919000Y-109446000D01*
X78879000Y-112500000D02*
X78879000Y-112040000D01*
X78879000Y-109960000D02*
X78879000Y-109500000D01*
X78839000Y-112443000D02*
X78839000Y-112040000D01*
X78839000Y-109960000D02*
X78839000Y-109557000D01*
X78799000Y-112383000D02*
X78799000Y-112040000D01*
X78799000Y-109960000D02*
X78799000Y-109617000D01*
X78759000Y-112319000D02*
X78759000Y-112040000D01*
X78759000Y-109960000D02*
X78759000Y-109681000D01*
X78719000Y-112251000D02*
X78719000Y-112040000D01*
X78719000Y-109960000D02*
X78719000Y-109749000D01*
X78679000Y-112178000D02*
X78679000Y-109822000D01*
X78639000Y-112098000D02*
X78639000Y-109902000D01*
X78599000Y-112011000D02*
X78599000Y-109989000D01*
X78559000Y-111915000D02*
X78559000Y-110085000D01*
X78519000Y-111805000D02*
X78519000Y-110195000D01*
X78479000Y-111677000D02*
X78479000Y-110323000D01*
X78439000Y-111518000D02*
X78439000Y-110482000D01*
X78399000Y-111284000D02*
X78399000Y-110716000D01*
X83620000Y-111000000D02*
G75*
G03*
X78380000Y-111000000I-2620000J0D01*
G01*
X78380000Y-111000000D02*
G75*
G03*
X83620000Y-111000000I2620000J0D01*
G01*
X141520000Y-83971000D02*
X141520000Y-85229000D01*
X139680000Y-83971000D02*
X139680000Y-85229000D01*
X64670000Y-120730000D02*
X64670000Y-123330000D01*
X64670000Y-120730000D02*
X67330000Y-120730000D01*
X64670000Y-123330000D02*
X67330000Y-123330000D01*
X66000000Y-118130000D02*
X67330000Y-118130000D01*
X67330000Y-118130000D02*
X67330000Y-119460000D01*
X67330000Y-120730000D02*
X67330000Y-123330000D01*
X147330000Y-147410000D02*
X146000000Y-147410000D01*
X147330000Y-146080000D02*
X147330000Y-147410000D01*
X147330000Y-144810000D02*
X147330000Y-129510000D01*
X147330000Y-144810000D02*
X144730000Y-144810000D01*
X147330000Y-129510000D02*
X142130000Y-129510000D01*
X144730000Y-147410000D02*
X142130000Y-147410000D01*
X144730000Y-144810000D02*
X144730000Y-147410000D01*
X142130000Y-147410000D02*
X142130000Y-129510000D01*
X109400000Y-153920000D02*
X109400000Y-154540000D01*
X110320000Y-153000000D02*
G75*
G03*
X108480000Y-153000000I-920000J0D01*
G01*
X108480000Y-153000000D02*
G75*
G03*
X110320000Y-153000000I920000J0D01*
G01*
X80725000Y-87425000D02*
X80725000Y-81175000D01*
X85775000Y-87425000D02*
X85775000Y-81175000D01*
X80725000Y-87425000D02*
G75*
G03*
X85775000Y-87425000I2525000J0D01*
G01*
X85775000Y-81175000D02*
G75*
G03*
X80725000Y-81175000I-2525000J0D01*
G01*
X114310000Y-82030000D02*
X114310000Y-79490000D01*
X115330000Y-70100000D02*
X115330000Y-71960000D01*
X115330000Y-76860000D02*
X115330000Y-120700000D01*
X115330000Y-120700000D02*
X138430000Y-120700000D01*
X117610000Y-70100000D02*
X117610000Y-72360000D01*
X138430000Y-70100000D02*
X115330000Y-70100000D01*
X138430000Y-120700000D02*
X138430000Y-70100000D01*
X116960000Y-74410000D02*
G75*
G03*
X115160000Y-74410000I-900000J0D01*
G01*
X115160000Y-74410000D02*
G75*
G03*
X116960000Y-74410000I900000J0D01*
G01*
X118610000Y-74410000D02*
G75*
G03*
X113510000Y-74410000I-2550000J0D01*
G01*
X113510000Y-74410000D02*
G75*
G03*
X118610000Y-74410000I2550000J0D01*
G01*
X105080000Y-159390000D02*
X105080000Y-108470000D01*
X105080000Y-108470000D02*
X92160000Y-108470000D01*
X99620000Y-159390000D02*
X105080000Y-159390000D01*
X92160000Y-159390000D02*
X97620000Y-159390000D01*
X92160000Y-108470000D02*
X92160000Y-159390000D01*
X99620000Y-159390000D02*
G75*
G03*
X97620000Y-159390000I-1000000J0D01*
G01*
X70685000Y-73014000D02*
X70685000Y-73170000D01*
X70685000Y-75330000D02*
X70685000Y-75486000D01*
X73917334Y-73171392D02*
G75*
G03*
X70685001Y-73014485I-1672334J-1078608D01*
G01*
X73286129Y-73170164D02*
G75*
G03*
X71204040Y-73170001I-1041129J-1079836D01*
G01*
X71204040Y-75329999D02*
G75*
G03*
X73286129Y-75329836I1040960J1079999D01*
G01*
X70685001Y-75485515D02*
G75*
G03*
X73917334Y-75328608I1559999J1235515D01*
G01*
X109500000Y-77730000D02*
X109500000Y-78380000D01*
X110620000Y-78380000D02*
X108380000Y-78380000D01*
X108380000Y-78380000D02*
X108380000Y-82620000D01*
X110620000Y-78980000D02*
X108380000Y-78980000D01*
X110620000Y-79100000D02*
X108380000Y-79100000D01*
X110620000Y-79220000D02*
X108380000Y-79220000D01*
X110620000Y-82620000D02*
X110620000Y-78380000D01*
X108380000Y-82620000D02*
X110620000Y-82620000D01*
X109500000Y-83270000D02*
X109500000Y-82620000D01*
X85970000Y-143295000D02*
X87300000Y-143295000D01*
X85970000Y-144625000D02*
X85970000Y-143295000D01*
X85970000Y-145895000D02*
X85970000Y-148495000D01*
X85970000Y-145895000D02*
X88630000Y-145895000D01*
X85970000Y-148495000D02*
X88630000Y-148495000D01*
X88630000Y-145895000D02*
X88630000Y-148495000D01*
X92160000Y-70470000D02*
X92160000Y-106150000D01*
X92160000Y-106150000D02*
X105080000Y-106150000D01*
X97620000Y-70470000D02*
X92160000Y-70470000D01*
X105080000Y-70470000D02*
X99620000Y-70470000D01*
X105080000Y-106150000D02*
X105080000Y-70470000D01*
X97620000Y-70470000D02*
G75*
G03*
X99620000Y-70470000I1000000J0D01*
G01*
X85970000Y-151695000D02*
X87300000Y-151695000D01*
X85970000Y-153025000D02*
X85970000Y-151695000D01*
X85970000Y-154295000D02*
X85970000Y-156895000D01*
X85970000Y-154295000D02*
X88630000Y-154295000D01*
X85970000Y-156895000D02*
X88630000Y-156895000D01*
X88630000Y-154295000D02*
X88630000Y-156895000D01*
X47300000Y-126960000D02*
X47300000Y-111960000D01*
X62300000Y-126960000D02*
X47300000Y-126960000D01*
X47500000Y-119460000D02*
X48500000Y-120460000D01*
X47500000Y-119460000D02*
X48500000Y-118460000D01*
X47300000Y-111960000D02*
X62300000Y-111960000D01*
X62300000Y-111960000D02*
X62300000Y-126960000D01*
X86920000Y-96971000D02*
X86920000Y-98229000D01*
X85080000Y-96971000D02*
X85080000Y-98229000D01*
X78920000Y-82380000D02*
X78920000Y-86220000D01*
X77080000Y-82380000D02*
X77080000Y-86220000D01*
X64110000Y-167330000D02*
X132810000Y-167330000D01*
X64110000Y-167330000D02*
X64110000Y-164730000D01*
X132810000Y-167330000D02*
X132810000Y-162130000D01*
X64110000Y-164730000D02*
X66710000Y-164730000D01*
X66710000Y-164730000D02*
X66710000Y-162130000D01*
X64110000Y-163460000D02*
X64110000Y-162130000D01*
X64110000Y-162130000D02*
X65440000Y-162130000D01*
X66710000Y-162130000D02*
X132810000Y-162130000D01*
X81879000Y-128420000D02*
X80621000Y-128420000D01*
X81879000Y-126580000D02*
X80621000Y-126580000D01*
X74500000Y-114950000D02*
X74500000Y-115570000D01*
X75420000Y-114030000D02*
G75*
G03*
X73580000Y-114030000I-920000J0D01*
G01*
X73580000Y-114030000D02*
G75*
G03*
X75420000Y-114030000I920000J0D01*
G01*
X87680000Y-73679000D02*
X87680000Y-72421000D01*
X89520000Y-73679000D02*
X89520000Y-72421000D01*
X55860000Y-156100000D02*
X78560000Y-156100000D01*
X78560000Y-156100000D02*
X78560000Y-132400000D01*
X54860000Y-155100000D02*
X55860000Y-156100000D01*
X54860000Y-145250000D02*
X54860000Y-155100000D01*
X54860000Y-132400000D02*
X54860000Y-143250000D01*
X78560000Y-132400000D02*
X54860000Y-132400000D01*
X77080000Y-78379000D02*
X77080000Y-77121000D01*
X78920000Y-78379000D02*
X78920000Y-77121000D01*
X72580000Y-78750000D02*
X71960000Y-78750000D01*
X74420000Y-78750000D02*
G75*
G03*
X72580000Y-78750000I-920000J0D01*
G01*
X72580000Y-78750000D02*
G75*
G03*
X74420000Y-78750000I920000J0D01*
G01*
X109520000Y-141921000D02*
X109520000Y-143179000D01*
X107680000Y-141921000D02*
X107680000Y-143179000D01*
X66020000Y-75555000D02*
X68620000Y-75555000D01*
X66020000Y-75555000D02*
X66020000Y-72895000D01*
X68620000Y-75555000D02*
X68620000Y-72895000D01*
X63420000Y-74225000D02*
X63420000Y-72895000D01*
X63420000Y-72895000D02*
X64750000Y-72895000D01*
X66020000Y-72895000D02*
X68620000Y-72895000D01*
X82475000Y-94740113D02*
X82475000Y-95240113D01*
X82725000Y-94990113D02*
X82225000Y-94990113D01*
X83580000Y-97544888D02*
X78420000Y-97544888D01*
X83580000Y-97584888D02*
X78420000Y-97584888D01*
X83579000Y-97624888D02*
X78421000Y-97624888D01*
X83578000Y-97664888D02*
X78422000Y-97664888D01*
X83576000Y-97704888D02*
X78424000Y-97704888D01*
X83573000Y-97744888D02*
X78427000Y-97744888D01*
X83569000Y-97784888D02*
X82040000Y-97784888D01*
X79960000Y-97784888D02*
X78431000Y-97784888D01*
X83565000Y-97824888D02*
X82040000Y-97824888D01*
X79960000Y-97824888D02*
X78435000Y-97824888D01*
X83561000Y-97864888D02*
X82040000Y-97864888D01*
X79960000Y-97864888D02*
X78439000Y-97864888D01*
X83556000Y-97904888D02*
X82040000Y-97904888D01*
X79960000Y-97904888D02*
X78444000Y-97904888D01*
X83550000Y-97944888D02*
X82040000Y-97944888D01*
X79960000Y-97944888D02*
X78450000Y-97944888D01*
X83543000Y-97984888D02*
X82040000Y-97984888D01*
X79960000Y-97984888D02*
X78457000Y-97984888D01*
X83536000Y-98024888D02*
X82040000Y-98024888D01*
X79960000Y-98024888D02*
X78464000Y-98024888D01*
X83528000Y-98064888D02*
X82040000Y-98064888D01*
X79960000Y-98064888D02*
X78472000Y-98064888D01*
X83520000Y-98104888D02*
X82040000Y-98104888D01*
X79960000Y-98104888D02*
X78480000Y-98104888D01*
X83511000Y-98144888D02*
X82040000Y-98144888D01*
X79960000Y-98144888D02*
X78489000Y-98144888D01*
X83501000Y-98184888D02*
X82040000Y-98184888D01*
X79960000Y-98184888D02*
X78499000Y-98184888D01*
X83491000Y-98224888D02*
X82040000Y-98224888D01*
X79960000Y-98224888D02*
X78509000Y-98224888D01*
X83480000Y-98265888D02*
X82040000Y-98265888D01*
X79960000Y-98265888D02*
X78520000Y-98265888D01*
X83468000Y-98305888D02*
X82040000Y-98305888D01*
X79960000Y-98305888D02*
X78532000Y-98305888D01*
X83455000Y-98345888D02*
X82040000Y-98345888D01*
X79960000Y-98345888D02*
X78545000Y-98345888D01*
X83442000Y-98385888D02*
X82040000Y-98385888D01*
X79960000Y-98385888D02*
X78558000Y-98385888D01*
X83428000Y-98425888D02*
X82040000Y-98425888D01*
X79960000Y-98425888D02*
X78572000Y-98425888D01*
X83414000Y-98465888D02*
X82040000Y-98465888D01*
X79960000Y-98465888D02*
X78586000Y-98465888D01*
X83398000Y-98505888D02*
X82040000Y-98505888D01*
X79960000Y-98505888D02*
X78602000Y-98505888D01*
X83382000Y-98545888D02*
X82040000Y-98545888D01*
X79960000Y-98545888D02*
X78618000Y-98545888D01*
X83365000Y-98585888D02*
X82040000Y-98585888D01*
X79960000Y-98585888D02*
X78635000Y-98585888D01*
X83348000Y-98625888D02*
X82040000Y-98625888D01*
X79960000Y-98625888D02*
X78652000Y-98625888D01*
X83329000Y-98665888D02*
X82040000Y-98665888D01*
X79960000Y-98665888D02*
X78671000Y-98665888D01*
X83310000Y-98705888D02*
X82040000Y-98705888D01*
X79960000Y-98705888D02*
X78690000Y-98705888D01*
X83290000Y-98745888D02*
X82040000Y-98745888D01*
X79960000Y-98745888D02*
X78710000Y-98745888D01*
X83268000Y-98785888D02*
X82040000Y-98785888D01*
X79960000Y-98785888D02*
X78732000Y-98785888D01*
X83247000Y-98825888D02*
X82040000Y-98825888D01*
X79960000Y-98825888D02*
X78753000Y-98825888D01*
X83224000Y-98865888D02*
X82040000Y-98865888D01*
X79960000Y-98865888D02*
X78776000Y-98865888D01*
X83200000Y-98905888D02*
X82040000Y-98905888D01*
X79960000Y-98905888D02*
X78800000Y-98905888D01*
X83175000Y-98945888D02*
X82040000Y-98945888D01*
X79960000Y-98945888D02*
X78825000Y-98945888D01*
X83149000Y-98985888D02*
X82040000Y-98985888D01*
X79960000Y-98985888D02*
X78851000Y-98985888D01*
X83122000Y-99025888D02*
X82040000Y-99025888D01*
X79960000Y-99025888D02*
X78878000Y-99025888D01*
X83095000Y-99065888D02*
X82040000Y-99065888D01*
X79960000Y-99065888D02*
X78905000Y-99065888D01*
X83065000Y-99105888D02*
X82040000Y-99105888D01*
X79960000Y-99105888D02*
X78935000Y-99105888D01*
X83035000Y-99145888D02*
X82040000Y-99145888D01*
X79960000Y-99145888D02*
X78965000Y-99145888D01*
X83004000Y-99185888D02*
X82040000Y-99185888D01*
X79960000Y-99185888D02*
X78996000Y-99185888D01*
X82971000Y-99225888D02*
X82040000Y-99225888D01*
X79960000Y-99225888D02*
X79029000Y-99225888D01*
X82937000Y-99265888D02*
X82040000Y-99265888D01*
X79960000Y-99265888D02*
X79063000Y-99265888D01*
X82901000Y-99305888D02*
X82040000Y-99305888D01*
X79960000Y-99305888D02*
X79099000Y-99305888D01*
X82864000Y-99345888D02*
X82040000Y-99345888D01*
X79960000Y-99345888D02*
X79136000Y-99345888D01*
X82826000Y-99385888D02*
X82040000Y-99385888D01*
X79960000Y-99385888D02*
X79174000Y-99385888D01*
X82785000Y-99425888D02*
X82040000Y-99425888D01*
X79960000Y-99425888D02*
X79215000Y-99425888D01*
X82743000Y-99465888D02*
X82040000Y-99465888D01*
X79960000Y-99465888D02*
X79257000Y-99465888D01*
X82699000Y-99505888D02*
X82040000Y-99505888D01*
X79960000Y-99505888D02*
X79301000Y-99505888D01*
X82653000Y-99545888D02*
X82040000Y-99545888D01*
X79960000Y-99545888D02*
X79347000Y-99545888D01*
X82605000Y-99585888D02*
X82040000Y-99585888D01*
X79960000Y-99585888D02*
X79395000Y-99585888D01*
X82554000Y-99625888D02*
X82040000Y-99625888D01*
X79960000Y-99625888D02*
X79446000Y-99625888D01*
X82500000Y-99665888D02*
X82040000Y-99665888D01*
X79960000Y-99665888D02*
X79500000Y-99665888D01*
X82443000Y-99705888D02*
X82040000Y-99705888D01*
X79960000Y-99705888D02*
X79557000Y-99705888D01*
X82383000Y-99745888D02*
X82040000Y-99745888D01*
X79960000Y-99745888D02*
X79617000Y-99745888D01*
X82319000Y-99785888D02*
X82040000Y-99785888D01*
X79960000Y-99785888D02*
X79681000Y-99785888D01*
X82251000Y-99825888D02*
X82040000Y-99825888D01*
X79960000Y-99825888D02*
X79749000Y-99825888D01*
X82178000Y-99865888D02*
X79822000Y-99865888D01*
X82098000Y-99905888D02*
X79902000Y-99905888D01*
X82011000Y-99945888D02*
X79989000Y-99945888D01*
X81915000Y-99985888D02*
X80085000Y-99985888D01*
X81805000Y-100025888D02*
X80195000Y-100025888D01*
X81677000Y-100065888D02*
X80323000Y-100065888D01*
X81518000Y-100105888D02*
X80482000Y-100105888D01*
X81284000Y-100145888D02*
X80716000Y-100145888D01*
X83620000Y-97544888D02*
G75*
G03*
X78380000Y-97544888I-2620000J0D01*
G01*
X78380000Y-97544888D02*
G75*
G03*
X83620000Y-97544888I2620000J0D01*
G01*
%LPC*%
D13*
X123880000Y-125000000D03*
D14*
X123880000Y-127540000D03*
X123880000Y-130080000D03*
X123880000Y-132620000D03*
X123880000Y-135160000D03*
X123880000Y-137700000D03*
X123880000Y-140240000D03*
X123880000Y-142780000D03*
X123880000Y-145320000D03*
X123880000Y-147860000D03*
X123880000Y-150400000D03*
X123880000Y-152940000D03*
X123880000Y-155480000D03*
X123880000Y-158020000D03*
X131500000Y-158020000D03*
X131500000Y-155480000D03*
X131500000Y-152940000D03*
X131500000Y-150400000D03*
X131500000Y-147860000D03*
X131500000Y-145320000D03*
X131500000Y-142780000D03*
X131500000Y-140240000D03*
X131500000Y-137700000D03*
X131500000Y-135160000D03*
X131500000Y-132620000D03*
X131500000Y-130080000D03*
X131500000Y-127540000D03*
X131500000Y-125000000D03*
D15*
X65500000Y-130000000D03*
X68000000Y-130000000D03*
D16*
X55000000Y-74000000D03*
D15*
X134000000Y-124900000D03*
X134000000Y-127400000D03*
D17*
X109400000Y-147425000D03*
D18*
X109400000Y-149965000D03*
D19*
X78750000Y-123250000D03*
X78750000Y-116750000D03*
X83250000Y-123250000D03*
X83250000Y-116750000D03*
D13*
X82250000Y-111000000D03*
D15*
X79750000Y-111000000D03*
X140600000Y-83350000D03*
X140600000Y-85850000D03*
D17*
X66000000Y-119460000D03*
D18*
X66000000Y-122000000D03*
D17*
X146000000Y-146080000D03*
D18*
X143460000Y-146080000D03*
X146000000Y-143540000D03*
X143460000Y-143540000D03*
X146000000Y-141000000D03*
X143460000Y-141000000D03*
X146000000Y-138460000D03*
X143460000Y-138460000D03*
X146000000Y-135920000D03*
X143460000Y-135920000D03*
X146000000Y-133380000D03*
X143460000Y-133380000D03*
X146000000Y-130840000D03*
X143460000Y-130840000D03*
D16*
X55000000Y-164000000D03*
D20*
X109400000Y-153000000D03*
D21*
X109400000Y-155540000D03*
D16*
X145000000Y-164000000D03*
D22*
X83250000Y-86750000D03*
X83250000Y-81850000D03*
D23*
X119260000Y-80760000D03*
D24*
X119260000Y-83300000D03*
X119260000Y-85840000D03*
X119260000Y-88380000D03*
X119260000Y-90920000D03*
X119260000Y-93460000D03*
X119260000Y-96000000D03*
X119260000Y-98540000D03*
X119260000Y-101080000D03*
X119260000Y-103620000D03*
X119260000Y-106160000D03*
X119260000Y-108700000D03*
X119260000Y-111240000D03*
X119260000Y-113780000D03*
X134500000Y-113780000D03*
X134500000Y-111240000D03*
X134500000Y-108700000D03*
X134500000Y-106160000D03*
X134500000Y-103620000D03*
X134500000Y-101080000D03*
X134500000Y-98540000D03*
X134500000Y-96000000D03*
X134500000Y-93460000D03*
X134500000Y-90920000D03*
X134500000Y-88380000D03*
X134500000Y-85840000D03*
X134500000Y-83300000D03*
X134500000Y-80760000D03*
D13*
X106240000Y-158060000D03*
D14*
X106240000Y-155520000D03*
X106240000Y-152980000D03*
X106240000Y-150440000D03*
X106240000Y-147900000D03*
X106240000Y-145360000D03*
X106240000Y-142820000D03*
X106240000Y-140280000D03*
X106240000Y-137740000D03*
X106240000Y-135200000D03*
X106240000Y-132660000D03*
X106240000Y-130120000D03*
X106240000Y-127580000D03*
X106240000Y-125040000D03*
X106240000Y-122500000D03*
X106240000Y-119960000D03*
X106240000Y-117420000D03*
X106240000Y-114880000D03*
X106240000Y-112340000D03*
X106240000Y-109800000D03*
X91000000Y-109800000D03*
X91000000Y-112340000D03*
X91000000Y-114880000D03*
X91000000Y-117420000D03*
X91000000Y-119960000D03*
X91000000Y-122500000D03*
X91000000Y-125040000D03*
X91000000Y-127580000D03*
X91000000Y-130120000D03*
X91000000Y-132660000D03*
X91000000Y-135200000D03*
X91000000Y-137740000D03*
X91000000Y-140280000D03*
X91000000Y-142820000D03*
X91000000Y-145360000D03*
X91000000Y-147900000D03*
X91000000Y-150440000D03*
X91000000Y-152980000D03*
X91000000Y-155520000D03*
X91000000Y-158060000D03*
D25*
X70975000Y-74250000D03*
D26*
X73515000Y-74250000D03*
D13*
X109500000Y-76690000D03*
D14*
X109500000Y-84310000D03*
D16*
X145000000Y-74000000D03*
D17*
X87300000Y-144625000D03*
D18*
X87300000Y-147165000D03*
D13*
X91000000Y-71800000D03*
D14*
X91000000Y-74340000D03*
X91000000Y-76880000D03*
X91000000Y-79420000D03*
X91000000Y-81960000D03*
X91000000Y-84500000D03*
X91000000Y-87040000D03*
X91000000Y-89580000D03*
X91000000Y-92120000D03*
X91000000Y-94660000D03*
X91000000Y-97200000D03*
X91000000Y-99740000D03*
X91000000Y-102280000D03*
X91000000Y-104820000D03*
X106240000Y-104820000D03*
X106240000Y-102280000D03*
X106240000Y-99740000D03*
X106240000Y-97200000D03*
X106240000Y-94660000D03*
X106240000Y-92120000D03*
X106240000Y-89580000D03*
X106240000Y-87040000D03*
X106240000Y-84500000D03*
X106240000Y-81960000D03*
X106240000Y-79420000D03*
X106240000Y-76880000D03*
X106240000Y-74340000D03*
X106240000Y-71800000D03*
D17*
X87300000Y-153025000D03*
D18*
X87300000Y-155565000D03*
D27*
X54880000Y-89500000D03*
X70120000Y-89500000D03*
X54880000Y-102200000D03*
X70120000Y-102200000D03*
D28*
X60000000Y-119460000D03*
D29*
X54920000Y-124540000D03*
D28*
X60000000Y-122000000D03*
D29*
X54920000Y-114380000D03*
D15*
X86000000Y-96350000D03*
X86000000Y-98850000D03*
D20*
X78000000Y-81760000D03*
D21*
X78000000Y-86840000D03*
D17*
X65440000Y-163460000D03*
D18*
X65440000Y-166000000D03*
X67980000Y-163460000D03*
X67980000Y-166000000D03*
X70520000Y-163460000D03*
X70520000Y-166000000D03*
X73060000Y-163460000D03*
X73060000Y-166000000D03*
X75600000Y-163460000D03*
X75600000Y-166000000D03*
X78140000Y-163460000D03*
X78140000Y-166000000D03*
X80680000Y-163460000D03*
X80680000Y-166000000D03*
X83220000Y-163460000D03*
X83220000Y-166000000D03*
X85760000Y-163460000D03*
X85760000Y-166000000D03*
X88300000Y-163460000D03*
X88300000Y-166000000D03*
X90840000Y-163460000D03*
X90840000Y-166000000D03*
X93380000Y-163460000D03*
X93380000Y-166000000D03*
X95920000Y-163460000D03*
X95920000Y-166000000D03*
X98460000Y-163460000D03*
X98460000Y-166000000D03*
X101000000Y-163460000D03*
X101000000Y-166000000D03*
X103540000Y-163460000D03*
X103540000Y-166000000D03*
X106080000Y-163460000D03*
X106080000Y-166000000D03*
X108620000Y-163460000D03*
X108620000Y-166000000D03*
X111160000Y-163460000D03*
X111160000Y-166000000D03*
X113700000Y-163460000D03*
X113700000Y-166000000D03*
X116240000Y-163460000D03*
X116240000Y-166000000D03*
X118780000Y-163460000D03*
X118780000Y-166000000D03*
X121320000Y-163460000D03*
X121320000Y-166000000D03*
X123860000Y-163460000D03*
X123860000Y-166000000D03*
X126400000Y-163460000D03*
X126400000Y-166000000D03*
X128940000Y-163460000D03*
X128940000Y-166000000D03*
X131480000Y-163460000D03*
X131480000Y-166000000D03*
D15*
X82500000Y-127500000D03*
X80000000Y-127500000D03*
D20*
X74500000Y-114030000D03*
D21*
X74500000Y-116570000D03*
D15*
X88600000Y-74300000D03*
X88600000Y-71800000D03*
D30*
X60360000Y-142980000D03*
D31*
X57820000Y-145520000D03*
X60360000Y-145520000D03*
X57820000Y-148060000D03*
X60360000Y-148060000D03*
X57820000Y-150600000D03*
X60360000Y-153140000D03*
X60360000Y-150600000D03*
X62900000Y-153140000D03*
X62900000Y-150600000D03*
X65440000Y-153140000D03*
X65440000Y-150600000D03*
X67980000Y-153140000D03*
X67980000Y-150600000D03*
X70520000Y-153140000D03*
X70520000Y-150600000D03*
X73060000Y-153140000D03*
X75600000Y-150600000D03*
X73060000Y-150600000D03*
X75600000Y-148060000D03*
X73060000Y-148060000D03*
X75600000Y-145520000D03*
X73060000Y-145520000D03*
X75600000Y-142980000D03*
X73060000Y-142980000D03*
X75600000Y-140440000D03*
X73060000Y-140440000D03*
X75600000Y-137900000D03*
X73060000Y-135360000D03*
X73060000Y-137900000D03*
X70520000Y-135360000D03*
X70520000Y-137900000D03*
X67980000Y-135360000D03*
X67980000Y-137900000D03*
X65440000Y-135360000D03*
X65440000Y-137900000D03*
X62900000Y-135360000D03*
X62900000Y-137900000D03*
X60360000Y-135360000D03*
X57820000Y-137900000D03*
X60360000Y-137900000D03*
X57820000Y-140440000D03*
X60360000Y-140440000D03*
X57820000Y-142980000D03*
D15*
X78000000Y-79000000D03*
X78000000Y-76500000D03*
D20*
X73500000Y-78750000D03*
D21*
X70960000Y-78750000D03*
D15*
X108600000Y-141300000D03*
X108600000Y-143800000D03*
D17*
X64750000Y-74225000D03*
D18*
X67290000Y-74225000D03*
D13*
X81000000Y-96294888D03*
D15*
X81000000Y-98794888D03*
%LPD*%
M02*
