G04 #@! TF.GenerationSoftware,KiCad,Pcbnew,7.0.10+1*
G04 #@! TF.CreationDate,2024-02-25T15:54:48+01:00*
G04 #@! TF.ProjectId,dd8_0v2,6464385f-3076-4322-9e6b-696361645f70,rev?*
G04 #@! TF.SameCoordinates,Original*
G04 #@! TF.FileFunction,Soldermask,Top*
G04 #@! TF.FilePolarity,Negative*
%FSLAX46Y46*%
G04 Gerber Fmt 4.6, Leading zero omitted, Abs format (unit mm)*
G04 Created by KiCad (PCBNEW 7.0.10+1) date 2024-02-25 15:54:48*
%MOMM*%
%LPD*%
G01*
G04 APERTURE LIST*
%ADD10R,1.600000X1.600000*%
%ADD11O,1.600000X1.600000*%
%ADD12C,1.600000*%
%ADD13C,7.400000*%
%ADD14R,1.700000X1.700000*%
%ADD15O,1.700000X1.700000*%
%ADD16C,2.000000*%
%ADD17C,1.400000*%
%ADD18O,1.400000X1.400000*%
%ADD19C,1.500000*%
%ADD20R,2.000000X1.440000*%
%ADD21O,2.000000X1.440000*%
%ADD22R,1.800000X1.800000*%
%ADD23C,1.800000*%
%ADD24O,7.500000X5.000000*%
%ADD25O,2.500000X1.600000*%
%ADD26O,7.000000X3.500000*%
%ADD27R,1.422400X1.422400*%
%ADD28C,1.422400*%
G04 APERTURE END LIST*
D10*
X123880000Y-125000000D03*
D11*
X123880000Y-127540000D03*
X123880000Y-130080000D03*
X123880000Y-132620000D03*
X123880000Y-135160000D03*
X123880000Y-137700000D03*
X123880000Y-140240000D03*
X123880000Y-142780000D03*
X123880000Y-145320000D03*
X123880000Y-147860000D03*
X123880000Y-150400000D03*
X123880000Y-152940000D03*
X123880000Y-155480000D03*
X123880000Y-158020000D03*
X131500000Y-158020000D03*
X131500000Y-155480000D03*
X131500000Y-152940000D03*
X131500000Y-150400000D03*
X131500000Y-147860000D03*
X131500000Y-145320000D03*
X131500000Y-142780000D03*
X131500000Y-140240000D03*
X131500000Y-137700000D03*
X131500000Y-135160000D03*
X131500000Y-132620000D03*
X131500000Y-130080000D03*
X131500000Y-127540000D03*
X131500000Y-125000000D03*
D12*
X65500000Y-130000000D03*
X68000000Y-130000000D03*
D13*
X55000000Y-74000000D03*
D12*
X134000000Y-124900000D03*
X134000000Y-127400000D03*
D14*
X109400000Y-147425000D03*
D15*
X109400000Y-149965000D03*
D16*
X78750000Y-123250000D03*
X78750000Y-116750000D03*
X83250000Y-123250000D03*
X83250000Y-116750000D03*
D10*
X82250000Y-111000000D03*
D12*
X79750000Y-111000000D03*
X140600000Y-83350000D03*
X140600000Y-85850000D03*
D14*
X66000000Y-119460000D03*
D15*
X66000000Y-122000000D03*
D14*
X146000000Y-146080000D03*
D15*
X143460000Y-146080000D03*
X146000000Y-143540000D03*
X143460000Y-143540000D03*
X146000000Y-141000000D03*
X143460000Y-141000000D03*
X146000000Y-138460000D03*
X143460000Y-138460000D03*
X146000000Y-135920000D03*
X143460000Y-135920000D03*
X146000000Y-133380000D03*
X143460000Y-133380000D03*
X146000000Y-130840000D03*
X143460000Y-130840000D03*
D13*
X55000000Y-164000000D03*
D17*
X109400000Y-153000000D03*
D18*
X109400000Y-155540000D03*
D13*
X145000000Y-164000000D03*
D19*
X83250000Y-86750000D03*
X83250000Y-81850000D03*
D20*
X119260000Y-80760000D03*
D21*
X119260000Y-83300000D03*
X119260000Y-85840000D03*
X119260000Y-88380000D03*
X119260000Y-90920000D03*
X119260000Y-93460000D03*
X119260000Y-96000000D03*
X119260000Y-98540000D03*
X119260000Y-101080000D03*
X119260000Y-103620000D03*
X119260000Y-106160000D03*
X119260000Y-108700000D03*
X119260000Y-111240000D03*
X119260000Y-113780000D03*
X134500000Y-113780000D03*
X134500000Y-111240000D03*
X134500000Y-108700000D03*
X134500000Y-106160000D03*
X134500000Y-103620000D03*
X134500000Y-101080000D03*
X134500000Y-98540000D03*
X134500000Y-96000000D03*
X134500000Y-93460000D03*
X134500000Y-90920000D03*
X134500000Y-88380000D03*
X134500000Y-85840000D03*
X134500000Y-83300000D03*
X134500000Y-80760000D03*
D10*
X106240000Y-158060000D03*
D11*
X106240000Y-155520000D03*
X106240000Y-152980000D03*
X106240000Y-150440000D03*
X106240000Y-147900000D03*
X106240000Y-145360000D03*
X106240000Y-142820000D03*
X106240000Y-140280000D03*
X106240000Y-137740000D03*
X106240000Y-135200000D03*
X106240000Y-132660000D03*
X106240000Y-130120000D03*
X106240000Y-127580000D03*
X106240000Y-125040000D03*
X106240000Y-122500000D03*
X106240000Y-119960000D03*
X106240000Y-117420000D03*
X106240000Y-114880000D03*
X106240000Y-112340000D03*
X106240000Y-109800000D03*
X91000000Y-109800000D03*
X91000000Y-112340000D03*
X91000000Y-114880000D03*
X91000000Y-117420000D03*
X91000000Y-119960000D03*
X91000000Y-122500000D03*
X91000000Y-125040000D03*
X91000000Y-127580000D03*
X91000000Y-130120000D03*
X91000000Y-132660000D03*
X91000000Y-135200000D03*
X91000000Y-137740000D03*
X91000000Y-140280000D03*
X91000000Y-142820000D03*
X91000000Y-145360000D03*
X91000000Y-147900000D03*
X91000000Y-150440000D03*
X91000000Y-152980000D03*
X91000000Y-155520000D03*
X91000000Y-158060000D03*
D22*
X70975000Y-74250000D03*
D23*
X73515000Y-74250000D03*
D10*
X109500000Y-76690000D03*
D11*
X109500000Y-84310000D03*
D13*
X145000000Y-74000000D03*
D14*
X87300000Y-144625000D03*
D15*
X87300000Y-147165000D03*
D10*
X91000000Y-71800000D03*
D11*
X91000000Y-74340000D03*
X91000000Y-76880000D03*
X91000000Y-79420000D03*
X91000000Y-81960000D03*
X91000000Y-84500000D03*
X91000000Y-87040000D03*
X91000000Y-89580000D03*
X91000000Y-92120000D03*
X91000000Y-94660000D03*
X91000000Y-97200000D03*
X91000000Y-99740000D03*
X91000000Y-102280000D03*
X91000000Y-104820000D03*
X106240000Y-104820000D03*
X106240000Y-102280000D03*
X106240000Y-99740000D03*
X106240000Y-97200000D03*
X106240000Y-94660000D03*
X106240000Y-92120000D03*
X106240000Y-89580000D03*
X106240000Y-87040000D03*
X106240000Y-84500000D03*
X106240000Y-81960000D03*
X106240000Y-79420000D03*
X106240000Y-76880000D03*
X106240000Y-74340000D03*
X106240000Y-71800000D03*
D14*
X87300000Y-153025000D03*
D15*
X87300000Y-155565000D03*
D24*
X54880000Y-89500000D03*
X70120000Y-89500000D03*
X54880000Y-102200000D03*
X70120000Y-102200000D03*
D25*
X60000000Y-119460000D03*
D26*
X54920000Y-124540000D03*
D25*
X60000000Y-122000000D03*
D26*
X54920000Y-114380000D03*
D12*
X86000000Y-96350000D03*
X86000000Y-98850000D03*
D17*
X78000000Y-81760000D03*
D18*
X78000000Y-86840000D03*
D14*
X65440000Y-163460000D03*
D15*
X65440000Y-166000000D03*
X67980000Y-163460000D03*
X67980000Y-166000000D03*
X70520000Y-163460000D03*
X70520000Y-166000000D03*
X73060000Y-163460000D03*
X73060000Y-166000000D03*
X75600000Y-163460000D03*
X75600000Y-166000000D03*
X78140000Y-163460000D03*
X78140000Y-166000000D03*
X80680000Y-163460000D03*
X80680000Y-166000000D03*
X83220000Y-163460000D03*
X83220000Y-166000000D03*
X85760000Y-163460000D03*
X85760000Y-166000000D03*
X88300000Y-163460000D03*
X88300000Y-166000000D03*
X90840000Y-163460000D03*
X90840000Y-166000000D03*
X93380000Y-163460000D03*
X93380000Y-166000000D03*
X95920000Y-163460000D03*
X95920000Y-166000000D03*
X98460000Y-163460000D03*
X98460000Y-166000000D03*
X101000000Y-163460000D03*
X101000000Y-166000000D03*
X103540000Y-163460000D03*
X103540000Y-166000000D03*
X106080000Y-163460000D03*
X106080000Y-166000000D03*
X108620000Y-163460000D03*
X108620000Y-166000000D03*
X111160000Y-163460000D03*
X111160000Y-166000000D03*
X113700000Y-163460000D03*
X113700000Y-166000000D03*
X116240000Y-163460000D03*
X116240000Y-166000000D03*
X118780000Y-163460000D03*
X118780000Y-166000000D03*
X121320000Y-163460000D03*
X121320000Y-166000000D03*
X123860000Y-163460000D03*
X123860000Y-166000000D03*
X126400000Y-163460000D03*
X126400000Y-166000000D03*
X128940000Y-163460000D03*
X128940000Y-166000000D03*
X131480000Y-163460000D03*
X131480000Y-166000000D03*
D12*
X82500000Y-127500000D03*
X80000000Y-127500000D03*
D17*
X74500000Y-114030000D03*
D18*
X74500000Y-116570000D03*
D12*
X88600000Y-74300000D03*
X88600000Y-71800000D03*
D27*
X60360000Y-142980000D03*
D28*
X57820000Y-145520000D03*
X60360000Y-145520000D03*
X57820000Y-148060000D03*
X60360000Y-148060000D03*
X57820000Y-150600000D03*
X60360000Y-153140000D03*
X60360000Y-150600000D03*
X62900000Y-153140000D03*
X62900000Y-150600000D03*
X65440000Y-153140000D03*
X65440000Y-150600000D03*
X67980000Y-153140000D03*
X67980000Y-150600000D03*
X70520000Y-153140000D03*
X70520000Y-150600000D03*
X73060000Y-153140000D03*
X75600000Y-150600000D03*
X73060000Y-150600000D03*
X75600000Y-148060000D03*
X73060000Y-148060000D03*
X75600000Y-145520000D03*
X73060000Y-145520000D03*
X75600000Y-142980000D03*
X73060000Y-142980000D03*
X75600000Y-140440000D03*
X73060000Y-140440000D03*
X75600000Y-137900000D03*
X73060000Y-135360000D03*
X73060000Y-137900000D03*
X70520000Y-135360000D03*
X70520000Y-137900000D03*
X67980000Y-135360000D03*
X67980000Y-137900000D03*
X65440000Y-135360000D03*
X65440000Y-137900000D03*
X62900000Y-135360000D03*
X62900000Y-137900000D03*
X60360000Y-135360000D03*
X57820000Y-137900000D03*
X60360000Y-137900000D03*
X57820000Y-140440000D03*
X60360000Y-140440000D03*
X57820000Y-142980000D03*
D12*
X78000000Y-79000000D03*
X78000000Y-76500000D03*
D17*
X73500000Y-78750000D03*
D18*
X70960000Y-78750000D03*
D12*
X108600000Y-141300000D03*
X108600000Y-143800000D03*
D14*
X64750000Y-74225000D03*
D15*
X67290000Y-74225000D03*
D10*
X81000000Y-96294888D03*
D12*
X81000000Y-98794888D03*
M02*
