M48
; DRILL file {KiCad 7.0.10+1} date Sun 25 Feb 2024 03:55:20 PM CET
; FORMAT={-:-/ absolute / metric / decimal}
; #@! TF.CreationDate,2024-02-25T15:55:20+01:00
; #@! TF.GenerationSoftware,Kicad,Pcbnew,7.0.10+1
; #@! TF.FileFunction,Plated,1,4,PTH
FMAT,2
METRIC
; #@! TA.AperFunction,Plated,PTH,ViaDrill
T1C0.400
; #@! TA.AperFunction,Plated,PTH,ComponentDrill
T2C0.700
; #@! TA.AperFunction,Plated,PTH,ComponentDrill
T3C0.800
; #@! TA.AperFunction,Plated,PTH,ComponentDrill
T4C0.890
; #@! TA.AperFunction,Plated,PTH,ComponentDrill
T5C0.900
; #@! TA.AperFunction,Plated,PTH,ComponentDrill
T6C1.000
; #@! TA.AperFunction,Plated,PTH,ComponentDrill
T7C1.100
; #@! TA.AperFunction,Plated,PTH,ComponentDrill
T8C1.500
; #@! TA.AperFunction,Plated,PTH,ComponentDrill
T9C2.010
; #@! TA.AperFunction,Plated,PTH,ComponentDrill
T10C3.700
%
G90
G05
T1
X51.575Y-70.075
X51.575Y-77.695
X51.575Y-80.235
X51.575Y-82.775
X51.575Y-85.315
X51.575Y-92.935
X51.575Y-95.475
X51.575Y-98.015
X51.575Y-105.635
X51.575Y-108.175
X51.575Y-110.715
X51.575Y-118.335
X51.575Y-120.875
X51.575Y-128.495
X51.575Y-131.035
X51.575Y-133.575
X51.575Y-136.115
X51.575Y-138.655
X51.575Y-141.195
X51.575Y-143.735
X51.575Y-146.275
X51.575Y-148.815
X51.575Y-151.355
X51.575Y-153.895
X51.575Y-156.435
X51.575Y-158.975
X54.115Y-80.235
X54.115Y-82.775
X54.115Y-85.315
X54.115Y-92.935
X54.115Y-95.475
X54.115Y-98.015
X54.115Y-105.635
X54.115Y-108.175
X54.115Y-110.715
X54.115Y-118.335
X54.115Y-120.875
X54.115Y-128.495
X54.115Y-131.035
X54.115Y-138.655
X54.115Y-141.195
X54.115Y-143.735
X54.115Y-146.275
X54.115Y-148.815
X54.115Y-151.355
X54.115Y-153.895
X54.115Y-158.975
X56.655Y-80.235
X56.655Y-82.775
X56.655Y-85.315
X56.655Y-92.935
X56.655Y-95.475
X56.655Y-98.015
X56.655Y-105.635
X56.655Y-108.175
X56.655Y-110.715
X56.655Y-128.495
X56.655Y-156.435
X59.195Y-70.075
X59.195Y-77.695
X59.195Y-80.235
X59.195Y-82.775
X59.195Y-85.315
X59.195Y-92.935
X59.195Y-95.475
X59.195Y-98.015
X59.195Y-158.975
X59.195Y-166.595
X61.735Y-70.075
X61.735Y-72.615
X61.735Y-75.155
X61.735Y-77.695
X61.735Y-80.235
X61.735Y-82.775
X61.735Y-85.315
X61.735Y-87.855
X61.735Y-92.935
X61.735Y-95.475
X61.735Y-98.015
X61.735Y-103.095
X61.735Y-105.635
X61.735Y-108.175
X61.735Y-110.715
X61.735Y-113.255
X61.735Y-115.795
X61.735Y-123.415
X61.735Y-125.955
X61.735Y-161.515
X61.735Y-166.595
X64.2Y-141.6
X64.275Y-70.075
X64.275Y-77.695
X64.275Y-80.235
X64.275Y-82.775
X64.275Y-85.315
X64.275Y-87.855
X64.275Y-92.935
X64.275Y-95.475
X64.275Y-100.555
X64.275Y-103.095
X64.275Y-105.635
X64.275Y-108.175
X64.275Y-110.715
X64.275Y-113.255
X64.275Y-115.795
X64.275Y-118.335
X64.275Y-120.875
X64.275Y-143.735
X64.275Y-146.275
X64.275Y-156.435
X66.815Y-80.235
X66.815Y-82.775
X66.815Y-85.315
X66.815Y-92.935
X66.815Y-98.015
X66.815Y-105.635
X66.815Y-108.175
X66.815Y-110.715
X66.815Y-113.255
X66.815Y-115.795
X66.815Y-156.435
X69.355Y-95.475
X69.355Y-98.015
X69.355Y-105.635
X69.355Y-108.175
X69.355Y-110.715
X69.355Y-128.495
X69.355Y-146.275
X71.895Y-82.775
X71.895Y-85.315
X71.895Y-95.475
X71.895Y-98.015
X71.895Y-105.635
X71.895Y-108.175
X71.895Y-113.255
X72.4Y-110.2
X74.435Y-72.615
X74.435Y-80.235
X74.435Y-82.775
X74.435Y-85.315
X74.435Y-123.415
X74.435Y-133.575
X75.6Y-157.2
X76.975Y-72.615
X76.975Y-90.395
X76.975Y-92.935
X76.975Y-98.015
X76.975Y-100.555
X76.975Y-103.095
X76.975Y-105.635
X76.975Y-108.175
X76.975Y-110.715
X76.975Y-113.255
X76.975Y-120.875
X76.975Y-133.575
X79.515Y-72.615
X79.515Y-75.155
X79.515Y-77.695
X79.515Y-80.235
X79.515Y-85.315
X79.515Y-87.855
X79.515Y-90.395
X79.515Y-92.935
X79.515Y-100.555
X79.515Y-103.095
X79.515Y-105.635
X79.515Y-108.175
X79.515Y-113.255
X79.515Y-131.035
X79.515Y-143.735
X79.515Y-148.815
X79.515Y-151.355
X82.055Y-72.615
X82.055Y-75.155
X82.055Y-77.695
X82.055Y-100.555
X82.055Y-103.095
X82.055Y-105.635
X82.055Y-108.175
X82.055Y-141.195
X82.055Y-146.275
X82.055Y-148.815
X82.055Y-153.895
X83.222Y-137.422
X84.208Y-152.692
X84.595Y-75.155
X84.595Y-85.315
X84.595Y-90.395
X84.595Y-92.935
X84.595Y-100.555
X85.2Y-150.4
X87.135Y-103.095
X87.135Y-105.635
X87.135Y-108.175
X87.135Y-148.815
X87.135Y-151.355
X94.755Y-72.615
X94.755Y-75.155
X94.755Y-77.695
X94.755Y-82.775
X97.295Y-72.615
X97.295Y-75.155
X97.295Y-80.235
X97.295Y-87.855
X97.295Y-118.335
X97.295Y-143.735
X97.295Y-148.815
X97.295Y-151.355
X97.295Y-153.895
X99.835Y-72.615
X99.835Y-77.695
X99.835Y-118.335
X99.835Y-143.735
X99.835Y-148.815
X99.835Y-151.355
X99.835Y-156.435
X102.375Y-72.615
X102.375Y-82.775
X102.375Y-118.335
X102.375Y-143.735
X102.375Y-153.895
X102.375Y-156.435
X103.6Y-150.4
X109.995Y-72.615
X112.0Y-114.8
X112.535Y-72.615
X112.535Y-75.155
X112.535Y-77.695
X112.535Y-80.235
X112.8Y-114.0
X113.6Y-113.2
X115.075Y-72.615
X115.075Y-75.155
X115.075Y-77.695
X115.075Y-80.235
X115.075Y-82.775
X117.6Y-103.8
X117.615Y-72.615
X117.615Y-75.155
X117.615Y-77.695
X118.2Y-146.8
X118.2Y-153.4
X120.155Y-72.615
X120.155Y-75.155
X120.155Y-77.695
X120.4Y-149.4
X122.695Y-72.615
X122.695Y-75.155
X122.695Y-77.695
X122.695Y-80.235
X122.695Y-82.775
X125.235Y-75.155
X125.235Y-77.695
X125.235Y-80.235
X125.235Y-82.775
X125.235Y-85.315
X127.775Y-70.075
X127.775Y-77.695
X127.775Y-80.235
X127.775Y-82.775
X127.775Y-85.315
X127.775Y-87.855
X127.775Y-123.415
X127.775Y-131.035
X127.775Y-133.575
X127.775Y-136.115
X127.775Y-138.655
X127.775Y-141.195
X127.775Y-156.435
X130.315Y-70.075
X130.315Y-72.615
X130.315Y-80.235
X130.315Y-82.775
X130.315Y-85.315
X130.315Y-90.395
X132.855Y-70.075
X132.855Y-72.615
X132.855Y-75.155
X132.855Y-123.415
X133.4Y-140.8
X134.4Y-134.8
X135.395Y-70.075
X135.395Y-72.615
X135.395Y-75.155
X135.395Y-77.695
X135.395Y-158.975
X135.395Y-161.515
X135.395Y-164.055
X135.395Y-166.595
X137.8Y-119.8
X137.935Y-70.075
X137.935Y-72.615
X137.935Y-75.155
X137.935Y-77.695
X137.935Y-80.235
X137.935Y-85.315
X137.935Y-87.855
X137.935Y-90.395
X137.935Y-92.935
X137.935Y-95.475
X137.935Y-98.015
X137.935Y-100.555
X137.935Y-153.895
X137.935Y-156.435
X137.935Y-158.975
X137.935Y-161.515
X137.935Y-164.055
X137.935Y-166.595
X139.2Y-117.0
X140.475Y-70.075
X140.475Y-72.615
X140.475Y-75.155
X140.475Y-77.695
X140.475Y-80.235
X140.475Y-87.855
X140.475Y-90.395
X140.475Y-92.935
X140.475Y-95.475
X140.475Y-98.015
X140.475Y-100.555
X140.475Y-103.095
X140.475Y-105.635
X140.475Y-120.875
X140.475Y-123.415
X140.475Y-125.955
X140.475Y-128.495
X140.475Y-151.355
X140.475Y-153.895
X140.475Y-156.435
X140.475Y-158.975
X140.475Y-161.515
X140.475Y-164.055
X140.475Y-166.595
X142.0Y-112.8
X143.015Y-80.235
X143.015Y-82.775
X143.015Y-85.315
X143.015Y-87.855
X143.015Y-90.395
X143.015Y-92.935
X143.015Y-95.475
X143.015Y-98.015
X143.015Y-100.555
X143.015Y-103.095
X143.015Y-105.635
X143.015Y-108.175
X143.015Y-151.355
X143.015Y-153.895
X143.015Y-156.435
X143.015Y-158.975
X145.555Y-80.235
X145.555Y-82.775
X145.555Y-85.315
X145.555Y-87.855
X145.555Y-90.395
X145.555Y-92.935
X145.555Y-95.475
X145.555Y-98.015
X145.555Y-100.555
X145.555Y-103.095
X145.555Y-105.635
X145.555Y-108.175
X145.555Y-110.715
X145.555Y-123.415
X145.555Y-125.955
X145.555Y-128.495
X145.555Y-151.355
X145.555Y-153.895
X145.555Y-156.435
X145.555Y-158.975
X148.095Y-70.075
X148.095Y-77.695
X148.095Y-80.235
X148.095Y-82.775
X148.095Y-85.315
X148.095Y-87.855
X148.095Y-90.395
X148.095Y-92.935
X148.095Y-95.475
X148.095Y-98.015
X148.095Y-100.555
X148.095Y-103.095
X148.095Y-105.635
X148.095Y-108.175
X148.095Y-110.715
X148.095Y-113.255
X148.095Y-143.735
X148.095Y-146.275
X148.095Y-148.815
X148.095Y-151.355
X148.095Y-153.895
X148.095Y-156.435
X148.095Y-158.975
T2
X70.96Y-78.75
X73.5Y-78.75
X74.5Y-114.03
X74.5Y-116.57
X78.0Y-81.76
X78.0Y-86.84
X109.4Y-153.0
X109.4Y-155.54
T3
X57.82Y-137.9
X57.82Y-140.44
X57.82Y-142.98
X57.82Y-145.52
X57.82Y-148.06
X57.82Y-150.6
X60.36Y-135.36
X60.36Y-137.9
X60.36Y-140.44
X60.36Y-142.98
X60.36Y-145.52
X60.36Y-148.06
X60.36Y-150.6
X60.36Y-153.14
X62.9Y-135.36
X62.9Y-137.9
X62.9Y-150.6
X62.9Y-153.14
X65.44Y-135.36
X65.44Y-137.9
X65.44Y-150.6
X65.44Y-153.14
X65.5Y-130.0
X67.98Y-135.36
X67.98Y-137.9
X67.98Y-150.6
X67.98Y-153.14
X68.0Y-130.0
X70.52Y-135.36
X70.52Y-137.9
X70.52Y-150.6
X70.52Y-153.14
X73.06Y-135.36
X73.06Y-137.9
X73.06Y-140.44
X73.06Y-142.98
X73.06Y-145.52
X73.06Y-148.06
X73.06Y-150.6
X73.06Y-153.14
X75.6Y-137.9
X75.6Y-140.44
X75.6Y-142.98
X75.6Y-145.52
X75.6Y-148.06
X75.6Y-150.6
X78.0Y-76.5
X78.0Y-79.0
X79.75Y-111.0
X80.0Y-127.5
X81.0Y-96.295
X81.0Y-98.795
X82.25Y-111.0
X82.5Y-127.5
X83.25Y-81.85
X83.25Y-86.75
X86.0Y-96.35
X86.0Y-98.85
X88.6Y-71.8
X88.6Y-74.3
X91.0Y-71.8
X91.0Y-74.34
X91.0Y-76.88
X91.0Y-79.42
X91.0Y-81.96
X91.0Y-84.5
X91.0Y-87.04
X91.0Y-89.58
X91.0Y-92.12
X91.0Y-94.66
X91.0Y-97.2
X91.0Y-99.74
X91.0Y-102.28
X91.0Y-104.82
X91.0Y-109.8
X91.0Y-112.34
X91.0Y-114.88
X91.0Y-117.42
X91.0Y-119.96
X91.0Y-122.5
X91.0Y-125.04
X91.0Y-127.58
X91.0Y-130.12
X91.0Y-132.66
X91.0Y-135.2
X91.0Y-137.74
X91.0Y-140.28
X91.0Y-142.82
X91.0Y-145.36
X91.0Y-147.9
X91.0Y-150.44
X91.0Y-152.98
X91.0Y-155.52
X91.0Y-158.06
X106.24Y-71.8
X106.24Y-74.34
X106.24Y-76.88
X106.24Y-79.42
X106.24Y-81.96
X106.24Y-84.5
X106.24Y-87.04
X106.24Y-89.58
X106.24Y-92.12
X106.24Y-94.66
X106.24Y-97.2
X106.24Y-99.74
X106.24Y-102.28
X106.24Y-104.82
X106.24Y-109.8
X106.24Y-112.34
X106.24Y-114.88
X106.24Y-117.42
X106.24Y-119.96
X106.24Y-122.5
X106.24Y-125.04
X106.24Y-127.58
X106.24Y-130.12
X106.24Y-132.66
X106.24Y-135.2
X106.24Y-137.74
X106.24Y-140.28
X106.24Y-142.82
X106.24Y-145.36
X106.24Y-147.9
X106.24Y-150.44
X106.24Y-152.98
X106.24Y-155.52
X106.24Y-158.06
X108.6Y-141.3
X108.6Y-143.8
X109.5Y-76.69
X109.5Y-84.31
X123.88Y-125.0
X123.88Y-127.54
X123.88Y-130.08
X123.88Y-132.62
X123.88Y-135.16
X123.88Y-137.7
X123.88Y-140.24
X123.88Y-142.78
X123.88Y-145.32
X123.88Y-147.86
X123.88Y-150.4
X123.88Y-152.94
X123.88Y-155.48
X123.88Y-158.02
X131.5Y-125.0
X131.5Y-127.54
X131.5Y-130.08
X131.5Y-132.62
X131.5Y-135.16
X131.5Y-137.7
X131.5Y-140.24
X131.5Y-142.78
X131.5Y-145.32
X131.5Y-147.86
X131.5Y-150.4
X131.5Y-152.94
X131.5Y-155.48
X131.5Y-158.02
X134.0Y-124.9
X134.0Y-127.4
X140.6Y-83.35
X140.6Y-85.85
T4
X60.0Y-119.46
X60.0Y-122.0
T5
X70.975Y-74.25
X73.515Y-74.25
T6
X64.75Y-74.225
X65.44Y-163.46
X65.44Y-166.0
X66.0Y-119.46
X66.0Y-122.0
X67.29Y-74.225
X67.98Y-163.46
X67.98Y-166.0
X70.52Y-163.46
X70.52Y-166.0
X73.06Y-163.46
X73.06Y-166.0
X75.6Y-163.46
X75.6Y-166.0
X78.14Y-163.46
X78.14Y-166.0
X80.68Y-163.46
X80.68Y-166.0
X83.22Y-163.46
X83.22Y-166.0
X85.76Y-163.46
X85.76Y-166.0
X87.3Y-144.625
X87.3Y-147.165
X87.3Y-153.025
X87.3Y-155.565
X88.3Y-163.46
X88.3Y-166.0
X90.84Y-163.46
X90.84Y-166.0
X93.38Y-163.46
X93.38Y-166.0
X95.92Y-163.46
X95.92Y-166.0
X98.46Y-163.46
X98.46Y-166.0
X101.0Y-163.46
X101.0Y-166.0
X103.54Y-163.46
X103.54Y-166.0
X106.08Y-163.46
X106.08Y-166.0
X108.62Y-163.46
X108.62Y-166.0
X109.4Y-147.425
X109.4Y-149.965
X111.16Y-163.46
X111.16Y-166.0
X113.7Y-163.46
X113.7Y-166.0
X116.24Y-163.46
X116.24Y-166.0
X118.78Y-163.46
X118.78Y-166.0
X119.26Y-80.76
X119.26Y-83.3
X119.26Y-85.84
X119.26Y-88.38
X119.26Y-90.92
X119.26Y-93.46
X119.26Y-96.0
X119.26Y-98.54
X119.26Y-101.08
X119.26Y-103.62
X119.26Y-106.16
X119.26Y-108.7
X119.26Y-111.24
X119.26Y-113.78
X121.32Y-163.46
X121.32Y-166.0
X123.86Y-163.46
X123.86Y-166.0
X126.4Y-163.46
X126.4Y-166.0
X128.94Y-163.46
X128.94Y-166.0
X131.48Y-163.46
X131.48Y-166.0
X134.5Y-80.76
X134.5Y-83.3
X134.5Y-85.84
X134.5Y-88.38
X134.5Y-90.92
X134.5Y-93.46
X134.5Y-96.0
X134.5Y-98.54
X134.5Y-101.08
X134.5Y-103.62
X134.5Y-106.16
X134.5Y-108.7
X134.5Y-111.24
X134.5Y-113.78
X143.46Y-130.84
X143.46Y-133.38
X143.46Y-135.92
X143.46Y-138.46
X143.46Y-141.0
X143.46Y-143.54
X143.46Y-146.08
X146.0Y-130.84
X146.0Y-133.38
X146.0Y-135.92
X146.0Y-138.46
X146.0Y-141.0
X146.0Y-143.54
X146.0Y-146.08
T7
X78.75Y-116.75
X78.75Y-123.25
X83.25Y-116.75
X83.25Y-123.25
T8
X54.88Y-89.5
X54.88Y-102.2
X70.12Y-89.5
X70.12Y-102.2
T9
X54.92Y-114.38
X54.92Y-124.54
T10
X55.0Y-74.0
X55.0Y-164.0
X145.0Y-74.0
X145.0Y-164.0
M30
