G04 #@! TF.GenerationSoftware,KiCad,Pcbnew,7.0.10+1*
G04 #@! TF.CreationDate,2024-02-25T15:54:47+01:00*
G04 #@! TF.ProjectId,dd8_0v2,6464385f-3076-4322-9e6b-696361645f70,rev?*
G04 #@! TF.SameCoordinates,Original*
G04 #@! TF.FileFunction,Copper,L1,Top*
G04 #@! TF.FilePolarity,Positive*
%FSLAX46Y46*%
G04 Gerber Fmt 4.6, Leading zero omitted, Abs format (unit mm)*
G04 Created by KiCad (PCBNEW 7.0.10+1) date 2024-02-25 15:54:47*
%MOMM*%
%LPD*%
G01*
G04 APERTURE LIST*
G04 #@! TA.AperFunction,ComponentPad*
%ADD10R,1.600000X1.600000*%
G04 #@! TD*
G04 #@! TA.AperFunction,ComponentPad*
%ADD11O,1.600000X1.600000*%
G04 #@! TD*
G04 #@! TA.AperFunction,ComponentPad*
%ADD12C,1.600000*%
G04 #@! TD*
G04 #@! TA.AperFunction,ComponentPad*
%ADD13C,7.400000*%
G04 #@! TD*
G04 #@! TA.AperFunction,ComponentPad*
%ADD14R,1.700000X1.700000*%
G04 #@! TD*
G04 #@! TA.AperFunction,ComponentPad*
%ADD15O,1.700000X1.700000*%
G04 #@! TD*
G04 #@! TA.AperFunction,ComponentPad*
%ADD16C,2.000000*%
G04 #@! TD*
G04 #@! TA.AperFunction,ComponentPad*
%ADD17C,1.400000*%
G04 #@! TD*
G04 #@! TA.AperFunction,ComponentPad*
%ADD18O,1.400000X1.400000*%
G04 #@! TD*
G04 #@! TA.AperFunction,ComponentPad*
%ADD19C,1.500000*%
G04 #@! TD*
G04 #@! TA.AperFunction,ComponentPad*
%ADD20R,2.000000X1.440000*%
G04 #@! TD*
G04 #@! TA.AperFunction,ComponentPad*
%ADD21O,2.000000X1.440000*%
G04 #@! TD*
G04 #@! TA.AperFunction,ComponentPad*
%ADD22R,1.800000X1.800000*%
G04 #@! TD*
G04 #@! TA.AperFunction,ComponentPad*
%ADD23C,1.800000*%
G04 #@! TD*
G04 #@! TA.AperFunction,ComponentPad*
%ADD24O,7.500000X5.000000*%
G04 #@! TD*
G04 #@! TA.AperFunction,ComponentPad*
%ADD25O,2.500000X1.600000*%
G04 #@! TD*
G04 #@! TA.AperFunction,ComponentPad*
%ADD26O,7.000000X3.500000*%
G04 #@! TD*
G04 #@! TA.AperFunction,ComponentPad*
%ADD27R,1.422400X1.422400*%
G04 #@! TD*
G04 #@! TA.AperFunction,ComponentPad*
%ADD28C,1.422400*%
G04 #@! TD*
G04 #@! TA.AperFunction,ViaPad*
%ADD29C,0.800000*%
G04 #@! TD*
G04 #@! TA.AperFunction,Conductor*
%ADD30C,0.508000*%
G04 #@! TD*
G04 #@! TA.AperFunction,Conductor*
%ADD31C,0.152400*%
G04 #@! TD*
G04 #@! TA.AperFunction,Conductor*
%ADD32C,0.254000*%
G04 #@! TD*
G04 #@! TA.AperFunction,Conductor*
%ADD33C,1.000000*%
G04 #@! TD*
G04 APERTURE END LIST*
D10*
X123880000Y-125000000D03*
D11*
X123880000Y-127540000D03*
X123880000Y-130080000D03*
X123880000Y-132620000D03*
X123880000Y-135160000D03*
X123880000Y-137700000D03*
X123880000Y-140240000D03*
X123880000Y-142780000D03*
X123880000Y-145320000D03*
X123880000Y-147860000D03*
X123880000Y-150400000D03*
X123880000Y-152940000D03*
X123880000Y-155480000D03*
X123880000Y-158020000D03*
X131500000Y-158020000D03*
X131500000Y-155480000D03*
X131500000Y-152940000D03*
X131500000Y-150400000D03*
X131500000Y-147860000D03*
X131500000Y-145320000D03*
X131500000Y-142780000D03*
X131500000Y-140240000D03*
X131500000Y-137700000D03*
X131500000Y-135160000D03*
X131500000Y-132620000D03*
X131500000Y-130080000D03*
X131500000Y-127540000D03*
X131500000Y-125000000D03*
D12*
X65500000Y-130000000D03*
X68000000Y-130000000D03*
D13*
X55000000Y-74000000D03*
D12*
X134000000Y-124900000D03*
X134000000Y-127400000D03*
D14*
X109400000Y-147425000D03*
D15*
X109400000Y-149965000D03*
D16*
X78750000Y-123250000D03*
X78750000Y-116750000D03*
X83250000Y-123250000D03*
X83250000Y-116750000D03*
D10*
X82250000Y-111000000D03*
D12*
X79750000Y-111000000D03*
X140600000Y-83350000D03*
X140600000Y-85850000D03*
D14*
X66000000Y-119460000D03*
D15*
X66000000Y-122000000D03*
D14*
X146000000Y-146080000D03*
D15*
X143460000Y-146080000D03*
X146000000Y-143540000D03*
X143460000Y-143540000D03*
X146000000Y-141000000D03*
X143460000Y-141000000D03*
X146000000Y-138460000D03*
X143460000Y-138460000D03*
X146000000Y-135920000D03*
X143460000Y-135920000D03*
X146000000Y-133380000D03*
X143460000Y-133380000D03*
X146000000Y-130840000D03*
X143460000Y-130840000D03*
D13*
X55000000Y-164000000D03*
D17*
X109400000Y-153000000D03*
D18*
X109400000Y-155540000D03*
D13*
X145000000Y-164000000D03*
D19*
X83250000Y-86750000D03*
X83250000Y-81850000D03*
D20*
X119260000Y-80760000D03*
D21*
X119260000Y-83300000D03*
X119260000Y-85840000D03*
X119260000Y-88380000D03*
X119260000Y-90920000D03*
X119260000Y-93460000D03*
X119260000Y-96000000D03*
X119260000Y-98540000D03*
X119260000Y-101080000D03*
X119260000Y-103620000D03*
X119260000Y-106160000D03*
X119260000Y-108700000D03*
X119260000Y-111240000D03*
X119260000Y-113780000D03*
X134500000Y-113780000D03*
X134500000Y-111240000D03*
X134500000Y-108700000D03*
X134500000Y-106160000D03*
X134500000Y-103620000D03*
X134500000Y-101080000D03*
X134500000Y-98540000D03*
X134500000Y-96000000D03*
X134500000Y-93460000D03*
X134500000Y-90920000D03*
X134500000Y-88380000D03*
X134500000Y-85840000D03*
X134500000Y-83300000D03*
X134500000Y-80760000D03*
D10*
X106240000Y-158060000D03*
D11*
X106240000Y-155520000D03*
X106240000Y-152980000D03*
X106240000Y-150440000D03*
X106240000Y-147900000D03*
X106240000Y-145360000D03*
X106240000Y-142820000D03*
X106240000Y-140280000D03*
X106240000Y-137740000D03*
X106240000Y-135200000D03*
X106240000Y-132660000D03*
X106240000Y-130120000D03*
X106240000Y-127580000D03*
X106240000Y-125040000D03*
X106240000Y-122500000D03*
X106240000Y-119960000D03*
X106240000Y-117420000D03*
X106240000Y-114880000D03*
X106240000Y-112340000D03*
X106240000Y-109800000D03*
X91000000Y-109800000D03*
X91000000Y-112340000D03*
X91000000Y-114880000D03*
X91000000Y-117420000D03*
X91000000Y-119960000D03*
X91000000Y-122500000D03*
X91000000Y-125040000D03*
X91000000Y-127580000D03*
X91000000Y-130120000D03*
X91000000Y-132660000D03*
X91000000Y-135200000D03*
X91000000Y-137740000D03*
X91000000Y-140280000D03*
X91000000Y-142820000D03*
X91000000Y-145360000D03*
X91000000Y-147900000D03*
X91000000Y-150440000D03*
X91000000Y-152980000D03*
X91000000Y-155520000D03*
X91000000Y-158060000D03*
D22*
X70975000Y-74250000D03*
D23*
X73515000Y-74250000D03*
D10*
X109500000Y-76690000D03*
D11*
X109500000Y-84310000D03*
D13*
X145000000Y-74000000D03*
D14*
X87300000Y-144625000D03*
D15*
X87300000Y-147165000D03*
D10*
X91000000Y-71800000D03*
D11*
X91000000Y-74340000D03*
X91000000Y-76880000D03*
X91000000Y-79420000D03*
X91000000Y-81960000D03*
X91000000Y-84500000D03*
X91000000Y-87040000D03*
X91000000Y-89580000D03*
X91000000Y-92120000D03*
X91000000Y-94660000D03*
X91000000Y-97200000D03*
X91000000Y-99740000D03*
X91000000Y-102280000D03*
X91000000Y-104820000D03*
X106240000Y-104820000D03*
X106240000Y-102280000D03*
X106240000Y-99740000D03*
X106240000Y-97200000D03*
X106240000Y-94660000D03*
X106240000Y-92120000D03*
X106240000Y-89580000D03*
X106240000Y-87040000D03*
X106240000Y-84500000D03*
X106240000Y-81960000D03*
X106240000Y-79420000D03*
X106240000Y-76880000D03*
X106240000Y-74340000D03*
X106240000Y-71800000D03*
D14*
X87300000Y-153025000D03*
D15*
X87300000Y-155565000D03*
D24*
X54880000Y-89500000D03*
X70120000Y-89500000D03*
X54880000Y-102200000D03*
X70120000Y-102200000D03*
D25*
X60000000Y-119460000D03*
D26*
X54920000Y-124540000D03*
D25*
X60000000Y-122000000D03*
D26*
X54920000Y-114380000D03*
D12*
X86000000Y-96350000D03*
X86000000Y-98850000D03*
D17*
X78000000Y-81760000D03*
D18*
X78000000Y-86840000D03*
D14*
X65440000Y-163460000D03*
D15*
X65440000Y-166000000D03*
X67980000Y-163460000D03*
X67980000Y-166000000D03*
X70520000Y-163460000D03*
X70520000Y-166000000D03*
X73060000Y-163460000D03*
X73060000Y-166000000D03*
X75600000Y-163460000D03*
X75600000Y-166000000D03*
X78140000Y-163460000D03*
X78140000Y-166000000D03*
X80680000Y-163460000D03*
X80680000Y-166000000D03*
X83220000Y-163460000D03*
X83220000Y-166000000D03*
X85760000Y-163460000D03*
X85760000Y-166000000D03*
X88300000Y-163460000D03*
X88300000Y-166000000D03*
X90840000Y-163460000D03*
X90840000Y-166000000D03*
X93380000Y-163460000D03*
X93380000Y-166000000D03*
X95920000Y-163460000D03*
X95920000Y-166000000D03*
X98460000Y-163460000D03*
X98460000Y-166000000D03*
X101000000Y-163460000D03*
X101000000Y-166000000D03*
X103540000Y-163460000D03*
X103540000Y-166000000D03*
X106080000Y-163460000D03*
X106080000Y-166000000D03*
X108620000Y-163460000D03*
X108620000Y-166000000D03*
X111160000Y-163460000D03*
X111160000Y-166000000D03*
X113700000Y-163460000D03*
X113700000Y-166000000D03*
X116240000Y-163460000D03*
X116240000Y-166000000D03*
X118780000Y-163460000D03*
X118780000Y-166000000D03*
X121320000Y-163460000D03*
X121320000Y-166000000D03*
X123860000Y-163460000D03*
X123860000Y-166000000D03*
X126400000Y-163460000D03*
X126400000Y-166000000D03*
X128940000Y-163460000D03*
X128940000Y-166000000D03*
X131480000Y-163460000D03*
X131480000Y-166000000D03*
D12*
X82500000Y-127500000D03*
X80000000Y-127500000D03*
D17*
X74500000Y-114030000D03*
D18*
X74500000Y-116570000D03*
D12*
X88600000Y-74300000D03*
X88600000Y-71800000D03*
D27*
X60360000Y-142980000D03*
D28*
X57820000Y-145520000D03*
X60360000Y-145520000D03*
X57820000Y-148060000D03*
X60360000Y-148060000D03*
X57820000Y-150600000D03*
X60360000Y-153140000D03*
X60360000Y-150600000D03*
X62900000Y-153140000D03*
X62900000Y-150600000D03*
X65440000Y-153140000D03*
X65440000Y-150600000D03*
X67980000Y-153140000D03*
X67980000Y-150600000D03*
X70520000Y-153140000D03*
X70520000Y-150600000D03*
X73060000Y-153140000D03*
X75600000Y-150600000D03*
X73060000Y-150600000D03*
X75600000Y-148060000D03*
X73060000Y-148060000D03*
X75600000Y-145520000D03*
X73060000Y-145520000D03*
X75600000Y-142980000D03*
X73060000Y-142980000D03*
X75600000Y-140440000D03*
X73060000Y-140440000D03*
X75600000Y-137900000D03*
X73060000Y-135360000D03*
X73060000Y-137900000D03*
X70520000Y-135360000D03*
X70520000Y-137900000D03*
X67980000Y-135360000D03*
X67980000Y-137900000D03*
X65440000Y-135360000D03*
X65440000Y-137900000D03*
X62900000Y-135360000D03*
X62900000Y-137900000D03*
X60360000Y-135360000D03*
X57820000Y-137900000D03*
X60360000Y-137900000D03*
X57820000Y-140440000D03*
X60360000Y-140440000D03*
X57820000Y-142980000D03*
D12*
X78000000Y-79000000D03*
X78000000Y-76500000D03*
D17*
X73500000Y-78750000D03*
D18*
X70960000Y-78750000D03*
D12*
X108600000Y-141300000D03*
X108600000Y-143800000D03*
D14*
X64750000Y-74225000D03*
D15*
X67290000Y-74225000D03*
D10*
X81000000Y-96294888D03*
D12*
X81000000Y-98794888D03*
D29*
X130315000Y-85315000D03*
X140475000Y-156435000D03*
X87135000Y-108175000D03*
X140475000Y-87855000D03*
X64275000Y-113255000D03*
X51575000Y-146275000D03*
X132855000Y-75155000D03*
X99835000Y-118335000D03*
X59195000Y-158975000D03*
X117615000Y-72615000D03*
X127775000Y-87855000D03*
X145555000Y-125955000D03*
X127775000Y-133575000D03*
X140475000Y-123415000D03*
X122695000Y-82775000D03*
X87135000Y-103095000D03*
X140475000Y-98015000D03*
X132855000Y-72615000D03*
X79515000Y-105635000D03*
X140475000Y-151355000D03*
X127775000Y-131035000D03*
X97295000Y-80235000D03*
X64275000Y-100555000D03*
X140475000Y-166595000D03*
X66815000Y-80235000D03*
X59195000Y-82775000D03*
X148095000Y-110715000D03*
X140475000Y-158975000D03*
X76975000Y-90395000D03*
X54115000Y-151355000D03*
X148095000Y-92935000D03*
X69355000Y-98015000D03*
X145555000Y-108175000D03*
X143015000Y-82775000D03*
X125235000Y-82775000D03*
X61735000Y-105635000D03*
X74435000Y-123415000D03*
X51575000Y-82775000D03*
X125235000Y-77695000D03*
X97295000Y-143735000D03*
X143015000Y-98015000D03*
X140475000Y-105635000D03*
X79515000Y-100555000D03*
X51575000Y-148815000D03*
X82055000Y-75155000D03*
X56655000Y-110715000D03*
X64275000Y-146275000D03*
X145555000Y-156435000D03*
X140475000Y-90395000D03*
X97295000Y-118335000D03*
X82055000Y-146275000D03*
X69355000Y-146275000D03*
X66815000Y-115795000D03*
X56655000Y-108175000D03*
X145555000Y-95475000D03*
X87135000Y-105635000D03*
X56655000Y-95475000D03*
X61735000Y-125955000D03*
X71895000Y-82775000D03*
X145555000Y-85315000D03*
X135395000Y-70075000D03*
X120155000Y-77695000D03*
X64275000Y-105635000D03*
X125235000Y-85315000D03*
X135395000Y-158975000D03*
X148095000Y-90395000D03*
X79515000Y-131035000D03*
X132855000Y-70075000D03*
X74435000Y-72615000D03*
X102375000Y-118335000D03*
X54115000Y-105635000D03*
X66815000Y-110715000D03*
X76975000Y-72615000D03*
X127775000Y-82775000D03*
X76975000Y-92935000D03*
X137935000Y-92935000D03*
X143015000Y-108175000D03*
X140475000Y-128495000D03*
X61735000Y-166595000D03*
X82055000Y-141195000D03*
X61735000Y-75155000D03*
X54115000Y-82775000D03*
X127775000Y-141195000D03*
X84595000Y-92935000D03*
X102375000Y-156435000D03*
X69355000Y-95475000D03*
X135395000Y-72615000D03*
X54115000Y-128495000D03*
X76975000Y-100555000D03*
X143015000Y-92935000D03*
X56655000Y-85315000D03*
X140475000Y-161515000D03*
X64275000Y-95475000D03*
X97295000Y-151355000D03*
X140475000Y-92935000D03*
X66815000Y-108175000D03*
X94755000Y-77695000D03*
X143015000Y-151355000D03*
X94755000Y-75155000D03*
X97295000Y-72615000D03*
X79515000Y-80235000D03*
X64275000Y-87855000D03*
X102375000Y-153895000D03*
X145555000Y-105635000D03*
X97295000Y-148815000D03*
X56655000Y-105635000D03*
X51575000Y-110715000D03*
X145555000Y-158975000D03*
X61735000Y-98015000D03*
X51575000Y-133575000D03*
X51575000Y-108175000D03*
X54115000Y-110715000D03*
X99835000Y-143735000D03*
X140475000Y-70075000D03*
X59195000Y-92935000D03*
X76975000Y-133575000D03*
X102375000Y-143735000D03*
X71895000Y-108175000D03*
X122695000Y-77695000D03*
X69355000Y-108175000D03*
X61735000Y-70075000D03*
X79515000Y-90395000D03*
X148095000Y-98015000D03*
X64275000Y-103095000D03*
X51575000Y-128495000D03*
X51575000Y-151355000D03*
X71895000Y-98015000D03*
X61735000Y-161515000D03*
X64275000Y-156435000D03*
X76975000Y-113255000D03*
X61735000Y-82775000D03*
X54115000Y-138655000D03*
X61735000Y-72615000D03*
X66815000Y-82775000D03*
X140475000Y-120875000D03*
X143015000Y-100555000D03*
X51575000Y-156435000D03*
X127775000Y-138655000D03*
X51575000Y-131035000D03*
X120155000Y-75155000D03*
X51575000Y-98015000D03*
X112535000Y-77695000D03*
X74435000Y-133575000D03*
X61735000Y-77695000D03*
X79515000Y-143735000D03*
X82055000Y-72615000D03*
X145555000Y-90395000D03*
X97295000Y-75155000D03*
X84595000Y-100555000D03*
X140475000Y-80235000D03*
X137935000Y-156435000D03*
X76975000Y-120875000D03*
X66815000Y-98015000D03*
X51575000Y-105635000D03*
X76975000Y-105635000D03*
X87135000Y-148815000D03*
X137935000Y-87855000D03*
X51575000Y-92935000D03*
X125235000Y-80235000D03*
X99835000Y-151355000D03*
X99835000Y-77695000D03*
X64275000Y-80235000D03*
X82055000Y-108175000D03*
X66815000Y-113255000D03*
X115075000Y-80235000D03*
X79515000Y-151355000D03*
X79515000Y-108175000D03*
X122695000Y-72615000D03*
X51575000Y-136115000D03*
X71895000Y-85315000D03*
X74435000Y-82775000D03*
X137935000Y-161515000D03*
X117615000Y-75155000D03*
X54115000Y-95475000D03*
X82055000Y-148815000D03*
X135395000Y-161515000D03*
X145555000Y-87855000D03*
X61735000Y-87855000D03*
X61735000Y-123415000D03*
X145555000Y-153895000D03*
X76975000Y-98015000D03*
X59195000Y-77695000D03*
X137935000Y-70075000D03*
X61735000Y-95475000D03*
X143015000Y-103095000D03*
X97295000Y-87855000D03*
X102375000Y-72615000D03*
X84595000Y-90395000D03*
X140475000Y-72615000D03*
X122695000Y-80235000D03*
X145555000Y-80235000D03*
X61735000Y-103095000D03*
X74435000Y-85315000D03*
X99835000Y-156435000D03*
X145555000Y-103095000D03*
X66815000Y-85315000D03*
X102375000Y-82775000D03*
X64275000Y-70075000D03*
X145555000Y-128495000D03*
X61735000Y-85315000D03*
X137935000Y-166595000D03*
X148095000Y-151355000D03*
X54115000Y-92935000D03*
X64275000Y-118335000D03*
X122695000Y-75155000D03*
X140475000Y-103095000D03*
X148095000Y-148815000D03*
X137935000Y-98015000D03*
X54115000Y-120875000D03*
X143015000Y-105635000D03*
X97295000Y-153895000D03*
X79515000Y-92935000D03*
X145555000Y-100555000D03*
X59195000Y-80235000D03*
X135395000Y-164055000D03*
X79515000Y-148815000D03*
X71895000Y-105635000D03*
X127775000Y-123415000D03*
X66815000Y-156435000D03*
X148095000Y-85315000D03*
X148095000Y-146275000D03*
X120155000Y-72615000D03*
X148095000Y-153895000D03*
X64275000Y-82775000D03*
X82055000Y-103095000D03*
X51575000Y-70075000D03*
X54115000Y-108175000D03*
X148095000Y-113255000D03*
X51575000Y-138655000D03*
X79515000Y-103095000D03*
X137935000Y-153895000D03*
X143015000Y-158975000D03*
X127775000Y-77695000D03*
X82055000Y-153895000D03*
X54115000Y-118335000D03*
X143015000Y-90395000D03*
X148095000Y-77695000D03*
X71895000Y-95475000D03*
X69355000Y-105635000D03*
X127775000Y-85315000D03*
X66815000Y-105635000D03*
X84595000Y-75155000D03*
X64275000Y-77695000D03*
X71895000Y-113255000D03*
X76975000Y-110715000D03*
X64275000Y-143735000D03*
X137935000Y-100555000D03*
X51575000Y-120875000D03*
X82055000Y-100555000D03*
X148095000Y-108175000D03*
X64275000Y-110715000D03*
X148095000Y-158975000D03*
X51575000Y-80235000D03*
X140475000Y-164055000D03*
X51575000Y-158975000D03*
X51575000Y-95475000D03*
X148095000Y-70075000D03*
X143015000Y-156435000D03*
X56655000Y-156435000D03*
X137935000Y-75155000D03*
X54115000Y-143735000D03*
X61735000Y-113255000D03*
X140475000Y-95475000D03*
X130315000Y-82775000D03*
X117615000Y-77695000D03*
X132855000Y-123415000D03*
X51575000Y-118335000D03*
X148095000Y-100555000D03*
X99835000Y-72615000D03*
X137935000Y-158975000D03*
X130315000Y-80235000D03*
X54115000Y-141195000D03*
X143015000Y-153895000D03*
X54115000Y-80235000D03*
X145555000Y-98015000D03*
X59195000Y-95475000D03*
X56655000Y-82775000D03*
X135395000Y-166595000D03*
X140475000Y-77695000D03*
X87135000Y-151355000D03*
X59195000Y-98015000D03*
X145555000Y-110715000D03*
X137935000Y-85315000D03*
X145555000Y-92935000D03*
X51575000Y-153895000D03*
X137935000Y-164055000D03*
X148095000Y-156435000D03*
X137935000Y-80235000D03*
X145555000Y-123415000D03*
X64275000Y-92935000D03*
X148095000Y-103095000D03*
X94755000Y-82775000D03*
X54115000Y-158975000D03*
X76975000Y-103095000D03*
X127775000Y-70075000D03*
X79515000Y-77695000D03*
X148095000Y-143735000D03*
X143015000Y-85315000D03*
X79515000Y-75155000D03*
X99835000Y-148815000D03*
X59195000Y-166595000D03*
X145555000Y-151355000D03*
X84595000Y-85315000D03*
X145555000Y-82775000D03*
X64275000Y-120875000D03*
X54115000Y-146275000D03*
X115075000Y-77695000D03*
X64275000Y-85315000D03*
X79515000Y-113255000D03*
X54115000Y-98015000D03*
X64275000Y-108175000D03*
X140475000Y-100555000D03*
X143015000Y-95475000D03*
X127775000Y-156435000D03*
X137935000Y-90395000D03*
X135395000Y-77695000D03*
X56655000Y-128495000D03*
X137935000Y-95475000D03*
X51575000Y-143735000D03*
X82055000Y-105635000D03*
X135395000Y-75155000D03*
X69355000Y-110715000D03*
X59195000Y-70075000D03*
X76975000Y-108175000D03*
X82055000Y-77695000D03*
X109995000Y-72615000D03*
X54115000Y-148815000D03*
X54115000Y-131035000D03*
X79515000Y-85315000D03*
X51575000Y-141195000D03*
X66815000Y-92935000D03*
X137935000Y-77695000D03*
X143015000Y-87855000D03*
X56655000Y-98015000D03*
X127775000Y-136115000D03*
X64275000Y-115795000D03*
X148095000Y-105635000D03*
X148095000Y-87855000D03*
X56655000Y-80235000D03*
X112535000Y-75155000D03*
X74435000Y-80235000D03*
X51575000Y-85315000D03*
X61735000Y-110715000D03*
X56655000Y-92935000D03*
X94755000Y-72615000D03*
X54115000Y-153895000D03*
X115075000Y-82775000D03*
X115075000Y-72615000D03*
X148095000Y-82775000D03*
X69355000Y-128495000D03*
X79515000Y-72615000D03*
X125235000Y-75155000D03*
X143015000Y-80235000D03*
X127775000Y-80235000D03*
X140475000Y-125955000D03*
X140475000Y-75155000D03*
X140475000Y-153895000D03*
X112535000Y-80235000D03*
X61735000Y-108175000D03*
X148095000Y-80235000D03*
X61735000Y-80235000D03*
X51575000Y-77695000D03*
X61735000Y-92935000D03*
X112535000Y-72615000D03*
X79515000Y-87855000D03*
X148095000Y-95475000D03*
X130315000Y-72615000D03*
X137935000Y-72615000D03*
X54115000Y-85315000D03*
X130315000Y-90395000D03*
X130315000Y-70075000D03*
X59195000Y-85315000D03*
X61735000Y-115795000D03*
X115075000Y-75155000D03*
X84208000Y-152692000D03*
X83222000Y-137422000D03*
X64200000Y-141600000D03*
X103600000Y-150400000D03*
X75600000Y-157200000D03*
X85200000Y-150400000D03*
X120400000Y-149400000D03*
X118200000Y-146800000D03*
X117600000Y-103800000D03*
X133400000Y-140800000D03*
X134400000Y-134800000D03*
X112000000Y-114800000D03*
X112800000Y-114000000D03*
X113600000Y-113200000D03*
X142000000Y-112800000D03*
X139200000Y-117000000D03*
X72400000Y-110200000D03*
X118200000Y-153400000D03*
X137800000Y-119800000D03*
D30*
X83160000Y-81760000D02*
X83250000Y-81850000D01*
X78000000Y-79000000D02*
X78000000Y-81760000D01*
X78000000Y-81760000D02*
X83160000Y-81760000D01*
X83250000Y-116750000D02*
X83250000Y-123250000D01*
X82250000Y-111000000D02*
X82250000Y-115750000D01*
X83250000Y-126750000D02*
X82500000Y-127500000D01*
X82250000Y-115750000D02*
X83250000Y-116750000D01*
X83250000Y-123250000D02*
X83250000Y-126750000D01*
D31*
X84208000Y-152692000D02*
X84208000Y-129208000D01*
X84208000Y-129208000D02*
X82500000Y-127500000D01*
D30*
X81843600Y-115343600D02*
X82250000Y-115750000D01*
X75726400Y-115343600D02*
X81843600Y-115343600D01*
X74500000Y-116570000D02*
X75726400Y-115343600D01*
X127000000Y-120500000D02*
X127000000Y-90800000D01*
X59900000Y-128500000D02*
X59900000Y-124400000D01*
D32*
X120000000Y-167450000D02*
X120000000Y-164680000D01*
X111160000Y-164140000D02*
X109900000Y-165400000D01*
X66700000Y-164740000D02*
X66700000Y-167300000D01*
D30*
X65480000Y-130020000D02*
X65500000Y-130000000D01*
X65500000Y-130000000D02*
X70600000Y-124900000D01*
X110300000Y-146525000D02*
X109400000Y-147425000D01*
D32*
X94600000Y-167200000D02*
X93600000Y-168200000D01*
D30*
X90960000Y-74300000D02*
X91000000Y-74340000D01*
D33*
X54880000Y-89500000D02*
X70120000Y-89500000D01*
D30*
X59900000Y-124400000D02*
X56800000Y-121300000D01*
X131600000Y-124900000D02*
X131500000Y-125000000D01*
X110300000Y-143000000D02*
X110300000Y-146525000D01*
D32*
X67980000Y-163460000D02*
X66700000Y-164740000D01*
D30*
X53000000Y-135400000D02*
X59900000Y-128500000D01*
D32*
X66700000Y-167300000D02*
X65800000Y-168200000D01*
D30*
X83122000Y-137422000D02*
X70600000Y-124900000D01*
X85944888Y-96294888D02*
X86000000Y-96350000D01*
X70600000Y-117930000D02*
X74500000Y-114030000D01*
X70120000Y-92508000D02*
X70120000Y-89500000D01*
X88600000Y-74300000D02*
X90960000Y-74300000D01*
X134000000Y-124900000D02*
X131600000Y-124900000D01*
D32*
X74300000Y-167500000D02*
X73600000Y-168200000D01*
D33*
X70120000Y-89500000D02*
X70120000Y-79590000D01*
D30*
X107580000Y-140280000D02*
X108600000Y-141300000D01*
X56800000Y-118400000D02*
X58826400Y-116373600D01*
X131500000Y-125000000D02*
X127000000Y-120500000D01*
D32*
X111160000Y-163460000D02*
X111160000Y-164140000D01*
X95920000Y-163460000D02*
X95920000Y-164180000D01*
D30*
X106240000Y-140280000D02*
X107580000Y-140280000D01*
D32*
X103540000Y-163460000D02*
X103540000Y-163962894D01*
X109900000Y-165400000D02*
X109900000Y-166700000D01*
X87800000Y-168200000D02*
X87978413Y-168200000D01*
X102300000Y-165202894D02*
X102300000Y-167300000D01*
D33*
X84600000Y-70347600D02*
X84647600Y-70347600D01*
D32*
X119250000Y-168200000D02*
X120000000Y-167450000D01*
D30*
X74500000Y-114030000D02*
X74500000Y-93880000D01*
X69180000Y-151800000D02*
X70520000Y-153140000D01*
D32*
X109900000Y-166700000D02*
X108400000Y-168200000D01*
D30*
X66800000Y-151400000D02*
X67200000Y-151800000D01*
X127000000Y-90800000D02*
X134500000Y-83300000D01*
D32*
X75600000Y-163460000D02*
X74300000Y-164760000D01*
D33*
X64750000Y-74225000D02*
X64755000Y-74225000D01*
D32*
X74300000Y-164760000D02*
X74300000Y-167500000D01*
D30*
X53000000Y-155600000D02*
X53000000Y-135400000D01*
D32*
X89600000Y-166578413D02*
X89600000Y-164760000D01*
D30*
X123900000Y-168200000D02*
X65600000Y-168200000D01*
D33*
X68627400Y-70347600D02*
X84600000Y-70347600D01*
D32*
X125100000Y-165400000D02*
X125100000Y-167000000D01*
X102300000Y-167300000D02*
X101400000Y-168200000D01*
X125100000Y-167000000D02*
X123900000Y-168200000D01*
D30*
X58826400Y-103801600D02*
X70120000Y-92508000D01*
D32*
X120000000Y-164680000D02*
X118780000Y-163460000D01*
D30*
X134500000Y-83300000D02*
X140550000Y-83300000D01*
X140550000Y-83300000D02*
X140600000Y-83350000D01*
D32*
X126400000Y-163460000D02*
X126400000Y-164100000D01*
X94600000Y-165500000D02*
X94600000Y-167200000D01*
D33*
X70120000Y-79590000D02*
X70960000Y-78750000D01*
D30*
X74310000Y-93690000D02*
X70120000Y-89500000D01*
X65600000Y-168200000D02*
X53000000Y-155600000D01*
D32*
X95920000Y-164180000D02*
X94600000Y-165500000D01*
D33*
X84647600Y-70347600D02*
X88600000Y-74300000D01*
D30*
X76914888Y-96294888D02*
X74310000Y-93690000D01*
D32*
X89600000Y-164760000D02*
X88300000Y-163460000D01*
D30*
X108600000Y-141300000D02*
X110300000Y-143000000D01*
X67200000Y-151800000D02*
X69180000Y-151800000D01*
D33*
X84600000Y-70347600D02*
X124087600Y-70347600D01*
D30*
X58826400Y-116373600D02*
X58826400Y-103801600D01*
X81000000Y-96294888D02*
X85944888Y-96294888D01*
D32*
X87978413Y-168200000D02*
X89600000Y-166578413D01*
D30*
X134500000Y-80760000D02*
X134500000Y-83300000D01*
X56800000Y-121300000D02*
X56800000Y-118400000D01*
X65480000Y-135360000D02*
X65480000Y-130020000D01*
D32*
X126400000Y-164100000D02*
X125100000Y-165400000D01*
D30*
X81000000Y-96294888D02*
X76914888Y-96294888D01*
D33*
X64750000Y-74225000D02*
X68627400Y-70347600D01*
D30*
X83222000Y-137422000D02*
X83122000Y-137422000D01*
D33*
X64755000Y-74225000D02*
X70120000Y-79590000D01*
D30*
X74500000Y-93880000D02*
X74310000Y-93690000D01*
D33*
X124087600Y-70347600D02*
X134500000Y-80760000D01*
D30*
X64400000Y-141600000D02*
X66800000Y-144000000D01*
X70600000Y-124900000D02*
X70600000Y-117930000D01*
X66800000Y-144000000D02*
X66800000Y-151400000D01*
D32*
X103540000Y-163962894D02*
X102300000Y-165202894D01*
X106240000Y-76880000D02*
X109310000Y-76880000D01*
X109310000Y-76880000D02*
X109500000Y-76690000D01*
D31*
X109500000Y-84310000D02*
X108010000Y-85800000D01*
X98400000Y-127000000D02*
X98400000Y-145200000D01*
X88600000Y-120200000D02*
X89600000Y-121200000D01*
X97200000Y-85800000D02*
X94600000Y-88400000D01*
X89600000Y-121200000D02*
X92600000Y-121200000D01*
X108010000Y-85800000D02*
X97200000Y-85800000D01*
X90200000Y-88400000D02*
X88600000Y-90000000D01*
X88600000Y-90000000D02*
X88600000Y-120200000D01*
X94600000Y-88400000D02*
X90200000Y-88400000D01*
X92600000Y-121200000D02*
X98400000Y-127000000D01*
X98400000Y-145200000D02*
X103600000Y-150400000D01*
D32*
X56700000Y-133900000D02*
X56700000Y-138400000D01*
X57500000Y-139200000D02*
X59160000Y-139200000D01*
X63400000Y-122860000D02*
X63400000Y-127200000D01*
X56700000Y-138400000D02*
X57500000Y-139200000D01*
X59160000Y-139200000D02*
X60400000Y-140440000D01*
X60000000Y-119460000D02*
X63400000Y-122860000D01*
X60000000Y-119460000D02*
X66000000Y-119460000D01*
X63400000Y-127200000D02*
X56700000Y-133900000D01*
D31*
X92800000Y-85800000D02*
X90000000Y-85800000D01*
X107700000Y-73260000D02*
X107700000Y-75100000D01*
X89236200Y-86563800D02*
X89236200Y-88194852D01*
X107000000Y-75800000D02*
X105600000Y-75800000D01*
X90000000Y-85800000D02*
X89236200Y-86563800D01*
X106240000Y-71800000D02*
X107700000Y-73260000D01*
X89236200Y-88194852D02*
X88104800Y-89326252D01*
X88104800Y-139924800D02*
X91000000Y-142820000D01*
X97695200Y-83704800D02*
X94895200Y-83704800D01*
X105600000Y-75800000D02*
X97695200Y-83704800D01*
X88104800Y-89326252D02*
X88104800Y-139924800D01*
X107700000Y-75100000D02*
X107000000Y-75800000D01*
X94895200Y-83704800D02*
X92800000Y-85800000D01*
X59140000Y-146800000D02*
X60400000Y-148060000D01*
X66100000Y-162200000D02*
X56600000Y-152700000D01*
X69300000Y-164780000D02*
X69300000Y-162900000D01*
X136200000Y-123600000D02*
X136200000Y-135540000D01*
X131200000Y-99300000D02*
X131200000Y-118600000D01*
X56600000Y-152700000D02*
X56600000Y-147600000D01*
X70520000Y-166000000D02*
X69300000Y-164780000D01*
X131200000Y-118600000D02*
X136200000Y-123600000D01*
X56600000Y-147600000D02*
X57400000Y-146800000D01*
X134500000Y-96000000D02*
X131200000Y-99300000D01*
X68600000Y-162200000D02*
X66100000Y-162200000D01*
X69300000Y-162900000D02*
X68600000Y-162200000D01*
X57400000Y-146800000D02*
X59140000Y-146800000D01*
X136200000Y-135540000D02*
X131500000Y-140240000D01*
X57860000Y-148060000D02*
X59000000Y-149200000D01*
X67400000Y-161800000D02*
X71400000Y-161800000D01*
X59000000Y-153400000D02*
X67400000Y-161800000D01*
X71400000Y-161800000D02*
X73060000Y-163460000D01*
X59000000Y-149200000D02*
X59000000Y-153400000D01*
X73060000Y-153140000D02*
X78140000Y-158220000D01*
X78140000Y-158220000D02*
X78140000Y-163460000D01*
X80680000Y-158580000D02*
X75600000Y-153500000D01*
X80680000Y-163460000D02*
X80680000Y-158580000D01*
X75600000Y-153500000D02*
X75600000Y-150600000D01*
X74800000Y-160900000D02*
X76800000Y-162900000D01*
X65470000Y-153140000D02*
X73230000Y-160900000D01*
X76800000Y-164800000D02*
X75600000Y-166000000D01*
X76800000Y-162900000D02*
X76800000Y-164800000D01*
X73230000Y-160900000D02*
X74800000Y-160900000D01*
X73000000Y-151600000D02*
X79400000Y-158000000D01*
X79400000Y-158000000D02*
X79400000Y-164740000D01*
X71520000Y-151600000D02*
X73000000Y-151600000D01*
X70520000Y-150600000D02*
X71520000Y-151600000D01*
X79400000Y-164740000D02*
X78140000Y-166000000D01*
X78300000Y-150900000D02*
X76600000Y-149200000D01*
X85760000Y-163460000D02*
X85760000Y-161660000D01*
X78300000Y-154200000D02*
X78300000Y-150900000D01*
X85760000Y-161660000D02*
X78300000Y-154200000D01*
X76600000Y-149200000D02*
X69410000Y-149200000D01*
X69410000Y-149200000D02*
X68010000Y-150600000D01*
X85200000Y-151300000D02*
X85200000Y-159100000D01*
X92100000Y-83200000D02*
X90400000Y-83200000D01*
X66600000Y-153400000D02*
X70400000Y-157200000D01*
X85200000Y-159100000D02*
X87100000Y-161000000D01*
X87600000Y-86000000D02*
X87600000Y-100100000D01*
X87100000Y-164200000D02*
X86500000Y-164800000D01*
X100960000Y-74340000D02*
X92100000Y-83200000D01*
X85200000Y-150440000D02*
X85200000Y-151300000D01*
X75600000Y-157200000D02*
X75500000Y-157200000D01*
X91000000Y-150440000D02*
X85200000Y-150440000D01*
X87100000Y-161000000D02*
X87100000Y-164200000D01*
X85200000Y-102500000D02*
X85200000Y-149300000D01*
X87600000Y-100100000D02*
X85200000Y-102500000D01*
X86500000Y-164800000D02*
X84420000Y-164800000D01*
X66600000Y-152600000D02*
X66600000Y-153400000D01*
X85200000Y-150400000D02*
X85200000Y-151300000D01*
X65440000Y-151440000D02*
X66600000Y-152600000D01*
X84420000Y-164800000D02*
X83220000Y-166000000D01*
X90400000Y-83200000D02*
X87600000Y-86000000D01*
X70400000Y-157200000D02*
X75600000Y-157200000D01*
X65440000Y-150600000D02*
X65440000Y-151440000D01*
X85200000Y-149300000D02*
X85200000Y-150400000D01*
X106240000Y-74340000D02*
X100960000Y-74340000D01*
X92200000Y-162100000D02*
X92200000Y-141480000D01*
X123880000Y-150400000D02*
X118100000Y-144620000D01*
X92200000Y-141480000D02*
X91000000Y-140280000D01*
X121400000Y-108300000D02*
X119260000Y-106160000D01*
X121400000Y-116765526D02*
X121400000Y-108300000D01*
X118100000Y-144620000D02*
X118100000Y-120065526D01*
X118100000Y-120065526D02*
X121400000Y-116765526D01*
X90840000Y-163460000D02*
X92200000Y-162100000D01*
X117700000Y-145411025D02*
X117700000Y-119900000D01*
X92100000Y-164740000D02*
X92100000Y-162831829D01*
X120400000Y-149400000D02*
X120400000Y-148111025D01*
X90840000Y-166000000D02*
X92100000Y-164740000D01*
X121000000Y-110440000D02*
X119260000Y-108700000D01*
X120400000Y-149460000D02*
X120400000Y-149400000D01*
X120400000Y-148111025D02*
X117700000Y-145411025D01*
X121000000Y-116600000D02*
X121000000Y-110440000D01*
X123880000Y-152940000D02*
X120400000Y-149460000D01*
X92600000Y-139340000D02*
X91000000Y-137740000D01*
X92100000Y-162831829D02*
X92600000Y-162331829D01*
X117700000Y-119900000D02*
X121000000Y-116600000D01*
X92600000Y-162331829D02*
X92600000Y-139340000D01*
X93000000Y-163080000D02*
X93000000Y-137200000D01*
X118200000Y-149800000D02*
X118200000Y-146800000D01*
X118200000Y-146800000D02*
X117800000Y-146800000D01*
X116800000Y-113700000D02*
X119260000Y-111240000D01*
X93000000Y-137200000D02*
X91000000Y-135200000D01*
X119260000Y-111240000D02*
X117600000Y-109580000D01*
X116800000Y-145800000D02*
X116800000Y-113700000D01*
X123880000Y-155480000D02*
X118200000Y-149800000D01*
X93380000Y-163460000D02*
X93000000Y-163080000D01*
X117600000Y-109580000D02*
X117600000Y-103800000D01*
X117800000Y-146800000D02*
X116800000Y-145800000D01*
X93400000Y-161800000D02*
X94700000Y-163100000D01*
X134400000Y-113880000D02*
X134400000Y-118800000D01*
X93400000Y-135060000D02*
X93400000Y-161800000D01*
X91000000Y-132660000D02*
X93400000Y-135060000D01*
X134400000Y-118800000D02*
X138600000Y-123000000D01*
X138600000Y-150920000D02*
X131500000Y-158020000D01*
X94700000Y-164680000D02*
X93380000Y-166000000D01*
X134500000Y-113780000D02*
X134400000Y-113880000D01*
X94700000Y-163100000D02*
X94700000Y-164680000D01*
X138600000Y-123000000D02*
X138600000Y-150920000D01*
X138200000Y-123100000D02*
X133200000Y-118100000D01*
X131500000Y-155480000D02*
X138200000Y-148780000D01*
X93800000Y-158800000D02*
X93800000Y-132920000D01*
X93800000Y-132920000D02*
X91000000Y-130120000D01*
X135040000Y-111240000D02*
X134500000Y-111240000D01*
X133200000Y-118100000D02*
X133200000Y-112540000D01*
X138200000Y-148780000D02*
X138200000Y-123100000D01*
X133200000Y-112540000D02*
X134500000Y-111240000D01*
X98460000Y-163460000D02*
X93800000Y-158800000D01*
X132800000Y-118200000D02*
X137800000Y-123200000D01*
X137800000Y-146640000D02*
X131500000Y-152940000D01*
X98460000Y-166000000D02*
X99700000Y-164760000D01*
X99700000Y-163000000D02*
X94200000Y-157500000D01*
X137800000Y-123200000D02*
X137800000Y-146640000D01*
X132800000Y-110400000D02*
X132800000Y-118200000D01*
X94200000Y-157500000D02*
X94200000Y-130780000D01*
X134500000Y-108700000D02*
X132800000Y-110400000D01*
X94200000Y-130780000D02*
X91000000Y-127580000D01*
X99700000Y-164760000D02*
X99700000Y-163000000D01*
X131500000Y-150400000D02*
X137400000Y-144500000D01*
X94600000Y-157060000D02*
X101000000Y-163460000D01*
X132400000Y-118300000D02*
X132400000Y-108260000D01*
X91000000Y-125040000D02*
X94600000Y-128640000D01*
X137400000Y-123300000D02*
X132400000Y-118300000D01*
X137400000Y-144500000D02*
X137400000Y-123300000D01*
X132400000Y-108260000D02*
X134500000Y-106160000D01*
X94600000Y-128640000D02*
X94600000Y-157060000D01*
X132000000Y-106120000D02*
X132000000Y-118400000D01*
X132000000Y-118400000D02*
X137000000Y-123400000D01*
X137000000Y-142360000D02*
X131500000Y-147860000D01*
X95000000Y-155700000D02*
X95000000Y-126500000D01*
X95000000Y-126500000D02*
X91000000Y-122500000D01*
X137000000Y-123400000D02*
X137000000Y-142360000D01*
X101000000Y-166000000D02*
X102200000Y-164800000D01*
X102200000Y-164800000D02*
X102200000Y-162900000D01*
X134500000Y-103620000D02*
X132000000Y-106120000D01*
X102200000Y-162900000D02*
X95000000Y-155700000D01*
X118640000Y-103000000D02*
X106974661Y-103000000D01*
X105000000Y-138980000D02*
X106240000Y-137740000D01*
X105000000Y-162380000D02*
X105000000Y-138980000D01*
X119260000Y-103620000D02*
X118640000Y-103000000D01*
X90248600Y-105848600D02*
X89971400Y-105571400D01*
X105813939Y-103308600D02*
X105505339Y-103000000D01*
X94274661Y-103000000D02*
X91426061Y-105848600D01*
X105505339Y-103000000D02*
X94274661Y-103000000D01*
X118500000Y-142480000D02*
X118500000Y-120200000D01*
X118500000Y-120200000D02*
X121800000Y-116900000D01*
X91426061Y-105848600D02*
X90248600Y-105848600D01*
X121800000Y-106160000D02*
X119260000Y-103620000D01*
X121800000Y-116900000D02*
X121800000Y-106160000D01*
X106974661Y-103000000D02*
X106666061Y-103308600D01*
X106666061Y-103308600D02*
X105813939Y-103308600D01*
X106080000Y-163460000D02*
X105000000Y-162380000D01*
X89971400Y-103308600D02*
X91000000Y-102280000D01*
X123880000Y-147860000D02*
X118500000Y-142480000D01*
X89971400Y-105571400D02*
X89971400Y-103308600D01*
X91000000Y-104820000D02*
X94740000Y-101080000D01*
X122200000Y-117100000D02*
X122200000Y-104020000D01*
X122200000Y-104020000D02*
X119260000Y-101080000D01*
X104618600Y-164538600D02*
X106080000Y-166000000D01*
X104618600Y-136821400D02*
X104618600Y-164538600D01*
X118900000Y-120400000D02*
X122200000Y-117100000D01*
X118900000Y-140340000D02*
X118900000Y-120400000D01*
X123880000Y-145320000D02*
X118900000Y-140340000D01*
X106240000Y-135200000D02*
X104618600Y-136821400D01*
X94740000Y-101080000D02*
X119260000Y-101080000D01*
X122600000Y-117300000D02*
X119300000Y-120600000D01*
X111100000Y-160980000D02*
X108620000Y-163460000D01*
X106240000Y-132660000D02*
X111100000Y-137520000D01*
X111100000Y-137520000D02*
X111100000Y-160980000D01*
X119260000Y-98540000D02*
X122600000Y-101880000D01*
X119300000Y-120600000D02*
X119300000Y-138200000D01*
X122600000Y-101880000D02*
X122600000Y-117300000D01*
X119300000Y-138200000D02*
X123880000Y-142780000D01*
X111500000Y-135380000D02*
X106240000Y-130120000D01*
X123000000Y-99740000D02*
X119260000Y-96000000D01*
X111500000Y-161211829D02*
X111500000Y-135380000D01*
X119700000Y-120800000D02*
X123000000Y-117500000D01*
X108620000Y-166000000D02*
X109800000Y-164820000D01*
X108620000Y-166000000D02*
X108800000Y-166000000D01*
X123000000Y-117500000D02*
X123000000Y-99740000D01*
X123880000Y-140240000D02*
X119700000Y-136060000D01*
X119700000Y-136060000D02*
X119700000Y-120800000D01*
X109800000Y-164820000D02*
X109800000Y-162911829D01*
X109800000Y-162911829D02*
X111500000Y-161211829D01*
X108800000Y-166000000D02*
X109000000Y-165800000D01*
X123400000Y-97600000D02*
X119260000Y-93460000D01*
X120100000Y-121000000D02*
X123400000Y-117700000D01*
X123880000Y-137700000D02*
X120100000Y-133920000D01*
X111900000Y-161660000D02*
X113700000Y-163460000D01*
X111900000Y-133240000D02*
X111900000Y-161660000D01*
X120100000Y-133920000D02*
X120100000Y-121000000D01*
X123400000Y-117700000D02*
X123400000Y-97600000D01*
X106240000Y-127580000D02*
X111900000Y-133240000D01*
X112300000Y-160300000D02*
X112300000Y-131100000D01*
X115000000Y-163000000D02*
X112300000Y-160300000D01*
X112300000Y-131100000D02*
X106240000Y-125040000D01*
X123800000Y-117900000D02*
X120500000Y-121200000D01*
X113700000Y-166000000D02*
X115000000Y-164700000D01*
X115000000Y-164700000D02*
X115000000Y-163000000D01*
X123800000Y-95460000D02*
X123800000Y-117900000D01*
X120500000Y-131780000D02*
X123880000Y-135160000D01*
X119260000Y-90920000D02*
X123800000Y-95460000D01*
X120500000Y-121200000D02*
X120500000Y-131780000D01*
X106240000Y-122500000D02*
X112700000Y-128960000D01*
X120900000Y-129640000D02*
X120900000Y-121400000D01*
X112700000Y-159920000D02*
X116240000Y-163460000D01*
X120900000Y-121400000D02*
X124200000Y-118100000D01*
X124200000Y-93320000D02*
X119260000Y-88380000D01*
X123880000Y-132620000D02*
X120900000Y-129640000D01*
X124200000Y-118100000D02*
X124200000Y-93320000D01*
X112700000Y-128960000D02*
X112700000Y-159920000D01*
X124600000Y-118300000D02*
X121300000Y-121600000D01*
X113100000Y-126820000D02*
X113100000Y-159700000D01*
X117600000Y-163000000D02*
X117600000Y-164640000D01*
X117600000Y-164640000D02*
X116240000Y-166000000D01*
X113100000Y-159700000D02*
X115400000Y-162000000D01*
X119260000Y-85840000D02*
X124600000Y-91180000D01*
X121300000Y-121600000D02*
X121300000Y-127500000D01*
X116600000Y-162000000D02*
X117600000Y-163000000D01*
X121300000Y-127500000D02*
X123880000Y-130080000D01*
X115400000Y-162000000D02*
X116600000Y-162000000D01*
X106240000Y-119960000D02*
X113100000Y-126820000D01*
X124600000Y-91180000D02*
X124600000Y-118300000D01*
X130000000Y-92880000D02*
X134500000Y-88380000D01*
X113500000Y-155640000D02*
X121320000Y-163460000D01*
X135028600Y-129091400D02*
X135028600Y-123908068D01*
X113500000Y-124680000D02*
X113500000Y-155640000D01*
X131500000Y-132620000D02*
X135028600Y-129091400D01*
X135028600Y-123908068D02*
X130000000Y-118879468D01*
X130000000Y-118879468D02*
X130000000Y-92880000D01*
X106240000Y-117420000D02*
X113500000Y-124680000D01*
X113900000Y-155500000D02*
X120600000Y-162200000D01*
X121742685Y-162200000D02*
X122500000Y-162957315D01*
X113900000Y-122540000D02*
X113900000Y-155500000D01*
X122500000Y-162957315D02*
X122500000Y-164820000D01*
X130400000Y-95020000D02*
X130400000Y-118774208D01*
X135400000Y-123774208D02*
X135400000Y-131260000D01*
X134500000Y-90920000D02*
X130400000Y-95020000D01*
X122500000Y-164820000D02*
X121320000Y-166000000D01*
X135400000Y-131260000D02*
X131500000Y-135160000D01*
X106240000Y-114880000D02*
X113900000Y-122540000D01*
X120600000Y-162200000D02*
X121742685Y-162200000D01*
X130400000Y-118774208D02*
X135400000Y-123774208D01*
X123860000Y-163460000D02*
X122200000Y-161800000D01*
X131600000Y-118500000D02*
X131600000Y-101440000D01*
X131600000Y-101440000D02*
X134500000Y-98540000D01*
X120700000Y-161800000D02*
X114300000Y-155400000D01*
X133480000Y-140800000D02*
X136600000Y-137680000D01*
X136600000Y-123500000D02*
X131600000Y-118500000D01*
X114300000Y-155400000D02*
X114300000Y-120400000D01*
X136600000Y-137680000D02*
X136600000Y-123500000D01*
X114300000Y-120400000D02*
X106240000Y-112340000D01*
X133400000Y-140880000D02*
X133400000Y-140800000D01*
X122200000Y-161800000D02*
X120700000Y-161800000D01*
X133400000Y-140800000D02*
X133480000Y-140800000D01*
X131500000Y-142780000D02*
X133400000Y-140880000D01*
X135800000Y-133400000D02*
X135800000Y-123700000D01*
X125000000Y-164860000D02*
X123860000Y-166000000D01*
X114700000Y-155300000D02*
X120800000Y-161400000D01*
X130800000Y-97160000D02*
X134500000Y-93460000D01*
X131500000Y-137700000D02*
X135800000Y-133400000D01*
X120800000Y-161400000D02*
X123325371Y-161400000D01*
X114700000Y-119300000D02*
X114700000Y-155300000D01*
X123325371Y-161400000D02*
X125000000Y-163074629D01*
X125000000Y-163074629D02*
X125000000Y-164860000D01*
X135800000Y-123700000D02*
X130800000Y-118700000D01*
X106240000Y-110840000D02*
X114700000Y-119300000D01*
X106240000Y-109800000D02*
X106240000Y-110840000D01*
X130800000Y-118700000D02*
X130800000Y-97160000D01*
X111900000Y-114800000D02*
X107600000Y-110500000D01*
X123880000Y-127540000D02*
X121700000Y-125360000D01*
X112000000Y-114800000D02*
X111900000Y-114800000D01*
X128940000Y-163460000D02*
X126480000Y-161000000D01*
X125000000Y-89040000D02*
X119260000Y-83300000D01*
X121700000Y-125360000D02*
X121700000Y-121800000D01*
X115100000Y-118000000D02*
X112000000Y-114900000D01*
X106504261Y-108609600D02*
X94730400Y-108609600D01*
X112000000Y-114900000D02*
X112000000Y-114800000D01*
X94730400Y-108609600D02*
X91000000Y-112340000D01*
X126480000Y-161000000D02*
X121000000Y-161000000D01*
X121000000Y-161000000D02*
X115100000Y-155100000D01*
X107600000Y-110500000D02*
X107600000Y-109705339D01*
X107600000Y-109705339D02*
X106504261Y-108609600D01*
X121700000Y-121800000D02*
X125000000Y-118500000D01*
X115100000Y-155100000D02*
X115100000Y-118000000D01*
X125000000Y-118500000D02*
X125000000Y-89040000D01*
X130200000Y-164740000D02*
X128940000Y-166000000D01*
X127800000Y-160600000D02*
X130200000Y-163000000D01*
X115500000Y-116700000D02*
X115500000Y-154900000D01*
X90500000Y-111100000D02*
X91400000Y-111100000D01*
X112800000Y-114000000D02*
X115500000Y-116700000D01*
X130200000Y-163000000D02*
X130200000Y-164740000D01*
X89800000Y-111800000D02*
X90500000Y-111100000D01*
X94400000Y-108100000D02*
X106900000Y-108100000D01*
X115500000Y-154900000D02*
X121200000Y-160600000D01*
X89800000Y-113680000D02*
X89800000Y-111800000D01*
X106900000Y-108100000D02*
X112800000Y-114000000D01*
X121200000Y-160600000D02*
X127800000Y-160600000D01*
X91400000Y-111100000D02*
X94400000Y-108100000D01*
X91000000Y-114880000D02*
X89800000Y-113680000D01*
X91400000Y-107700000D02*
X108100000Y-107700000D01*
X115900000Y-115500000D02*
X113600000Y-113200000D01*
X115900000Y-154700000D02*
X115900000Y-115500000D01*
X89400000Y-115820000D02*
X89400000Y-109700000D01*
X131480000Y-163460000D02*
X128220000Y-160200000D01*
X91000000Y-117420000D02*
X89400000Y-115820000D01*
X89400000Y-109700000D02*
X91400000Y-107700000D01*
X121400000Y-160200000D02*
X115900000Y-154700000D01*
X108100000Y-107700000D02*
X113600000Y-113200000D01*
X128220000Y-160200000D02*
X121400000Y-160200000D01*
X110100000Y-107300000D02*
X116300000Y-113500000D01*
X129500000Y-159800000D02*
X132600000Y-162900000D01*
X132600000Y-162900000D02*
X132600000Y-164880000D01*
X132600000Y-164880000D02*
X131480000Y-166000000D01*
X91000000Y-119960000D02*
X89000000Y-117960000D01*
X89000000Y-117960000D02*
X89000000Y-109300000D01*
X116300000Y-154500000D02*
X121600000Y-159800000D01*
X121600000Y-159800000D02*
X129500000Y-159800000D01*
X89000000Y-109300000D02*
X91000000Y-107300000D01*
X91000000Y-107300000D02*
X110100000Y-107300000D01*
X116300000Y-113500000D02*
X116300000Y-154500000D01*
X147900000Y-118700000D02*
X147900000Y-141100000D01*
X147900000Y-141100000D02*
X146800000Y-142200000D01*
X144800000Y-142200000D02*
X143460000Y-143540000D01*
X146800000Y-142200000D02*
X144800000Y-142200000D01*
X142000000Y-112800000D02*
X147900000Y-118700000D01*
X142791829Y-139700000D02*
X141600000Y-138508171D01*
X144700000Y-139700000D02*
X142791829Y-139700000D01*
X141600000Y-138508171D02*
X141600000Y-119400000D01*
X146000000Y-141000000D02*
X144700000Y-139700000D01*
X141600000Y-119400000D02*
X139200000Y-117000000D01*
D30*
X78090000Y-86750000D02*
X78000000Y-86840000D01*
X83250000Y-86750000D02*
X78090000Y-86750000D01*
X90710000Y-86750000D02*
X91000000Y-87040000D01*
D31*
X70000000Y-122200000D02*
X70000000Y-112600000D01*
X62900000Y-153140000D02*
X61700000Y-151940000D01*
X61700000Y-130500000D02*
X70000000Y-122200000D01*
X61700000Y-151940000D02*
X61700000Y-130500000D01*
X70000000Y-112600000D02*
X72400000Y-110200000D01*
X127600000Y-153800000D02*
X127600000Y-149220000D01*
X118200000Y-153400000D02*
X121600000Y-156800000D01*
X124600000Y-156800000D02*
X127600000Y-153800000D01*
X121600000Y-156800000D02*
X124600000Y-156800000D01*
X127600000Y-149220000D02*
X131500000Y-145320000D01*
X137800000Y-104380000D02*
X134500000Y-101080000D01*
X137800000Y-119800000D02*
X137800000Y-104380000D01*
D30*
X73515000Y-78735000D02*
X73500000Y-78750000D01*
X73515000Y-74250000D02*
X73515000Y-78735000D01*
X109380000Y-155520000D02*
X109400000Y-155540000D01*
X106240000Y-155520000D02*
X109380000Y-155520000D01*
D31*
X107500000Y-148065000D02*
X109400000Y-149965000D01*
X106240000Y-145360000D02*
X107500000Y-146620000D01*
X107500000Y-146620000D02*
X107500000Y-148065000D01*
M02*
