G04 #@! TF.GenerationSoftware,KiCad,Pcbnew,8.0.3+1*
G04 #@! TF.CreationDate,2024-08-08T21:54:27+02:00*
G04 #@! TF.ProjectId,EpmDevBoard,45706d44-6576-4426-9f61-72642e6b6963,rev?*
G04 #@! TF.SameCoordinates,Original*
G04 #@! TF.FileFunction,Legend,Bot*
G04 #@! TF.FilePolarity,Positive*
%FSLAX46Y46*%
G04 Gerber Fmt 4.6, Leading zero omitted, Abs format (unit mm)*
G04 Created by KiCad (PCBNEW 8.0.3+1) date 2024-08-08 21:54:27*
%MOMM*%
%LPD*%
G01*
G04 APERTURE LIST*
G04 Aperture macros list*
%AMRoundRect*
0 Rectangle with rounded corners*
0 $1 Rounding radius*
0 $2 $3 $4 $5 $6 $7 $8 $9 X,Y pos of 4 corners*
0 Add a 4 corners polygon primitive as box body*
4,1,4,$2,$3,$4,$5,$6,$7,$8,$9,$2,$3,0*
0 Add four circle primitives for the rounded corners*
1,1,$1+$1,$2,$3*
1,1,$1+$1,$4,$5*
1,1,$1+$1,$6,$7*
1,1,$1+$1,$8,$9*
0 Add four rect primitives between the rounded corners*
20,1,$1+$1,$2,$3,$4,$5,0*
20,1,$1+$1,$4,$5,$6,$7,0*
20,1,$1+$1,$6,$7,$8,$9,0*
20,1,$1+$1,$8,$9,$2,$3,0*%
G04 Aperture macros list end*
%ADD10C,0.120000*%
%ADD11O,1.700000X1.700000*%
%ADD12R,1.700000X1.700000*%
%ADD13O,1.400000X1.400000*%
%ADD14C,1.400000*%
%ADD15C,7.000000*%
%ADD16C,1.422400*%
%ADD17R,1.422400X1.422400*%
%ADD18C,1.600000*%
%ADD19C,1.700000*%
%ADD20RoundRect,0.250000X-0.600000X0.600000X-0.600000X-0.600000X0.600000X-0.600000X0.600000X0.600000X0*%
%ADD21O,7.000000X3.500000*%
%ADD22O,2.500000X1.600000*%
%ADD23R,1.000000X1.500000*%
G04 APERTURE END LIST*
D10*
X77250000Y-83250000D02*
X74450000Y-83250000D01*
X77250000Y-81250000D02*
X77250000Y-83250000D01*
X74450000Y-83250000D02*
X74450000Y-81250000D01*
X74450000Y-81250000D02*
X77250000Y-81250000D01*
X127900000Y-83250000D02*
X125100000Y-83250000D01*
X127900000Y-81250000D02*
X127900000Y-83250000D01*
X125100000Y-83250000D02*
X125100000Y-81250000D01*
X125100000Y-81250000D02*
X127900000Y-81250000D01*
%LPC*%
D11*
X73406000Y-162418500D03*
D12*
X73406000Y-164958500D03*
D11*
X70206000Y-172933500D03*
X70206000Y-170393500D03*
X72746000Y-172933500D03*
X72746000Y-170393500D03*
X75286000Y-172933500D03*
X75286000Y-170393500D03*
X77826000Y-172933500D03*
X77826000Y-170393500D03*
X80366000Y-172933500D03*
X80366000Y-170393500D03*
X82906000Y-172933500D03*
D12*
X82906000Y-170393500D03*
D13*
X129131000Y-162953500D03*
D14*
X129131000Y-157873500D03*
D11*
X100296000Y-144762800D03*
X100296000Y-142222800D03*
X100296000Y-139682800D03*
X100296000Y-137142800D03*
X100296000Y-134602800D03*
X100296000Y-132062800D03*
X100296000Y-129522800D03*
X100296000Y-126982800D03*
X100296000Y-124442800D03*
X100296000Y-121902800D03*
X100296000Y-119362800D03*
X100296000Y-116822800D03*
X100296000Y-114282800D03*
X100296000Y-111742800D03*
X100296000Y-109202800D03*
X100296000Y-106662800D03*
X100296000Y-104122800D03*
X100296000Y-101582800D03*
X100296000Y-99042800D03*
X100296000Y-96502800D03*
D12*
X100296000Y-93962800D03*
D11*
X55810000Y-119865000D03*
X55810000Y-117325000D03*
X55810000Y-114785000D03*
X55810000Y-112245000D03*
X55810000Y-109705000D03*
X55810000Y-107165000D03*
X55810000Y-104625000D03*
X55810000Y-102085000D03*
X55810000Y-99545000D03*
X55810000Y-97005000D03*
D12*
X55810000Y-94465000D03*
D15*
X54300000Y-81000000D03*
D16*
X71304000Y-98275000D03*
X73844000Y-100815000D03*
X73844000Y-98275000D03*
X76384000Y-100815000D03*
X76384000Y-98275000D03*
X78924000Y-100815000D03*
X76384000Y-103355000D03*
X78924000Y-103355000D03*
X76384000Y-105895000D03*
X78924000Y-105895000D03*
X76384000Y-108435000D03*
X78924000Y-108435000D03*
X76384000Y-110975000D03*
X78924000Y-110975000D03*
X76384000Y-113515000D03*
X78924000Y-113515000D03*
X76384000Y-116055000D03*
X73844000Y-113515000D03*
X73844000Y-116055000D03*
X71304000Y-113515000D03*
X71304000Y-116055000D03*
X68764000Y-113515000D03*
X68764000Y-116055000D03*
X66224000Y-113515000D03*
X66224000Y-116055000D03*
X63684000Y-113515000D03*
X63684000Y-116055000D03*
X61144000Y-113515000D03*
X63684000Y-110975000D03*
X61144000Y-110975000D03*
X63684000Y-108435000D03*
X61144000Y-108435000D03*
X63684000Y-105895000D03*
X61144000Y-105895000D03*
X63684000Y-103355000D03*
X61144000Y-103355000D03*
X63684000Y-100815000D03*
X61144000Y-100815000D03*
X63684000Y-98275000D03*
X66224000Y-100815000D03*
X66224000Y-98275000D03*
X68764000Y-100815000D03*
X68764000Y-98275000D03*
D17*
X71304000Y-100815000D03*
D11*
X82734000Y-90655000D03*
X80194000Y-90655000D03*
X77654000Y-90655000D03*
X75114000Y-90655000D03*
X72574000Y-90655000D03*
X70034000Y-90655000D03*
X67494000Y-90655000D03*
X64954000Y-90655000D03*
X62414000Y-90655000D03*
X59874000Y-90655000D03*
D12*
X57334000Y-90655000D03*
D11*
X147540000Y-93962800D03*
X147540000Y-96502800D03*
X147540000Y-99042800D03*
X147540000Y-101582800D03*
X147540000Y-104122800D03*
X147540000Y-106662800D03*
X147540000Y-109202800D03*
X147540000Y-111742800D03*
X147540000Y-114282800D03*
X147540000Y-116822800D03*
X147540000Y-119362800D03*
X147540000Y-121902800D03*
X147540000Y-124442800D03*
X147540000Y-126982800D03*
X147540000Y-129522800D03*
X147540000Y-132062800D03*
X147540000Y-134602800D03*
X147540000Y-137142800D03*
X147540000Y-139682800D03*
X147540000Y-142222800D03*
D12*
X147540000Y-144762800D03*
D18*
X54400000Y-123025000D03*
X51900000Y-123025000D03*
D15*
X145500000Y-172100000D03*
D18*
X137425000Y-83925000D03*
X139925000Y-83925000D03*
X90932000Y-107125000D03*
X90932000Y-104625000D03*
D11*
X82734000Y-86845000D03*
X80194000Y-86845000D03*
X77654000Y-86845000D03*
X75114000Y-86845000D03*
X72574000Y-86845000D03*
X70034000Y-86845000D03*
X67494000Y-86845000D03*
X64954000Y-86845000D03*
X62414000Y-86845000D03*
X59874000Y-86845000D03*
D12*
X57334000Y-86845000D03*
D13*
X125131000Y-162953500D03*
D14*
X125131000Y-157873500D03*
D11*
X147540000Y-148318800D03*
X145000000Y-148318800D03*
X142460000Y-148318800D03*
X139920000Y-148318800D03*
X137380000Y-148318800D03*
X134840000Y-148318800D03*
X132300000Y-148318800D03*
X129760000Y-148318800D03*
X127220000Y-148318800D03*
X124680000Y-148318800D03*
X122140000Y-148318800D03*
X119600000Y-148318800D03*
X117060000Y-148318800D03*
X114520000Y-148318800D03*
X111980000Y-148318800D03*
X109440000Y-148318800D03*
X106900000Y-148318800D03*
X104360000Y-148318800D03*
X101820000Y-148318800D03*
X99280000Y-148318800D03*
D12*
X96740000Y-148318800D03*
D18*
X119650000Y-154750000D03*
X122150000Y-154750000D03*
D13*
X97381000Y-163013500D03*
D14*
X97381000Y-157933500D03*
D18*
X93800000Y-132025000D03*
X93800000Y-129525000D03*
D13*
X134431000Y-162953500D03*
D14*
X134431000Y-157873500D03*
D11*
X84258000Y-94465000D03*
X84258000Y-97005000D03*
X84258000Y-99545000D03*
X84258000Y-102085000D03*
X84258000Y-104625000D03*
X84258000Y-107165000D03*
X84258000Y-109705000D03*
X84258000Y-112245000D03*
X84258000Y-114785000D03*
X84258000Y-117325000D03*
D12*
X84258000Y-119865000D03*
D11*
X96740000Y-144762800D03*
X96740000Y-142222800D03*
X96740000Y-139682800D03*
X96740000Y-137142800D03*
X96740000Y-134602800D03*
X96740000Y-132062800D03*
X96740000Y-129522800D03*
X96740000Y-126982800D03*
X96740000Y-124442800D03*
X96740000Y-121902800D03*
X96740000Y-119362800D03*
X96740000Y-116822800D03*
X96740000Y-114282800D03*
X96740000Y-111742800D03*
X96740000Y-109202800D03*
X96740000Y-106662800D03*
X96740000Y-104122800D03*
X96740000Y-101582800D03*
X96740000Y-99042800D03*
X96740000Y-96502800D03*
D12*
X96740000Y-93962800D03*
D11*
X147540000Y-86800000D03*
X145000000Y-86800000D03*
X142460000Y-86800000D03*
X139920000Y-86800000D03*
X137380000Y-86800000D03*
X134840000Y-86800000D03*
X132300000Y-86800000D03*
X129760000Y-86800000D03*
X127220000Y-86800000D03*
X124680000Y-86800000D03*
X122140000Y-86800000D03*
X119600000Y-86800000D03*
X117060000Y-86800000D03*
X114520000Y-86800000D03*
X111980000Y-86800000D03*
X109440000Y-86800000D03*
X106900000Y-86800000D03*
X104360000Y-86800000D03*
X101820000Y-86800000D03*
X99280000Y-86800000D03*
D12*
X96740000Y-86800000D03*
D13*
X121131000Y-162953500D03*
D14*
X121131000Y-157873500D03*
D18*
X119550000Y-83975000D03*
X117050000Y-83975000D03*
X67450000Y-83925000D03*
X64950000Y-83925000D03*
X93775000Y-94000000D03*
X93775000Y-96500000D03*
X106925000Y-154775000D03*
X109425000Y-154775000D03*
D11*
X52000000Y-119865000D03*
X52000000Y-117325000D03*
X52000000Y-114785000D03*
X52000000Y-112245000D03*
X52000000Y-109705000D03*
X52000000Y-107165000D03*
X52000000Y-104625000D03*
X52000000Y-102085000D03*
X52000000Y-99545000D03*
X52000000Y-97005000D03*
D12*
X52000000Y-94465000D03*
D15*
X145500000Y-81000000D03*
D13*
X93381000Y-163013500D03*
D14*
X93381000Y-157933500D03*
D13*
X101381000Y-163003500D03*
D14*
X101381000Y-157923500D03*
D11*
X82734000Y-123675000D03*
X80194000Y-123675000D03*
X77654000Y-123675000D03*
X75114000Y-123675000D03*
X72574000Y-123675000D03*
X70034000Y-123675000D03*
X67494000Y-123675000D03*
X64954000Y-123675000D03*
X62414000Y-123675000D03*
X59874000Y-123675000D03*
D12*
X57334000Y-123675000D03*
D16*
X124680000Y-106662800D03*
X124680000Y-104122800D03*
X127220000Y-106662800D03*
X127220000Y-104122800D03*
X129760000Y-106662800D03*
X129760000Y-104122800D03*
X132300000Y-106662800D03*
X132300000Y-104122800D03*
X134840000Y-106662800D03*
X134840000Y-104122800D03*
X137380000Y-106662800D03*
X134840000Y-109202800D03*
X137380000Y-109202800D03*
X134840000Y-111742800D03*
X137380000Y-111742800D03*
X134840000Y-114282800D03*
X137380000Y-114282800D03*
X134840000Y-116822800D03*
X137380000Y-116822800D03*
X134840000Y-119362800D03*
X137380000Y-119362800D03*
X134840000Y-121902800D03*
X137380000Y-121902800D03*
X134840000Y-124442800D03*
X137380000Y-124442800D03*
X134840000Y-126982800D03*
X137380000Y-126982800D03*
X134840000Y-129522800D03*
X137380000Y-129522800D03*
X134840000Y-132062800D03*
X137380000Y-132062800D03*
X134840000Y-134602800D03*
X132300000Y-132062800D03*
X132300000Y-134602800D03*
X129760000Y-132062800D03*
X129760000Y-134602800D03*
X127220000Y-132062800D03*
X127220000Y-134602800D03*
X124680000Y-132062800D03*
X124680000Y-134602800D03*
X122140000Y-132062800D03*
X122140000Y-134602800D03*
X119600000Y-132062800D03*
X119600000Y-134602800D03*
X117060000Y-132062800D03*
X117060000Y-134602800D03*
X114520000Y-132062800D03*
X114520000Y-134602800D03*
X111980000Y-132062800D03*
X111980000Y-134602800D03*
X109440000Y-132062800D03*
X109440000Y-134602800D03*
X106900000Y-132062800D03*
X109440000Y-129522800D03*
X106900000Y-129522800D03*
X109440000Y-126982800D03*
X106900000Y-126982800D03*
X109440000Y-124442800D03*
X106900000Y-124442800D03*
X109440000Y-121902800D03*
X106900000Y-121902800D03*
X109440000Y-119362800D03*
X106900000Y-119362800D03*
X109440000Y-116822800D03*
X106900000Y-116822800D03*
X109440000Y-114282800D03*
X106900000Y-114282800D03*
X109440000Y-111742800D03*
X106900000Y-111742800D03*
X109440000Y-109202800D03*
X106900000Y-109202800D03*
X109440000Y-106662800D03*
X106900000Y-106662800D03*
X109440000Y-104122800D03*
X111980000Y-106662800D03*
X111980000Y-104122800D03*
X114520000Y-106662800D03*
X114520000Y-104122800D03*
X117060000Y-106662800D03*
X117060000Y-104122800D03*
X119600000Y-106662800D03*
X119600000Y-104122800D03*
X122140000Y-106662800D03*
D17*
X122140000Y-104122800D03*
D13*
X106681000Y-163013500D03*
D14*
X106681000Y-157933500D03*
D11*
X80156000Y-162418500D03*
D12*
X80156000Y-164958500D03*
D18*
X66150000Y-120625000D03*
X68650000Y-120625000D03*
D19*
X95256000Y-172983500D03*
X95256000Y-170443500D03*
X97796000Y-172983500D03*
X97796000Y-170443500D03*
X100336000Y-172983500D03*
X100336000Y-170443500D03*
X102876000Y-172983500D03*
X102876000Y-170443500D03*
X105416000Y-172983500D03*
D20*
X105416000Y-170443500D03*
D11*
X88068000Y-94465000D03*
X88068000Y-97005000D03*
X88068000Y-99545000D03*
X88068000Y-102085000D03*
X88068000Y-104625000D03*
X88068000Y-107165000D03*
X88068000Y-109705000D03*
X88068000Y-112245000D03*
X88068000Y-114785000D03*
X88068000Y-117325000D03*
D12*
X88068000Y-119865000D03*
D11*
X143984000Y-93962800D03*
X143984000Y-96502800D03*
X143984000Y-99042800D03*
X143984000Y-101582800D03*
X143984000Y-104122800D03*
X143984000Y-106662800D03*
X143984000Y-109202800D03*
X143984000Y-111742800D03*
X143984000Y-114282800D03*
X143984000Y-116822800D03*
X143984000Y-119362800D03*
X143984000Y-121902800D03*
X143984000Y-124442800D03*
X143984000Y-126982800D03*
X143984000Y-129522800D03*
X143984000Y-132062800D03*
X143984000Y-134602800D03*
X143984000Y-137142800D03*
X143984000Y-139682800D03*
X143984000Y-142222800D03*
D12*
X143984000Y-144762800D03*
D11*
X147540000Y-90356000D03*
X145000000Y-90356000D03*
X142460000Y-90356000D03*
X139920000Y-90356000D03*
X137380000Y-90356000D03*
X134840000Y-90356000D03*
X132300000Y-90356000D03*
X129760000Y-90356000D03*
X127220000Y-90356000D03*
X124680000Y-90356000D03*
X122140000Y-90356000D03*
X119600000Y-90356000D03*
X117060000Y-90356000D03*
X114520000Y-90356000D03*
X111980000Y-90356000D03*
X109440000Y-90356000D03*
X106900000Y-90356000D03*
X104360000Y-90356000D03*
X101820000Y-90356000D03*
X99280000Y-90356000D03*
D12*
X96740000Y-90356000D03*
D19*
X122936000Y-172983500D03*
X122936000Y-170443500D03*
X125476000Y-172983500D03*
X125476000Y-170443500D03*
X128016000Y-172983500D03*
X128016000Y-170443500D03*
X130556000Y-172983500D03*
X130556000Y-170443500D03*
X133096000Y-172983500D03*
D20*
X133096000Y-170443500D03*
D15*
X54300000Y-172200000D03*
D21*
X59645000Y-147066000D03*
D22*
X64725000Y-154686000D03*
D21*
X59645000Y-157226000D03*
D22*
X64725000Y-152146000D03*
D18*
X145050000Y-154800000D03*
X147550000Y-154800000D03*
D11*
X147540000Y-151874800D03*
X145000000Y-151874800D03*
X142460000Y-151874800D03*
X139920000Y-151874800D03*
X137380000Y-151874800D03*
X134840000Y-151874800D03*
X132300000Y-151874800D03*
X129760000Y-151874800D03*
X127220000Y-151874800D03*
X124680000Y-151874800D03*
X122140000Y-151874800D03*
X119600000Y-151874800D03*
X117060000Y-151874800D03*
X114520000Y-151874800D03*
X111980000Y-151874800D03*
X109440000Y-151874800D03*
X106900000Y-151874800D03*
X104360000Y-151874800D03*
X101820000Y-151874800D03*
X99280000Y-151874800D03*
D12*
X96740000Y-151874800D03*
D11*
X82734000Y-127485000D03*
X80194000Y-127485000D03*
X77654000Y-127485000D03*
X75114000Y-127485000D03*
X72574000Y-127485000D03*
X70034000Y-127485000D03*
X67494000Y-127485000D03*
X64954000Y-127485000D03*
X62414000Y-127485000D03*
X59874000Y-127485000D03*
D12*
X57334000Y-127485000D03*
D23*
X76500000Y-82250000D03*
X75200000Y-82250000D03*
X125850000Y-82250000D03*
X127150000Y-82250000D03*
%LPD*%
M02*
