M48
; DRILL file {KiCad 8.0.3+1} date 2024-08-08T21:55:01+0200
; FORMAT={-:-/ absolute / metric / decimal}
; #@! TF.CreationDate,2024-08-08T21:55:01+02:00
; #@! TF.GenerationSoftware,Kicad,Pcbnew,8.0.3+1
; #@! TF.FileFunction,Plated,1,4,PTH
FMAT,2
METRIC
; #@! TA.AperFunction,Plated,PTH,ViaDrill
T1C0.300
; #@! TA.AperFunction,Plated,PTH,ComponentDrill
T2C0.700
; #@! TA.AperFunction,Plated,PTH,ComponentDrill
T3C0.800
; #@! TA.AperFunction,Plated,PTH,ComponentDrill
T4C0.890
; #@! TA.AperFunction,Plated,PTH,ComponentDrill
T5C1.000
; #@! TA.AperFunction,Plated,PTH,ComponentDrill
T6C2.010
; #@! TA.AperFunction,Plated,PTH,ComponentDrill
T7C4.300
%
G90
G05
T1
X51.22Y-86.735
X51.22Y-89.275
X51.22Y-91.815
X51.22Y-124.835
X51.22Y-127.375
X51.22Y-129.915
X51.22Y-132.455
X51.22Y-134.995
X51.22Y-137.535
X51.22Y-140.075
X51.22Y-142.615
X51.22Y-145.155
X51.22Y-147.695
X51.22Y-150.235
X51.22Y-152.775
X51.22Y-155.315
X51.22Y-157.855
X51.22Y-160.395
X51.22Y-162.935
X51.22Y-165.475
X51.22Y-168.015
X53.76Y-86.735
X53.76Y-89.275
X53.76Y-91.815
X53.76Y-101.975
X53.76Y-124.835
X53.76Y-127.375
X53.76Y-129.915
X53.76Y-132.455
X53.76Y-134.995
X53.76Y-137.535
X53.76Y-140.075
X53.76Y-142.615
X53.76Y-145.155
X53.76Y-147.695
X53.76Y-150.235
X53.76Y-152.775
X53.76Y-155.315
X53.76Y-157.855
X53.76Y-160.395
X53.76Y-162.935
X53.76Y-165.475
X56.3Y-129.915
X56.3Y-132.455
X56.3Y-134.995
X56.3Y-137.535
X56.3Y-140.075
X56.3Y-142.615
X56.3Y-150.235
X56.3Y-152.775
X56.3Y-160.395
X56.3Y-162.935
X56.3Y-165.475
X56.3Y-168.015
X58.84Y-79.115
X58.84Y-81.655
X58.84Y-84.195
X58.84Y-94.355
X58.84Y-119.755
X58.84Y-129.915
X58.84Y-132.455
X58.84Y-134.995
X58.84Y-137.535
X58.84Y-140.075
X58.84Y-142.615
X58.84Y-150.235
X58.84Y-152.775
X58.84Y-160.395
X58.84Y-162.935
X58.84Y-165.475
X58.84Y-168.015
X58.84Y-170.555
X58.84Y-173.095
X61.38Y-79.115
X61.38Y-81.655
X61.38Y-84.195
X61.38Y-129.915
X61.38Y-132.455
X61.38Y-134.995
X61.38Y-137.535
X61.38Y-140.075
X61.38Y-142.615
X61.38Y-150.235
X61.38Y-152.775
X61.38Y-160.395
X61.38Y-162.935
X61.38Y-165.475
X61.38Y-168.015
X61.38Y-170.555
X61.38Y-173.095
X63.92Y-79.115
X63.92Y-81.655
X63.92Y-129.915
X63.92Y-132.455
X63.92Y-134.995
X63.92Y-137.535
X63.92Y-140.075
X63.92Y-142.615
X63.92Y-145.155
X63.92Y-147.695
X63.92Y-150.235
X63.92Y-157.855
X63.92Y-160.395
X63.92Y-162.935
X63.92Y-165.475
X63.92Y-168.015
X63.92Y-170.555
X63.92Y-173.095
X66.46Y-79.115
X66.46Y-81.655
X66.46Y-107.055
X66.46Y-129.915
X66.46Y-132.455
X66.46Y-134.995
X66.46Y-137.535
X66.46Y-140.075
X66.46Y-142.615
X66.46Y-145.155
X66.46Y-147.695
X66.46Y-157.855
X66.46Y-160.395
X66.46Y-162.935
X66.46Y-165.475
X66.46Y-168.015
X66.46Y-170.555
X66.46Y-173.095
X69.0Y-79.115
X69.0Y-81.655
X69.0Y-84.195
X69.0Y-104.515
X69.0Y-109.595
X69.0Y-152.775
X69.0Y-155.315
X69.0Y-157.855
X69.0Y-160.395
X69.0Y-162.935
X69.0Y-165.475
X71.54Y-79.115
X71.54Y-81.655
X71.54Y-84.195
X71.54Y-104.515
X71.54Y-107.055
X71.54Y-147.695
X71.54Y-155.315
X71.54Y-157.855
X71.54Y-160.395
X71.54Y-162.935
X74.08Y-79.115
X74.08Y-84.195
X74.08Y-94.355
X74.08Y-104.515
X74.08Y-129.915
X74.08Y-132.455
X74.08Y-134.995
X74.08Y-137.535
X74.08Y-140.075
X74.08Y-147.695
X74.08Y-150.235
X74.08Y-168.015
X76.62Y-79.115
X76.62Y-84.195
X76.62Y-94.355
X76.62Y-129.915
X76.62Y-132.455
X76.62Y-134.995
X76.62Y-137.535
X76.62Y-142.615
X76.62Y-145.155
X76.62Y-150.235
X76.62Y-152.775
X76.62Y-155.315
X76.62Y-162.935
X76.62Y-168.015
X79.16Y-79.115
X79.16Y-84.195
X79.16Y-129.915
X79.16Y-132.455
X79.16Y-134.995
X79.16Y-140.075
X79.16Y-142.615
X79.16Y-145.155
X79.16Y-147.695
X79.16Y-152.775
X79.16Y-155.315
X79.16Y-160.395
X79.16Y-168.015
X81.7Y-79.115
X81.7Y-84.195
X81.7Y-94.355
X81.7Y-129.915
X81.7Y-132.455
X81.7Y-137.535
X81.7Y-140.075
X81.7Y-142.615
X81.7Y-145.155
X81.7Y-147.695
X81.7Y-150.235
X81.7Y-155.315
X81.7Y-160.395
X81.7Y-168.015
X84.24Y-79.115
X84.24Y-84.195
X84.24Y-89.275
X84.24Y-91.815
X84.24Y-124.835
X84.24Y-129.915
X84.24Y-134.995
X84.24Y-137.535
X84.24Y-140.075
X84.24Y-142.615
X84.24Y-145.155
X84.24Y-147.695
X84.24Y-150.235
X84.24Y-152.775
X84.24Y-160.395
X84.24Y-165.475
X84.24Y-168.015
X86.78Y-79.115
X86.78Y-84.195
X86.78Y-86.735
X86.78Y-89.275
X86.78Y-91.815
X86.78Y-122.295
X86.78Y-127.375
X86.78Y-132.455
X86.78Y-134.995
X86.78Y-137.535
X86.78Y-140.075
X86.78Y-142.615
X86.78Y-145.155
X86.78Y-147.695
X86.78Y-150.235
X86.78Y-152.775
X86.78Y-155.315
X86.78Y-160.395
X86.78Y-165.475
X86.78Y-168.015
X86.78Y-170.555
X86.78Y-173.095
X89.32Y-79.115
X89.32Y-84.195
X89.32Y-86.735
X89.32Y-89.275
X89.32Y-91.815
X89.32Y-122.295
X89.32Y-124.835
X89.32Y-168.015
X89.32Y-170.555
X89.32Y-173.095
X90.932Y-141.986
X91.86Y-79.115
X91.86Y-168.015
X91.86Y-170.555
X91.86Y-173.095
X94.4Y-79.115
X94.4Y-84.195
X94.4Y-86.735
X94.4Y-89.275
X94.4Y-91.815
X94.4Y-99.435
X94.4Y-124.835
X94.4Y-127.375
X94.4Y-134.995
X94.4Y-137.535
X94.4Y-140.075
X94.4Y-142.615
X94.4Y-145.155
X94.4Y-147.695
X94.4Y-150.235
X94.4Y-160.395
X96.94Y-79.115
X96.94Y-84.195
X99.48Y-79.115
X99.48Y-84.195
X102.02Y-79.115
X102.02Y-84.195
X102.02Y-142.615
X104.56Y-79.115
X104.56Y-84.195
X104.56Y-140.075
X104.56Y-155.315
X104.56Y-168.015
X107.1Y-79.115
X107.1Y-84.195
X109.64Y-79.115
X109.64Y-84.195
X109.64Y-162.935
X109.64Y-165.475
X109.64Y-168.015
X109.64Y-170.555
X109.64Y-173.095
X112.18Y-79.115
X112.18Y-84.195
X112.18Y-114.675
X112.18Y-117.215
X112.18Y-119.755
X112.18Y-124.835
X112.18Y-129.915
X112.18Y-140.075
X112.18Y-155.315
X112.18Y-157.855
X112.18Y-162.935
X112.18Y-165.475
X112.18Y-168.015
X112.18Y-170.555
X112.18Y-173.095
X114.72Y-79.115
X114.72Y-84.195
X114.72Y-99.435
X114.72Y-101.975
X114.72Y-109.595
X114.72Y-142.615
X114.72Y-155.315
X114.72Y-157.855
X114.72Y-162.935
X114.72Y-165.475
X114.72Y-168.015
X114.72Y-170.555
X114.72Y-173.095
X117.26Y-79.115
X117.26Y-109.595
X117.26Y-112.135
X117.26Y-114.675
X117.26Y-119.755
X117.26Y-122.295
X117.26Y-124.835
X117.26Y-129.915
X117.26Y-145.155
X117.26Y-155.315
X117.26Y-157.855
X117.26Y-162.935
X117.26Y-165.475
X117.26Y-168.015
X117.26Y-170.555
X117.26Y-173.095
X119.8Y-79.115
X119.8Y-109.595
X119.8Y-112.135
X119.8Y-114.675
X119.8Y-117.215
X119.8Y-122.295
X119.8Y-124.835
X119.8Y-127.375
X119.8Y-129.915
X119.8Y-165.475
X119.8Y-168.015
X119.8Y-170.555
X119.8Y-173.095
X122.34Y-79.115
X122.34Y-84.195
X122.34Y-109.595
X122.34Y-112.135
X122.34Y-114.675
X122.34Y-117.215
X122.34Y-119.755
X122.34Y-122.295
X122.34Y-124.835
X122.34Y-127.375
X122.34Y-129.915
X122.34Y-160.395
X122.34Y-165.475
X124.88Y-79.115
X124.88Y-84.195
X124.88Y-109.595
X124.88Y-112.135
X124.88Y-114.675
X124.88Y-117.215
X124.88Y-119.755
X124.88Y-122.295
X124.88Y-124.835
X124.88Y-127.375
X124.88Y-129.915
X124.88Y-155.315
X124.88Y-160.395
X127.42Y-79.115
X127.42Y-109.595
X127.42Y-112.135
X127.42Y-114.675
X127.42Y-117.215
X127.42Y-122.295
X127.42Y-124.835
X127.42Y-127.375
X127.42Y-129.915
X127.42Y-140.075
X127.42Y-142.615
X127.42Y-155.315
X127.42Y-160.395
X127.42Y-162.935
X127.42Y-165.475
X129.96Y-79.115
X129.96Y-81.655
X129.96Y-84.195
X129.96Y-109.595
X129.96Y-112.135
X129.96Y-114.675
X129.96Y-119.755
X129.96Y-122.295
X129.96Y-124.835
X129.96Y-127.375
X129.96Y-129.915
X129.96Y-145.155
X132.5Y-79.115
X132.5Y-81.655
X132.5Y-84.195
X132.5Y-109.595
X132.5Y-112.135
X132.5Y-117.215
X132.5Y-119.755
X132.5Y-122.295
X132.5Y-127.375
X132.5Y-129.915
X132.5Y-150.235
X132.5Y-155.315
X132.5Y-162.935
X132.5Y-165.475
X132.5Y-168.015
X135.04Y-79.115
X135.04Y-81.655
X135.04Y-84.195
X135.04Y-155.315
X137.58Y-79.115
X137.58Y-81.655
X137.58Y-155.315
X137.58Y-157.855
X137.58Y-162.935
X137.58Y-165.475
X137.58Y-168.015
X137.58Y-170.555
X137.58Y-173.095
X140.12Y-79.115
X140.12Y-81.655
X140.12Y-127.375
X140.12Y-134.995
X140.12Y-155.315
X140.12Y-157.855
X140.12Y-162.935
X140.12Y-165.475
X140.12Y-168.015
X140.12Y-170.555
X140.12Y-173.095
X142.66Y-155.315
X142.66Y-162.935
X142.66Y-165.475
X142.66Y-168.015
X145.2Y-160.395
X145.2Y-162.935
X145.2Y-165.475
X147.74Y-157.855
X147.74Y-160.395
X147.74Y-162.935
X147.74Y-165.475
X147.74Y-168.015
T2
X93.381Y-157.933
X93.381Y-163.013
X97.381Y-157.933
X97.381Y-163.013
X101.381Y-157.923
X101.381Y-163.004
X106.681Y-157.933
X106.681Y-163.013
X121.131Y-157.874
X121.131Y-162.953
X125.131Y-157.874
X125.131Y-162.953
X129.131Y-157.874
X129.131Y-162.953
X134.431Y-157.874
X134.431Y-162.953
T3
X51.9Y-123.025
X54.4Y-123.025
X61.144Y-100.815
X61.144Y-103.355
X61.144Y-105.895
X61.144Y-108.435
X61.144Y-110.975
X61.144Y-113.515
X63.684Y-98.275
X63.684Y-100.815
X63.684Y-103.355
X63.684Y-105.895
X63.684Y-108.435
X63.684Y-110.975
X63.684Y-113.515
X63.684Y-116.055
X64.95Y-83.925
X66.15Y-120.625
X66.224Y-98.275
X66.224Y-100.815
X66.224Y-113.515
X66.224Y-116.055
X67.45Y-83.925
X68.65Y-120.625
X68.764Y-98.275
X68.764Y-100.815
X68.764Y-113.515
X68.764Y-116.055
X71.304Y-98.275
X71.304Y-100.815
X71.304Y-113.515
X71.304Y-116.055
X73.844Y-98.275
X73.844Y-100.815
X73.844Y-113.515
X73.844Y-116.055
X76.384Y-98.275
X76.384Y-100.815
X76.384Y-103.355
X76.384Y-105.895
X76.384Y-108.435
X76.384Y-110.975
X76.384Y-113.515
X76.384Y-116.055
X78.924Y-100.815
X78.924Y-103.355
X78.924Y-105.895
X78.924Y-108.435
X78.924Y-110.975
X78.924Y-113.515
X90.932Y-104.625
X90.932Y-107.125
X93.775Y-94.0
X93.775Y-96.5
X93.8Y-129.525
X93.8Y-132.025
X106.9Y-106.663
X106.9Y-109.203
X106.9Y-111.743
X106.9Y-114.283
X106.9Y-116.823
X106.9Y-119.363
X106.9Y-121.903
X106.9Y-124.443
X106.9Y-126.983
X106.9Y-129.523
X106.9Y-132.063
X106.925Y-154.775
X109.425Y-154.775
X109.44Y-104.123
X109.44Y-106.663
X109.44Y-109.203
X109.44Y-111.743
X109.44Y-114.283
X109.44Y-116.823
X109.44Y-119.363
X109.44Y-121.903
X109.44Y-124.443
X109.44Y-126.983
X109.44Y-129.523
X109.44Y-132.063
X109.44Y-134.603
X111.98Y-104.123
X111.98Y-106.663
X111.98Y-132.063
X111.98Y-134.603
X114.52Y-104.123
X114.52Y-106.663
X114.52Y-132.063
X114.52Y-134.603
X117.05Y-83.975
X117.06Y-104.123
X117.06Y-106.663
X117.06Y-132.063
X117.06Y-134.603
X119.55Y-83.975
X119.6Y-104.123
X119.6Y-106.663
X119.6Y-132.063
X119.6Y-134.603
X119.65Y-154.75
X122.14Y-104.123
X122.14Y-106.663
X122.14Y-132.063
X122.14Y-134.603
X122.15Y-154.75
X124.68Y-104.123
X124.68Y-106.663
X124.68Y-132.063
X124.68Y-134.603
X127.22Y-104.123
X127.22Y-106.663
X127.22Y-132.063
X127.22Y-134.603
X129.76Y-104.123
X129.76Y-106.663
X129.76Y-132.063
X129.76Y-134.603
X132.3Y-104.123
X132.3Y-106.663
X132.3Y-132.063
X132.3Y-134.603
X134.84Y-104.123
X134.84Y-106.663
X134.84Y-109.203
X134.84Y-111.743
X134.84Y-114.283
X134.84Y-116.823
X134.84Y-119.363
X134.84Y-121.903
X134.84Y-124.443
X134.84Y-126.983
X134.84Y-129.523
X134.84Y-132.063
X134.84Y-134.603
X137.38Y-106.663
X137.38Y-109.203
X137.38Y-111.743
X137.38Y-114.283
X137.38Y-116.823
X137.38Y-119.363
X137.38Y-121.903
X137.38Y-124.443
X137.38Y-126.983
X137.38Y-129.523
X137.38Y-132.063
X137.425Y-83.925
X139.925Y-83.925
X145.05Y-154.8
X147.55Y-154.8
T4
X64.725Y-152.146
X64.725Y-154.686
T5
X52.0Y-94.465
X52.0Y-97.005
X52.0Y-99.545
X52.0Y-102.085
X52.0Y-104.625
X52.0Y-107.165
X52.0Y-109.705
X52.0Y-112.245
X52.0Y-114.785
X52.0Y-117.325
X52.0Y-119.865
X55.81Y-94.465
X55.81Y-97.005
X55.81Y-99.545
X55.81Y-102.085
X55.81Y-104.625
X55.81Y-107.165
X55.81Y-109.705
X55.81Y-112.245
X55.81Y-114.785
X55.81Y-117.325
X55.81Y-119.865
X57.334Y-86.845
X57.334Y-90.655
X57.334Y-123.675
X57.334Y-127.485
X59.874Y-86.845
X59.874Y-90.655
X59.874Y-123.675
X59.874Y-127.485
X62.414Y-86.845
X62.414Y-90.655
X62.414Y-123.675
X62.414Y-127.485
X64.954Y-86.845
X64.954Y-90.655
X64.954Y-123.675
X64.954Y-127.485
X67.494Y-86.845
X67.494Y-90.655
X67.494Y-123.675
X67.494Y-127.485
X70.034Y-86.845
X70.034Y-90.655
X70.034Y-123.675
X70.034Y-127.485
X70.206Y-170.393
X70.206Y-172.933
X72.574Y-86.845
X72.574Y-90.655
X72.574Y-123.675
X72.574Y-127.485
X72.746Y-170.393
X72.746Y-172.933
X73.406Y-162.418
X73.406Y-164.958
X75.114Y-86.845
X75.114Y-90.655
X75.114Y-123.675
X75.114Y-127.485
X75.286Y-170.393
X75.286Y-172.933
X77.654Y-86.845
X77.654Y-90.655
X77.654Y-123.675
X77.654Y-127.485
X77.826Y-170.393
X77.826Y-172.933
X80.156Y-162.418
X80.156Y-164.958
X80.194Y-86.845
X80.194Y-90.655
X80.194Y-123.675
X80.194Y-127.485
X80.366Y-170.393
X80.366Y-172.933
X82.734Y-86.845
X82.734Y-90.655
X82.734Y-123.675
X82.734Y-127.485
X82.906Y-170.393
X82.906Y-172.933
X84.258Y-94.465
X84.258Y-97.005
X84.258Y-99.545
X84.258Y-102.085
X84.258Y-104.625
X84.258Y-107.165
X84.258Y-109.705
X84.258Y-112.245
X84.258Y-114.785
X84.258Y-117.325
X84.258Y-119.865
X88.068Y-94.465
X88.068Y-97.005
X88.068Y-99.545
X88.068Y-102.085
X88.068Y-104.625
X88.068Y-107.165
X88.068Y-109.705
X88.068Y-112.245
X88.068Y-114.785
X88.068Y-117.325
X88.068Y-119.865
X95.256Y-170.444
X95.256Y-172.983
X96.74Y-86.8
X96.74Y-90.356
X96.74Y-93.963
X96.74Y-96.503
X96.74Y-99.043
X96.74Y-101.583
X96.74Y-104.123
X96.74Y-106.663
X96.74Y-109.203
X96.74Y-111.743
X96.74Y-114.283
X96.74Y-116.823
X96.74Y-119.363
X96.74Y-121.903
X96.74Y-124.443
X96.74Y-126.983
X96.74Y-129.523
X96.74Y-132.063
X96.74Y-134.603
X96.74Y-137.143
X96.74Y-139.683
X96.74Y-142.223
X96.74Y-144.763
X96.74Y-148.319
X96.74Y-151.875
X97.796Y-170.444
X97.796Y-172.983
X99.28Y-86.8
X99.28Y-90.356
X99.28Y-148.319
X99.28Y-151.875
X100.296Y-93.963
X100.296Y-96.503
X100.296Y-99.043
X100.296Y-101.583
X100.296Y-104.123
X100.296Y-106.663
X100.296Y-109.203
X100.296Y-111.743
X100.296Y-114.283
X100.296Y-116.823
X100.296Y-119.363
X100.296Y-121.903
X100.296Y-124.443
X100.296Y-126.983
X100.296Y-129.523
X100.296Y-132.063
X100.296Y-134.603
X100.296Y-137.143
X100.296Y-139.683
X100.296Y-142.223
X100.296Y-144.763
X100.336Y-170.444
X100.336Y-172.983
X101.82Y-86.8
X101.82Y-90.356
X101.82Y-148.319
X101.82Y-151.875
X102.876Y-170.444
X102.876Y-172.983
X104.36Y-86.8
X104.36Y-90.356
X104.36Y-148.319
X104.36Y-151.875
X105.416Y-170.444
X105.416Y-172.983
X106.9Y-86.8
X106.9Y-90.356
X106.9Y-148.319
X106.9Y-151.875
X109.44Y-86.8
X109.44Y-90.356
X109.44Y-148.319
X109.44Y-151.875
X111.98Y-86.8
X111.98Y-90.356
X111.98Y-148.319
X111.98Y-151.875
X114.52Y-86.8
X114.52Y-90.356
X114.52Y-148.319
X114.52Y-151.875
X117.06Y-86.8
X117.06Y-90.356
X117.06Y-148.319
X117.06Y-151.875
X119.6Y-86.8
X119.6Y-90.356
X119.6Y-148.319
X119.6Y-151.875
X122.14Y-86.8
X122.14Y-90.356
X122.14Y-148.319
X122.14Y-151.875
X122.936Y-170.444
X122.936Y-172.983
X124.68Y-86.8
X124.68Y-90.356
X124.68Y-148.319
X124.68Y-151.875
X125.476Y-170.444
X125.476Y-172.983
X127.22Y-86.8
X127.22Y-90.356
X127.22Y-148.319
X127.22Y-151.875
X128.016Y-170.444
X128.016Y-172.983
X129.76Y-86.8
X129.76Y-90.356
X129.76Y-148.319
X129.76Y-151.875
X130.556Y-170.444
X130.556Y-172.983
X132.3Y-86.8
X132.3Y-90.356
X132.3Y-148.319
X132.3Y-151.875
X133.096Y-170.444
X133.096Y-172.983
X134.84Y-86.8
X134.84Y-90.356
X134.84Y-148.319
X134.84Y-151.875
X137.38Y-86.8
X137.38Y-90.356
X137.38Y-148.319
X137.38Y-151.875
X139.92Y-86.8
X139.92Y-90.356
X139.92Y-148.319
X139.92Y-151.875
X142.46Y-86.8
X142.46Y-90.356
X142.46Y-148.319
X142.46Y-151.875
X143.984Y-93.963
X143.984Y-96.503
X143.984Y-99.043
X143.984Y-101.583
X143.984Y-104.123
X143.984Y-106.663
X143.984Y-109.203
X143.984Y-111.743
X143.984Y-114.283
X143.984Y-116.823
X143.984Y-119.363
X143.984Y-121.903
X143.984Y-124.443
X143.984Y-126.983
X143.984Y-129.523
X143.984Y-132.063
X143.984Y-134.603
X143.984Y-137.143
X143.984Y-139.683
X143.984Y-142.223
X143.984Y-144.763
X145.0Y-86.8
X145.0Y-90.356
X145.0Y-148.319
X145.0Y-151.875
X147.54Y-86.8
X147.54Y-90.356
X147.54Y-93.963
X147.54Y-96.503
X147.54Y-99.043
X147.54Y-101.583
X147.54Y-104.123
X147.54Y-106.663
X147.54Y-109.203
X147.54Y-111.743
X147.54Y-114.283
X147.54Y-116.823
X147.54Y-119.363
X147.54Y-121.903
X147.54Y-124.443
X147.54Y-126.983
X147.54Y-129.523
X147.54Y-132.063
X147.54Y-134.603
X147.54Y-137.143
X147.54Y-139.683
X147.54Y-142.223
X147.54Y-144.763
X147.54Y-148.319
X147.54Y-151.875
T6
X59.645Y-147.066
X59.645Y-157.226
T7
X54.3Y-81.0
X54.3Y-172.2
X145.5Y-81.0
X145.5Y-172.1
M30
