%TF.GenerationSoftware,KiCad,Pcbnew,8.0.3+1*%
%TF.CreationDate,2024-08-08T21:55:16+02:00*%
%TF.ProjectId,EpmDevBoard,45706d44-6576-4426-9f61-72642e6b6963,rev?*%
%TF.SameCoordinates,Original*%
%TF.FileFunction,Drillmap*%
%TF.FilePolarity,Positive*%
%FSLAX45Y45*%
G04 Gerber Fmt 4.5, Leading zero omitted, Abs format (unit mm)*
G04 Created by KiCad (PCBNEW 8.0.3+1) date 2024-08-08 21:55:16*
%MOMM*%
%LPD*%
G01*
G04 APERTURE LIST*
%ADD10C,0.050000*%
%ADD11C,0.200000*%
G04 APERTURE END LIST*
D10*
X4990000Y-7660000D02*
X14990000Y-7660000D01*
X14990000Y-17660000D01*
X4990000Y-17660000D01*
X4990000Y-7660000D01*
D11*
X5248277Y-17973984D02*
X5248277Y-17773984D01*
X5248277Y-17773984D02*
X5295896Y-17773984D01*
X5295896Y-17773984D02*
X5324467Y-17783508D01*
X5324467Y-17783508D02*
X5343515Y-17802555D01*
X5343515Y-17802555D02*
X5353039Y-17821603D01*
X5353039Y-17821603D02*
X5362563Y-17859698D01*
X5362563Y-17859698D02*
X5362563Y-17888270D01*
X5362563Y-17888270D02*
X5353039Y-17926365D01*
X5353039Y-17926365D02*
X5343515Y-17945412D01*
X5343515Y-17945412D02*
X5324467Y-17964460D01*
X5324467Y-17964460D02*
X5295896Y-17973984D01*
X5295896Y-17973984D02*
X5248277Y-17973984D01*
X5448277Y-17973984D02*
X5448277Y-17840650D01*
X5448277Y-17878746D02*
X5457801Y-17859698D01*
X5457801Y-17859698D02*
X5467324Y-17850174D01*
X5467324Y-17850174D02*
X5486372Y-17840650D01*
X5486372Y-17840650D02*
X5505420Y-17840650D01*
X5572086Y-17973984D02*
X5572086Y-17840650D01*
X5572086Y-17773984D02*
X5562563Y-17783508D01*
X5562563Y-17783508D02*
X5572086Y-17793031D01*
X5572086Y-17793031D02*
X5581610Y-17783508D01*
X5581610Y-17783508D02*
X5572086Y-17773984D01*
X5572086Y-17773984D02*
X5572086Y-17793031D01*
X5695896Y-17973984D02*
X5676848Y-17964460D01*
X5676848Y-17964460D02*
X5667324Y-17945412D01*
X5667324Y-17945412D02*
X5667324Y-17773984D01*
X5800658Y-17973984D02*
X5781610Y-17964460D01*
X5781610Y-17964460D02*
X5772086Y-17945412D01*
X5772086Y-17945412D02*
X5772086Y-17773984D01*
X6029229Y-17973984D02*
X6029229Y-17773984D01*
X6029229Y-17773984D02*
X6095896Y-17916841D01*
X6095896Y-17916841D02*
X6162562Y-17773984D01*
X6162562Y-17773984D02*
X6162562Y-17973984D01*
X6343515Y-17973984D02*
X6343515Y-17869222D01*
X6343515Y-17869222D02*
X6333991Y-17850174D01*
X6333991Y-17850174D02*
X6314943Y-17840650D01*
X6314943Y-17840650D02*
X6276848Y-17840650D01*
X6276848Y-17840650D02*
X6257801Y-17850174D01*
X6343515Y-17964460D02*
X6324467Y-17973984D01*
X6324467Y-17973984D02*
X6276848Y-17973984D01*
X6276848Y-17973984D02*
X6257801Y-17964460D01*
X6257801Y-17964460D02*
X6248277Y-17945412D01*
X6248277Y-17945412D02*
X6248277Y-17926365D01*
X6248277Y-17926365D02*
X6257801Y-17907317D01*
X6257801Y-17907317D02*
X6276848Y-17897793D01*
X6276848Y-17897793D02*
X6324467Y-17897793D01*
X6324467Y-17897793D02*
X6343515Y-17888270D01*
X6438753Y-17840650D02*
X6438753Y-18040650D01*
X6438753Y-17850174D02*
X6457801Y-17840650D01*
X6457801Y-17840650D02*
X6495896Y-17840650D01*
X6495896Y-17840650D02*
X6514943Y-17850174D01*
X6514943Y-17850174D02*
X6524467Y-17859698D01*
X6524467Y-17859698D02*
X6533991Y-17878746D01*
X6533991Y-17878746D02*
X6533991Y-17935889D01*
X6533991Y-17935889D02*
X6524467Y-17954936D01*
X6524467Y-17954936D02*
X6514943Y-17964460D01*
X6514943Y-17964460D02*
X6495896Y-17973984D01*
X6495896Y-17973984D02*
X6457801Y-17973984D01*
X6457801Y-17973984D02*
X6438753Y-17964460D01*
X6619705Y-17954936D02*
X6629229Y-17964460D01*
X6629229Y-17964460D02*
X6619705Y-17973984D01*
X6619705Y-17973984D02*
X6610182Y-17964460D01*
X6610182Y-17964460D02*
X6619705Y-17954936D01*
X6619705Y-17954936D02*
X6619705Y-17973984D01*
X6619705Y-17850174D02*
X6629229Y-17859698D01*
X6629229Y-17859698D02*
X6619705Y-17869222D01*
X6619705Y-17869222D02*
X6610182Y-17859698D01*
X6610182Y-17859698D02*
X6619705Y-17850174D01*
X6619705Y-17850174D02*
X6619705Y-17869222D01*
M02*
