999
dxfrw 0.6.3
  0
SECTION
  2
HEADER
  9
$ACADVER
  1
AC1021
  9
$DWGCODEPAGE
  3
ANSI_1252
  9
$INSBASE
 10
0
 20
0
 30
0
  9
$EXTMIN
 10
3
 20
0
 30
0
  9
$EXTMAX
 10
60
 20
37
 30
0
  9
$LIMMIN
 10
0
 20
0
  9
$LIMMAX
 10
420
 20
297
  9
$ORTHOMODE
 70
    0
  9
$REGENMODE
 70
    1
  9
$FILLMODE
 70
    1
  9
$QTEXTMODE
 70
    0
  9
$MIRRTEXT
 70
    0
  9
$LTSCALE
 40
1
  9
$ATTMODE
 70
    0
  9
$TEXTSIZE
 40
2.5
  9
$TRACEWID
 40
15.68
  9
$TEXTSTYLE
  7
STANDARD
  9
$CLAYER
  8
signal
  9
$CELTYPE
  6
BYLAYER
  9
$CECOLOR
 62
  256
  9
$CELTSCALE
 40
1
  9
$DISPSILH
 70
    0
  9
$DIMSCALE
 40
2.5
  9
$DIMASZ
 40
2.5
  9
$DIMEXO
 40
0.625
  9
$DIMDLI
 40
3.75
  9
$DIMRND
 40
0
  9
$DIMDLE
 40
0
  9
$DIMEXE
 40
1.25
  9
$DIMTP
 40
0
  9
$DIMTM
 40
0
  9
$DIMTXT
 40
2.5
  9
$DIMCEN
 40
2.5
  9
$DIMTSZ
 40
0
  9
$DIMTOL
 70
    0
  9
$DIMLIM
 70
    0
  9
$DIMTIH
 70
    0
  9
$DIMTOH
 70
    0
  9
$DIMSE1
 70
    0
  9
$DIMSE2
 70
    0
  9
$DIMTAD
 70
    1
  9
$DIMZIN
 70
    8
  9
$DIMBLK
  1

  9
$DIMASO
 70
    1
  9
$DIMSHO
 70
    1
  9
$DIMPOST
  1

  9
$DIMAPOST
  1

  9
$DIMALT
 70
    0
  9
$DIMALTD
 70
    3
  9
$DIMALTF
 40
0.03937
  9
$DIMLFAC
 40
1
  9
$DIMTOFL
 70
    1
  9
$DIMTVP
 40
0
  9
$DIMTIX
 70
    0
  9
$DIMSOXD
 70
    0
  9
$DIMSAH
 70
    0
  9
$DIMBLK1
  1

  9
$DIMBLK2
  1

  9
$DIMSTYLE
  2
STANDARD
  9
$DIMCLRD
 70
    0
  9
$DIMCLRE
 70
    0
  9
$DIMCLRT
 70
    0
  9
$DIMTFAC
 40
1
  9
$DIMGAP
 40
0.625
  9
$DIMJUST
 70
    0
  9
$DIMSD1
 70
    0
  9
$DIMSD2
 70
    0
  9
$DIMTOLJ
 70
    0
  9
$DIMTZIN
 70
    8
  9
$DIMALTZ
 70
    0
  9
$DIMALTTZ
 70
    0
  9
$DIMUPT
 70
    0
  9
$DIMDEC
 70
    2
  9
$DIMTDEC
 70
    2
  9
$DIMALTU
 70
    2
  9
$DIMALTTD
 70
    3
  9
$DIMTXSTY
  7
STANDARD
  9
$DIMAUNIT
 70
    0
  9
$DIMADEC
 70
    0
  9
$DIMALTRND
 40
0
  9
$DIMAZIN
 70
    0
  9
$DIMDSEP
 70
   44
  9
$DIMATFIT
 70
    3
  9
$DIMFRAC
 70
    0
  9
$DIMLDRBLK
  1
STANDARD
  9
$DIMLUNIT
 70
    2
  9
$DIMLWD
 70
   -2
  9
$DIMLWE
 70
   -2
  9
$DIMTMOVE
 70
    0
  9
$DIMFXL
 40
1
  9
$DIMFXLON
 70
    0
  9
$DIMJOGANG
 40
0.7854
  9
$DIMTFILL
 70
    0
  9
$DIMTFILLCLR
 70
    0
  9
$DIMARCSYM
 70
    0
  9
$DIMLTYPE
  6

  9
$DIMLTEX1
  6

  9
$DIMLTEX2
  6

  9
$LUNITS
 70
    2
  9
$LUPREC
 70
    4
  9
$SKETCHINC
 40
1
  9
$FILLETRAD
 40
0
  9
$AUNITS
 70
    0
  9
$AUPREC
 70
    2
  9
$MENU
  1
.
  9
$ELEVATION
 40
0
  9
$PELEVATION
 40
0
  9
$THICKNESS
 40
0
  9
$LIMCHECK
 70
    0
  9
$CHAMFERA
 40
0
  9
$CHAMFERB
 40
0
  9
$CHAMFERC
 40
0
  9
$CHAMFERD
 40
0
  9
$SKPOLY
 70
    0
  9
$USRTIMER
 70
    1
  9
$ANGBASE
 50
0
  9
$ANGDIR
 70
    0
  9
$PDMODE
 70
   34
  9
$PDSIZE
 40
0
  9
$PLINEWID
 40
0
  9
$SPLFRAME
 70
    0
  9
$SPLINETYPE
 70
    2
  9
$SPLINESEGS
 70
    8
  9
$HANDSEED
  5
20000
  9
$SURFTAB1
 70
    6
  9
$SURFTAB2
 70
    6
  9
$SURFTYPE
 70
    6
  9
$SURFU
 70
    6
  9
$SURFV
 70
    6
  9
$UCSBASE
  2

  9
$UCSNAME
  2

  9
$UCSORG
 10
0
 20
0
 30
0
  9
$UCSXDIR
 10
1
 20
0
 30
0
  9
$UCSYDIR
 10
0
 20
1
 30
0
  9
$UCSORTHOREF
  2

  9
$UCSORTHOVIEW
 70
    0
  9
$UCSORGTOP
 10
0
 20
0
 30
0
  9
$UCSORGBOTTOM
 10
0
 20
0
 30
0
  9
$UCSORGLEFT
 10
0
 20
0
 30
0
  9
$UCSORGRIGHT
 10
0
 20
0
 30
0
  9
$UCSORGFRONT
 10
0
 20
0
 30
0
  9
$UCSORGBACK
 10
0
 20
0
 30
0
  9
$PUCSBASE
  2

  9
$PUCSNAME
  2

  9
$PUCSORG
 10
0
 20
0
 30
0
  9
$PUCSXDIR
 10
1
 20
0
 30
0
  9
$PUCSYDIR
 10
0
 20
1
 30
0
  9
$PUCSORTHOREF
  2

  9
$PUCSORTHOVIEW
 70
    0
  9
$PUCSORGTOP
 10
0
 20
0
 30
0
  9
$PUCSORGBOTTOM
 10
0
 20
0
 30
0
  9
$PUCSORGLEFT
 10
0
 20
0
 30
0
  9
$PUCSORGRIGHT
 10
0
 20
0
 30
0
  9
$PUCSORGFRONT
 10
0
 20
0
 30
0
  9
$PUCSORGBACK
 10
0
 20
0
 30
0
  9
$USERI1
 70
    0
  9
$USERI2
 70
    0
  9
$USERI3
 70
    0
  9
$USERI4
 70
    0
  9
$USERI5
 70
    0
  9
$USERR1
 40
0
  9
$USERR2
 40
0
  9
$USERR3
 40
0
  9
$USERR4
 40
0
  9
$USERR5
 40
0
  9
$WORLDVIEW
 70
    1
  9
$SHADEDGE
 70
    3
  9
$SHADEDIF
 70
   70
  9
$TILEMODE
 70
    1
  9
$MAXACTVP
 70
   64
  9
$PINSBASE
 10
0
 20
0
 30
0
  9
$PLIMCHECK
 70
    0
  9
$PEXTMIN
 10
0
 20
0
 30
0
  9
$PEXTMAX
 10
0
 20
0
 30
0
  9
$GRIDMODE
 70
    1
  9
$SNAPSTYLE
 70
    0
  9
$PLIMMIN
 10
0
 20
0
  9
$PLIMMAX
 10
210
 20
297
  9
$UNITMODE
 70
    0
  9
$VISRETAIN
 70
    1
  9
$PLINEGEN
 70
    0
  9
$PSLTSCALE
 70
    1
  9
$TREEDEPTH
 70
 3020
  9
$CMLSTYLE
  2
Standard
  9
$CMLJUST
 70
    0
  9
$CMLSCALE
 40
20
  9
$PROXYGRAPHICS
 70
    1
  9
$MEASUREMENT
 70
    1
  9
$CELWEIGHT
370
   -1
  9
$ENDCAPS
280
    0
  9
$JOINSTYLE
280
    0
  9
$LWDISPLAY
290
    0
  9
$INSUNITS
 70
    4
  9
$HYPERLINKBASE
  1

  9
$STYLESHEET
  1

  9
$XEDIT
290
    1
  9
$CEPSNTYPE
380
    0
  9
$PSTYLEMODE
290
    1
  9
$EXTNAMES
290
    1
  9
$PSVPSCALE
 40
1
  9
$OLESTARTUP
290
    0
  9
$SORTENTS
280
  127
  9
$INDEXCTL
280
    0
  9
$HIDETEXT
280
    1
  9
$XCLIPFRAME
290
    0
  9
$HALOGAP
280
    0
  9
$OBSCOLOR
 70
  257
  9
$OBSLTYPE
280
    0
  9
$INTERSECTIONDISPLAY
280
    0
  9
$INTERSECTIONCOLOR
 70
  257
  9
$DIMASSOC
280
    1
  9
$PROJECTNAME
  1

  9
$CAMERADISPLAY
290
    0
  9
$LENSLENGTH
 40
50
  9
$CAMERAHEIGHT
 40
0
  9
$STEPSPERSEC
 40
2
  9
$STEPSIZE
 40
50
  9
$3DDWFPREC
 40
2
  9
$PSOLWIDTH
 40
5
  9
$PSOLHEIGHT
 40
80
  9
$LOFTANG1
 40
1.570796326794897
  9
$LOFTANG2
 40
1.570796326794897
  9
$LOFTMAG1
 40
0
  9
$LOFTMAG2
 40
0
  9
$LOFTPARAM
 70
    7
  9
$LOFTNORMALS
280
    1
  9
$LATITUDE
 40
1
  9
$LONGITUDE
 40
1
  9
$NORTHDIRECTION
 40
0
  9
$TIMEZONE
 70
-8000
  9
$LIGHTGLYPHDISPLAY
280
    1
  9
$TILEMODELIGHTSYNCH
280
    1
  9
$SOLIDHIST
280
    1
  9
$SHOWHIST
280
    1
  9
$DWFFRAME
280
    2
  9
$DGNFRAME
280
    0
  9
$REALWORLDSCALE
290
    1
  9
$INTERFERECOLOR
 62
    1
  9
$CSHADOW
280
    0
  9
$SHADOWPLANELOCATION
 40
0
  0
ENDSEC
  0
SECTION
  2
CLASSES
  0
ENDSEC
  0
SECTION
  2
TABLES
  0
TABLE
  2
VPORT
  5
8
330
0
100
AcDbSymbolTable
 70
    1
  0
VPORT
  5
31
330
2
100
AcDbSymbolTableRecord
100
AcDbViewportTableRecord
  2
*ACTIVE
 70
    0
 10
0
 20
0
 11
1
 21
1
 12
28.77785641720404
 22
8.270929034192665
 13
0
 23
0
 14
10
 24
10
 15
10
 25
10
 16
0
 26
0
 36
1
 17
0
 27
0
 37
0
 40
12.97167287376979
 41
1.712260216847373
 42
50
 43
0
 44
0
 50
0
 51
0
 71
    0
 72
  100
 73
    1
 74
    3
 75
    0
 76
    1
 77
    0
 78
    0
281
    0
 65
    1
110
0
120
0
130
0
111
1
121
0
131
0
112
0
122
1
132
0
 79
    0
146
0
348
10020
 60
    7
 61
    5
292
1
282
    1
141
0
142
0
 63
  250
421
3358443
  0
ENDTAB
  0
TABLE
  2
LTYPE
  5
5
330
0
100
AcDbSymbolTable
 70
    4
  0
LTYPE
  5
14
330
5
100
AcDbSymbolTableRecord
100
AcDbLinetypeTableRecord
  2
ByBlock
 70
    0
  3

 72
   65
 73
    0
 40
0
  0
LTYPE
  5
15
330
5
100
AcDbSymbolTableRecord
100
AcDbLinetypeTableRecord
  2
ByLayer
 70
    0
  3

 72
   65
 73
    0
 40
0
  0
LTYPE
  5
16
330
5
100
AcDbSymbolTableRecord
100
AcDbLinetypeTableRecord
  2
Continuous
 70
    0
  3
Solid line
 72
   65
 73
    0
 40
0
  0
LTYPE
  5
32
330
5
100
AcDbSymbolTableRecord
100
AcDbLinetypeTableRecord
  2
DOT
 70
    0
  3
Dot . . . . . . . . . . . . . . . . . . . . . .
 72
   65
 73
    2
 40
6.35
 49
0
 74
    0
 49
-6.35
 74
    0
  0
LTYPE
  5
33
330
5
100
AcDbSymbolTableRecord
100
AcDbLinetypeTableRecord
  2
DOTTINY
 70
    0
  3
Dot (.15x) .....................................
 72
   65
 73
    2
 40
0.9525
 49
0
 74
    0
 49
-0.9525
 74
    0
  0
LTYPE
  5
34
330
5
100
AcDbSymbolTableRecord
100
AcDbLinetypeTableRecord
  2
DOT2
 70
    0
  3
Dot (.5x) .....................................
 72
   65
 73
    2
 40
3.175
 49
0
 74
    0
 49
-3.175
 74
    0
  0
LTYPE
  5
35
330
5
100
AcDbSymbolTableRecord
100
AcDbLinetypeTableRecord
  2
DOTX2
 70
    0
  3
Dot (2x) .  .  .  .  .  .  .  .  .  .  .  .  .
 72
   65
 73
    2
 40
12.7
 49
0
 74
    0
 49
-12.7
 74
    0
  0
LTYPE
  5
36
330
5
100
AcDbSymbolTableRecord
100
AcDbLinetypeTableRecord
  2
DASHED
 70
    0
  3
Dashed _ _ _ _ _ _ _ _ _ _ _ _ _ _ _ _ _
 72
   65
 73
    2
 40
19.05
 49
12.7
 74
    0
 49
-6.35
 74
    0
  0
LTYPE
  5
37
330
5
100
AcDbSymbolTableRecord
100
AcDbLinetypeTableRecord
  2
DASHEDTINY
 70
    0
  3
Dashed (.15x) _ _ _ _ _ _ _ _ _ _ _ _ _ _ _ _ _
 72
   65
 73
    2
 40
2.8575
 49
1.905
 74
    0
 49
-0.9525
 74
    0
  0
LTYPE
  5
38
330
5
100
AcDbSymbolTableRecord
100
AcDbLinetypeTableRecord
  2
DASHED2
 70
    0
  3
Dashed (.5x) _ _ _ _ _ _ _ _ _ _ _ _ _ _ _ _ _
 72
   65
 73
    2
 40
9.524999999999999
 49
6.35
 74
    0
 49
-3.175
 74
    0
  0
LTYPE
  5
39
330
5
100
AcDbSymbolTableRecord
100
AcDbLinetypeTableRecord
  2
DASHEDX2
 70
    0
  3
Dashed (2x) ____  ____  ____  ____  ____  ___
 72
   65
 73
    2
 40
38.09999999999999
 49
25.4
 74
    0
 49
-12.7
 74
    0
  0
LTYPE
  5
3A
330
5
100
AcDbSymbolTableRecord
100
AcDbLinetypeTableRecord
  2
DASHDOT
 70
    0
  3
Dash dot __ . __ . __ . __ . __ . __ . __ . __
 72
   65
 73
    4
 40
25.4
 49
12.7
 74
    0
 49
-6.35
 74
    0
 49
0
 74
    0
 49
-6.35
 74
    0
  0
LTYPE
  5
3B
330
5
100
AcDbSymbolTableRecord
100
AcDbLinetypeTableRecord
  2
DASHDOTTINY
 70
    0
  3
Dash dot (.15x) _._._._._._._._._._._._._._._.
 72
   65
 73
    4
 40
3.81
 49
1.905
 74
    0
 49
-0.9525
 74
    0
 49
0
 74
    0
 49
-0.9525
 74
    0
  0
LTYPE
  5
3C
330
5
100
AcDbSymbolTableRecord
100
AcDbLinetypeTableRecord
  2
DASHDOT2
 70
    0
  3
Dash dot (.5x) _._._._._._._._._._._._._._._.
 72
   65
 73
    4
 40
12.7
 49
6.35
 74
    0
 49
-3.175
 74
    0
 49
0
 74
    0
 49
-3.175
 74
    0
  0
LTYPE
  5
3D
330
5
100
AcDbSymbolTableRecord
100
AcDbLinetypeTableRecord
  2
DASHDOTX2
 70
    0
  3
Dash dot (2x) ____  .  ____  .  ____  .  ___
 72
   65
 73
    4
 40
50.8
 49
25.4
 74
    0
 49
-12.7
 74
    0
 49
0
 74
    0
 49
-12.7
 74
    0
  0
LTYPE
  5
3E
330
5
100
AcDbSymbolTableRecord
100
AcDbLinetypeTableRecord
  2
DIVIDE
 70
    0
  3
Divide ____ . . ____ . . ____ . . ____ . . ____
 72
   65
 73
    6
 40
31.75
 49
12.7
 74
    0
 49
-6.35
 74
    0
 49
0
 74
    0
 49
-6.35
 74
    0
 49
0
 74
    0
 49
-6.35
 74
    0
  0
LTYPE
  5
3F
330
5
100
AcDbSymbolTableRecord
100
AcDbLinetypeTableRecord
  2
DIVIDETINY
 70
    0
  3
Divide (.15x) __..__..__..__..__..__..__..__.._
 72
   65
 73
    6
 40
4.7625
 49
1.905
 74
    0
 49
-0.9525
 74
    0
 49
0
 74
    0
 49
-0.9525
 74
    0
 49
0
 74
    0
 49
-0.9525
 74
    0
  0
LTYPE
  5
40
330
5
100
AcDbSymbolTableRecord
100
AcDbLinetypeTableRecord
  2
DIVIDE2
 70
    0
  3
Divide (.5x) __..__..__..__..__..__..__..__.._
 72
   65
 73
    6
 40
15.875
 49
6.35
 74
    0
 49
-3.175
 74
    0
 49
0
 74
    0
 49
-3.175
 74
    0
 49
0
 74
    0
 49
-3.175
 74
    0
  0
LTYPE
  5
41
330
5
100
AcDbSymbolTableRecord
100
AcDbLinetypeTableRecord
  2
DIVIDEX2
 70
    0
  3
Divide (2x) ________  .  .  ________  .  .  _
 72
   65
 73
    6
 40
63.5
 49
25.4
 74
    0
 49
-12.7
 74
    0
 49
0
 74
    0
 49
-12.7
 74
    0
 49
0
 74
    0
 49
-12.7
 74
    0
  0
LTYPE
  5
42
330
5
100
AcDbSymbolTableRecord
100
AcDbLinetypeTableRecord
  2
BORDER
 70
    0
  3
Border __ __ . __ __ . __ __ . __ __ . __ __ .
 72
   65
 73
    6
 40
44.45
 49
12.7
 74
    0
 49
-6.35
 74
    0
 49
12.7
 74
    0
 49
-6.35
 74
    0
 49
0
 74
    0
 49
-6.35
 74
    0
  0
LTYPE
  5
43
330
5
100
AcDbSymbolTableRecord
100
AcDbLinetypeTableRecord
  2
BORDERTINY
 70
    0
  3
Border (.15x) __.__.__.__.__.__.__.__.__.__.__.
 72
   65
 73
    6
 40
6.6675
 49
1.905
 74
    0
 49
-0.9525
 74
    0
 49
1.905
 74
    0
 49
-0.9525
 74
    0
 49
0
 74
    0
 49
-0.9525
 74
    0
  0
LTYPE
  5
44
330
5
100
AcDbSymbolTableRecord
100
AcDbLinetypeTableRecord
  2
BORDER2
 70
    0
  3
Border (.5x) __.__.__.__.__.__.__.__.__.__.__.
 72
   65
 73
    6
 40
22.225
 49
6.35
 74
    0
 49
-3.175
 74
    0
 49
6.35
 74
    0
 49
-3.175
 74
    0
 49
0
 74
    0
 49
-3.175
 74
    0
  0
LTYPE
  5
45
330
5
100
AcDbSymbolTableRecord
100
AcDbLinetypeTableRecord
  2
BORDERX2
 70
    0
  3
Border (2x) ____  ____  .  ____  ____  .  ___
 72
   65
 73
    6
 40
88.89999999999999
 49
25.4
 74
    0
 49
-12.7
 74
    0
 49
25.4
 74
    0
 49
-12.7
 74
    0
 49
0
 74
    0
 49
-12.7
 74
    0
  0
LTYPE
  5
46
330
5
100
AcDbSymbolTableRecord
100
AcDbLinetypeTableRecord
  2
CENTER
 70
    0
  3
Center ____ _ ____ _ ____ _ ____ _ ____ _ ____
 72
   65
 73
    4
 40
50.8
 49
31.75
 74
    0
 49
-6.35
 74
    0
 49
6.35
 74
    0
 49
-6.35
 74
    0
  0
LTYPE
  5
47
330
5
100
AcDbSymbolTableRecord
100
AcDbLinetypeTableRecord
  2
CENTERTINY
 70
    0
  3
Center (.15x) ___ _ ___ _ ___ _ ___ _ ___ _ ___
 72
   65
 73
    4
 40
7.619999999999999
 49
4.7625
 74
    0
 49
-0.9525
 74
    0
 49
0.9525
 74
    0
 49
-0.9525
 74
    0
  0
LTYPE
  5
48
330
5
100
AcDbSymbolTableRecord
100
AcDbLinetypeTableRecord
  2
CENTER2
 70
    0
  3
Center (.5x) ___ _ ___ _ ___ _ ___ _ ___ _ ___
 72
   65
 73
    4
 40
28.575
 49
19.05
 74
    0
 49
-3.175
 74
    0
 49
3.175
 74
    0
 49
-3.175
 74
    0
  0
LTYPE
  5
49
330
5
100
AcDbSymbolTableRecord
100
AcDbLinetypeTableRecord
  2
CENTERX2
 70
    0
  3
Center (2x) ________  __  ________  __  _____
 72
   65
 73
    4
 40
101.6
 49
63.5
 74
    0
 49
-12.7
 74
    0
 49
12.7
 74
    0
 49
-12.7
 74
    0
  0
ENDTAB
  0
TABLE
  2
LAYER
  5
2
330
0
100
AcDbSymbolTable
 70
    1
  0
LAYER
  5
10
330
2
100
AcDbSymbolTableRecord
100
AcDbLayerTableRecord
  2
0
 70
    0
 62
    7
  6
CONTINUOUS
370
    0
390
F
  0
LAYER
  5
4A
330
2
100
AcDbSymbolTableRecord
100
AcDbLayerTableRecord
  2
addr_bus_0..7
 70
    1
 62
    2
  6
CONTINUOUS
370
   13
390
F
  0
LAYER
  5
4B
330
2
100
AcDbSymbolTableRecord
100
AcDbLayerTableRecord
  2
addr_bus_8..15
 70
    1
 62
   56
420
8421376
  6
CONTINUOUS
370
   13
390
F
  0
LAYER
  5
4C
330
2
100
AcDbSymbolTableRecord
100
AcDbLayerTableRecord
  2
clk
 70
    1
 62
    3
  6
CONTINUOUS
370
    9
390
F
  0
LAYER
  5
4D
330
2
100
AcDbSymbolTableRecord
100
AcDbLayerTableRecord
  2
data_bus
 70
    1
 62
    4
  6
CONTINUOUS
370
   13
390
F
  0
LAYER
  5
4E
330
2
100
AcDbSymbolTableRecord
100
AcDbLayerTableRecord
  2
gnd
 70
    1
 62
    5
  6
CONTINUOUS
370
   18
390
F
  0
LAYER
  5
4F
330
2
100
AcDbSymbolTableRecord
100
AcDbLayerTableRecord
  2
signal
 70
    0
 62
    6
  6
CONTINUOUS
370
    9
390
F
  0
LAYER
  5
50
330
2
100
AcDbSymbolTableRecord
100
AcDbLayerTableRecord
  2
signal2
 70
    0
 62
  216
420
8388736
  6
CONTINUOUS
370
    9
390
F
  0
LAYER
  5
51
330
2
100
AcDbSymbolTableRecord
100
AcDbLayerTableRecord
  2
signal3
 70
    0
 62
  136
420
32896
  6
CONTINUOUS
370
    9
390
F
  0
LAYER
  5
52
330
2
100
AcDbSymbolTableRecord
100
AcDbLayerTableRecord
  2
vcc
 70
    0
 62
    1
  6
CONTINUOUS
370
   18
390
F
  0
ENDTAB
  0
TABLE
  2
STYLE
  5
3
330
0
100
AcDbSymbolTable
 70
    3
  0
STYLE
  5
53
330
2
100
AcDbSymbolTableRecord
100
AcDbTextStyleTableRecord
  2
STANDARD
 70
    0
 40
0
 41
1
 50
0
 71
    0
 42
1
  3
STANDARD
  4

  0
ENDTAB
  0
TABLE
  2
VIEW
  5
6
330
0
100
AcDbSymbolTable
 70
    0
  0
ENDTAB
  0
TABLE
  2
UCS
  5
7
330
0
100
AcDbSymbolTable
 70
    0
  0
ENDTAB
  0
TABLE
  2
APPID
  5
9
330
0
100
AcDbSymbolTable
 70
    1
  0
APPID
  5
12
330
9
100
AcDbSymbolTableRecord
100
AcDbRegAppTableRecord
  2
ACAD
 70
    0
  0
APPID
  5
54
330
9
100
AcDbSymbolTableRecord
100
AcDbRegAppTableRecord
  2
LibreCad
 70
    0
  0
ENDTAB
  0
TABLE
  2
DIMSTYLE
  5
A
330
0
100
AcDbSymbolTable
 70
    1
100
AcDbDimStyleTable
 71
    1
  0
DIMSTYLE
105
55
330
A
100
AcDbSymbolTableRecord
100
AcDbDimStyleTableRecord
  2
Standard
 70
    0
 40
2.5
 41
2.5
 42
0.625
 43
0.38
 44
1.25
 45
0
 46
0
 47
0
 48
0
 49
1
140
2.5
141
0.09
142
0
143
25.4
144
1
145
0
146
1
147
0.625
148
0
 71
    0
 72
    0
 73
    0
 74
    1
 75
    0
 76
    0
 77
    0
 78
    8
 79
    0
170
    0
171
    2
172
    0
173
    0
174
    0
175
    0
176
    0
177
    0
178
    0
179
    0
271
    2
272
    4
273
    2
274
    2
275
    0
276
    0
277
    2
278
   44
279
    0
280
    0
281
    0
282
    0
283
    1
284
    0
285
    0
286
    0
288
    0
289
    3
340
STANDARD
341

371
   -2
372
   -2
  0
ENDTAB
  0
TABLE
  2
BLOCK_RECORD
  5
1
330
0
100
AcDbSymbolTable
 70
    2
  0
BLOCK_RECORD
  5
1F
330
1
100
AcDbSymbolTableRecord
100
AcDbBlockTableRecord
  2
*Model_Space
 70
    0
280
    1
281
    0
  0
BLOCK_RECORD
  5
1E
330
1
100
AcDbSymbolTableRecord
100
AcDbBlockTableRecord
  2
*Paper_Space
 70
    0
280
    1
281
    0
  0
BLOCK_RECORD
  5
56
330
1
100
AcDbSymbolTableRecord
100
AcDbBlockTableRecord
  2
dip_7_20
 70
    0
280
    1
281
    0
  0
BLOCK_RECORD
  5
59
330
1
100
AcDbSymbolTableRecord
100
AcDbBlockTableRecord
  2
dip_4_14
 70
    0
280
    1
281
    0
  0
BLOCK_RECORD
  5
5C
330
1
100
AcDbSymbolTableRecord
100
AcDbBlockTableRecord
  2
zif_40
 70
    0
280
    1
281
    0
  0
BLOCK_RECORD
  5
5F
330
1
100
AcDbSymbolTableRecord
100
AcDbBlockTableRecord
  2
plcc44
 70
    0
280
    1
281
    0
  0
BLOCK_RECORD
  5
62
330
1
100
AcDbSymbolTableRecord
100
AcDbBlockTableRecord
  2
BNC
 70
    0
280
    1
281
    0
  0
BLOCK_RECORD
  5
65
330
1
100
AcDbSymbolTableRecord
100
AcDbBlockTableRecord
  2
zif_28
 70
    0
280
    1
281
    0
  0
BLOCK_RECORD
  5
68
330
1
100
AcDbSymbolTableRecord
100
AcDbBlockTableRecord
  2
switch
 70
    0
280
    1
281
    0
  0
BLOCK_RECORD
  5
6B
330
1
100
AcDbSymbolTableRecord
100
AcDbBlockTableRecord
  2
banana
 70
    0
280
    1
281
    0
  0
BLOCK_RECORD
  5
6E
330
1
100
AcDbSymbolTableRecord
100
AcDbBlockTableRecord
  2
resistor_sm_h
 70
    0
280
    1
281
    0
  0
BLOCK_RECORD
  5
71
330
1
100
AcDbSymbolTableRecord
100
AcDbBlockTableRecord
  2
capacitor_sm
 70
    0
280
    1
281
    0
  0
BLOCK_RECORD
  5
74
330
1
100
AcDbSymbolTableRecord
100
AcDbBlockTableRecord
  2
capacitor_lg
 70
    0
280
    1
281
    0
  0
BLOCK_RECORD
  5
77
330
1
100
AcDbSymbolTableRecord
100
AcDbBlockTableRecord
  2
quartz
 70
    0
280
    1
281
    0
  0
BLOCK_RECORD
  5
7A
330
1
100
AcDbSymbolTableRecord
100
AcDbBlockTableRecord
  2
LED
 70
    0
280
    1
281
    0
  0
BLOCK_RECORD
  5
7D
330
1
100
AcDbSymbolTableRecord
100
AcDbBlockTableRecord
  2
resistor_sm_h-0
 70
    0
280
    1
281
    0
  0
BLOCK_RECORD
  5
80
330
1
100
AcDbSymbolTableRecord
100
AcDbBlockTableRecord
  2
resistor_sm_h-1
 70
    0
280
    1
281
    0
  0
BLOCK_RECORD
  5
83
330
1
100
AcDbSymbolTableRecord
100
AcDbBlockTableRecord
  2
capacitor_sm-0
 70
    0
280
    1
281
    0
  0
BLOCK_RECORD
  5
86
330
1
100
AcDbSymbolTableRecord
100
AcDbBlockTableRecord
  2
resistor_sm_h-2
 70
    0
280
    1
281
    0
  0
BLOCK_RECORD
  5
89
330
1
100
AcDbSymbolTableRecord
100
AcDbBlockTableRecord
  2
resistor_sm_h-3
 70
    0
280
    1
281
    0
  0
BLOCK_RECORD
  5
8C
330
1
100
AcDbSymbolTableRecord
100
AcDbBlockTableRecord
  2
capacitor_sm-1
 70
    0
280
    1
281
    0
  0
BLOCK_RECORD
  5
8F
330
1
100
AcDbSymbolTableRecord
100
AcDbBlockTableRecord
  2
capacitor_sm-2
 70
    0
280
    1
281
    0
  0
BLOCK_RECORD
  5
92
330
1
100
AcDbSymbolTableRecord
100
AcDbBlockTableRecord
  2
capacitor_sm-3
 70
    0
280
    1
281
    0
  0
BLOCK_RECORD
  5
95
330
1
100
AcDbSymbolTableRecord
100
AcDbBlockTableRecord
  2
capacitor_lg-0
 70
    0
280
    1
281
    0
  0
BLOCK_RECORD
  5
98
330
1
100
AcDbSymbolTableRecord
100
AcDbBlockTableRecord
  2
capacitor_sm-4
 70
    0
280
    1
281
    0
  0
BLOCK_RECORD
  5
9B
330
1
100
AcDbSymbolTableRecord
100
AcDbBlockTableRecord
  2
capacitor_sm-5
 70
    0
280
    1
281
    0
  0
BLOCK_RECORD
  5
9E
330
1
100
AcDbSymbolTableRecord
100
AcDbBlockTableRecord
  2
capacitor_sm-6
 70
    0
280
    1
281
    0
  0
BLOCK_RECORD
  5
A1
330
1
100
AcDbSymbolTableRecord
100
AcDbBlockTableRecord
  2
capacitor_sm-7
 70
    0
280
    1
281
    0
  0
BLOCK_RECORD
  5
A4
330
1
100
AcDbSymbolTableRecord
100
AcDbBlockTableRecord
  2
capacitor_sm-8
 70
    0
280
    1
281
    0
  0
BLOCK_RECORD
  5
A7
330
1
100
AcDbSymbolTableRecord
100
AcDbBlockTableRecord
  2
capacitor_sm-9
 70
    0
280
    1
281
    0
  0
BLOCK_RECORD
  5
AA
330
1
100
AcDbSymbolTableRecord
100
AcDbBlockTableRecord
  2
capacitor_sm-10
 70
    0
280
    1
281
    0
  0
BLOCK_RECORD
  5
AD
330
1
100
AcDbSymbolTableRecord
100
AcDbBlockTableRecord
  2
capacitor_sm-11
 70
    0
280
    1
281
    0
  0
BLOCK_RECORD
  5
B0
330
1
100
AcDbSymbolTableRecord
100
AcDbBlockTableRecord
  2
capacitor_sm-12
 70
    0
280
    1
281
    0
  0
BLOCK_RECORD
  5
B3
330
1
100
AcDbSymbolTableRecord
100
AcDbBlockTableRecord
  2
capacitor_sm-13
 70
    0
280
    1
281
    0
  0
BLOCK_RECORD
  5
B6
330
1
100
AcDbSymbolTableRecord
100
AcDbBlockTableRecord
  2
capacitor_sm-14
 70
    0
280
    1
281
    0
  0
BLOCK_RECORD
  5
B9
330
1
100
AcDbSymbolTableRecord
100
AcDbBlockTableRecord
  2
capacitor_sm-15
 70
    0
280
    1
281
    0
  0
BLOCK_RECORD
  5
BC
330
1
100
AcDbSymbolTableRecord
100
AcDbBlockTableRecord
  2
capacitor_sm-16
 70
    0
280
    1
281
    0
  0
BLOCK_RECORD
  5
BF
330
1
100
AcDbSymbolTableRecord
100
AcDbBlockTableRecord
  2
capacitor_sm-17
 70
    0
280
    1
281
    0
  0
BLOCK_RECORD
  5
C2
330
1
100
AcDbSymbolTableRecord
100
AcDbBlockTableRecord
  2
capacitor_sm-18
 70
    0
280
    1
281
    0
  0
BLOCK_RECORD
  5
C5
330
1
100
AcDbSymbolTableRecord
100
AcDbBlockTableRecord
  2
capacitor_sm-19
 70
    0
280
    1
281
    0
  0
BLOCK_RECORD
  5
C8
330
1
100
AcDbSymbolTableRecord
100
AcDbBlockTableRecord
  2
capacitor_sm-20
 70
    0
280
    1
281
    0
  0
BLOCK_RECORD
  5
CB
330
1
100
AcDbSymbolTableRecord
100
AcDbBlockTableRecord
  2
capacitor_sm-21
 70
    0
280
    1
281
    0
  0
BLOCK_RECORD
  5
CE
330
1
100
AcDbSymbolTableRecord
100
AcDbBlockTableRecord
  2
capacitor_sm-22
 70
    0
280
    1
281
    0
  0
BLOCK_RECORD
  5
D1
330
1
100
AcDbSymbolTableRecord
100
AcDbBlockTableRecord
  2
capacitor_sm-23
 70
    0
280
    1
281
    0
  0
BLOCK_RECORD
  5
D4
330
1
100
AcDbSymbolTableRecord
100
AcDbBlockTableRecord
  2
resistor_sm_h-4
 70
    0
280
    1
281
    0
  0
BLOCK_RECORD
  5
D7
330
1
100
AcDbSymbolTableRecord
100
AcDbBlockTableRecord
  2
diode1
 70
    0
280
    1
281
    0
  0
BLOCK_RECORD
  5
DA
330
1
100
AcDbSymbolTableRecord
100
AcDbBlockTableRecord
  2
capacitor_sm-24
 70
    0
280
    1
281
    0
  0
BLOCK_RECORD
  5
DD
330
1
100
AcDbSymbolTableRecord
100
AcDbBlockTableRecord
  2
dip_4_14-0
 70
    0
280
    1
281
    0
  0
ENDTAB
  0
ENDSEC
  0
SECTION
  2
BLOCKS
  0
BLOCK
  5
20
330
1F
100
AcDbEntity
  8
0
100
AcDbBlockBegin
  2
*Model_Space
 70
    0
 10
0
 20
0
 30
0
  3
*Model_Space
  1

  0
ENDBLK
  5
21
330
1F
100
AcDbEntity
  8
0
100
AcDbBlockEnd
  0
BLOCK
  5
1C
330
1B
100
AcDbEntity
  8
0
100
AcDbBlockBegin
  2
*Paper_Space
 70
    0
 10
0
 20
0
 30
0
  3
*Paper_Space
  1

  0
ENDBLK
  5
1D
330
1F
100
AcDbEntity
  8
0
100
AcDbBlockEnd
  0
BLOCK
  5
57
330
56
100
AcDbEntity
  8
0
100
AcDbBlockBegin
  2
dip_7_20
 70
    0
 10
0
 20
0
  3
dip_7_20
  1

  0
LWPOLYLINE
  5
E0
100
AcDbEntity
  8
0
  6
ByLayer
 62
  256
370
   -1
100
AcDbPolyline
 90
    4
 70
    1
 43
0
 10
0
 20
0
 10
7
 20
0
 10
7
 20
20
 10
0
 20
20
  0
LINE
  5
E1
100
AcDbEntity
  8
0
  6
ByLayer
 62
  256
370
   -1
100
AcDbLine
 10
2
 20
20
 11
2
 21
0
  0
LINE
  5
E2
100
AcDbEntity
  8
0
  6
ByLayer
 62
  256
370
   -1
100
AcDbLine
 10
5
 20
0
 11
5
 21
20
  0
ENDBLK
  5
58
330
56
100
AcDbEntity
  8
0
100
AcDbBlockEnd
  0
BLOCK
  5
5A
330
59
100
AcDbEntity
  8
0
100
AcDbBlockBegin
  2
dip_4_14
 70
    0
 10
0
 20
0
  3
dip_4_14
  1

  0
LWPOLYLINE
  5
E3
100
AcDbEntity
  8
0
  6
ByLayer
 62
  256
370
   -1
100
AcDbPolyline
 90
    4
 70
    1
 43
0
 10
0
 20
0
 10
4
 20
0
 10
4
 20
14
 10
0
 20
14
  0
LINE
  5
E4
100
AcDbEntity
  8
0
  6
ByLayer
 62
  256
370
   -1
100
AcDbLine
 10
2
 20
14
 11
2
 21
0
  0
ENDBLK
  5
5B
330
59
100
AcDbEntity
  8
0
100
AcDbBlockEnd
  0
BLOCK
  5
5D
330
5C
100
AcDbEntity
  8
0
100
AcDbBlockBegin
  2
zif_40
 70
    0
 10
0
 20
0
  3
zif_40
  1

  0
LWPOLYLINE
  5
E5
100
AcDbEntity
  8
0
  6
ByLayer
 62
  256
370
   -1
100
AcDbPolyline
 90
    4
 70
    1
 43
0
 10
0
 20
2
 10
9
 20
2
 10
9
 20
28
 10
0
 20
28
  0
LINE
  5
E6
100
AcDbEntity
  8
0
  6
ByLayer
 62
  256
370
   -1
100
AcDbLine
 10
0
 20
24
 11
9
 21
24
  0
LINE
  5
E7
100
AcDbEntity
  8
0
  6
ByLayer
 62
  256
370
   -1
100
AcDbLine
 10
0
 20
4
 11
9
 21
4
  0
LINE
  5
E8
100
AcDbEntity
  8
0
  6
ByLayer
 62
  256
370
   -1
100
AcDbLine
 10
1
 20
24
 11
1
 21
4
  0
LINE
  5
E9
100
AcDbEntity
  8
0
  6
ByLayer
 62
  256
370
   -1
100
AcDbLine
 10
8
 20
4
 11
8
 21
24
  0
LINE
  5
EA
100
AcDbEntity
  8
0
  6
ByLayer
 62
  256
370
   -1
100
AcDbLine
 10
3
 20
4
 11
3
 21
24
  0
LINE
  5
EB
100
AcDbEntity
  8
0
  6
ByLayer
 62
  256
370
   -1
100
AcDbLine
 10
6
 20
24
 11
6
 21
4
  0
ENDBLK
  5
5E
330
5C
100
AcDbEntity
  8
0
100
AcDbBlockEnd
  0
BLOCK
  5
60
330
5F
100
AcDbEntity
  8
0
100
AcDbBlockBegin
  2
plcc44
 70
    0
 10
0
 20
0
  3
plcc44
  1

  0
LWPOLYLINE
  5
EC
100
AcDbEntity
  8
0
  6
ByLayer
 62
  256
370
   -1
100
AcDbPolyline
 90
    4
 70
    1
 43
0
 10
0
 20
0
 10
10
 20
0
 10
10
 20
10
 10
0
 20
10
  0
LWPOLYLINE
  5
ED
100
AcDbEntity
  8
0
  6
ByLayer
 62
  256
370
   -1
100
AcDbPolyline
 90
    4
 70
    1
 43
0
 10
2
 20
9
 10
8
 20
9
 10
8
 20
8
 10
2
 20
8
  0
LWPOLYLINE
  5
EE
100
AcDbEntity
  8
0
  6
ByLayer
 62
  256
370
   -1
100
AcDbPolyline
 90
    4
 70
    1
 43
0
 10
8
 20
8
 10
9
 20
8
 10
9
 20
2
 10
8
 20
2
  0
LWPOLYLINE
  5
EF
100
AcDbEntity
  8
0
  6
ByLayer
 62
  256
370
   -1
100
AcDbPolyline
 90
    4
 70
    1
 43
0
 10
8
 20
2
 10
2
 20
2
 10
2
 20
1
 10
8
 20
1
  0
LWPOLYLINE
  5
F0
100
AcDbEntity
  8
0
  6
ByLayer
 62
  256
370
   -1
100
AcDbPolyline
 90
    4
 70
    1
 43
0
 10
2
 20
2
 10
1
 20
2
 10
1
 20
8
 10
2
 20
8
  0
LWPOLYLINE
  5
F1
100
AcDbEntity
  8
0
  6
ByLayer
 62
  256
370
   -1
100
AcDbPolyline
 90
    4
 70
    1
 43
0
 10
2
 20
8
 10
3
 20
8
 10
3
 20
2
 10
2
 20
2
  0
LWPOLYLINE
  5
F2
100
AcDbEntity
  8
0
  6
ByLayer
 62
  256
370
   -1
100
AcDbPolyline
 90
    4
 70
    1
 43
0
 10
3
 20
3
 10
8
 20
3
 10
8
 20
2
 10
3
 20
2
  0
LWPOLYLINE
  5
F3
100
AcDbEntity
  8
0
  6
ByLayer
 62
  256
370
   -1
100
AcDbPolyline
 90
    4
 70
    1
 43
0
 10
7
 20
3
 10
8
 20
3
 10
8
 20
8
 10
7
 20
8
  0
LWPOLYLINE
  5
F4
100
AcDbEntity
  8
0
  6
ByLayer
 62
  256
370
   -1
100
AcDbPolyline
 90
    4
 70
    1
 43
0
 10
7
 20
7
 10
3
 20
7
 10
3
 20
8
 10
7
 20
8
  0
LINE
  5
F5
100
AcDbEntity
  8
0
  6
ByLayer
 62
  256
370
   -1
100
AcDbLine
 10
7
 20
7
 11
8
 21
7
  0
LINE
  5
F6
100
AcDbEntity
  8
0
  6
ByLayer
 62
  256
370
   -1
100
AcDbLine
 10
3
 20
7
 11
2
 21
7
  0
LINE
  5
F7
100
AcDbEntity
  8
0
  6
ByLayer
 62
  256
370
   -1
100
AcDbLine
 10
1
 20
6
 11
3
 21
6
  0
LINE
  5
F8
100
AcDbEntity
  8
0
  6
ByLayer
 62
  256
370
   -1
100
AcDbLine
 10
3
 20
6
 11
3
 21
5
  0
LINE
  5
F9
100
AcDbEntity
  8
0
  6
ByLayer
 62
  256
370
   -1
100
AcDbLine
 10
3
 20
5
 11
1
 21
5
  0
LINE
  5
FA
100
AcDbEntity
  8
0
  6
ByLayer
 62
  256
370
   -1
100
AcDbLine
 10
1
 20
5
 11
1
 21
4
  0
LINE
  5
FB
100
AcDbEntity
  8
0
  6
ByLayer
 62
  256
370
   -1
100
AcDbLine
 10
1
 20
4
 11
3
 21
4
  0
LINE
  5
FC
100
AcDbEntity
  8
0
  6
ByLayer
 62
  256
370
   -1
100
AcDbLine
 10
3
 20
4
 11
3
 21
3
  0
LINE
  5
FD
100
AcDbEntity
  8
0
  6
ByLayer
 62
  256
370
   -1
100
AcDbLine
 10
3
 20
3
 11
1
 21
3
  0
LINE
  5
FE
100
AcDbEntity
  8
0
  6
ByLayer
 62
  256
370
   -1
100
AcDbLine
 10
3
 20
2
 11
3
 21
1
  0
LINE
  5
FF
100
AcDbEntity
  8
0
  6
ByLayer
 62
  256
370
   -1
100
AcDbLine
 10
3
 20
1
 11
4
 21
1
  0
LINE
  5
100
100
AcDbEntity
  8
0
  6
ByLayer
 62
  256
370
   -1
100
AcDbLine
 10
4
 20
1
 11
4
 21
3
  0
LINE
  5
101
100
AcDbEntity
  8
0
  6
ByLayer
 62
  256
370
   -1
100
AcDbLine
 10
4
 20
3
 11
5
 21
3
  0
LINE
  5
102
100
AcDbEntity
  8
0
  6
ByLayer
 62
  256
370
   -1
100
AcDbLine
 10
5
 20
3
 11
5
 21
1
  0
LINE
  5
103
100
AcDbEntity
  8
0
  6
ByLayer
 62
  256
370
   -1
100
AcDbLine
 10
5
 20
1
 11
6
 21
1
  0
LINE
  5
104
100
AcDbEntity
  8
0
  6
ByLayer
 62
  256
370
   -1
100
AcDbLine
 10
6
 20
1
 11
6
 21
3
  0
LINE
  5
105
100
AcDbEntity
  8
0
  6
ByLayer
 62
  256
370
   -1
100
AcDbLine
 10
6
 20
3
 11
7
 21
3
  0
LINE
  5
106
100
AcDbEntity
  8
0
  6
ByLayer
 62
  256
370
   -1
100
AcDbLine
 10
7
 20
3
 11
7
 21
1
  0
LINE
  5
107
100
AcDbEntity
  8
0
  6
ByLayer
 62
  256
370
   -1
100
AcDbLine
 10
8
 20
3
 11
9
 21
3
  0
LINE
  5
108
100
AcDbEntity
  8
0
  6
ByLayer
 62
  256
370
   -1
100
AcDbLine
 10
9
 20
3
 11
9
 21
4
  0
LINE
  5
109
100
AcDbEntity
  8
0
  6
ByLayer
 62
  256
370
   -1
100
AcDbLine
 10
9
 20
4
 11
7
 21
4
  0
LINE
  5
10A
100
AcDbEntity
  8
0
  6
ByLayer
 62
  256
370
   -1
100
AcDbLine
 10
7
 20
4
 11
7
 21
5
  0
LINE
  5
10B
100
AcDbEntity
  8
0
  6
ByLayer
 62
  256
370
   -1
100
AcDbLine
 10
7
 20
5
 11
9
 21
5
  0
LINE
  5
10C
100
AcDbEntity
  8
0
  6
ByLayer
 62
  256
370
   -1
100
AcDbLine
 10
9
 20
5
 11
9
 21
6
  0
LINE
  5
10D
100
AcDbEntity
  8
0
  6
ByLayer
 62
  256
370
   -1
100
AcDbLine
 10
9
 20
6
 11
7
 21
6
  0
LINE
  5
10E
100
AcDbEntity
  8
0
  6
ByLayer
 62
  256
370
   -1
100
AcDbLine
 10
7
 20
6
 11
7
 21
7
  0
LINE
  5
10F
100
AcDbEntity
  8
0
  6
ByLayer
 62
  256
370
   -1
100
AcDbLine
 10
7
 20
7
 11
9
 21
7
  0
LINE
  5
110
100
AcDbEntity
  8
0
  6
ByLayer
 62
  256
370
   -1
100
AcDbLine
 10
7
 20
8
 11
7
 21
9
  0
LINE
  5
111
100
AcDbEntity
  8
0
  6
ByLayer
 62
  256
370
   -1
100
AcDbLine
 10
7
 20
9
 11
6
 21
9
  0
LINE
  5
112
100
AcDbEntity
  8
0
  6
ByLayer
 62
  256
370
   -1
100
AcDbLine
 10
6
 20
9
 11
6
 21
7
  0
LINE
  5
113
100
AcDbEntity
  8
0
  6
ByLayer
 62
  256
370
   -1
100
AcDbLine
 10
6
 20
7
 11
5
 21
7
  0
LINE
  5
114
100
AcDbEntity
  8
0
  6
ByLayer
 62
  256
370
   -1
100
AcDbLine
 10
5
 20
7
 11
5
 21
9
  0
LINE
  5
115
100
AcDbEntity
  8
0
  6
ByLayer
 62
  256
370
   -1
100
AcDbLine
 10
5
 20
9
 11
4
 21
9
  0
LINE
  5
116
100
AcDbEntity
  8
0
  6
ByLayer
 62
  256
370
   -1
100
AcDbLine
 10
4
 20
9
 11
4
 21
7
  0
LINE
  5
117
100
AcDbEntity
  8
0
  6
ByLayer
 62
  256
370
   -1
100
AcDbLine
 10
4
 20
7
 11
3
 21
7
  0
LINE
  5
118
100
AcDbEntity
  8
0
  6
ByLayer
 62
  256
370
   -1
100
AcDbLine
 10
3
 20
7
 11
3
 21
9
  0
LINE
  5
119
100
AcDbEntity
  8
0
  6
ByLayer
 62
  256
370
   -1
100
AcDbLine
 10
2
 20
7
 11
1
 21
7
  0
ENDBLK
  5
61
330
5F
100
AcDbEntity
  8
0
100
AcDbBlockEnd
  0
BLOCK
  5
63
330
62
100
AcDbEntity
  8
0
100
AcDbBlockBegin
  2
BNC
 70
    0
 10
0
 20
0
  3
BNC
  1

  0
LWPOLYLINE
  5
11A
100
AcDbEntity
  8
0
  6
ByLayer
 62
  256
370
   -1
100
AcDbPolyline
 90
    4
 70
    1
 43
0
 10
0
 20
0
 10
-10
 20
0
 10
-10
 20
-7
 10
0
 20
-7
  0
LWPOLYLINE
  5
11B
100
AcDbEntity
  8
0
  6
ByLayer
 62
  256
370
   -1
100
AcDbPolyline
 90
    4
 70
    1
 43
0
 10
-1
 20
-3
 10
0
 20
-3
 10
0
 20
-5
 10
-1
 20
-5
  0
ENDBLK
  5
64
330
62
100
AcDbEntity
  8
0
100
AcDbBlockEnd
  0
BLOCK
  5
66
330
65
100
AcDbEntity
  8
0
100
AcDbBlockBegin
  2
zif_28
 70
    0
 10
0
 20
0
  3
zif_28
  1

  0
LWPOLYLINE
  5
11C
100
AcDbEntity
  8
0
  6
ByLayer
 62
  256
370
   -1
100
AcDbPolyline
 90
    4
 70
    1
 43
0
 10
-20
 20
-9
 10
0
 20
-9
 10
0
 20
0
 10
-20
 20
0
  0
LINE
  5
11D
100
AcDbEntity
  8
0
  6
ByLayer
 62
  256
370
   -1
100
AcDbLine
 10
-2
 20
0
 11
-2
 21
-9
  0
LINE
  5
11E
100
AcDbEntity
  8
0
  6
ByLayer
 62
  256
370
   -1
100
AcDbLine
 10
-16
 20
0
 11
-16
 21
-9
  0
LINE
  5
11F
100
AcDbEntity
  8
0
  6
ByLayer
 62
  256
370
   -1
100
AcDbLine
 10
-2
 20
-1
 11
-16
 21
-1
  0
LINE
  5
120
100
AcDbEntity
  8
0
  6
ByLayer
 62
  256
370
   -1
100
AcDbLine
 10
-16
 20
-3
 11
-2
 21
-3
  0
LINE
  5
121
100
AcDbEntity
  8
0
  6
ByLayer
 62
  256
370
   -1
100
AcDbLine
 10
-16
 20
-6
 11
-2
 21
-6
  0
LINE
  5
122
100
AcDbEntity
  8
0
  6
ByLayer
 62
  256
370
   -1
100
AcDbLine
 10
-16
 20
-8
 11
-2
 21
-8
  0
LWPOLYLINE
  5
123
100
AcDbEntity
  8
0
  6
ByLayer
 62
  256
370
   -1
100
AcDbPolyline
 90
    4
 70
    1
 43
0
 10
-20
 20
-9
 10
-25
 20
-9
 10
-25
 20
-6
 10
-20
 20
-6
  0
ENDBLK
  5
67
330
65
100
AcDbEntity
  8
0
100
AcDbBlockEnd
  0
BLOCK
  5
69
330
68
100
AcDbEntity
  8
0
100
AcDbBlockBegin
  2
switch
 70
    0
 10
0
 20
0
  3
switch
  1

  0
LWPOLYLINE
  5
124
100
AcDbEntity
  8
0
  6
ByLayer
 62
  256
370
   -1
100
AcDbPolyline
 90
    4
 70
    1
 43
0
 10
-3
 20
0
 10
0
 20
0
 10
0
 20
-3
 10
-3
 20
-3
  0
LWPOLYLINE
  5
125
100
AcDbEntity
  8
0
  6
ByLayer
 62
  256
370
   -1
100
AcDbPolyline
 90
    4
 70
    1
 43
0
 10
-3
 20
-1
 10
0
 20
-1
 10
0
 20
-2
 10
-3
 20
-2
  0
ENDBLK
  5
6A
330
68
100
AcDbEntity
  8
0
100
AcDbBlockEnd
  0
BLOCK
  5
6C
330
6B
100
AcDbEntity
  8
0
100
AcDbBlockBegin
  2
banana
 70
    0
 10
0
 20
0
  3
banana
  1

  0
LWPOLYLINE
  5
126
100
AcDbEntity
  8
0
  6
ByLayer
 62
  256
370
   -1
100
AcDbPolyline
 90
    4
 70
    1
 43
0
 10
-8
 20
-2
 10
-7
 20
-2
 10
-7
 20
-3
 10
-8
 20
-3
  0
LWPOLYLINE
  5
127
100
AcDbEntity
  8
0
  6
ByLayer
 62
  256
370
   -1
100
AcDbPolyline
 90
    4
 70
    1
 43
0
 10
-2
 20
-3
 10
-1
 20
-3
 10
-1
 20
-2
 10
-2
 20
-2
  0
LWPOLYLINE
  5
128
100
AcDbEntity
  8
0
  6
ByLayer
 62
  256
370
   -1
100
AcDbPolyline
 90
    4
 70
    1
 43
0
 10
-9
 20
-0.5
 10
0
 20
-0.5
 10
0
 20
-4.5
 10
-9
 20
-4.5
  0
ENDBLK
  5
6D
330
6B
100
AcDbEntity
  8
0
100
AcDbBlockEnd
  0
BLOCK
  5
6F
330
6E
100
AcDbEntity
  8
0
100
AcDbBlockBegin
  2
resistor_sm_h
 70
    0
 10
0
 20
0
  3
resistor_sm_h
  1

  0
LWPOLYLINE
  5
129
100
AcDbEntity
  8
0
  6
ByLayer
 62
  256
370
   -1
100
AcDbPolyline
 90
    4
 70
    1
 43
0
 10
-6
 20
0
 10
0
 20
0
 10
0
 20
-1
 10
-6
 20
-1
  0
LINE
  5
12A
100
AcDbEntity
  8
0
  6
ByLayer
 62
  256
370
   -1
100
AcDbLine
 10
-5.499999999999998
 20
-0.5
 11
-4.999999999999998
 21
-0.5
  0
LINE
  5
12B
100
AcDbEntity
  8
0
  6
ByLayer
 62
  256
370
   -1
100
AcDbLine
 10
-4.999999999999998
 20
-0.5
 11
-4.599999999999998
 21
-0.1000000000000014
  0
LINE
  5
12C
100
AcDbEntity
  8
0
  6
ByLayer
 62
  256
370
   -1
100
AcDbLine
 10
-4.599999999999998
 20
-0.1000000000000014
 11
-3.999999999999998
 21
-0.7000000000000028
  0
LINE
  5
12D
100
AcDbEntity
  8
0
  6
ByLayer
 62
  256
370
   -1
100
AcDbLine
 10
-3.999999999999998
 20
-0.7000000000000028
 11
-3.499999999999998
 21
-0.1000000000000014
  0
LINE
  5
12E
100
AcDbEntity
  8
0
  6
ByLayer
 62
  256
370
   -1
100
AcDbLine
 10
-3.499999999999998
 20
-0.1000000000000014
 11
-2.999999999999998
 21
-0.7000000000000028
  0
LINE
  5
12F
100
AcDbEntity
  8
0
  6
ByLayer
 62
  256
370
   -1
100
AcDbLine
 10
-2.999999999999998
 20
-0.7000000000000028
 11
-2.499999999999998
 21
-0.1000000000000014
  0
LINE
  5
130
100
AcDbEntity
  8
0
  6
ByLayer
 62
  256
370
   -1
100
AcDbLine
 10
-2.499999999999998
 20
-0.1000000000000014
 11
-1.999999999999998
 21
-0.6999999999999957
  0
LINE
  5
131
100
AcDbEntity
  8
0
  6
ByLayer
 62
  256
370
   -1
100
AcDbLine
 10
-1.999999999999998
 20
-0.6999999999999957
 11
-1.499999999999998
 21
-0.1000000000000014
  0
LINE
  5
132
100
AcDbEntity
  8
0
  6
ByLayer
 62
  256
370
   -1
100
AcDbLine
 10
-1.499999999999998
 20
-0.1000000000000014
 11
-0.9999999999999982
 21
-0.6999999999999957
  0
LINE
  5
133
100
AcDbEntity
  8
0
  6
ByLayer
 62
  256
370
   -1
100
AcDbLine
 10
-0.9999999999999982
 20
-0.6999999999999957
 11
-0.4999999999999982
 21
-0.3999999999999986
  0
ENDBLK
  5
70
330
6E
100
AcDbEntity
  8
0
100
AcDbBlockEnd
  0
BLOCK
  5
72
330
71
100
AcDbEntity
  8
0
100
AcDbBlockBegin
  2
capacitor_sm
 70
    0
 10
0
 20
0
  3
capacitor_sm
  1

  0
LWPOLYLINE
  5
134
100
AcDbEntity
  8
0
  6
ByLayer
 62
  256
370
   -1
100
AcDbPolyline
 90
    4
 70
    1
 43
0
 10
-2
 20
0
 10
0
 20
0
 10
0
 20
-1
 10
-2
 20
-1
  0
MTEXT
  5
135
100
AcDbEntity
  8
0
  6
ByLayer
 62
  256
370
   -1
100
AcDbMText
 10
-1.142593815805281
 20
-0.1997625592484766
 30
0
 40
0.601
 41
0.2671111111111484
 71
    1
 72
    1
  1
C
  7
STANDARD
210
0
220
0
230
1
 50
0
 73
    2
 44
1
  0
ENDBLK
  5
73
330
71
100
AcDbEntity
  8
0
100
AcDbBlockEnd
  0
BLOCK
  5
75
330
74
100
AcDbEntity
  8
0
100
AcDbBlockBegin
  2
capacitor_lg
 70
    0
 10
0
 20
0
  3
capacitor_lg
  1

  0
LWPOLYLINE
  5
136
100
AcDbEntity
  8
0
  6
ByLayer
 62
  256
370
   -1
100
AcDbPolyline
 90
    4
 70
    1
 43
0
 10
-2
 20
0
 10
0
 20
0
 10
0
 20
-2
 10
-2
 20
-2
  0
MTEXT
  5
137
100
AcDbEntity
  8
0
  6
ByLayer
 62
  256
370
   -1
100
AcDbMText
 10
-1.184201275910537
 20
-0.7013434684811983
 30
0
 40
0.601
 41
0.2671111111111484
 71
    1
 72
    1
  1
C
  7
STANDARD
210
0
220
0
230
1
 50
0
 73
    2
 44
1
  0
ENDBLK
  5
76
330
74
100
AcDbEntity
  8
0
100
AcDbBlockEnd
  0
BLOCK
  5
78
330
77
100
AcDbEntity
  8
0
100
AcDbBlockBegin
  2
quartz
 70
    0
 10
0
 20
0
  3
quartz
  1

  0
MTEXT
  5
138
100
AcDbEntity
  8
0
  6
ByLayer
 62
  256
370
   -1
100
AcDbMText
 10
-2.575322242114936
 20
-0.1692828081581652
 30
0
 40
0.601
 41
2.33722222222225
 71
    1
 72
    1
  1
1.8Mhz
  7
STANDARD
210
0
220
0
230
1
 50
0
 73
    2
 44
1
  0
LWPOLYLINE
  5
139
100
AcDbEntity
  8
0
  6
ByLayer
 62
  256
370
   -1
100
AcDbPolyline
 90
    4
 70
    1
 43
0
 10
-3
 20
2.220446049250313e-16
 10
0
 20
2.220446049250313e-16
 10
0
 20
-0.9999999999999998
 10
-3
 20
-0.9999999999999998
  0
ENDBLK
  5
79
330
77
100
AcDbEntity
  8
0
100
AcDbBlockEnd
  0
BLOCK
  5
7B
330
7A
100
AcDbEntity
  8
0
100
AcDbBlockBegin
  2
LED
 70
    0
 10
0
 20
0
  3
LED
  1

  0
LWPOLYLINE
  5
13A
100
AcDbEntity
  8
0
  6
ByLayer
 62
  256
370
   -1
100
AcDbPolyline
 90
    4
 70
    1
 43
0
 10
-1.999999999999996
 20
-7.105427357601002e-15
 10
3.552713678800501e-15
 20
-7.105427357601002e-15
 10
3.552713678800501e-15
 20
-1.000000000000007
 10
-1.999999999999996
 20
-1.000000000000007
  0
CIRCLE
  5
13B
100
AcDbEntity
  8
0
  6
ByLayer
 62
  256
370
   -1
100
AcDbCircle
 10
-0.9999999999999964
 20
-0.5000000000000071
 40
0.5656854249492386
  0
MTEXT
  5
13C
100
AcDbEntity
  8
0
  6
ByLayer
 62
  256
370
   -1
100
AcDbMText
 10
-1.099999999999998
 20
-0.2000000000000028
 30
0
 40
0.601
 41
0.2671111111111111
 71
    1
 72
    1
  1
L
  7
STANDARD
210
0
220
0
230
1
 50
0
 73
    2
 44
1
  0
ENDBLK
  5
7C
330
7A
100
AcDbEntity
  8
0
100
AcDbBlockEnd
  0
BLOCK
  5
7E
330
7D
100
AcDbEntity
  8
0
100
AcDbBlockBegin
  2
resistor_sm_h-0
 70
    0
 10
0
 20
0
  3
resistor_sm_h-0
  1

  0
LWPOLYLINE
  5
13D
100
AcDbEntity
  8
0
  6
ByLayer
 62
  256
370
   -1
100
AcDbPolyline
 90
    4
 70
    1
 43
0
 10
-36
 20
7
 10
-30
 20
7
 10
-30
 20
6
 10
-36
 20
6
  0
LINE
  5
13E
100
AcDbEntity
  8
0
  6
ByLayer
 62
  256
370
   -1
100
AcDbLine
 10
-35.5
 20
6.5
 11
-35
 21
6.5
  0
LINE
  5
13F
100
AcDbEntity
  8
0
  6
ByLayer
 62
  256
370
   -1
100
AcDbLine
 10
-35
 20
6.5
 11
-34.59999999999999
 21
6.899999999999999
  0
LINE
  5
140
100
AcDbEntity
  8
0
  6
ByLayer
 62
  256
370
   -1
100
AcDbLine
 10
-34.59999999999999
 20
6.899999999999999
 11
-34
 21
6.299999999999997
  0
LINE
  5
141
100
AcDbEntity
  8
0
  6
ByLayer
 62
  256
370
   -1
100
AcDbLine
 10
-34
 20
6.299999999999997
 11
-33.5
 21
6.899999999999999
  0
LINE
  5
142
100
AcDbEntity
  8
0
  6
ByLayer
 62
  256
370
   -1
100
AcDbLine
 10
-33.5
 20
6.899999999999999
 11
-33
 21
6.299999999999997
  0
LINE
  5
143
100
AcDbEntity
  8
0
  6
ByLayer
 62
  256
370
   -1
100
AcDbLine
 10
-33
 20
6.299999999999997
 11
-32.5
 21
6.899999999999999
  0
LINE
  5
144
100
AcDbEntity
  8
0
  6
ByLayer
 62
  256
370
   -1
100
AcDbLine
 10
-32.5
 20
6.899999999999999
 11
-32
 21
6.300000000000004
  0
LINE
  5
145
100
AcDbEntity
  8
0
  6
ByLayer
 62
  256
370
   -1
100
AcDbLine
 10
-32
 20
6.300000000000004
 11
-31.5
 21
6.899999999999999
  0
LINE
  5
146
100
AcDbEntity
  8
0
  6
ByLayer
 62
  256
370
   -1
100
AcDbLine
 10
-31.5
 20
6.899999999999999
 11
-31
 21
6.300000000000004
  0
LINE
  5
147
100
AcDbEntity
  8
0
  6
ByLayer
 62
  256
370
   -1
100
AcDbLine
 10
-31
 20
6.300000000000004
 11
-30.5
 21
6.600000000000001
  0
ENDBLK
  5
7F
330
7D
100
AcDbEntity
  8
0
100
AcDbBlockEnd
  0
BLOCK
  5
81
330
80
100
AcDbEntity
  8
0
100
AcDbBlockBegin
  2
resistor_sm_h-1
 70
    0
 10
0
 20
0
  3
resistor_sm_h-1
  1

  0
LWPOLYLINE
  5
148
100
AcDbEntity
  8
0
  6
ByLayer
 62
  256
370
   -1
100
AcDbPolyline
 90
    4
 70
    1
 43
0
 10
-6
 20
0
 10
0
 20
0
 10
0
 20
-1
 10
-6
 20
-1
  0
LINE
  5
149
100
AcDbEntity
  8
0
  6
ByLayer
 62
  256
370
   -1
100
AcDbLine
 10
-5.499999999999998
 20
-0.5
 11
-4.999999999999998
 21
-0.5
  0
LINE
  5
14A
100
AcDbEntity
  8
0
  6
ByLayer
 62
  256
370
   -1
100
AcDbLine
 10
-4.999999999999998
 20
-0.5
 11
-4.599999999999998
 21
-0.1000000000000014
  0
LINE
  5
14B
100
AcDbEntity
  8
0
  6
ByLayer
 62
  256
370
   -1
100
AcDbLine
 10
-4.599999999999998
 20
-0.1000000000000014
 11
-3.999999999999998
 21
-0.7000000000000028
  0
LINE
  5
14C
100
AcDbEntity
  8
0
  6
ByLayer
 62
  256
370
   -1
100
AcDbLine
 10
-3.999999999999998
 20
-0.7000000000000028
 11
-3.499999999999998
 21
-0.1000000000000014
  0
LINE
  5
14D
100
AcDbEntity
  8
0
  6
ByLayer
 62
  256
370
   -1
100
AcDbLine
 10
-3.499999999999998
 20
-0.1000000000000014
 11
-2.999999999999998
 21
-0.7000000000000028
  0
LINE
  5
14E
100
AcDbEntity
  8
0
  6
ByLayer
 62
  256
370
   -1
100
AcDbLine
 10
-2.999999999999998
 20
-0.7000000000000028
 11
-2.499999999999998
 21
-0.1000000000000014
  0
LINE
  5
14F
100
AcDbEntity
  8
0
  6
ByLayer
 62
  256
370
   -1
100
AcDbLine
 10
-2.499999999999998
 20
-0.1000000000000014
 11
-1.999999999999998
 21
-0.6999999999999957
  0
LINE
  5
150
100
AcDbEntity
  8
0
  6
ByLayer
 62
  256
370
   -1
100
AcDbLine
 10
-1.999999999999998
 20
-0.6999999999999957
 11
-1.499999999999998
 21
-0.1000000000000014
  0
LINE
  5
151
100
AcDbEntity
  8
0
  6
ByLayer
 62
  256
370
   -1
100
AcDbLine
 10
-1.499999999999998
 20
-0.1000000000000014
 11
-0.9999999999999982
 21
-0.6999999999999957
  0
LINE
  5
152
100
AcDbEntity
  8
0
  6
ByLayer
 62
  256
370
   -1
100
AcDbLine
 10
-0.9999999999999982
 20
-0.6999999999999957
 11
-0.4999999999999982
 21
-0.3999999999999986
  0
ENDBLK
  5
82
330
80
100
AcDbEntity
  8
0
100
AcDbBlockEnd
  0
BLOCK
  5
84
330
83
100
AcDbEntity
  8
0
100
AcDbBlockBegin
  2
capacitor_sm-0
 70
    0
 10
0
 20
0
  3
capacitor_sm-0
  1

  0
LWPOLYLINE
  5
153
100
AcDbEntity
  8
0
  6
ByLayer
 62
  256
370
   -1
100
AcDbPolyline
 90
    4
 70
    1
 43
0
 10
-2
 20
0
 10
0
 20
0
 10
0
 20
-1
 10
-2
 20
-1
  0
MTEXT
  5
154
100
AcDbEntity
  8
0
  6
ByLayer
 62
  256
370
   -1
100
AcDbMText
 10
-1.142593815805281
 20
-0.1997625592484766
 30
0
 40
0.601
 41
0.2671111111111484
 71
    1
 72
    1
  1
C
  7
STANDARD
210
0
220
0
230
1
 50
0
 73
    2
 44
1
  0
ENDBLK
  5
85
330
83
100
AcDbEntity
  8
0
100
AcDbBlockEnd
  0
BLOCK
  5
87
330
86
100
AcDbEntity
  8
0
100
AcDbBlockBegin
  2
resistor_sm_h-2
 70
    0
 10
0
 20
0
  3
resistor_sm_h-2
  1

  0
LWPOLYLINE
  5
155
100
AcDbEntity
  8
0
  6
ByLayer
 62
  256
370
   -1
100
AcDbPolyline
 90
    4
 70
    1
 43
0
 10
-6
 20
0
 10
0
 20
0
 10
0
 20
-1
 10
-6
 20
-1
  0
LINE
  5
156
100
AcDbEntity
  8
0
  6
ByLayer
 62
  256
370
   -1
100
AcDbLine
 10
-5.499999999999998
 20
-0.5
 11
-4.999999999999998
 21
-0.5
  0
LINE
  5
157
100
AcDbEntity
  8
0
  6
ByLayer
 62
  256
370
   -1
100
AcDbLine
 10
-4.999999999999998
 20
-0.5
 11
-4.599999999999998
 21
-0.1000000000000014
  0
LINE
  5
158
100
AcDbEntity
  8
0
  6
ByLayer
 62
  256
370
   -1
100
AcDbLine
 10
-4.599999999999998
 20
-0.1000000000000014
 11
-3.999999999999998
 21
-0.7000000000000028
  0
LINE
  5
159
100
AcDbEntity
  8
0
  6
ByLayer
 62
  256
370
   -1
100
AcDbLine
 10
-3.999999999999998
 20
-0.7000000000000028
 11
-3.499999999999998
 21
-0.1000000000000014
  0
LINE
  5
15A
100
AcDbEntity
  8
0
  6
ByLayer
 62
  256
370
   -1
100
AcDbLine
 10
-3.499999999999998
 20
-0.1000000000000014
 11
-2.999999999999998
 21
-0.7000000000000028
  0
LINE
  5
15B
100
AcDbEntity
  8
0
  6
ByLayer
 62
  256
370
   -1
100
AcDbLine
 10
-2.999999999999998
 20
-0.7000000000000028
 11
-2.499999999999998
 21
-0.1000000000000014
  0
LINE
  5
15C
100
AcDbEntity
  8
0
  6
ByLayer
 62
  256
370
   -1
100
AcDbLine
 10
-2.499999999999998
 20
-0.1000000000000014
 11
-1.999999999999998
 21
-0.6999999999999957
  0
LINE
  5
15D
100
AcDbEntity
  8
0
  6
ByLayer
 62
  256
370
   -1
100
AcDbLine
 10
-1.999999999999998
 20
-0.6999999999999957
 11
-1.499999999999998
 21
-0.1000000000000014
  0
LINE
  5
15E
100
AcDbEntity
  8
0
  6
ByLayer
 62
  256
370
   -1
100
AcDbLine
 10
-1.499999999999998
 20
-0.1000000000000014
 11
-0.9999999999999982
 21
-0.6999999999999957
  0
LINE
  5
15F
100
AcDbEntity
  8
0
  6
ByLayer
 62
  256
370
   -1
100
AcDbLine
 10
-0.9999999999999982
 20
-0.6999999999999957
 11
-0.4999999999999982
 21
-0.3999999999999986
  0
ENDBLK
  5
88
330
86
100
AcDbEntity
  8
0
100
AcDbBlockEnd
  0
BLOCK
  5
8A
330
89
100
AcDbEntity
  8
0
100
AcDbBlockBegin
  2
resistor_sm_h-3
 70
    0
 10
0
 20
0
  3
resistor_sm_h-3
  1

  0
LWPOLYLINE
  5
160
100
AcDbEntity
  8
0
  6
ByLayer
 62
  256
370
   -1
100
AcDbPolyline
 90
    4
 70
    1
 43
0
 10
-6
 20
0
 10
0
 20
0
 10
0
 20
-1
 10
-6
 20
-1
  0
LINE
  5
161
100
AcDbEntity
  8
0
  6
ByLayer
 62
  256
370
   -1
100
AcDbLine
 10
-5.499999999999998
 20
-0.5
 11
-4.999999999999998
 21
-0.5
  0
LINE
  5
162
100
AcDbEntity
  8
0
  6
ByLayer
 62
  256
370
   -1
100
AcDbLine
 10
-4.999999999999998
 20
-0.5
 11
-4.599999999999998
 21
-0.1000000000000014
  0
LINE
  5
163
100
AcDbEntity
  8
0
  6
ByLayer
 62
  256
370
   -1
100
AcDbLine
 10
-4.599999999999998
 20
-0.1000000000000014
 11
-3.999999999999998
 21
-0.7000000000000028
  0
LINE
  5
164
100
AcDbEntity
  8
0
  6
ByLayer
 62
  256
370
   -1
100
AcDbLine
 10
-3.999999999999998
 20
-0.7000000000000028
 11
-3.499999999999998
 21
-0.1000000000000014
  0
LINE
  5
165
100
AcDbEntity
  8
0
  6
ByLayer
 62
  256
370
   -1
100
AcDbLine
 10
-3.499999999999998
 20
-0.1000000000000014
 11
-2.999999999999998
 21
-0.7000000000000028
  0
LINE
  5
166
100
AcDbEntity
  8
0
  6
ByLayer
 62
  256
370
   -1
100
AcDbLine
 10
-2.999999999999998
 20
-0.7000000000000028
 11
-2.499999999999998
 21
-0.1000000000000014
  0
LINE
  5
167
100
AcDbEntity
  8
0
  6
ByLayer
 62
  256
370
   -1
100
AcDbLine
 10
-2.499999999999998
 20
-0.1000000000000014
 11
-1.999999999999998
 21
-0.6999999999999957
  0
LINE
  5
168
100
AcDbEntity
  8
0
  6
ByLayer
 62
  256
370
   -1
100
AcDbLine
 10
-1.999999999999998
 20
-0.6999999999999957
 11
-1.499999999999998
 21
-0.1000000000000014
  0
LINE
  5
169
100
AcDbEntity
  8
0
  6
ByLayer
 62
  256
370
   -1
100
AcDbLine
 10
-1.499999999999998
 20
-0.1000000000000014
 11
-0.9999999999999982
 21
-0.6999999999999957
  0
LINE
  5
16A
100
AcDbEntity
  8
0
  6
ByLayer
 62
  256
370
   -1
100
AcDbLine
 10
-0.9999999999999982
 20
-0.6999999999999957
 11
-0.4999999999999982
 21
-0.3999999999999986
  0
ENDBLK
  5
8B
330
89
100
AcDbEntity
  8
0
100
AcDbBlockEnd
  0
BLOCK
  5
8D
330
8C
100
AcDbEntity
  8
0
100
AcDbBlockBegin
  2
capacitor_sm-1
 70
    0
 10
0
 20
0
  3
capacitor_sm-1
  1

  0
LWPOLYLINE
  5
16B
100
AcDbEntity
  8
0
  6
ByLayer
 62
  256
370
   -1
100
AcDbPolyline
 90
    4
 70
    1
 43
0
 10
-2
 20
0
 10
0
 20
0
 10
0
 20
-1
 10
-2
 20
-1
  0
MTEXT
  5
16C
100
AcDbEntity
  8
0
  6
ByLayer
 62
  256
370
   -1
100
AcDbMText
 10
-1.142593815805281
 20
-0.1997625592484766
 30
0
 40
0.601
 41
0.2671111111111484
 71
    1
 72
    1
  1
C
  7
STANDARD
210
0
220
0
230
1
 50
0
 73
    2
 44
1
  0
ENDBLK
  5
8E
330
8C
100
AcDbEntity
  8
0
100
AcDbBlockEnd
  0
BLOCK
  5
90
330
8F
100
AcDbEntity
  8
0
100
AcDbBlockBegin
  2
capacitor_sm-2
 70
    0
 10
0
 20
0
  3
capacitor_sm-2
  1

  0
LWPOLYLINE
  5
16D
100
AcDbEntity
  8
0
  6
ByLayer
 62
  256
370
   -1
100
AcDbPolyline
 90
    4
 70
    1
 43
0
 10
-2
 20
0
 10
0
 20
0
 10
0
 20
-1
 10
-2
 20
-1
  0
MTEXT
  5
16E
100
AcDbEntity
  8
0
  6
ByLayer
 62
  256
370
   -1
100
AcDbMText
 10
-1.142593815805281
 20
-0.1997625592484766
 30
0
 40
0.601
 41
0.2671111111111484
 71
    1
 72
    1
  1
C
  7
STANDARD
210
0
220
0
230
1
 50
0
 73
    2
 44
1
  0
ENDBLK
  5
91
330
8F
100
AcDbEntity
  8
0
100
AcDbBlockEnd
  0
BLOCK
  5
93
330
92
100
AcDbEntity
  8
0
100
AcDbBlockBegin
  2
capacitor_sm-3
 70
    0
 10
0
 20
0
  3
capacitor_sm-3
  1

  0
LWPOLYLINE
  5
16F
100
AcDbEntity
  8
0
  6
ByLayer
 62
  256
370
   -1
100
AcDbPolyline
 90
    4
 70
    1
 43
0
 10
-2
 20
0
 10
0
 20
0
 10
0
 20
-1
 10
-2
 20
-1
  0
MTEXT
  5
170
100
AcDbEntity
  8
0
  6
ByLayer
 62
  256
370
   -1
100
AcDbMText
 10
-1.142593815805281
 20
-0.1997625592484766
 30
0
 40
0.601
 41
0.2671111111111484
 71
    1
 72
    1
  1
C
  7
STANDARD
210
0
220
0
230
1
 50
0
 73
    2
 44
1
  0
ENDBLK
  5
94
330
92
100
AcDbEntity
  8
0
100
AcDbBlockEnd
  0
BLOCK
  5
96
330
95
100
AcDbEntity
  8
0
100
AcDbBlockBegin
  2
capacitor_lg-0
 70
    0
 10
0
 20
0
  3
capacitor_lg-0
  1

  0
LWPOLYLINE
  5
171
100
AcDbEntity
  8
0
  6
ByLayer
 62
  256
370
   -1
100
AcDbPolyline
 90
    4
 70
    1
 43
0
 10
-2.5
 20
0
 10
-0.5
 20
0
 10
-0.5
 20
-2
 10
-2.5
 20
-2
  0
MTEXT
  5
172
100
AcDbEntity
  8
0
  6
ByLayer
 62
  256
370
   -1
100
AcDbMText
 10
-1.684201275910537
 20
-0.7013434684811983
 30
0
 40
0.601
 41
0.2671111111111484
 71
    1
 72
    1
  1
C
  7
STANDARD
210
0
220
0
230
1
 50
0
 73
    2
 44
1
  0
ENDBLK
  5
97
330
95
100
AcDbEntity
  8
0
100
AcDbBlockEnd
  0
BLOCK
  5
99
330
98
100
AcDbEntity
  8
0
100
AcDbBlockBegin
  2
capacitor_sm-4
 70
    0
 10
0
 20
0
  3
capacitor_sm-4
  1

  0
LWPOLYLINE
  5
173
100
AcDbEntity
  8
0
  6
ByLayer
 62
  256
370
   -1
100
AcDbPolyline
 90
    4
 70
    1
 43
0
 10
-1
 20
-2
 10
-1
 20
0
 10
0
 20
-6.123233995736766e-17
 10
-1.110223024625157e-16
 20
-2
  0
MTEXT
  5
174
100
AcDbEntity
  8
0
  6
ByLayer
 62
  256
370
   -1
100
AcDbMText
 10
-0.8002374407515235
 20
-1.142593815805281
 30
0
 40
0.601
 41
0.2671111111111484
 71
    1
 72
    1
  1
C
  7
STANDARD
210
0
220
0
230
1
 50
90
 73
    2
 44
1
  0
ENDBLK
  5
9A
330
98
100
AcDbEntity
  8
0
100
AcDbBlockEnd
  0
BLOCK
  5
9C
330
9B
100
AcDbEntity
  8
0
100
AcDbBlockBegin
  2
capacitor_sm-5
 70
    0
 10
0
 20
0
  3
capacitor_sm-5
  1

  0
LWPOLYLINE
  5
175
100
AcDbEntity
  8
0
  6
ByLayer
 62
  256
370
   -1
100
AcDbPolyline
 90
    4
 70
    1
 43
0
 10
-1
 20
-2
 10
-1
 20
0
 10
0
 20
-6.123233995736766e-17
 10
-1.110223024625157e-16
 20
-2
  0
MTEXT
  5
176
100
AcDbEntity
  8
0
  6
ByLayer
 62
  256
370
   -1
100
AcDbMText
 10
-0.8002374407515235
 20
-1.142593815805281
 30
0
 40
0.601
 41
0.2671111111111484
 71
    1
 72
    1
  1
C
  7
STANDARD
210
0
220
0
230
1
 50
90
 73
    2
 44
1
  0
ENDBLK
  5
9D
330
9B
100
AcDbEntity
  8
0
100
AcDbBlockEnd
  0
BLOCK
  5
9F
330
9E
100
AcDbEntity
  8
0
100
AcDbBlockBegin
  2
capacitor_sm-6
 70
    0
 10
0
 20
0
  3
capacitor_sm-6
  1

  0
LWPOLYLINE
  5
177
100
AcDbEntity
  8
0
  6
ByLayer
 62
  256
370
   -1
100
AcDbPolyline
 90
    4
 70
    1
 43
0
 10
-1
 20
-2
 10
-1
 20
0
 10
0
 20
-6.123233995736766e-17
 10
-1.110223024625157e-16
 20
-2
  0
MTEXT
  5
178
100
AcDbEntity
  8
0
  6
ByLayer
 62
  256
370
   -1
100
AcDbMText
 10
-0.8002374407515235
 20
-1.142593815805281
 30
0
 40
0.601
 41
0.2671111111111484
 71
    1
 72
    1
  1
C
  7
STANDARD
210
0
220
0
230
1
 50
90
 73
    2
 44
1
  0
ENDBLK
  5
A0
330
9E
100
AcDbEntity
  8
0
100
AcDbBlockEnd
  0
BLOCK
  5
A2
330
A1
100
AcDbEntity
  8
0
100
AcDbBlockBegin
  2
capacitor_sm-7
 70
    0
 10
0
 20
0
  3
capacitor_sm-7
  1

  0
LWPOLYLINE
  5
179
100
AcDbEntity
  8
0
  6
ByLayer
 62
  256
370
   -1
100
AcDbPolyline
 90
    4
 70
    1
 43
0
 10
-1
 20
-2
 10
-1
 20
0
 10
0
 20
-6.123233995736766e-17
 10
-1.110223024625157e-16
 20
-2
  0
MTEXT
  5
17A
100
AcDbEntity
  8
0
  6
ByLayer
 62
  256
370
   -1
100
AcDbMText
 10
-0.8002374407515235
 20
-1.142593815805281
 30
0
 40
0.601
 41
0.2671111111111484
 71
    1
 72
    1
  1
C
  7
STANDARD
210
0
220
0
230
1
 50
90
 73
    2
 44
1
  0
ENDBLK
  5
A3
330
A1
100
AcDbEntity
  8
0
100
AcDbBlockEnd
  0
BLOCK
  5
A5
330
A4
100
AcDbEntity
  8
0
100
AcDbBlockBegin
  2
capacitor_sm-8
 70
    0
 10
0
 20
0
  3
capacitor_sm-8
  1

  0
LWPOLYLINE
  5
17B
100
AcDbEntity
  8
0
  6
ByLayer
 62
  256
370
   -1
100
AcDbPolyline
 90
    4
 70
    1
 43
0
 10
-1
 20
-2
 10
-1
 20
0
 10
0
 20
-6.123233995736766e-17
 10
-1.110223024625157e-16
 20
-2
  0
MTEXT
  5
17C
100
AcDbEntity
  8
0
  6
ByLayer
 62
  256
370
   -1
100
AcDbMText
 10
-0.8002374407515235
 20
-1.142593815805281
 30
0
 40
0.601
 41
0.2671111111111484
 71
    1
 72
    1
  1
C
  7
STANDARD
210
0
220
0
230
1
 50
90
 73
    2
 44
1
  0
ENDBLK
  5
A6
330
A4
100
AcDbEntity
  8
0
100
AcDbBlockEnd
  0
BLOCK
  5
A8
330
A7
100
AcDbEntity
  8
0
100
AcDbBlockBegin
  2
capacitor_sm-9
 70
    0
 10
0
 20
0
  3
capacitor_sm-9
  1

  0
LWPOLYLINE
  5
17D
100
AcDbEntity
  8
0
  6
ByLayer
 62
  256
370
   -1
100
AcDbPolyline
 90
    4
 70
    1
 43
0
 10
-1
 20
-2
 10
-1
 20
0
 10
0
 20
-6.123233995736766e-17
 10
-1.110223024625157e-16
 20
-2
  0
MTEXT
  5
17E
100
AcDbEntity
  8
0
  6
ByLayer
 62
  256
370
   -1
100
AcDbMText
 10
-0.8002374407515235
 20
-1.142593815805281
 30
0
 40
0.601
 41
0.2671111111111484
 71
    1
 72
    1
  1
C
  7
STANDARD
210
0
220
0
230
1
 50
90
 73
    2
 44
1
  0
ENDBLK
  5
A9
330
A7
100
AcDbEntity
  8
0
100
AcDbBlockEnd
  0
BLOCK
  5
AB
330
AA
100
AcDbEntity
  8
0
100
AcDbBlockBegin
  2
capacitor_sm-10
 70
    0
 10
0
 20
0
  3
capacitor_sm-10
  1

  0
LWPOLYLINE
  5
17F
100
AcDbEntity
  8
0
  6
ByLayer
 62
  256
370
   -1
100
AcDbPolyline
 90
    4
 70
    1
 43
0
 10
-1
 20
-2
 10
-1
 20
0
 10
0
 20
-6.123233995736766e-17
 10
-1.110223024625157e-16
 20
-2
  0
MTEXT
  5
180
100
AcDbEntity
  8
0
  6
ByLayer
 62
  256
370
   -1
100
AcDbMText
 10
-0.8002374407515235
 20
-1.142593815805281
 30
0
 40
0.601
 41
0.2671111111111484
 71
    1
 72
    1
  1
C
  7
STANDARD
210
0
220
0
230
1
 50
90
 73
    2
 44
1
  0
ENDBLK
  5
AC
330
AA
100
AcDbEntity
  8
0
100
AcDbBlockEnd
  0
BLOCK
  5
AE
330
AD
100
AcDbEntity
  8
0
100
AcDbBlockBegin
  2
capacitor_sm-11
 70
    0
 10
0
 20
0
  3
capacitor_sm-11
  1

  0
LWPOLYLINE
  5
181
100
AcDbEntity
  8
0
  6
ByLayer
 62
  256
370
   -1
100
AcDbPolyline
 90
    4
 70
    1
 43
0
 10
-1
 20
-2
 10
-1
 20
0
 10
0
 20
-6.123233995736766e-17
 10
-1.110223024625157e-16
 20
-2
  0
MTEXT
  5
182
100
AcDbEntity
  8
0
  6
ByLayer
 62
  256
370
   -1
100
AcDbMText
 10
-0.8002374407515235
 20
-1.142593815805281
 30
0
 40
0.601
 41
0.2671111111111484
 71
    1
 72
    1
  1
C
  7
STANDARD
210
0
220
0
230
1
 50
90
 73
    2
 44
1
  0
ENDBLK
  5
AF
330
AD
100
AcDbEntity
  8
0
100
AcDbBlockEnd
  0
BLOCK
  5
B1
330
B0
100
AcDbEntity
  8
0
100
AcDbBlockBegin
  2
capacitor_sm-12
 70
    0
 10
0
 20
0
  3
capacitor_sm-12
  1

  0
LWPOLYLINE
  5
183
100
AcDbEntity
  8
0
  6
ByLayer
 62
  256
370
   -1
100
AcDbPolyline
 90
    4
 70
    1
 43
0
 10
-2
 20
0
 10
0
 20
0
 10
0
 20
-1
 10
-2
 20
-1
  0
MTEXT
  5
184
100
AcDbEntity
  8
0
  6
ByLayer
 62
  256
370
   -1
100
AcDbMText
 10
-1.142593815805281
 20
-0.1997625592484766
 30
0
 40
0.601
 41
0.2671111111111484
 71
    1
 72
    1
  1
C
  7
STANDARD
210
0
220
0
230
1
 50
0
 73
    2
 44
1
  0
ENDBLK
  5
B2
330
B0
100
AcDbEntity
  8
0
100
AcDbBlockEnd
  0
BLOCK
  5
B4
330
B3
100
AcDbEntity
  8
0
100
AcDbBlockBegin
  2
capacitor_sm-13
 70
    0
 10
0
 20
0
  3
capacitor_sm-13
  1

  0
LWPOLYLINE
  5
185
100
AcDbEntity
  8
0
  6
ByLayer
 62
  256
370
   -1
100
AcDbPolyline
 90
    4
 70
    1
 43
0
 10
-2
 20
0
 10
0
 20
0
 10
0
 20
-1
 10
-2
 20
-1
  0
MTEXT
  5
186
100
AcDbEntity
  8
0
  6
ByLayer
 62
  256
370
   -1
100
AcDbMText
 10
-1.142593815805281
 20
-0.1997625592484766
 30
0
 40
0.601
 41
0.2671111111111484
 71
    1
 72
    1
  1
C
  7
STANDARD
210
0
220
0
230
1
 50
0
 73
    2
 44
1
  0
ENDBLK
  5
B5
330
B3
100
AcDbEntity
  8
0
100
AcDbBlockEnd
  0
BLOCK
  5
B7
330
B6
100
AcDbEntity
  8
0
100
AcDbBlockBegin
  2
capacitor_sm-14
 70
    0
 10
0
 20
0
  3
capacitor_sm-14
  1

  0
LWPOLYLINE
  5
187
100
AcDbEntity
  8
0
  6
ByLayer
 62
  256
370
   -1
100
AcDbPolyline
 90
    4
 70
    1
 43
0
 10
-2
 20
0
 10
0
 20
0
 10
0
 20
-1
 10
-2
 20
-1
  0
MTEXT
  5
188
100
AcDbEntity
  8
0
  6
ByLayer
 62
  256
370
   -1
100
AcDbMText
 10
-1.142593815805281
 20
-0.1997625592484766
 30
0
 40
0.601
 41
0.2671111111111484
 71
    1
 72
    1
  1
C
  7
STANDARD
210
0
220
0
230
1
 50
0
 73
    2
 44
1
  0
ENDBLK
  5
B8
330
B6
100
AcDbEntity
  8
0
100
AcDbBlockEnd
  0
BLOCK
  5
BA
330
B9
100
AcDbEntity
  8
0
100
AcDbBlockBegin
  2
capacitor_sm-15
 70
    0
 10
0
 20
0
  3
capacitor_sm-15
  1

  0
LWPOLYLINE
  5
189
100
AcDbEntity
  8
0
  6
ByLayer
 62
  256
370
   -1
100
AcDbPolyline
 90
    4
 70
    1
 43
0
 10
-1
 20
-2
 10
-1
 20
0
 10
0
 20
-6.123233995736766e-17
 10
-1.110223024625157e-16
 20
-2
  0
MTEXT
  5
18A
100
AcDbEntity
  8
0
  6
ByLayer
 62
  256
370
   -1
100
AcDbMText
 10
-0.8002374407515235
 20
-1.142593815805281
 30
0
 40
0.601
 41
0.2671111111111484
 71
    1
 72
    1
  1
C
  7
STANDARD
210
0
220
0
230
1
 50
90
 73
    2
 44
1
  0
ENDBLK
  5
BB
330
B9
100
AcDbEntity
  8
0
100
AcDbBlockEnd
  0
BLOCK
  5
BD
330
BC
100
AcDbEntity
  8
0
100
AcDbBlockBegin
  2
capacitor_sm-16
 70
    0
 10
0
 20
0
  3
capacitor_sm-16
  1

  0
LWPOLYLINE
  5
18B
100
AcDbEntity
  8
0
  6
ByLayer
 62
  256
370
   -1
100
AcDbPolyline
 90
    4
 70
    1
 43
0
 10
-1
 20
-2
 10
-1
 20
0
 10
0
 20
-6.123233995736766e-17
 10
-1.110223024625157e-16
 20
-2
  0
MTEXT
  5
18C
100
AcDbEntity
  8
0
  6
ByLayer
 62
  256
370
   -1
100
AcDbMText
 10
-0.8002374407515235
 20
-1.142593815805281
 30
0
 40
0.601
 41
0.2671111111111484
 71
    1
 72
    1
  1
C
  7
STANDARD
210
0
220
0
230
1
 50
90
 73
    2
 44
1
  0
ENDBLK
  5
BE
330
BC
100
AcDbEntity
  8
0
100
AcDbBlockEnd
  0
BLOCK
  5
C0
330
BF
100
AcDbEntity
  8
0
100
AcDbBlockBegin
  2
capacitor_sm-17
 70
    0
 10
0
 20
0
  3
capacitor_sm-17
  1

  0
LWPOLYLINE
  5
18D
100
AcDbEntity
  8
0
  6
ByLayer
 62
  256
370
   -1
100
AcDbPolyline
 90
    4
 70
    1
 43
0
 10
-1
 20
-2
 10
-1
 20
0
 10
0
 20
-6.123233995736766e-17
 10
-1.110223024625157e-16
 20
-2
  0
MTEXT
  5
18E
100
AcDbEntity
  8
0
  6
ByLayer
 62
  256
370
   -1
100
AcDbMText
 10
-0.8002374407515235
 20
-1.142593815805281
 30
0
 40
0.601
 41
0.2671111111111484
 71
    1
 72
    1
  1
C
  7
STANDARD
210
0
220
0
230
1
 50
90
 73
    2
 44
1
  0
ENDBLK
  5
C1
330
BF
100
AcDbEntity
  8
0
100
AcDbBlockEnd
  0
BLOCK
  5
C3
330
C2
100
AcDbEntity
  8
0
100
AcDbBlockBegin
  2
capacitor_sm-18
 70
    0
 10
0
 20
0
  3
capacitor_sm-18
  1

  0
LWPOLYLINE
  5
18F
100
AcDbEntity
  8
0
  6
ByLayer
 62
  256
370
   -1
100
AcDbPolyline
 90
    4
 70
    1
 43
0
 10
-1
 20
-2
 10
-1
 20
0
 10
0
 20
-6.123233995736766e-17
 10
-1.110223024625157e-16
 20
-2
  0
MTEXT
  5
190
100
AcDbEntity
  8
0
  6
ByLayer
 62
  256
370
   -1
100
AcDbMText
 10
-0.8002374407515235
 20
-1.142593815805281
 30
0
 40
0.601
 41
0.2671111111111484
 71
    1
 72
    1
  1
C
  7
STANDARD
210
0
220
0
230
1
 50
90
 73
    2
 44
1
  0
ENDBLK
  5
C4
330
C2
100
AcDbEntity
  8
0
100
AcDbBlockEnd
  0
BLOCK
  5
C6
330
C5
100
AcDbEntity
  8
0
100
AcDbBlockBegin
  2
capacitor_sm-19
 70
    0
 10
0
 20
0
  3
capacitor_sm-19
  1

  0
LWPOLYLINE
  5
191
100
AcDbEntity
  8
0
  6
ByLayer
 62
  256
370
   -1
100
AcDbPolyline
 90
    4
 70
    1
 43
0
 10
-2
 20
0
 10
0
 20
0
 10
0
 20
-1
 10
-2
 20
-1
  0
MTEXT
  5
192
100
AcDbEntity
  8
0
  6
ByLayer
 62
  256
370
   -1
100
AcDbMText
 10
-1.142593815805281
 20
-0.1997625592484766
 30
0
 40
0.601
 41
0.2671111111111484
 71
    1
 72
    1
  1
C
  7
STANDARD
210
0
220
0
230
1
 50
0
 73
    2
 44
1
  0
ENDBLK
  5
C7
330
C5
100
AcDbEntity
  8
0
100
AcDbBlockEnd
  0
BLOCK
  5
C9
330
C8
100
AcDbEntity
  8
0
100
AcDbBlockBegin
  2
capacitor_sm-20
 70
    0
 10
0
 20
0
  3
capacitor_sm-20
  1

  0
LWPOLYLINE
  5
193
100
AcDbEntity
  8
0
  6
ByLayer
 62
  256
370
   -1
100
AcDbPolyline
 90
    4
 70
    1
 43
0
 10
-2
 20
0
 10
0
 20
0
 10
0
 20
-1
 10
-2
 20
-1
  0
MTEXT
  5
194
100
AcDbEntity
  8
0
  6
ByLayer
 62
  256
370
   -1
100
AcDbMText
 10
-1.142593815805281
 20
-0.1997625592484766
 30
0
 40
0.601
 41
0.2671111111111484
 71
    1
 72
    1
  1
C
  7
STANDARD
210
0
220
0
230
1
 50
0
 73
    2
 44
1
  0
ENDBLK
  5
CA
330
C8
100
AcDbEntity
  8
0
100
AcDbBlockEnd
  0
BLOCK
  5
CC
330
CB
100
AcDbEntity
  8
0
100
AcDbBlockBegin
  2
capacitor_sm-21
 70
    0
 10
0
 20
0
  3
capacitor_sm-21
  1

  0
LWPOLYLINE
  5
195
100
AcDbEntity
  8
0
  6
ByLayer
 62
  256
370
   -1
100
AcDbPolyline
 90
    4
 70
    1
 43
0
 10
-2
 20
0
 10
0
 20
0
 10
0
 20
-1
 10
-2
 20
-1
  0
MTEXT
  5
196
100
AcDbEntity
  8
0
  6
ByLayer
 62
  256
370
   -1
100
AcDbMText
 10
-1.142593815805281
 20
-0.1997625592484766
 30
0
 40
0.601
 41
0.2671111111111484
 71
    1
 72
    1
  1
C
  7
STANDARD
210
0
220
0
230
1
 50
0
 73
    2
 44
1
  0
ENDBLK
  5
CD
330
CB
100
AcDbEntity
  8
0
100
AcDbBlockEnd
  0
BLOCK
  5
CF
330
CE
100
AcDbEntity
  8
0
100
AcDbBlockBegin
  2
capacitor_sm-22
 70
    0
 10
0
 20
0
  3
capacitor_sm-22
  1

  0
LWPOLYLINE
  5
197
100
AcDbEntity
  8
0
  6
ByLayer
 62
  256
370
   -1
100
AcDbPolyline
 90
    4
 70
    1
 43
0
 10
-2
 20
0
 10
0
 20
0
 10
0
 20
-1
 10
-2
 20
-1
  0
MTEXT
  5
198
100
AcDbEntity
  8
0
  6
ByLayer
 62
  256
370
   -1
100
AcDbMText
 10
-1.142593815805281
 20
-0.1997625592484766
 30
0
 40
0.601
 41
0.2671111111111484
 71
    1
 72
    1
  1
C
  7
STANDARD
210
0
220
0
230
1
 50
0
 73
    2
 44
1
  0
ENDBLK
  5
D0
330
CE
100
AcDbEntity
  8
0
100
AcDbBlockEnd
  0
BLOCK
  5
D2
330
D1
100
AcDbEntity
  8
0
100
AcDbBlockBegin
  2
capacitor_sm-23
 70
    0
 10
0
 20
0
  3
capacitor_sm-23
  1

  0
LWPOLYLINE
  5
199
100
AcDbEntity
  8
0
  6
ByLayer
 62
  256
370
   -1
100
AcDbPolyline
 90
    4
 70
    1
 43
0
 10
-1
 20
-2
 10
-1
 20
0
 10
0
 20
-6.123233995736766e-17
 10
-1.110223024625157e-16
 20
-2
  0
MTEXT
  5
19A
100
AcDbEntity
  8
0
  6
ByLayer
 62
  256
370
   -1
100
AcDbMText
 10
-0.8002374407515235
 20
-1.142593815805281
 30
0
 40
0.601
 41
0.2671111111111484
 71
    1
 72
    1
  1
C
  7
STANDARD
210
0
220
0
230
1
 50
90
 73
    2
 44
1
  0
ENDBLK
  5
D3
330
D1
100
AcDbEntity
  8
0
100
AcDbBlockEnd
  0
BLOCK
  5
D5
330
D4
100
AcDbEntity
  8
0
100
AcDbBlockBegin
  2
resistor_sm_h-4
 70
    0
 10
0
 20
0
  3
resistor_sm_h-4
  1

  0
LWPOLYLINE
  5
19B
100
AcDbEntity
  8
0
  6
ByLayer
 62
  256
370
   -1
100
AcDbPolyline
 90
    4
 70
    1
 43
0
 10
-6
 20
0
 10
0
 20
0
 10
0
 20
-1
 10
-6
 20
-1
  0
LINE
  5
19C
100
AcDbEntity
  8
0
  6
ByLayer
 62
  256
370
   -1
100
AcDbLine
 10
-5.499999999999998
 20
-0.5
 11
-4.999999999999998
 21
-0.5
  0
LINE
  5
19D
100
AcDbEntity
  8
0
  6
ByLayer
 62
  256
370
   -1
100
AcDbLine
 10
-4.999999999999998
 20
-0.5
 11
-4.599999999999998
 21
-0.1000000000000014
  0
LINE
  5
19E
100
AcDbEntity
  8
0
  6
ByLayer
 62
  256
370
   -1
100
AcDbLine
 10
-4.599999999999998
 20
-0.1000000000000014
 11
-3.999999999999998
 21
-0.7000000000000028
  0
LINE
  5
19F
100
AcDbEntity
  8
0
  6
ByLayer
 62
  256
370
   -1
100
AcDbLine
 10
-3.999999999999998
 20
-0.7000000000000028
 11
-3.499999999999998
 21
-0.1000000000000014
  0
LINE
  5
1A0
100
AcDbEntity
  8
0
  6
ByLayer
 62
  256
370
   -1
100
AcDbLine
 10
-3.499999999999998
 20
-0.1000000000000014
 11
-2.999999999999998
 21
-0.7000000000000028
  0
LINE
  5
1A1
100
AcDbEntity
  8
0
  6
ByLayer
 62
  256
370
   -1
100
AcDbLine
 10
-2.999999999999998
 20
-0.7000000000000028
 11
-2.499999999999998
 21
-0.1000000000000014
  0
LINE
  5
1A2
100
AcDbEntity
  8
0
  6
ByLayer
 62
  256
370
   -1
100
AcDbLine
 10
-2.499999999999998
 20
-0.1000000000000014
 11
-1.999999999999998
 21
-0.6999999999999957
  0
LINE
  5
1A3
100
AcDbEntity
  8
0
  6
ByLayer
 62
  256
370
   -1
100
AcDbLine
 10
-1.999999999999998
 20
-0.6999999999999957
 11
-1.499999999999998
 21
-0.1000000000000014
  0
LINE
  5
1A4
100
AcDbEntity
  8
0
  6
ByLayer
 62
  256
370
   -1
100
AcDbLine
 10
-1.499999999999998
 20
-0.1000000000000014
 11
-0.9999999999999982
 21
-0.6999999999999957
  0
LINE
  5
1A5
100
AcDbEntity
  8
0
  6
ByLayer
 62
  256
370
   -1
100
AcDbLine
 10
-0.9999999999999982
 20
-0.6999999999999957
 11
-0.4999999999999982
 21
-0.3999999999999986
  0
ENDBLK
  5
D6
330
D4
100
AcDbEntity
  8
0
100
AcDbBlockEnd
  0
BLOCK
  5
D8
330
D7
100
AcDbEntity
  8
0
100
AcDbBlockBegin
  2
diode1
 70
    0
 10
0
 20
0
  3
diode1
  1

  0
LWPOLYLINE
  5
1A6
100
AcDbEntity
  8
0
  6
ByLayer
 62
  256
370
   -1
100
AcDbPolyline
 90
    4
 70
    1
 43
0
 10
-5
 20
0
 10
0
 20
0
 10
0
 20
-1
 10
-5
 20
-1
  0
LWPOLYLINE
  5
1A7
100
AcDbEntity
  8
0
  6
ByLayer
 62
  256
370
   -1
100
AcDbPolyline
 90
    4
 70
    1
 43
0
 10
-4
 20
0
 10
-1
 20
0
 10
-1
 20
-1
 10
-4
 20
-1
  0
LINE
  5
1A8
100
AcDbEntity
  8
0
  6
ByLayer
 62
  256
370
   -1
100
AcDbLine
 10
-2.799999999999997
 20
-0.1999999999999957
 11
-2.799999999999997
 21
-0.7999999999999972
  0
LINE
  5
1A9
100
AcDbEntity
  8
0
  6
ByLayer
 62
  256
370
   -1
100
AcDbLine
 10
-2.799999999999997
 20
-0.7999999999999972
 11
-2.199999999999999
 21
-0.5
  0
LINE
  5
1AA
100
AcDbEntity
  8
0
  6
ByLayer
 62
  256
370
   -1
100
AcDbLine
 10
-2.199999999999999
 20
-0.5
 11
-2.799999999999997
 21
-0.1999999999999957
  0
LINE
  5
1AB
100
AcDbEntity
  8
0
  6
ByLayer
 62
  256
370
   -1
100
AcDbLine
 10
-2.799999999999997
 20
-0.1999999999999957
 11
-2.799999999999997
 21
-0.5
  0
LINE
  5
1AC
100
AcDbEntity
  8
0
  6
ByLayer
 62
  256
370
   -1
100
AcDbLine
 10
-2.799999999999997
 20
-0.5
 11
-3
 21
-0.5
  0
LINE
  5
1AD
100
AcDbEntity
  8
0
  6
ByLayer
 62
  256
370
   -1
100
AcDbLine
 10
-2.199999999999999
 20
-0.5
 11
-2
 21
-0.5
  0
ENDBLK
  5
D9
330
D7
100
AcDbEntity
  8
0
100
AcDbBlockEnd
  0
BLOCK
  5
DB
330
DA
100
AcDbEntity
  8
0
100
AcDbBlockBegin
  2
capacitor_sm-24
 70
    0
 10
0
 20
0
  3
capacitor_sm-24
  1

  0
LWPOLYLINE
  5
1AE
100
AcDbEntity
  8
0
  6
ByLayer
 62
  256
370
   -1
100
AcDbPolyline
 90
    4
 70
    1
 43
0
 10
-15
 20
-3
 10
-15
 20
-1
 10
-14
 20
-1
 10
-14
 20
-3
  0
MTEXT
  5
1AF
100
AcDbEntity
  8
0
  6
ByLayer
 62
  256
370
   -1
100
AcDbMText
 10
-14.80023744075152
 20
-2.142593815805281
 30
0
 40
0.601
 41
0.2671111111111484
 71
    1
 72
    1
  1
C
  7
STANDARD
210
0
220
0
230
1
 50
90
 73
    2
 44
1
  0
ENDBLK
  5
DC
330
DA
100
AcDbEntity
  8
0
100
AcDbBlockEnd
  0
BLOCK
  5
DE
330
DD
100
AcDbEntity
  8
0
100
AcDbBlockBegin
  2
dip_4_14-0
 70
    0
 10
0
 20
0
  3
dip_4_14-0
  1

  0
LWPOLYLINE
  5
1B0
100
AcDbEntity
  8
0
  6
ByLayer
 62
  256
370
   -1
100
AcDbPolyline
 90
    4
 70
    1
 43
0
 10
0
 20
-4
 10
2.449293598294706e-16
 20
0
 10
-14
 20
8.881784197001252e-16
 10
-14
 20
-3.999999999999999
  0
LINE
  5
1B1
100
AcDbEntity
  8
0
  6
ByLayer
 62
  256
370
   -1
100
AcDbLine
 10
-14
 20
-1.999999999999999
 11
1.224646799147353e-16
 21
-2
  0
ENDBLK
  5
DF
330
DD
100
AcDbEntity
  8
0
100
AcDbBlockEnd
  0
ENDSEC
  0
SECTION
  2
ENTITIES
  0
LWPOLYLINE
  5
1B2
100
AcDbEntity
  8
0
  6
ByLayer
 62
  256
370
   -1
100
AcDbPolyline
 90
    4
 70
    1
 43
0
 10
4
 20
0
 10
44
 20
0
 10
44
 20
2
 10
4
 20
2
  0
INSERT
  5
1B3
100
AcDbEntity
  8
0
  6
ByLayer
 62
  256
370
   -1
100
AcDbBlockReference
  2
dip_7_20
 10
38
 20
5
 30
0
 41
1
 42
1
 43
0
 50
90
 70
    1
 71
    1
 44
1
 45
1
  0
MTEXT
  5
1B4
100
AcDbEntity
  8
0
  6
ByLayer
 62
  256
370
   -1
100
AcDbMText
 10
18.19104964243668
 20
5.165252901359294
 30
0
 40
0.601
 41
1.936555555555555
 71
    1
 72
    1
  1
VPB\PRDY\PPHI1O\PIRQB\PMLB\PNMIB\PSYNC\PVDD\PA0\PA1\PA2\PA3\PA4\PA5\PA6\PA7\PA8\PA9\PA10\PA11
  7
STANDARD
210
0
220
0
230
1
 50
90
 73
    2
 44
1
  0
MTEXT
  5
1B5
100
AcDbEntity
  8
0
  6
ByLayer
 62
  256
370
   -1
100
AcDbMText
 10
18.26170764064188
 20
9.915972166189981
 30
0
 40
0.601
 41
1.936555428142263
 71
    1
 72
    1
  1
RSTB\PPHI2)\PSOB\PPHI2\PBE\Pnc\PRWB\PD0\PD1\PD2\PD3\PD4\PD5\PD6\PD7\PA15\PA14\PA13\PA12\PVSS
  7
STANDARD
210
0
220
0
230
1
 50
90
 73
    2
 44
1
  0
LWPOLYLINE
  5
1B6
100
AcDbEntity
  8
0
  6
ByLayer
 62
  256
370
   -1
100
AcDbPolyline
 90
    4
 70
    1
 43
0
 10
48
 20
5
 10
48
 20
18.99999999999999
 10
41
 20
18.99999999999999
 10
41
 20
5
  0
LINE
  5
1B7
100
AcDbEntity
  8
0
  6
ByLayer
 62
  256
370
   -1
100
AcDbLine
 10
43
 20
5
 11
43
 21
18.99999999999999
  0
LINE
  5
1B8
100
AcDbEntity
  8
0
  6
ByLayer
 62
  256
370
   -1
100
AcDbLine
 10
46
 20
5
 11
46
 21
18.99999999999999
  0
MTEXT
  5
1B9
100
AcDbEntity
  8
0
  6
ByLayer
 62
  256
370
   -1
100
AcDbMText
 10
47.98879469606629
 20
5.138003327053539
 30
0
 40
0.601
 41
1.936555555555592
 71
    1
 72
    1
  1
VSS\PCS0\PCS1B\PRESB\PRxC\PXTLI\PXLT0\PRTSB\PCTSB\PTxD\PDTRB\PRxD\PRS0\PRS1
  7
STANDARD
210
0
220
0
230
1
 50
180
 73
    2
 44
1
  0
MTEXT
  5
1BA
100
AcDbEntity
  8
0
  6
ByLayer
 62
  256
370
   -1
100
AcDbMText
 10
42.97388525399704
 20
5.242984649228358
 30
0
 40
0.601
 41
1.936555428142301
 71
    1
 72
    1
  1
RWB\PPHI2\PIRQB\PD7\PD6\PD5\PD4\PD3\PD2\PD1\PD0\PDSRB\PDCDB\PVDD
  7
STANDARD
210
0
220
0
230
1
 50
180
 73
    2
 44
1
  0
LINE
  5
1BB
100
AcDbEntity
  8
gnd
  6
ByLayer
 62
  256
370
   -1
100
AcDbLine
 10
45.5
 20
5.5
 11
47.5
 21
5.5
  0
INSERT
  5
1BC
100
AcDbEntity
  8
signal
  6
ByLayer
 62
  256
370
   -1
100
AcDbBlockReference
  2
capacitor_sm
 10
47
 20
12
 30
0
 41
1
 42
1
 43
0
 50
0
 70
    1
 71
    1
 44
1
 45
1
  0
LINE
  5
1BD
100
AcDbEntity
  8
signal
  6
ByLayer
 62
  256
370
   -1
100
AcDbLine
 10
48.5
 20
9.5
 11
47.5
 21
10.5
  0
LINE
  5
1BE
100
AcDbEntity
  8
gnd
  6
ByLayer
 62
  256
370
   -1
100
AcDbLine
 10
14.5
 20
14.5
 11
14.5
 21
27.5
  0
LINE
  5
1BF
100
AcDbEntity
  8
vcc
  6
ByLayer
 62
  256
370
   -1
100
AcDbLine
 10
44.5
 20
18.5
 11
41.5
 21
18.5
  0
INSERT
  5
1C0
100
AcDbEntity
  8
0
  6
ByLayer
 62
  256
370
   -1
100
AcDbBlockReference
  2
switch
 10
19
 20
21
 30
0
 41
1
 42
1
 43
0
 50
0
 70
    1
 71
    1
 44
0
 45
0
  0
INSERT
  5
1C1
100
AcDbEntity
  8
0
  6
ByLayer
 62
  256
370
   -1
100
AcDbBlockReference
  2
capacitor_lg-0
 10
22
 20
21
 30
0
 41
1
 42
1
 43
0
 50
0
 70
    1
 71
    1
 44
0
 45
0
  0
INSERT
  5
1C2
100
AcDbEntity
  8
0
  6
ByLayer
 62
  256
370
   -1
100
AcDbBlockReference
  2
capacitor_sm-2
 10
22
 20
21
 30
0
 41
1
 42
1
 43
0
 50
90
 70
    1
 71
    1
 44
0
 45
0
  0
LINE
  5
1C3
100
AcDbEntity
  8
gnd
  6
ByLayer
 62
  256
370
   -1
100
AcDbLine
 10
18.5
 20
20.5
 11
14.5
 21
20.5
  0
LINE
  5
1C4
100
AcDbEntity
  8
gnd
  6
ByLayer
 62
  256
370
   -1
100
AcDbLine
 10
18.5
 20
20.5
 11
22.5
 21
20.5
  0
LINE
  5
1C5
100
AcDbEntity
  8
signal
  6
ByLayer
 62
  256
370
   -1
100
AcDbLine
 10
16.5
 20
18.5
 11
18.5
 21
18.5
  0
LINE
  5
1C6
100
AcDbEntity
  8
signal
  6
ByLayer
 62
  256
370
   -1
100
AcDbLine
 10
18.5
 20
18.5
 11
20.5
 21
19.5
  0
LINE
  5
1C7
100
AcDbEntity
  8
signal
  6
ByLayer
 62
  256
370
   -1
100
AcDbLine
 10
20.5
 20
19.5
 11
22.5
 21
19.5
  0
LINE
  5
1C8
100
AcDbEntity
  8
signal
  6
ByLayer
 62
  256
370
   -1
100
AcDbLine
 10
18.5
 20
11.5
 11
18.5
 21
18.5
  0
INSERT
  5
1C9
100
AcDbEntity
  8
0
  6
ByLayer
 62
  256
370
   -1
100
AcDbBlockReference
  2
plcc44
 10
4
 20
4
 30
0
 41
1
 42
1
 43
0
 50
0
 70
    1
 71
    1
 44
0
 45
0
  0
MTEXT
  5
1CA
100
AcDbEntity
  8
0
  6
ByLayer
 62
  256
370
   -1
100
AcDbMText
 10
6.31318850628594
 20
12.8062690392321
 30
0
 40
0.601
 41
0.2671111111111484
 71
    1
 72
    1
  1
6
  7
STANDARD
210
0
220
0
230
1
 50
0
 73
    2
 44
1
  0
MTEXT
  5
1CB
100
AcDbEntity
  8
0
  6
ByLayer
 62
  256
370
   -1
100
AcDbMText
 10
7.29387798299055
 20
12.77562249308508
 30
0
 40
0.601
 41
0.3338888888888888
 71
    1
 72
    1
  1
4
  7
STANDARD
210
0
220
0
230
1
 50
0
 73
    2
 44
1
  0
MTEXT
  5
1CC
100
AcDbEntity
  8
0
  6
ByLayer
 62
  256
370
   -1
100
AcDbMText
 10
8.3358605519892
 20
12.8062690392321
 30
0
 40
0.601
 41
0.2671111111111111
 71
    1
 72
    1
  1
2
  7
STANDARD
210
0
220
0
230
1
 50
0
 73
    2
 44
1
  0
MTEXT
  5
1CD
100
AcDbEntity
  8
0
  6
ByLayer
 62
  256
370
   -1
100
AcDbMText
 10
9.08670093259116
 20
12.8215923123056
 30
0
 40
0.601
 41
0.8681111111111111
 71
    1
 72
    1
  1
44
  7
STANDARD
210
0
220
0
230
1
 50
0
 73
    2
 44
1
  0
MTEXT
  5
1CE
100
AcDbEntity
  8
0
  6
ByLayer
 62
  256
370
   -1
100
AcDbMText
 10
10.1133602285163
 20
12.77562249308508
 30
0
 40
0.601
 41
0.8013333333333332
 71
    1
 72
    1
  1
42
  7
STANDARD
210
0
220
0
230
1
 50
0
 73
    2
 44
1
  0
MTEXT
  5
1CF
100
AcDbEntity
  8
0
  6
ByLayer
 62
  256
370
   -1
100
AcDbMText
 10
11.12469625136794
 20
12.74497594693807
 30
0
 40
0.601
 41
0.8013333333333332
 71
    1
 72
    1
  1
40
  7
STANDARD
210
0
220
0
230
1
 50
0
 73
    2
 44
1
  0
MTEXT
  5
1D0
100
AcDbEntity
  8
0
  6
ByLayer
 62
  256
370
   -1
100
AcDbMText
 10
5.393792121875361
 20
11.76428647023345
 30
0
 40
0.601
 41
0.2671111111111111
 71
    1
 72
    1
  1
7
  7
STANDARD
210
0
220
0
230
1
 50
0
 73
    2
 44
1
  0
MTEXT
  5
1D1
100
AcDbEntity
  8
0
  6
ByLayer
 62
  256
370
   -1
100
AcDbMText
 10
6.28254196013892
 20
11.76428647023345
 30
0
 40
0.601
 41
0.2671111111111111
 71
    1
 72
    1
  1
8
  7
STANDARD
210
0
220
0
230
1
 50
0
 73
    2
 44
1
  0
MTEXT
  5
1D2
100
AcDbEntity
  8
0
  6
ByLayer
 62
  256
370
   -1
100
AcDbMText
 10
7.30920125606405
 20
11.79493301638047
 30
0
 40
0.601
 41
0.2671111111111484
 71
    1
 72
    1
  1
5
  7
STANDARD
210
0
220
0
230
1
 50
0
 73
    2
 44
1
  0
MTEXT
  5
1D3
100
AcDbEntity
  8
0
  6
ByLayer
 62
  256
370
   -1
100
AcDbMText
 10
8.25924418662165
 20
11.87154938174801
 30
0
 40
0.601
 41
0.2671111111111484
 71
    1
 72
    1
  1
3
  7
STANDARD
210
0
220
0
230
1
 50
0
 73
    2
 44
1
  0
MTEXT
  5
1D4
100
AcDbEntity
  8
0
  6
ByLayer
 62
  256
370
   -1
100
AcDbMText
 10
9.285903482546789
 20
11.82897191266061
 30
0
 40
0.601
 41
0.1335555555555555
 71
    1
 72
    1
  1
1
  7
STANDARD
210
0
220
0
230
1
 50
0
 73
    2
 44
1
  0
MTEXT
  5
1D5
100
AcDbEntity
  8
0
  6
ByLayer
 62
  256
370
   -1
100
AcDbMText
 10
10.05206713622227
 20
11.84429518573413
 30
0
 40
0.601
 41
0.8013333333333705
 71
    1
 72
    1
  1
43
  7
STANDARD
210
0
220
0
230
1
 50
0
 73
    2
 44
1
  0
MTEXT
  5
1D6
100
AcDbEntity
  8
0
  6
ByLayer
 62
  256
370
   -1
100
AcDbMText
 10
11.14001952444144
 20
11.77960974330696
 30
0
 40
0.601
 41
0.6677777777777777
 71
    1
 72
    1
  1
41
  7
STANDARD
210
0
220
0
230
1
 50
0
 73
    2
 44
1
  0
MTEXT
  5
1D7
100
AcDbEntity
  8
0
  6
ByLayer
 62
  256
370
   -1
100
AcDbMText
 10
12.18200209344009
 20
11.74896319715993
 30
0
 40
0.601
 41
0.7345555555555927
 71
    1
 72
    1
  1
39
  7
STANDARD
210
0
220
0
230
1
 50
0
 73
    2
 44
1
  0
MTEXT
  5
1D8
100
AcDbEntity
  8
0
  6
ByLayer
 62
  256
370
   -1
100
AcDbMText
 10
5.36314557572835
 20
10.78359699352884
 30
0
 40
0.601
 41
0.2671111111111484
 71
    1
 72
    1
  1
9
  7
STANDARD
210
0
220
0
230
1
 50
0
 73
    2
 44
1
  0
MTEXT
  5
1D9
100
AcDbEntity
  8
0
  6
ByLayer
 62
  256
370
   -1
100
AcDbMText
 10
6.12930922940382
 20
10.81424353967585
 30
0
 40
0.601
 41
0.601
 71
    1
 72
    1
  1
10
  7
STANDARD
210
0
220
0
230
1
 50
0
 73
    2
 44
1
  0
MTEXT
  5
1DA
100
AcDbEntity
  8
0
  6
ByLayer
 62
  256
370
   -1
100
AcDbMText
 10
5.255882664213789
 20
9.7569376976037
 30
0
 40
0.601
 41
0.4674444444444443
 71
    1
 72
    1
  1
11
  7
STANDARD
210
0
220
0
230
1
 50
0
 73
    2
 44
1
  0
MTEXT
  5
1DB
100
AcDbEntity
  8
0
  6
ByLayer
 62
  256
370
   -1
100
AcDbMText
 10
6.19060232169786
 20
9.81823078989774
 30
0
 40
0.601
 41
0.601
 71
    1
 72
    1
  1
12
  7
STANDARD
210
0
220
0
230
1
 50
0
 73
    2
 44
1
  0
MTEXT
  5
1DC
100
AcDbEntity
  8
0
  6
ByLayer
 62
  256
370
   -1
100
AcDbMText
 10
5.20991284499326
 20
8.852864586266637
 30
0
 40
0.601
 41
0.6010000000000372
 71
    1
 72
    1
  1
13
  7
STANDARD
210
0
220
0
230
1
 50
0
 73
    2
 44
1
  0
MTEXT
  5
1DD
100
AcDbEntity
  8
0
  6
ByLayer
 62
  256
370
   -1
100
AcDbMText
 10
6.144632502477339
 20
8.822218040119616
 30
0
 40
0.601
 41
0.6677777777777777
 71
    1
 72
    1
  1
14
  7
STANDARD
210
0
220
0
230
1
 50
0
 73
    2
 44
1
  0
MTEXT
  5
1DE
100
AcDbEntity
  8
0
  6
ByLayer
 62
  256
370
   -1
100
AcDbMText
 10
5.225236118066761
 20
7.73426565190044
 30
0
 40
0.601
 41
0.6010000000000372
 71
    1
 72
    1
  1
15
  7
STANDARD
210
0
220
0
230
1
 50
0
 73
    2
 44
1
  0
MTEXT
  5
1DF
100
AcDbEntity
  8
0
  6
ByLayer
 62
  256
370
   -1
100
AcDbMText
 10
6.15995577555084
 20
7.749588924973949
 30
0
 40
0.601
 41
0.6010000000000372
 71
    1
 72
    1
  1
16
  7
STANDARD
210
0
220
0
230
1
 50
0
 73
    2
 44
1
  0
MTEXT
  5
1E0
100
AcDbEntity
  8
0
  6
ByLayer
 62
  256
370
   -1
100
AcDbMText
 10
5.24055939114027
 20
6.814869267489868
 30
0
 40
0.601
 41
0.601
 71
    1
 72
    1
  1
17
  7
STANDARD
210
0
220
0
230
1
 50
0
 73
    2
 44
1
  0
MTEXT
  5
1E1
100
AcDbEntity
  8
0
  6
ByLayer
 62
  256
370
   -1
100
AcDbMText
 10
6.12930922940382
 20
5.803533244638237
 30
0
 40
0.601
 41
0.601
 71
    1
 72
    1
  1
18
  7
STANDARD
210
0
220
0
230
1
 50
0
 73
    2
 44
1
  0
MTEXT
  5
1E2
100
AcDbEntity
  8
0
  6
ByLayer
 62
  256
370
   -1
100
AcDbMText
 10
6.205925594771371
 20
6.784222721342849
 30
0
 40
0.601
 41
0.601
 71
    1
 72
    1
  1
19
  7
STANDARD
210
0
220
0
230
1
 50
0
 73
    2
 44
1
  0
MTEXT
  5
1E3
100
AcDbEntity
  8
0
  6
ByLayer
 62
  256
370
   -1
100
AcDbMText
 10
7.163545546163309
 20
5.822248867844876
 30
0
 40
0.601
 41
0.7345555555555554
 71
    1
 72
    1
  1
20
  7
STANDARD
210
0
220
0
230
1
 50
0
 73
    2
 44
1
  0
MTEXT
  5
1E4
100
AcDbEntity
  8
0
  6
ByLayer
 62
  256
370
   -1
100
AcDbMText
 10
7.155968525328969
 20
6.845515813636886
 30
0
 40
0.601
 41
0.601
 71
    1
 72
    1
  1
21
  7
STANDARD
210
0
220
0
230
1
 50
0
 73
    2
 44
1
  0
MTEXT
  5
1E5
100
AcDbEntity
  8
0
  6
ByLayer
 62
  256
370
   -1
100
AcDbMText
 10
8.167304548180599
 20
5.818856517711747
 30
0
 40
0.601
 41
0.7345555555555554
 71
    1
 72
    1
  1
22
  7
STANDARD
210
0
220
0
230
1
 50
0
 73
    2
 44
1
  0
MTEXT
  5
1E6
100
AcDbEntity
  8
0
  6
ByLayer
 62
  256
370
   -1
100
AcDbMText
 10
8.182627821254099
 20
6.784222721342849
 30
0
 40
0.601
 41
0.7345555555555927
 71
    1
 72
    1
  1
23
  7
STANDARD
210
0
220
0
230
1
 50
0
 73
    2
 44
1
  0
MTEXT
  5
1E7
100
AcDbEntity
  8
0
  6
ByLayer
 62
  256
370
   -1
100
AcDbMText
 10
9.193963844105731
 20
5.849503063858765
 30
0
 40
0.601
 41
0.8013333333333332
 71
    1
 72
    1
  1
24
  7
STANDARD
210
0
220
0
230
1
 50
0
 73
    2
 44
1
  0
MTEXT
  5
1E8
100
AcDbEntity
  8
0
  6
ByLayer
 62
  256
370
   -1
100
AcDbMText
 10
9.224610390252749
 20
6.814869267489867
 30
0
 40
0.601
 41
0.7345555555555927
 71
    1
 72
    1
  1
25
  7
STANDARD
210
0
220
0
230
1
 50
0
 73
    2
 44
1
  0
MTEXT
  5
1E9
100
AcDbEntity
  8
0
  6
ByLayer
 62
  256
370
   -1
100
AcDbMText
 10
10.15933004773683
 20
5.788209971564728
 30
0
 40
0.601
 41
0.7345555555555927
 71
    1
 72
    1
  1
26
  7
STANDARD
210
0
220
0
230
1
 50
0
 73
    2
 44
1
  0
MTEXT
  5
1EA
100
AcDbEntity
  8
0
  6
ByLayer
 62
  256
370
   -1
100
AcDbMText
 10
11.21663588980899
 20
5.818856517711747
 30
0
 40
0.601
 41
0.7345555555555555
 71
    1
 72
    1
  1
28
  7
STANDARD
210
0
220
0
230
1
 50
0
 73
    2
 44
1
  0
MTEXT
  5
1EB
100
AcDbEntity
  8
0
  6
ByLayer
 62
  256
370
   -1
100
AcDbMText
 10
10.22062314003087
 20
6.784222721342849
 30
0
 40
0.601
 41
0.7345555555555554
 71
    1
 72
    1
  1
27
  7
STANDARD
210
0
220
0
230
1
 50
0
 73
    2
 44
1
  0
MTEXT
  5
1EC
100
AcDbEntity
  8
0
  6
ByLayer
 62
  256
370
   -1
100
AcDbMText
 10
11.12469625136794
 20
6.768899448269337
 30
0
 40
0.601
 41
0.7345555555555927
 71
    1
 72
    1
  1
30
  7
STANDARD
210
0
220
0
230
1
 50
0
 73
    2
 44
1
  0
MTEXT
  5
1ED
100
AcDbEntity
  8
0
  6
ByLayer
 62
  256
370
   -1
100
AcDbMText
 10
12.13603227421957
 20
6.799545994416358
 30
0
 40
0.601
 41
0.7345555555555555
 71
    1
 72
    1
  1
29
  7
STANDARD
210
0
220
0
230
1
 50
0
 73
    2
 44
1
  0
MTEXT
  5
1EE
100
AcDbEntity
  8
0
  6
ByLayer
 62
  256
370
   -1
100
AcDbMText
 10
11.18598934366197
 20
7.780235471120966
 30
0
 40
0.601
 41
0.7345555555555927
 71
    1
 72
    1
  1
32
  7
STANDARD
210
0
220
0
230
1
 50
0
 73
    2
 44
1
  0
MTEXT
  5
1EF
100
AcDbEntity
  8
0
  6
ByLayer
 62
  256
370
   -1
100
AcDbMText
 10
12.18200209344009
 20
7.841528563415006
 30
0
 40
0.601
 41
0.6010000000000372
 71
    1
 72
    1
  1
31
  7
STANDARD
210
0
220
0
230
1
 50
0
 73
    2
 44
1
  0
MTEXT
  5
1F0
100
AcDbEntity
  8
0
  6
ByLayer
 62
  256
370
   -1
100
AcDbMText
 10
11.20131261673549
 20
8.80689476704611
 30
0
 40
0.601
 41
0.8013333333333705
 71
    1
 72
    1
  1
34
  7
STANDARD
210
0
220
0
230
1
 50
0
 73
    2
 44
1
  0
MTEXT
  5
1F1
100
AcDbEntity
  8
0
  6
ByLayer
 62
  256
370
   -1
100
AcDbMText
 10
11.10937297829442
 20
9.81823078989774
 30
0
 40
0.601
 41
0.73455555555563
 71
    1
 72
    1
  1
36
  7
STANDARD
210
0
220
0
230
1
 50
0
 73
    2
 44
1
  0
MTEXT
  5
1F2
100
AcDbEntity
  8
0
  6
ByLayer
 62
  256
370
   -1
100
AcDbMText
 10
11.18598934366197
 20
10.79892026660234
 30
0
 40
0.601
 41
0.7345555555555927
 71
    1
 72
    1
  1
38
  7
STANDARD
210
0
220
0
230
1
 50
0
 73
    2
 44
1
  0
MTEXT
  5
1F3
100
AcDbEntity
  8
0
  6
ByLayer
 62
  256
370
   -1
100
AcDbMText
 10
12.15135554729307
 20
10.78359699352884
 30
0
 40
0.601
 41
0.7345555555555927
 71
    1
 72
    1
  1
37
  7
STANDARD
210
0
220
0
230
1
 50
0
 73
    2
 44
1
  0
MTEXT
  5
1F4
100
AcDbEntity
  8
0
  6
ByLayer
 62
  256
370
   -1
100
AcDbMText
 10
12.16667882036658
 20
9.81823078989774
 30
0
 40
0.601
 41
0.73455555555563
 71
    1
 72
    1
  1
35
  7
STANDARD
210
0
220
0
230
1
 50
0
 73
    2
 44
1
  0
MTEXT
  5
1F5
100
AcDbEntity
  8
0
  6
ByLayer
 62
  256
370
   -1
100
AcDbMText
 10
12.12070900114605
 20
8.822218040119614
 30
0
 40
0.601
 41
0.73455555555563
 71
    1
 72
    1
  1
33
  7
STANDARD
210
0
220
0
230
1
 50
0
 73
    2
 44
1
  0
LINE
  5
1F6
100
AcDbEntity
  8
vcc
  6
ByLayer
 62
  256
370
   -1
100
AcDbLine
 10
8.500000000000002
 20
11.5
 11
8.5
 21
6.500000000000001
  0
LINE
  5
1F7
100
AcDbEntity
  8
vcc
  6
ByLayer
 62
  256
370
   -1
100
AcDbLine
 10
8.500000000000002
 20
11.5
 11
9.000000000000002
 21
12
  0
LINE
  5
1F8
100
AcDbEntity
  8
vcc
  6
ByLayer
 62
  256
370
   -1
100
AcDbLine
 10
8.500000000000002
 20
9
 11
12
 21
9
  0
LINE
  5
1F9
100
AcDbEntity
  8
vcc
  6
ByLayer
 62
  256
370
   -1
100
AcDbLine
 10
12
 20
9
 11
12.5
 21
9.5
  0
LINE
  5
1FA
100
AcDbEntity
  8
gnd
  6
ByLayer
 62
  256
370
   -1
100
AcDbLine
 10
8.500000000000002
 20
5.500000000000001
 11
9.000000000000002
 21
6.000000000000001
  0
LINE
  5
1FB
100
AcDbEntity
  8
gnd
  6
ByLayer
 62
  256
370
   -1
100
AcDbLine
 10
9.000000000000002
 20
6.000000000000001
 11
9
 21
8
  0
LINE
  5
1FC
100
AcDbEntity
  8
gnd
  6
ByLayer
 62
  256
370
   -1
100
AcDbLine
 10
9
 20
8
 11
9
 21
9.500000000000002
  0
LINE
  5
1FD
100
AcDbEntity
  8
gnd
  6
ByLayer
 62
  256
370
   -1
100
AcDbLine
 10
10.5
 20
12.5
 11
10
 21
12
  0
LINE
  5
1FE
100
AcDbEntity
  8
gnd
  6
ByLayer
 62
  256
370
   -1
100
AcDbLine
 10
10
 20
12
 11
10
 21
11
  0
LINE
  5
1FF
100
AcDbEntity
  8
gnd
  6
ByLayer
 62
  256
370
   -1
100
AcDbLine
 10
10
 20
11
 11
9
 21
10
  0
LINE
  5
200
100
AcDbEntity
  8
gnd
  6
ByLayer
 62
  256
370
   -1
100
AcDbLine
 10
9
 20
10
 11
9
 21
9.500000000000002
  0
LINE
  5
201
100
AcDbEntity
  8
gnd
  6
ByLayer
 62
  256
370
   -1
100
AcDbLine
 10
11.5
 20
6.5
 11
11
 21
7
  0
LINE
  5
202
100
AcDbEntity
  8
gnd
  6
ByLayer
 62
  256
370
   -1
100
AcDbLine
 10
6.4
 20
10.5
 11
9.5
 21
10.5
  0
LINE
  5
203
100
AcDbEntity
  8
vcc
  6
ByLayer
 62
  256
370
   -1
100
AcDbLine
 10
9
 20
12
 11
9
 21
13
  0
LINE
  5
204
100
AcDbEntity
  8
vcc
  6
ByLayer
 62
  256
370
   -1
100
AcDbLine
 10
9
 20
13
 11
9.5
 21
13.5
  0
INSERT
  5
205
100
AcDbEntity
  8
0
  6
ByLayer
 62
  256
370
   -1
100
AcDbBlockReference
  2
capacitor_sm-13
 10
11
 20
14
 30
0
 41
1
 42
1
 43
0
 50
0
 70
    1
 71
    1
 44
0
 45
0
  0
LINE
  5
206
100
AcDbEntity
  8
gnd
  6
ByLayer
 62
  256
370
   -1
100
AcDbLine
 10
10.5
 20
12.5
 11
10.5
 21
15.5
  0
INSERT
  5
207
100
AcDbEntity
  8
0
  6
ByLayer
 62
  256
370
   -1
100
AcDbBlockReference
  2
resistor_sm_h-3
 10
13
 20
24
 30
0
 41
1
 42
1
 43
0
 50
90
 70
    1
 71
    1
 44
0
 45
0
  0
LINE
  5
208
100
AcDbEntity
  8
signal
  6
ByLayer
 62
  256
370
   -1
100
AcDbLine
 10
13.5
 20
18.5
 11
16.5
 21
18.5
  0
LINE
  5
209
100
AcDbEntity
  8
vcc
  6
ByLayer
 62
  256
370
   -1
100
AcDbLine
 10
13.4
 20
23.5
 11
15.5
 21
23.5
  0
LINE
  5
20A
100
AcDbEntity
  8
gnd
  6
ByLayer
 62
  256
370
   -1
100
AcDbLine
 10
43.5
 20
0.4999999999999999
 11
4.5
 21
0.5
  0
LINE
  5
20B
100
AcDbEntity
  8
clk
  6
ByLayer
 62
  256
370
   -1
100
AcDbLine
 10
10.4
 20
11.5
 11
11
 21
12
  0
LINE
  5
20C
100
AcDbEntity
  8
clk
  6
ByLayer
 62
  256
370
   -1
100
AcDbLine
 10
11
 20
12
 11
11
 21
14
  0
LINE
  5
20D
100
AcDbEntity
  8
clk
  6
ByLayer
 62
  256
370
   -1
100
AcDbLine
 10
11
 20
14
 11
10.8
 21
14.5
  0
MTEXT
  5
20E
100
AcDbEntity
  8
0
  6
ByLayer
 62
  256
370
   -1
100
AcDbMText
 10
4.4
 20
1.8
 30
0
 40
0.601
 41
0.1335555555555555
 71
    1
 72
    1
  1
1
  7
STANDARD
210
0
220
0
230
1
 50
0
 73
    2
 44
1
  0
MTEXT
  5
20F
100
AcDbEntity
  8
0
  6
ByLayer
 62
  256
370
   -1
100
AcDbMText
 10
8.5
 20
1.8
 30
0
 40
0.601
 41
0.2671111111111484
 71
    1
 72
    1
  1
5
  7
STANDARD
210
0
220
0
230
1
 50
0
 73
    2
 44
1
  0
MTEXT
  5
210
100
AcDbEntity
  8
0
  6
ByLayer
 62
  256
370
   -1
100
AcDbMText
 10
13.2
 20
1.8
 30
0
 40
0.601
 41
0.601
 71
    1
 72
    1
  1
10
  7
STANDARD
210
0
220
0
230
1
 50
0
 73
    2
 44
1
  0
MTEXT
  5
211
100
AcDbEntity
  8
0
  6
ByLayer
 62
  256
370
   -1
100
AcDbMText
 10
18.2
 20
1.8
 30
0
 40
0.601
 41
0.6010000000000372
 71
    1
 72
    1
  1
15
  7
STANDARD
210
0
220
0
230
1
 50
0
 73
    2
 44
1
  0
MTEXT
  5
212
100
AcDbEntity
  8
0
  6
ByLayer
 62
  256
370
   -1
100
AcDbMText
 10
23.2
 20
1.8
 30
0
 40
0.601
 41
0.7345555555555554
 71
    1
 72
    1
  1
20
  7
STANDARD
210
0
220
0
230
1
 50
0
 73
    2
 44
1
  0
MTEXT
  5
213
100
AcDbEntity
  8
0
  6
ByLayer
 62
  256
370
   -1
100
AcDbMText
 10
33.13255555555552
 20
1.801
 30
0
 40
0.601
 41
0.7345555555555927
 71
    1
 72
    1
  1
30
  7
STANDARD
210
0
220
0
230
1
 50
0
 73
    2
 44
1
  0
MTEXT
  5
214
100
AcDbEntity
  8
0
  6
ByLayer
 62
  256
370
   -1
100
AcDbMText
 10
38.2
 20
1.801
 30
0
 40
0.601
 41
0.73455555555563
 71
    1
 72
    1
  1
35
  7
STANDARD
210
0
220
0
230
1
 50
0
 73
    2
 44
1
  0
MTEXT
  5
215
100
AcDbEntity
  8
0
  6
ByLayer
 62
  256
370
   -1
100
AcDbMText
 10
20.2
 20
1.8
 30
0
 40
0.601
 41
0.7345555555555834
 71
    1
 72
    1
  1
d0
  7
STANDARD
210
0
220
0
230
1
 50
0
 73
    2
 44
1
  0
MTEXT
  5
216
100
AcDbEntity
  8
0
  6
ByLayer
 62
  256
370
   -1
100
AcDbMText
 10
28.2
 20
1.8
 30
0
 40
0.601
 41
0.7345555555555834
 71
    1
 72
    1
  1
a0
  7
STANDARD
210
0
220
0
230
1
 50
0
 73
    2
 44
1
  0
MTEXT
  5
217
100
AcDbEntity
  8
0
  6
ByLayer
 62
  256
370
   -1
100
AcDbMText
 10
17
 20
1.8
 30
0
 40
0.601
 41
0.9348888888889166
 71
    1
 72
    1
  1
clk
  7
STANDARD
210
0
220
0
230
1
 50
0
 73
    2
 44
1
  0
LINE
  5
218
100
AcDbEntity
  8
gnd
  6
ByLayer
 62
  256
370
   -1
100
AcDbLine
 10
16.5
 20
0.5999999999999999
 11
16.5
 21
1.5
  0
LINE
  5
219
100
AcDbEntity
  8
gnd
  6
ByLayer
 62
  256
370
   -1
100
AcDbLine
 10
16.5
 20
1.5
 11
16.5
 21
9.5
  0
LINE
  5
21A
100
AcDbEntity
  8
vcc
  6
ByLayer
 62
  256
370
   -1
100
AcDbLine
 10
15.5
 20
8.5
 11
15.5
 21
2.5
  0
LINE
  5
21B
100
AcDbEntity
  8
vcc
  6
ByLayer
 62
  256
370
   -1
100
AcDbLine
 10
15.5
 20
2.5
 11
4.5
 21
2.5
  0
LINE
  5
21C
100
AcDbEntity
  8
vcc
  6
ByLayer
 62
  256
370
   -1
100
AcDbLine
 10
4.5
 20
2.5
 11
4.5
 21
1.5
  0
LINE
  5
21D
100
AcDbEntity
  8
gnd
  6
ByLayer
 62
  256
370
   -1
100
AcDbLine
 10
9.100000000000001
 20
8.500000000000002
 11
10.5
 21
8.500000000000002
  0
LINE
  5
21E
100
AcDbEntity
  8
gnd
  6
ByLayer
 62
  256
370
   -1
100
AcDbLine
 10
10.5
 20
8.500000000000002
 11
11
 21
8
  0
LINE
  5
21F
100
AcDbEntity
  8
gnd
  6
ByLayer
 62
  256
370
   -1
100
AcDbLine
 10
11
 20
8
 11
11
 21
7.000000000000001
  0
INSERT
  5
220
100
AcDbEntity
  8
0
  6
ByLayer
 62
  256
370
   -1
100
AcDbBlockReference
  2
resistor_sm_h-4
 10
20
 20
5
 30
0
 41
1
 42
1
 43
0
 50
0
 70
    1
 71
    1
 44
0
 45
0
  0
LINE
  5
221
100
AcDbEntity
  8
vcc
  6
ByLayer
 62
  256
370
   -1
100
AcDbLine
 10
14.5
 20
4.5
 11
15.5
 21
4.5
  0
LINE
  5
222
100
AcDbEntity
  8
signal
  6
ByLayer
 62
  256
370
   -1
100
AcDbLine
 10
19.5
 20
5.5
 11
19.5
 21
4.5
  0
LINE
  5
223
100
AcDbEntity
  8
vcc
  6
ByLayer
 62
  256
370
   -1
100
AcDbLine
 10
47.5
 20
6.500000000000001
 11
44.50000000000001
 21
6.500000000000001
  0
LINE
  5
224
100
AcDbEntity
  8
vcc
  6
ByLayer
 62
  256
370
   -1
100
AcDbLine
 10
44.50000000000001
 20
6.500000000000001
 11
44.5
 21
18.5
  0
LINE
  5
225
100
AcDbEntity
  8
signal
  6
ByLayer
 62
  256
370
   -1
100
AcDbLine
 10
47.5
 20
8.5
 11
43.5
 21
8.5
  0
LINE
  5
226
100
AcDbEntity
  8
signal
  6
ByLayer
 62
  256
370
   -1
100
AcDbLine
 10
43.5
 20
8.5
 11
43
 21
9
  0
LINE
  5
227
100
AcDbEntity
  8
signal
  6
ByLayer
 62
  256
370
   -1
100
AcDbLine
 10
43
 20
9
 11
41
 21
9
  0
LINE
  5
228
100
AcDbEntity
  8
signal
  6
ByLayer
 62
  256
370
   -1
100
AcDbLine
 10
18.5
 20
12.5
 11
15.2
 21
12.5
  0
LINE
  5
229
100
AcDbEntity
  8
signal
  6
ByLayer
 62
  256
370
   -1
100
AcDbLine
 10
15.2
 20
12.5
 11
15.2
 21
2.8
  0
LINE
  5
22A
100
AcDbEntity
  8
signal
  6
ByLayer
 62
  256
370
   -1
100
AcDbLine
 10
15.2
 20
2.8
 11
5.5
 21
2.8
  0
LINE
  5
22B
100
AcDbEntity
  8
signal
  6
ByLayer
 62
  256
370
   -1
100
AcDbLine
 10
5.5
 20
2.8
 11
5.5
 21
1.5
  0
LINE
  5
22C
100
AcDbEntity
  8
gnd
  6
ByLayer
 62
  256
370
   -1
100
AcDbLine
 10
45.5
 20
18.5
 11
45.5
 21
5.5
  0
INSERT
  5
22D
100
AcDbEntity
  8
0
  6
ByLayer
 62
  256
370
   -1
100
AcDbBlockReference
  2
capacitor_sm-21
 10
46
 20
19
 30
0
 41
1
 42
1
 43
0
 50
0
 70
    1
 71
    1
 44
0
 45
0
  0
LINE
  5
22E
100
AcDbEntity
  8
gnd
  6
ByLayer
 62
  256
370
   -1
100
AcDbLine
 10
40.5
 20
8.500000000000002
 11
40.5
 21
4.5
  0
LINE
  5
22F
100
AcDbEntity
  8
gnd
  6
ByLayer
 62
  256
370
   -1
100
AcDbLine
 10
40.5
 20
4.5
 11
45.5
 21
4.5
  0
LINE
  5
230
100
AcDbEntity
  8
gnd
  6
ByLayer
 62
  256
370
   -1
100
AcDbLine
 10
45.5
 20
4.5
 11
45.5
 21
5.5
  0
LINE
  5
231
100
AcDbEntity
  8
gnd
  6
ByLayer
 62
  256
370
   -1
100
AcDbLine
 10
37.5
 20
14.5
 11
14.5
 21
14.5
  0
LINE
  5
232
100
AcDbEntity
  8
clk
  6
ByLayer
 62
  256
370
   -1
100
AcDbLine
 10
14.8
 20
14.2
 11
37.5
 21
14.2
  0
LINE
  5
233
100
AcDbEntity
  8
gnd
  6
ByLayer
 62
  256
370
   -1
100
AcDbLine
 10
16.5
 20
9.5
 11
16.5
 21
14.5
  0
LINE
  5
234
100
AcDbEntity
  8
gnd
  6
ByLayer
 62
  256
370
   -1
100
AcDbLine
 10
37.5
 20
11.5
 11
37.5
 21
14.5
  0
LINE
  5
235
100
AcDbEntity
  8
clk
  6
ByLayer
 62
  256
370
   -1
100
AcDbLine
 10
41.40000000000001
 20
6.500000000000001
 11
40.2
 21
6.500000000000001
  0
LINE
  5
236
100
AcDbEntity
  8
clk
  6
ByLayer
 62
  256
370
   -1
100
AcDbLine
 10
40.2
 20
6.500000000000001
 11
40.2
 21
14.2
  0
LINE
  5
237
100
AcDbEntity
  8
clk
  6
ByLayer
 62
  256
370
   -1
100
AcDbLine
 10
40.2
 20
14.2
 11
37.3
 21
14.2
  0
LINE
  5
238
100
AcDbEntity
  8
signal
  6
ByLayer
 62
  256
370
   -1
100
AcDbLine
 10
18.5
 20
12.5
 11
38.5
 21
12.5
  0
LINE
  5
239
100
AcDbEntity
  8
gnd
  6
ByLayer
 62
  256
370
   -1
100
AcDbLine
 10
40.5
 20
8.5
 11
40.5
 21
14.5
  0
LINE
  5
23A
100
AcDbEntity
  8
gnd
  6
ByLayer
 62
  256
370
   -1
100
AcDbLine
 10
40.5
 20
14.5
 11
37.5
 21
14.5
  0
LINE
  5
23B
100
AcDbEntity
  8
signal
  6
ByLayer
 62
  256
370
   -1
100
AcDbLine
 10
41
 20
9
 11
38.5
 21
9
  0
LINE
  5
23C
100
AcDbEntity
  8
signal
  6
ByLayer
 62
  256
370
   -1
100
AcDbLine
 10
38.5
 20
9
 11
38.5
 21
12.5
  0
LINE
  5
23D
100
AcDbEntity
  8
vcc
  6
ByLayer
 62
  256
370
   -1
100
AcDbLine
 10
15.5
 20
13.5
 11
20.5
 21
13.5
  0
LINE
  5
23E
100
AcDbEntity
  8
vcc
  6
ByLayer
 62
  256
370
   -1
100
AcDbLine
 10
20.5
 20
13.5
 11
20.5
 21
11.5
  0
LINE
  5
23F
100
AcDbEntity
  8
vcc
  6
ByLayer
 62
  256
370
   -1
100
AcDbLine
 10
20.5
 20
13.5
 11
22.5
 21
13.5
  0
LINE
  5
240
100
AcDbEntity
  8
vcc
  6
ByLayer
 62
  256
370
   -1
100
AcDbLine
 10
22.5
 20
13.5
 11
22.5
 21
11.5
  0
INSERT
  5
241
100
AcDbEntity
  8
signal
  6
ByLayer
 62
  256
370
   -1
100
AcDbBlockReference
  2
capacitor_sm-23
 10
27
 20
7
 30
0
 41
1
 42
1
 43
0
 50
270
 70
    1
 71
    1
 44
0
 45
0
  0
LINE
  5
242
100
AcDbEntity
  8
vcc
  6
ByLayer
 62
  256
370
   -1
100
AcDbLine
 10
25.5
 20
5.500000000000001
 11
25.5
 21
7.500000000000001
  0
LINE
  5
243
100
AcDbEntity
  8
gnd
  6
ByLayer
 62
  256
370
   -1
100
AcDbLine
 10
26.5
 20
7.500000000000001
 11
37.5
 21
7.500000000000001
  0
LINE
  5
244
100
AcDbEntity
  8
gnd
  6
ByLayer
 62
  256
370
   -1
100
AcDbLine
 10
37.5
 20
7.500000000000001
 11
37.5
 21
11.5
  0
LINE
  5
245
100
AcDbEntity
  8
vcc
  6
ByLayer
 62
  256
370
   -1
100
AcDbLine
 10
25.5
 20
7.500000000000001
 11
23.5
 21
7.500000000000001
  0
LINE
  5
246
100
AcDbEntity
  8
vcc
  6
ByLayer
 62
  256
370
   -1
100
AcDbLine
 10
23.5
 20
6.500000000000001
 11
23.5
 21
5.500000000000001
  0
LINE
  5
247
100
AcDbEntity
  8
signal2
  6
ByLayer
 62
  256
370
   -1
100
AcDbLine
 10
6.5
 20
3.5
 11
6.5
 21
1.5
  0
LINE
  5
248
100
AcDbEntity
  8
clk
  6
ByLayer
 62
  256
370
   -1
100
AcDbLine
 10
17.5
 20
1.5
 11
17.5
 21
3.6
  0
LINE
  5
249
100
AcDbEntity
  8
clk
  6
ByLayer
 62
  256
370
   -1
100
AcDbLine
 10
16.2
 20
3.6
 11
16.2
 21
14.2
  0
LINE
  5
24A
100
AcDbEntity
  8
clk
  6
ByLayer
 62
  256
370
   -1
100
AcDbLine
 10
17.5
 20
3.6
 11
16.2
 21
3.6
  0
LINE
  5
24B
100
AcDbEntity
  8
signal2
  6
ByLayer
 62
  256
370
   -1
100
AcDbLine
 10
21.5
 20
5.5
 11
21.5
 21
3.5
  0
LINE
  5
24C
100
AcDbEntity
  8
vcc
  6
ByLayer
 62
  256
370
   -1
100
AcDbLine
 10
22.5
 20
13.5
 11
39.5
 21
13.5
  0
LINE
  5
24D
100
AcDbEntity
  8
vcc
  6
ByLayer
 62
  256
370
   -1
100
AcDbLine
 10
39.5
 20
13.5
 11
39.5
 21
3.5
  0
LINE
  5
24E
100
AcDbEntity
  8
vcc
  6
ByLayer
 62
  256
370
   -1
100
AcDbLine
 10
44.5
 20
3.5
 11
44.5
 21
6.500000000000001
  0
LINE
  5
24F
100
AcDbEntity
  8
vcc
  6
ByLayer
 62
  256
370
   -1
100
AcDbLine
 10
39.5
 20
3.5
 11
44.5
 21
3.5
  0
LINE
  5
250
100
AcDbEntity
  8
signal2
  6
ByLayer
 62
  256
370
   -1
100
AcDbLine
 10
41.6
 20
7.500000000000001
 11
43.5
 21
7.500000000000001
  0
LINE
  5
251
100
AcDbEntity
  8
signal2
  6
ByLayer
 62
  256
370
   -1
100
AcDbLine
 10
43.5
 20
7.500000000000001
 11
43.5
 21
6.5
  0
INSERT
  5
252
100
AcDbEntity
  8
0
  6
ByLayer
 62
  256
370
   -1
100
AcDbBlockReference
  2
diode1
 10
35
 20
4
 30
0
 41
1
 42
1
 43
0
 50
0
 70
    1
 71
    1
 44
1
 45
1
  0
LINE
  5
253
100
AcDbEntity
  8
signal2
  6
ByLayer
 62
  256
370
   -1
100
AcDbLine
 10
30.5
 20
3.5
 11
6.5
 21
3.5
  0
LINE
  5
254
100
AcDbEntity
  8
signal2
  6
ByLayer
 62
  256
370
   -1
100
AcDbLine
 10
34.5
 20
3.5
 11
38.5
 21
3.5
  0
LINE
  5
255
100
AcDbEntity
  8
signal2
  6
ByLayer
 62
  256
370
   -1
100
AcDbLine
 10
38.5
 20
3.5
 11
38.8
 21
3.5
  0
LINE
  5
256
100
AcDbEntity
  8
signal2
  6
ByLayer
 62
  256
370
   -1
100
AcDbLine
 10
38.8
 20
3.5
 11
39.3
 21
3.2
  0
LINE
  5
257
100
AcDbEntity
  8
signal2
  6
ByLayer
 62
  256
370
   -1
100
AcDbLine
 10
39.3
 20
3.2
 11
43.5
 21
3.2
  0
LINE
  5
258
100
AcDbEntity
  8
signal2
  6
ByLayer
 62
  256
370
   -1
100
AcDbLine
 10
43.5
 20
3.2
 11
43.5
 21
6.5
  0
LINE
  5
259
100
AcDbEntity
  8
data_bus
  6
ByLayer
 62
  256
370
   -1
100
AcDbLine
 10
20.5
 20
1.5
 11
25.5
 21
11.5
  0
LINE
  5
25A
100
AcDbEntity
  8
data_bus
  6
ByLayer
 62
  256
370
   -1
100
AcDbLine
 10
21.5
 20
1.5
 11
26.5
 21
11.5
  0
LINE
  5
25B
100
AcDbEntity
  8
data_bus
  6
ByLayer
 62
  256
370
   -1
100
AcDbLine
 10
22.5
 20
1.5
 11
27.5
 21
11.5
  0
LINE
  5
25C
100
AcDbEntity
  8
data_bus
  6
ByLayer
 62
  256
370
   -1
100
AcDbLine
 10
23.5
 20
1.5
 11
28.5
 21
11.5
  0
LINE
  5
25D
100
AcDbEntity
  8
data_bus
  6
ByLayer
 62
  256
370
   -1
100
AcDbLine
 10
29.5
 20
11.5
 11
24.5
 21
1.5
  0
LINE
  5
25E
100
AcDbEntity
  8
data_bus
  6
ByLayer
 62
  256
370
   -1
100
AcDbLine
 10
25.5
 20
1.5
 11
30.5
 21
11.5
  0
LINE
  5
25F
100
AcDbEntity
  8
data_bus
  6
ByLayer
 62
  256
370
   -1
100
AcDbLine
 10
32.5
 20
11.5
 11
27.5
 21
1.5
  0
LINE
  5
260
100
AcDbEntity
  8
data_bus
  6
ByLayer
 62
  256
370
   -1
100
AcDbLine
 10
26.5
 20
1.5
 11
31.5
 21
11.5
  0
LINE
  5
261
100
AcDbEntity
  8
addr_bus_0..7
  6
ByLayer
 62
  256
370
   -1
100
AcDbLine
 10
28.5
 20
1.5
 11
26.5
 21
5.600000000000001
  0
LINE
  5
262
100
AcDbEntity
  8
addr_bus_0..7
  6
ByLayer
 62
  256
370
   -1
100
AcDbLine
 10
29.5
 20
1.5
 11
27.5
 21
5.6
  0
LINE
  5
263
100
AcDbEntity
  8
addr_bus_0..7
  6
ByLayer
 62
  256
370
   -1
100
AcDbLine
 10
30.5
 20
1.5
 11
28.5
 21
5.600000000000001
  0
LINE
  5
264
100
AcDbEntity
  8
addr_bus_0..7
  6
ByLayer
 62
  256
370
   -1
100
AcDbLine
 10
29.5
 20
5.600000000000001
 11
31.5
 21
1.5
  0
LINE
  5
265
100
AcDbEntity
  8
addr_bus_0..7
  6
ByLayer
 62
  256
370
   -1
100
AcDbLine
 10
30.5
 20
5.600000000000001
 11
32.5
 21
1.5
  0
LINE
  5
266
100
AcDbEntity
  8
addr_bus_0..7
  6
ByLayer
 62
  256
370
   -1
100
AcDbLine
 10
33.5
 20
1.5
 11
31.5
 21
5.6
  0
LINE
  5
267
100
AcDbEntity
  8
addr_bus_0..7
  6
ByLayer
 62
  256
370
   -1
100
AcDbLine
 10
34.5
 20
1.5
 11
32.5
 21
5.6
  0
LINE
  5
268
100
AcDbEntity
  8
addr_bus_0..7
  6
ByLayer
 62
  256
370
   -1
100
AcDbLine
 10
33.5
 20
5.6
 11
35.5
 21
1.5
  0
LINE
  5
269
100
AcDbEntity
  8
vcc
  6
ByLayer
 62
  256
370
   -1
100
AcDbLine
 10
37.5
 20
15.5
 11
37.5
 21
16.5
  0
INSERT
  5
26A
100
AcDbEntity
  8
0
  6
ByLayer
 62
  256
370
   -1
100
AcDbBlockReference
  2
dip_4_14
 10
24
 20
19
 30
0
 41
1
 42
1
 43
0
 50
270
 70
    1
 71
    1
 44
1
 45
1
  0
MTEXT
  5
26B
100
AcDbEntity
  8
0
  6
ByLayer
 62
  256
370
   -1
100
AcDbMText
 10
37.90300429952423
 20
16.78862638867848
 30
0
 40
0.601
 41
1.469111111111111
 71
    1
 72
    1
  1
VCC\P~WE\PA13\PA8\PA9\PA11\P~OE\PA10\P~CE\PD7\PD6\PD5\PD4\PD3
  7
STANDARD
210
0
220
0
230
1
 50
270
 73
    2
 44
1
  0
MTEXT
  5
26C
100
AcDbEntity
  8
0
  6
ByLayer
 62
  256
370
   -1
100
AcDbMText
 10
37.80966428077699
 20
18.78626550954044
 30
0
 40
0.601
 41
1.469110856284528
 71
    1
 72
    1
  1
A14\PA12\PA7\PA6\PA5\PA4\PA3\PA2\PA1\PA0\PD0\PD1\PD2\PVSS
  7
STANDARD
210
0
220
0
230
1
 50
270
 73
    2
 44
1
  0
MTEXT
  5
26D
100
AcDbEntity
  8
0
  6
ByLayer
 62
  256
370
   -1
100
AcDbMText
 10
37.72162866356807
 20
29.47178455922997
 30
0
 40
0.601
 41
1.402333333333408
 71
    1
 72
    1
  1
nc\PA12\PA7\PA6\PA5\PA4\PA3\PA2\PA1\PA0\PD0\PD1\PD2\PGND
  7
STANDARD
210
0
220
0
230
1
 50
270
 73
    2
 44
1
  0
MTEXT
  5
26E
100
AcDbEntity
  8
0
  6
ByLayer
 62
  256
370
   -1
100
AcDbMText
 10
37.901
 20
24.8
 30
0
 40
0.601
 41
1.469111111111111
 71
    1
 72
    1
  1
VCC\P~WE\Pnc\PA8\PA9\PA11\P~OE\PA10\P~CE\PO7\PO6\PO5\PO4\PO3
  7
STANDARD
210
0
220
0
230
1
 50
270
 73
    2
 44
1
  0
INSERT
  5
26F
100
AcDbEntity
  8
0
  6
ByLayer
 62
  256
370
   -1
100
AcDbBlockReference
  2
zif_28
 10
40
 20
31
 30
0
 41
1
 42
1
 43
0
 50
0
 70
    1
 71
    1
 44
0
 45
0
  0
LINE
  5
270
100
AcDbEntity
  8
vcc
  6
ByLayer
 62
  256
370
   -1
100
AcDbLine
 10
37.5
 20
26.5
 11
37.5
 21
23.5
  0
LINE
  5
271
100
AcDbEntity
  8
gnd
  6
ByLayer
 62
  256
370
   -1
100
AcDbLine
 10
24.5
 20
27.5
 11
24.5
 21
29.5
  0
INSERT
  5
272
100
AcDbEntity
  8
signal
  6
ByLayer
 62
  256
370
   -1
100
AcDbBlockReference
  2
capacitor_sm-19
 10
37
 20
28
 30
0
 41
1
 42
1
 43
0
 50
90
 70
    1
 71
    1
 44
0
 45
0
  0
LINE
  5
273
100
AcDbEntity
  8
gnd
  6
ByLayer
 62
  256
370
   -1
100
AcDbLine
 10
24.5
 20
27.5
 11
37.5
 21
27.5
  0
LINE
  5
274
100
AcDbEntity
  8
data_bus
  6
ByLayer
 62
  256
370
   -1
100
AcDbLine
 10
28.5
 20
11.5
 11
24.5
 21
15.5
  0
LINE
  5
275
100
AcDbEntity
  8
data_bus
  6
ByLayer
 62
  256
370
   -1
100
AcDbLine
 10
25.5
 20
15.5
 11
29.5
 21
11.5
  0
LINE
  5
276
100
AcDbEntity
  8
data_bus
  6
ByLayer
 62
  256
370
   -1
100
AcDbLine
 10
26.5
 20
15.5
 11
30.5
 21
11.5
  0
LINE
  5
277
100
AcDbEntity
  8
data_bus
  6
ByLayer
 62
  256
370
   -1
100
AcDbLine
 10
27.5
 20
15.5
 11
31.5
 21
11.5
  0
LINE
  5
278
100
AcDbEntity
  8
data_bus
  6
ByLayer
 62
  256
370
   -1
100
AcDbLine
 10
28.5
 20
15.5
 11
32.5
 21
11.5
  0
LINE
  5
279
100
AcDbEntity
  8
data_bus
  6
ByLayer
 62
  256
370
   -1
100
AcDbLine
 10
41.5
 20
8.5
 11
32.5
 21
11.5
  0
LINE
  5
27A
100
AcDbEntity
  8
data_bus
  6
ByLayer
 62
  256
370
   -1
100
AcDbLine
 10
31.5
 20
11.5
 11
41.5
 21
9.5
  0
LINE
  5
27B
100
AcDbEntity
  8
data_bus
  6
ByLayer
 62
  256
370
   -1
100
AcDbLine
 10
41.4
 20
10.5
 11
30.5
 21
11.5
  0
LINE
  5
27C
100
AcDbEntity
  8
data_bus
  6
ByLayer
 62
  256
370
   -1
100
AcDbLine
 10
41.5
 20
11.5
 11
29.5
 21
11.5
  0
LINE
  5
27D
100
AcDbEntity
  8
data_bus
  6
ByLayer
 62
  256
370
   -1
100
AcDbLine
 10
28.5
 20
11.5
 11
41.5
 21
12.5
  0
LINE
  5
27E
100
AcDbEntity
  8
data_bus
  6
ByLayer
 62
  256
370
   -1
100
AcDbLine
 10
41.5
 20
13.5
 11
27.5
 21
11.5
  0
LINE
  5
27F
100
AcDbEntity
  8
data_bus
  6
ByLayer
 62
  256
370
   -1
100
AcDbLine
 10
26.5
 20
11.5
 11
41.5
 21
14.5
  0
LINE
  5
280
100
AcDbEntity
  8
data_bus
  6
ByLayer
 62
  256
370
   -1
100
AcDbLine
 10
41.5
 20
15.5
 11
25.5
 21
11.5
  0
LINE
  5
281
100
AcDbEntity
  8
data_bus
  6
ByLayer
 62
  256
370
   -1
100
AcDbLine
 10
27.5
 20
11.5
 11
25.5
 21
18.4
  0
LINE
  5
282
100
AcDbEntity
  8
data_bus
  6
ByLayer
 62
  256
370
   -1
100
AcDbLine
 10
25.5
 20
18.4
 11
25.5
 21
29.5
  0
LINE
  5
283
100
AcDbEntity
  8
data_bus
  6
ByLayer
 62
  256
370
   -1
100
AcDbLine
 10
26.5
 20
29.5
 11
26.5
 21
18.4
  0
LINE
  5
284
100
AcDbEntity
  8
data_bus
  6
ByLayer
 62
  256
370
   -1
100
AcDbLine
 10
26.5
 20
18.4
 11
26.5
 21
11.5
  0
LINE
  5
285
100
AcDbEntity
  8
data_bus
  6
ByLayer
 62
  256
370
   -1
100
AcDbLine
 10
25.5
 20
11.5
 11
27.5
 21
18.4
  0
LINE
  5
286
100
AcDbEntity
  8
data_bus
  6
ByLayer
 62
  256
370
   -1
100
AcDbLine
 10
27.5
 20
18.4
 11
27.5
 21
29.5
  0
LINE
  5
287
100
AcDbEntity
  8
data_bus
  6
ByLayer
 62
  256
370
   -1
100
AcDbLine
 10
24.5
 20
15.5
 11
24.5
 21
22.5
  0
LINE
  5
288
100
AcDbEntity
  8
data_bus
  6
ByLayer
 62
  256
370
   -1
100
AcDbLine
 10
25.3
 20
22.5
 11
25.3
 21
15.5
  0
LINE
  5
289
100
AcDbEntity
  8
data_bus
  6
ByLayer
 62
  256
370
   -1
100
AcDbLine
 10
25.3
 20
15.5
 11
25.5
 21
15.5
  0
LINE
  5
28A
100
AcDbEntity
  8
data_bus
  6
ByLayer
 62
  256
370
   -1
100
AcDbLine
 10
26.5
 20
15.5
 11
26.2
 21
15.5
  0
LINE
  5
28B
100
AcDbEntity
  8
data_bus
  6
ByLayer
 62
  256
370
   -1
100
AcDbLine
 10
26.2
 20
15.5
 11
26.2
 21
24.5
  0
LINE
  5
28C
100
AcDbEntity
  8
data_bus
  6
ByLayer
 62
  256
370
   -1
100
AcDbLine
 10
25.3
 20
22.5
 11
25.3
 21
24.5
  0
LINE
  5
28D
100
AcDbEntity
  8
data_bus
  6
ByLayer
 62
  256
370
   -1
100
AcDbLine
 10
24.5
 20
24.5
 11
24.5
 21
22.5
  0
LINE
  5
28E
100
AcDbEntity
  8
data_bus
  6
ByLayer
 62
  256
370
   -1
100
AcDbLine
 10
27.5
 20
15.5
 11
27.2
 21
15.5
  0
LINE
  5
28F
100
AcDbEntity
  8
data_bus
  6
ByLayer
 62
  256
370
   -1
100
AcDbLine
 10
27.2
 20
15.5
 11
27.2
 21
24.5
  0
LINE
  5
290
100
AcDbEntity
  8
data_bus
  6
ByLayer
 62
  256
370
   -1
100
AcDbLine
 10
28.5
 20
24.4
 11
28.5
 21
15.5
  0
LINE
  5
291
100
AcDbEntity
  8
addr_bus_0..7
  6
ByLayer
 62
  256
370
   -1
100
AcDbLine
 10
26.5
 20
5.600000000000001
 11
28.5
 21
18.5
  0
LINE
  5
292
100
AcDbEntity
  8
addr_bus_0..7
  6
ByLayer
 62
  256
370
   -1
100
AcDbLine
 10
29.5
 20
18.5
 11
27.5
 21
5.600000000000001
  0
LINE
  5
293
100
AcDbEntity
  8
addr_bus_0..7
  6
ByLayer
 62
  256
370
   -1
100
AcDbLine
 10
28.5
 20
5.600000000000001
 11
30.5
 21
18.5
  0
LINE
  5
294
100
AcDbEntity
  8
addr_bus_0..7
  6
ByLayer
 62
  256
370
   -1
100
AcDbLine
 10
31.5
 20
18.5
 11
29.5
 21
5.600000000000001
  0
LINE
  5
295
100
AcDbEntity
  8
addr_bus_0..7
  6
ByLayer
 62
  256
370
   -1
100
AcDbLine
 10
30.5
 20
5.600000000000001
 11
32.5
 21
18.5
  0
LINE
  5
296
100
AcDbEntity
  8
addr_bus_0..7
  6
ByLayer
 62
  256
370
   -1
100
AcDbLine
 10
33.5
 20
18.5
 11
31.5
 21
5.600000000000001
  0
LINE
  5
297
100
AcDbEntity
  8
addr_bus_0..7
  6
ByLayer
 62
  256
370
   -1
100
AcDbLine
 10
32.5
 20
5.600000000000001
 11
34.5
 21
18.5
  0
LINE
  5
298
100
AcDbEntity
  8
addr_bus_0..7
  6
ByLayer
 62
  256
370
   -1
100
AcDbLine
 10
35.5
 20
18.5
 11
33.5
 21
5.600000000000001
  0
LINE
  5
299
100
AcDbEntity
  8
addr_bus_0..7
  6
ByLayer
 62
  256
370
   -1
100
AcDbLine
 10
28.5
 20
18.5
 11
28.5
 21
29.5
  0
LINE
  5
29A
100
AcDbEntity
  8
addr_bus_0..7
  6
ByLayer
 62
  256
370
   -1
100
AcDbLine
 10
29.5
 20
29.5
 11
29.5
 21
18.5
  0
LINE
  5
29B
100
AcDbEntity
  8
addr_bus_0..7
  6
ByLayer
 62
  256
370
   -1
100
AcDbLine
 10
30.5
 20
18.5
 11
30.5
 21
29.4
  0
LINE
  5
29C
100
AcDbEntity
  8
addr_bus_0..7
  6
ByLayer
 62
  256
370
   -1
100
AcDbLine
 10
30.5
 20
29.4
 11
30.5
 21
29.5
  0
LINE
  5
29D
100
AcDbEntity
  8
addr_bus_0..7
  6
ByLayer
 62
  256
370
   -1
100
AcDbLine
 10
31.5
 20
29.5
 11
31.5
 21
18.5
  0
LINE
  5
29E
100
AcDbEntity
  8
addr_bus_0..7
  6
ByLayer
 62
  256
370
   -1
100
AcDbLine
 10
32.5
 20
18.5
 11
32.5
 21
29.5
  0
LINE
  5
29F
100
AcDbEntity
  8
addr_bus_0..7
  6
ByLayer
 62
  256
370
   -1
100
AcDbLine
 10
33.5
 20
29.5
 11
33.5
 21
18.5
  0
LINE
  5
2A0
100
AcDbEntity
  8
addr_bus_0..7
  6
ByLayer
 62
  256
370
   -1
100
AcDbLine
 10
34.5
 20
18.5
 11
34.5
 21
29.5
  0
LINE
  5
2A1
100
AcDbEntity
  8
addr_bus_0..7
  6
ByLayer
 62
  256
370
   -1
100
AcDbLine
 10
35.5
 20
29.5
 11
35.5
 21
18.5
  0
INSERT
  5
2A2
100
AcDbEntity
  8
0
  6
ByLayer
 62
  256
370
   -1
100
AcDbBlockReference
  2
capacitor_sm-22
 10
39
 20
15
 30
0
 41
1
 42
1
 43
0
 50
270
 70
    1
 71
    1
 44
0
 45
0
  0
LINE
  5
2A3
100
AcDbEntity
  8
vcc
  6
ByLayer
 62
  256
370
   -1
100
AcDbLine
 10
37.5
 20
16.5
 11
38.5
 21
16.5
  0
LINE
  5
2A4
100
AcDbEntity
  8
gnd
  6
ByLayer
 62
  256
370
   -1
100
AcDbLine
 10
38.5
 20
15.5
 11
38.5
 21
14.5
  0
LINE
  5
2A5
100
AcDbEntity
  8
gnd
  6
ByLayer
 62
  256
370
   -1
100
AcDbLine
 10
23.5
 20
18.5
 11
23.5
 21
14.5
  0
LINE
  5
2A6
100
AcDbEntity
  8
gnd
  6
ByLayer
 62
  256
370
   -1
100
AcDbLine
 10
23.5
 20
18.5
 11
24.5
 21
18.5
  0
LINE
  5
2A7
100
AcDbEntity
  8
gnd
  6
ByLayer
 62
  256
370
   -1
100
AcDbLine
 10
14.5
 20
27.5
 11
24.5
 21
27.5
  0
LINE
  5
2A8
100
AcDbEntity
  8
vcc
  6
ByLayer
 62
  256
370
   -1
100
AcDbLine
 10
37.5
 20
26.5
 11
15.5
 21
26.5
  0
LINE
  5
2A9
100
AcDbEntity
  8
addr_bus_8..15
  6
ByLayer
 62
  256
370
   -1
100
AcDbLine
 10
34.5
 20
5.5
 11
36.5
 21
1.5
  0
LINE
  5
2AA
100
AcDbEntity
  8
addr_bus_8..15
  6
ByLayer
 62
  256
370
   -1
100
AcDbLine
 10
37.5
 20
1.5
 11
35.5
 21
5.5
  0
LINE
  5
2AB
100
AcDbEntity
  8
addr_bus_8..15
  6
ByLayer
 62
  256
370
   -1
100
AcDbLine
 10
36.5
 20
5.5
 11
38.5
 21
1.5
  0
LINE
  5
2AC
100
AcDbEntity
  8
addr_bus_8..15
  6
ByLayer
 62
  256
370
   -1
100
AcDbLine
 10
39.5
 20
1.5
 11
37.40000000000001
 21
5.5
  0
LINE
  5
2AD
100
AcDbEntity
  8
addr_bus_8..15
  6
ByLayer
 62
  256
370
   -1
100
AcDbLine
 10
40.5
 20
1.5
 11
36.5
 21
11.5
  0
LINE
  5
2AE
100
AcDbEntity
  8
addr_bus_8..15
  6
ByLayer
 62
  256
370
   -1
100
AcDbLine
 10
35.5
 20
11.5
 11
41.5
 21
1.5
  0
LINE
  5
2AF
100
AcDbEntity
  8
addr_bus_8..15
  6
ByLayer
 62
  256
370
   -1
100
AcDbLine
 10
42.5
 20
1.5
 11
34.5
 21
11.5
  0
LINE
  5
2B0
100
AcDbEntity
  8
addr_bus_8..15
  6
ByLayer
 62
  256
370
   -1
100
AcDbLine
 10
33.5
 20
11.5
 11
43.5
 21
1.5
  0
LINE
  5
2B1
100
AcDbEntity
  8
addr_bus_8..15
  6
ByLayer
 62
  256
370
   -1
100
AcDbLine
 10
34.5
 20
5.5
 11
34.5
 21
15.5
  0
LINE
  5
2B2
100
AcDbEntity
  8
addr_bus_8..15
  6
ByLayer
 62
  256
370
   -1
100
AcDbLine
 10
34.5
 20
15.5
 11
34.7
 21
15.5
  0
LINE
  5
2B3
100
AcDbEntity
  8
addr_bus_8..15
  6
ByLayer
 62
  256
370
   -1
100
AcDbLine
 10
34.7
 20
15.5
 11
34.7
 21
23.5
  0
LINE
  5
2B4
100
AcDbEntity
  8
addr_bus_8..15
  6
ByLayer
 62
  256
370
   -1
100
AcDbLine
 10
33.5
 20
15.5
 11
33.7
 21
15.5
  0
LINE
  5
2B5
100
AcDbEntity
  8
addr_bus_8..15
  6
ByLayer
 62
  256
370
   -1
100
AcDbLine
 10
33.7
 20
15.5
 11
33.7
 21
23.5
  0
LINE
  5
2B6
100
AcDbEntity
  8
addr_bus_8..15
  6
ByLayer
 62
  256
370
   -1
100
AcDbLine
 10
33.5
 20
15.5
 11
35.5
 21
5.5
  0
LINE
  5
2B7
100
AcDbEntity
  8
addr_bus_8..15
  6
ByLayer
 62
  256
370
   -1
100
AcDbLine
 10
36.5
 20
5.5
 11
30.5
 21
15.5
  0
LINE
  5
2B8
100
AcDbEntity
  8
addr_bus_8..15
  6
ByLayer
 62
  256
370
   -1
100
AcDbLine
 10
30.5
 20
15.5
 11
30.7
 21
15.5
  0
LINE
  5
2B9
100
AcDbEntity
  8
addr_bus_8..15
  6
ByLayer
 62
  256
370
   -1
100
AcDbLine
 10
30.7
 20
15.5
 11
30.7
 21
23.5
  0
LINE
  5
2BA
100
AcDbEntity
  8
addr_bus_8..15
  6
ByLayer
 62
  256
370
   -1
100
AcDbLine
 10
37.4
 20
5.5
 11
32.5
 21
15.5
  0
LINE
  5
2BB
100
AcDbEntity
  8
addr_bus_8..15
  6
ByLayer
 62
  256
370
   -1
100
AcDbLine
 10
32.5
 20
15.5
 11
32.7
 21
15.5
  0
LINE
  5
2BC
100
AcDbEntity
  8
addr_bus_8..15
  6
ByLayer
 62
  256
370
   -1
100
AcDbLine
 10
32.7
 20
15.5
 11
32.7
 21
23.5
  0
LINE
  5
2BD
100
AcDbEntity
  8
addr_bus_8..15
  6
ByLayer
 62
  256
370
   -1
100
AcDbLine
 10
36.5
 20
11.5
 11
36.3
 21
11.5
  0
LINE
  5
2BE
100
AcDbEntity
  8
addr_bus_8..15
  6
ByLayer
 62
  256
370
   -1
100
AcDbLine
 10
36.3
 20
11.5
 11
36.3
 21
18.5
  0
LINE
  5
2BF
100
AcDbEntity
  8
addr_bus_8..15
  6
ByLayer
 62
  256
370
   -1
100
AcDbLine
 10
36.3
 20
18.5
 11
36.3
 21
29.5
  0
LINE
  5
2C0
100
AcDbEntity
  8
addr_bus_8..15
  6
ByLayer
 62
  256
370
   -1
100
AcDbLine
 10
35.5
 20
11.5
 11
35.5
 21
15.5
  0
LINE
  5
2C1
100
AcDbEntity
  8
addr_bus_8..15
  6
ByLayer
 62
  256
370
   -1
100
AcDbLine
 10
34.5
 20
11.5
 11
37.5
 21
18.5
  0
LINE
  5
2C2
100
AcDbEntity
  8
clk
  6
ByLayer
 62
  256
370
   -1
100
AcDbLine
 10
21.5
 20
11.5
 11
21.5
 21
14.2
  0
LINE
  5
2C3
100
AcDbEntity
  8
addr_bus_8..15
  6
ByLayer
 62
  256
370
   -1
100
AcDbLine
 10
33.5
 20
11.5
 11
11.5
 21
12.5
  0
LINE
  5
2C4
100
AcDbEntity
  8
addr_bus_8..15
  6
ByLayer
 62
  256
370
   -1
100
AcDbLine
 10
34.5
 20
11.5
 11
12.5
 21
11.5
  0
LINE
  5
2C5
100
AcDbEntity
  8
addr_bus_8..15
  6
ByLayer
 62
  256
370
   -1
100
AcDbLine
 10
35.5
 20
11.5
 11
12.5
 21
10.5
  0
LINE
  5
2C6
100
AcDbEntity
  8
addr_bus_8..15
  6
ByLayer
 62
  256
370
   -1
100
AcDbLine
 10
11.5
 20
9.5
 11
36.5
 21
11.5
  0
LINE
  5
2C7
100
AcDbEntity
  8
addr_bus_8..15
  6
ByLayer
 62
  256
370
   -1
100
AcDbLine
 10
37.5
 20
5.5
 11
12.5
 21
8.500000000000002
  0
LINE
  5
2C8
100
AcDbEntity
  8
addr_bus_8..15
  6
ByLayer
 62
  256
370
   -1
100
AcDbLine
 10
11.5
 20
8.500000000000002
 11
36.40000000000001
 21
5.5
  0
LINE
  5
2C9
100
AcDbEntity
  8
addr_bus_8..15
  6
ByLayer
 62
  256
370
   -1
100
AcDbLine
 10
35.5
 20
5.5
 11
12.5
 21
7.6
  0
LINE
  5
2CA
100
AcDbEntity
  8
addr_bus_8..15
  6
ByLayer
 62
  256
370
   -1
100
AcDbLine
 10
34.5
 20
5.5
 11
12.4
 21
6.5
  0
LINE
  5
2CB
100
AcDbEntity
  8
addr_bus_0..7
  6
ByLayer
 62
  256
370
   -1
100
AcDbLine
 10
33.6
 20
5.6
 11
11.5
 21
5.600000000000001
  0
LINE
  5
2CC
100
AcDbEntity
  8
addr_bus_0..7
  6
ByLayer
 62
  256
370
   -1
100
AcDbLine
 10
10.5
 20
6.5
 11
32.5
 21
5.6
  0
LINE
  5
2CD
100
AcDbEntity
  8
addr_bus_0..7
  6
ByLayer
 62
  256
370
   -1
100
AcDbLine
 10
31.5
 20
5.600000000000001
 11
10.5
 21
5.5
  0
LINE
  5
2CE
100
AcDbEntity
  8
addr_bus_0..7
  6
ByLayer
 62
  256
370
   -1
100
AcDbLine
 10
30.5
 20
5.7
 11
9.5
 21
6.5
  0
LINE
  5
2CF
100
AcDbEntity
  8
addr_bus_0..7
  6
ByLayer
 62
  256
370
   -1
100
AcDbLine
 10
29.5
 20
5.600000000000001
 11
9.6
 21
5.5
  0
LINE
  5
2D0
100
AcDbEntity
  8
addr_bus_0..7
  6
ByLayer
 62
  256
370
   -1
100
AcDbLine
 10
28.5
 20
5.6
 11
7.5
 21
6.5
  0
LINE
  5
2D1
100
AcDbEntity
  8
addr_bus_0..7
  6
ByLayer
 62
  256
370
   -1
100
AcDbLine
 10
27.5
 20
5.6
 11
7.500000000000001
 21
5.5
  0
LINE
  5
2D2
100
AcDbEntity
  8
addr_bus_0..7
  6
ByLayer
 62
  256
370
   -1
100
AcDbLine
 10
6.5
 20
6.5
 11
26.5
 21
5.7
  0
LINE
  5
2D3
100
AcDbEntity
  8
signal2
  6
ByLayer
 62
  256
370
   -1
100
AcDbLine
 10
6.5
 20
12.5
 11
6.5
 21
14.6
  0
LINE
  5
2D4
100
AcDbEntity
  8
signal2
  6
ByLayer
 62
  256
370
   -1
100
AcDbLine
 10
6.5
 20
14.6
 11
6.5
 21
15.5
  0
LINE
  5
2D5
100
AcDbEntity
  8
signal2
  6
ByLayer
 62
  256
370
   -1
100
AcDbLine
 10
6.5
 20
15.5
 11
23.2
 21
15.5
  0
LINE
  5
2D6
100
AcDbEntity
  8
signal2
  6
ByLayer
 62
  256
370
   -1
100
AcDbLine
 10
23.2
 20
15.5
 11
23.2
 21
22.4
  0
LINE
  5
2D7
100
AcDbEntity
  8
signal2
  6
ByLayer
 62
  256
370
   -1
100
AcDbLine
 10
23.2
 20
22.4
 11
29.8
 21
22.4
  0
LINE
  5
2D8
100
AcDbEntity
  8
signal2
  6
ByLayer
 62
  256
370
   -1
100
AcDbLine
 10
29.8
 20
22.4
 11
29.8
 21
23.6
  0
LINE
  5
2D9
100
AcDbEntity
  8
signal
  6
ByLayer
 62
  256
370
   -1
100
AcDbLine
 10
10.5
 20
1.5
 11
6.5
 21
5.5
  0
LINE
  5
2DA
100
AcDbEntity
  8
signal
  6
ByLayer
 62
  256
370
   -1
100
AcDbLine
 10
11.5
 20
1.5
 11
5.5
 21
6.5
  0
LINE
  5
2DB
100
AcDbEntity
  8
signal
  6
ByLayer
 62
  256
370
   -1
100
AcDbLine
 10
12.5
 20
1.5
 11
6.5
 21
7.5
  0
LINE
  5
2DC
100
AcDbEntity
  8
signal
  6
ByLayer
 62
  256
370
   -1
100
AcDbLine
 10
13.5
 20
1.5
 11
5.5
 21
9.500000000000002
  0
LINE
  5
2DD
100
AcDbEntity
  8
signal
  6
ByLayer
 62
  256
370
   -1
100
AcDbLine
 10
14.5
 20
1.5
 11
6.600000000000001
 21
8.600000000000001
  0
LINE
  5
2DE
100
AcDbEntity
  8
signal
  6
ByLayer
 62
  256
370
   -1
100
AcDbLine
 10
15.5
 20
1.5
 11
6.5
 21
9.5
  0
LINE
  5
2DF
100
AcDbEntity
  8
vcc
  6
ByLayer
 62
  256
370
   -1
100
AcDbLine
 10
37.5
 20
15.5
 11
37
 21
15
  0
LINE
  5
2E0
100
AcDbEntity
  8
vcc
  6
ByLayer
 62
  256
370
   -1
100
AcDbLine
 10
37
 20
15
 11
37
 21
13.5
  0
LINE
  5
2E1
100
AcDbEntity
  8
vcc
  6
ByLayer
 62
  256
370
   -1
100
AcDbLine
 10
37.5
 20
23.5
 11
36.5
 21
23.5
  0
LINE
  5
2E2
100
AcDbEntity
  8
signal
  6
ByLayer
 62
  256
370
   -1
100
AcDbLine
 10
6.800000000000001
 20
14.8
 11
6.800000000000001
 21
11.8
  0
LINE
  5
2E3
100
AcDbEntity
  8
signal
  6
ByLayer
 62
  256
370
   -1
100
AcDbLine
 10
6.800000000000001
 20
11.8
 11
6.5
 21
11.5
  0
LINE
  5
2E4
100
AcDbEntity
  8
signal2
  6
ByLayer
 62
  256
370
   -1
100
AcDbLine
 10
5.5
 20
10.5
 11
4.5
 21
9.5
  0
LINE
  5
2E5
100
AcDbEntity
  8
signal2
  6
ByLayer
 62
  256
370
   -1
100
AcDbLine
 10
4.5
 20
9.5
 11
4.500000000000001
 21
3.2
  0
LINE
  5
2E6
100
AcDbEntity
  8
signal2
  6
ByLayer
 62
  256
370
   -1
100
AcDbLine
 10
4.500000000000001
 20
3.2
 11
38
 21
3.2
  0
LINE
  5
2E7
100
AcDbEntity
  8
signal2
  6
ByLayer
 62
  256
370
   -1
100
AcDbLine
 10
38
 20
3.2
 11
38.5
 21
3
  0
LINE
  5
2E8
100
AcDbEntity
  8
signal2
  6
ByLayer
 62
  256
370
   -1
100
AcDbLine
 10
38.5
 20
3
 11
42
 21
3
  0
LINE
  5
2E9
100
AcDbEntity
  8
signal2
  6
ByLayer
 62
  256
370
   -1
100
AcDbLine
 10
42
 20
3
 11
44
 21
3
  0
LINE
  5
2EA
100
AcDbEntity
  8
signal2
  6
ByLayer
 62
  256
370
   -1
100
AcDbLine
 10
44
 20
3
 11
44
 21
7.5
  0
LINE
  5
2EB
100
AcDbEntity
  8
signal2
  6
ByLayer
 62
  256
370
   -1
100
AcDbLine
 10
44
 20
7.5
 11
47.5
 21
7.5
  0
LINE
  5
2EC
100
AcDbEntity
  8
addr_bus_0..7
  6
ByLayer
 62
  256
370
   -1
100
AcDbLine
 10
46.5
 20
17.5
 11
28.5
 21
18.4
  0
LINE
  5
2ED
100
AcDbEntity
  8
addr_bus_0..7
  6
ByLayer
 62
  256
370
   -1
100
AcDbLine
 10
29.5
 20
18.4
 11
46.5
 21
18.5
  0
LINE
  5
2EE
100
AcDbEntity
  8
signal
  6
ByLayer
 62
  256
370
   -1
100
AcDbLine
 10
7.500000000000001
 20
12.5
 11
7.5
 21
15.2
  0
LINE
  5
2EF
100
AcDbEntity
  8
signal
  6
ByLayer
 62
  256
370
   -1
100
AcDbLine
 10
7.5
 20
15.2
 11
16.4
 21
15.2
  0
LINE
  5
2F0
100
AcDbEntity
  8
signal
  6
ByLayer
 62
  256
370
   -1
100
AcDbLine
 10
16.4
 20
15.2
 11
22.5
 21
15.2
  0
LINE
  5
2F1
100
AcDbEntity
  8
signal
  6
ByLayer
 62
  256
370
   -1
100
AcDbLine
 10
22.5
 20
15.2
 11
22.5
 21
16.4
  0
LINE
  5
2F2
100
AcDbEntity
  8
signal
  6
ByLayer
 62
  256
370
   -1
100
AcDbLine
 10
22.5
 20
16.4
 11
36.5
 21
16.4
  0
LINE
  5
2F3
100
AcDbEntity
  8
signal
  6
ByLayer
 62
  256
370
   -1
100
AcDbLine
 10
36.5
 20
16.4
 11
36.5
 21
15.4
  0
LINE
  5
2F4
100
AcDbEntity
  8
signal
  6
ByLayer
 62
  256
370
   -1
100
AcDbLine
 10
7.500000000000001
 20
13.5
 11
4.2
 21
13.5
  0
LINE
  5
2F5
100
AcDbEntity
  8
signal
  6
ByLayer
 62
  256
370
   -1
100
AcDbLine
 10
4.2
 20
13.5
 11
4.2
 21
3
  0
LINE
  5
2F6
100
AcDbEntity
  8
signal
  6
ByLayer
 62
  256
370
   -1
100
AcDbLine
 10
4.2
 20
3
 11
8.500000000000002
 21
3
  0
LINE
  5
2F7
100
AcDbEntity
  8
signal
  6
ByLayer
 62
  256
370
   -1
100
AcDbLine
 10
8.500000000000002
 20
3
 11
9.500000000000002
 21
1.5
  0
LINE
  5
2F8
100
AcDbEntity
  8
signal2
  6
ByLayer
 62
  256
370
   -1
100
AcDbLine
 10
7.5
 20
11.5
 11
7
 21
11
  0
LINE
  5
2F9
100
AcDbEntity
  8
signal2
  6
ByLayer
 62
  256
370
   -1
100
AcDbLine
 10
7
 20
11
 11
5
 21
11
  0
LINE
  5
2FA
100
AcDbEntity
  8
signal2
  6
ByLayer
 62
  256
370
   -1
100
AcDbLine
 10
5
 20
11
 11
4.8
 21
10.7
  0
LINE
  5
2FB
100
AcDbEntity
  8
signal2
  6
ByLayer
 62
  256
370
   -1
100
AcDbLine
 10
4.8
 20
10.7
 11
4.800000000000001
 21
2.2
  0
LINE
  5
2FC
100
AcDbEntity
  8
signal2
  6
ByLayer
 62
  256
370
   -1
100
AcDbLine
 10
4.800000000000001
 20
2.2
 11
8
 21
2.2
  0
LINE
  5
2FD
100
AcDbEntity
  8
signal2
  6
ByLayer
 62
  256
370
   -1
100
AcDbLine
 10
8
 20
2.2
 11
8.5
 21
1.5
  0
LINE
  5
2FE
100
AcDbEntity
  8
signal2
  6
ByLayer
 62
  256
370
   -1
100
AcDbLine
 10
7.5
 20
11.5
 11
8
 21
12
  0
LINE
  5
2FF
100
AcDbEntity
  8
signal2
  6
ByLayer
 62
  256
370
   -1
100
AcDbLine
 10
8
 20
12
 11
8
 21
14.5
  0
LINE
  5
300
100
AcDbEntity
  8
signal2
  6
ByLayer
 62
  256
370
   -1
100
AcDbLine
 10
8
 20
14.5
 11
8
 21
15.7
  0
LINE
  5
301
100
AcDbEntity
  8
signal2
  6
ByLayer
 62
  256
370
   -1
100
AcDbLine
 10
31.6
 20
16.7
 11
31.6
 21
15.5
  0
LINE
  5
302
100
AcDbEntity
  8
signal2
  6
ByLayer
 62
  256
370
   -1
100
AcDbLine
 10
31.6
 20
16.7
 11
32
 21
17
  0
LINE
  5
303
100
AcDbEntity
  8
signal2
  6
ByLayer
 62
  256
370
   -1
100
AcDbLine
 10
32
 20
17
 11
32
 21
19
  0
LINE
  5
304
100
AcDbEntity
  8
signal2
  6
ByLayer
 62
  256
370
   -1
100
AcDbLine
 10
32
 20
19
 11
31.5
 21
19.5
  0
LINE
  5
305
100
AcDbEntity
  8
signal2
  6
ByLayer
 62
  256
370
   -1
100
AcDbLine
 10
31.5
 20
19.5
 11
31.5
 21
23.6
  0
LINE
  5
306
100
AcDbEntity
  8
signal
  6
ByLayer
 62
  256
370
   -1
100
AcDbLine
 10
7.500000000000001
 20
1.5
 11
7.500000000000001
 21
3.7
  0
LINE
  5
307
100
AcDbEntity
  8
signal
  6
ByLayer
 62
  256
370
   -1
100
AcDbLine
 10
7.500000000000001
 20
3.7
 11
8.5
 21
4.5
  0
LINE
  5
308
100
AcDbEntity
  8
signal
  6
ByLayer
 62
  256
370
   -1
100
AcDbLine
 10
8.5
 20
4.5
 11
12.5
 21
4.5
  0
LINE
  5
309
100
AcDbEntity
  8
signal
  6
ByLayer
 62
  256
370
   -1
100
AcDbLine
 10
12.5
 20
4.5
 11
13.5
 21
5.5
  0
LINE
  5
30A
100
AcDbEntity
  8
signal
  6
ByLayer
 62
  256
370
   -1
100
AcDbLine
 10
13.5
 20
5.5
 11
13.5
 21
10.5
  0
LINE
  5
30B
100
AcDbEntity
  8
signal
  6
ByLayer
 62
  256
370
   -1
100
AcDbLine
 10
13.5
 20
10.5
 11
13
 21
11
  0
LINE
  5
30C
100
AcDbEntity
  8
signal
  6
ByLayer
 62
  256
370
   -1
100
AcDbLine
 10
13
 20
11
 11
12
 21
11
  0
LINE
  5
30D
100
AcDbEntity
  8
signal
  6
ByLayer
 62
  256
370
   -1
100
AcDbLine
 10
12
 20
11
 11
11.5
 21
11.5
  0
LINE
  5
30E
100
AcDbEntity
  8
signal
  6
ByLayer
 62
  256
370
   -1
100
AcDbLine
 10
24.6
 20
11.5
 11
24.6
 21
9.300000000000001
  0
LINE
  5
30F
100
AcDbEntity
  8
signal
  6
ByLayer
 62
  256
370
   -1
100
AcDbLine
 10
24.6
 20
9.300000000000001
 11
13.5
 21
9.300000000000001
  0
LINE
  5
310
100
AcDbEntity
  8
signal
  6
ByLayer
 62
  256
370
   -1
100
AcDbLine
 10
24.6
 20
9.300000000000001
 11
36.5
 21
9.300000000000001
  0
LINE
  5
311
100
AcDbEntity
  8
signal
  6
ByLayer
 62
  256
370
   -1
100
AcDbLine
 10
36.5
 20
9.300000000000001
 11
38.5
 21
7.500000000000001
  0
LINE
  5
312
100
AcDbEntity
  8
signal
  6
ByLayer
 62
  256
370
   -1
100
AcDbLine
 10
38.5
 20
7.500000000000001
 11
38.5
 21
6.4
  0
LINE
  5
313
100
AcDbEntity
  8
signal
  6
ByLayer
 62
  256
370
   -1
100
AcDbLine
 10
38.5
 20
6.4
 11
39.5
 21
5.5
  0
LINE
  5
314
100
AcDbEntity
  8
signal
  6
ByLayer
 62
  256
370
   -1
100
AcDbLine
 10
39.5
 20
5.5
 11
41.4
 21
5.5
  0
LINE
  5
315
100
AcDbEntity
  8
signal
  6
ByLayer
 62
  256
370
   -1
100
AcDbLine
 10
29.5
 20
15.5
 11
29.5
 21
17.2
  0
LINE
  5
316
100
AcDbEntity
  8
signal
  6
ByLayer
 62
  256
370
   -1
100
AcDbLine
 10
29.5
 20
17.2
 11
22
 21
17.2
  0
LINE
  5
317
100
AcDbEntity
  8
signal
  6
ByLayer
 62
  256
370
   -1
100
AcDbLine
 10
22
 20
17.2
 11
22
 21
16
  0
LINE
  5
318
100
AcDbEntity
  8
signal
  6
ByLayer
 62
  256
370
   -1
100
AcDbLine
 10
22
 20
16
 11
6.800000000000001
 21
16
  0
LINE
  5
319
100
AcDbEntity
  8
signal
  6
ByLayer
 62
  256
370
   -1
100
AcDbLine
 10
6.800000000000001
 20
16
 11
6.800000000000001
 21
14.8
  0
LINE
  5
31A
100
AcDbEntity
  8
clk
  6
ByLayer
 62
  256
370
   -1
100
AcDbLine
 10
10.9
 20
14.2
 11
14.8
 21
14.2
  0
LINE
  5
31B
100
AcDbEntity
  8
gnd
  6
ByLayer
 62
  256
370
   -1
100
AcDbLine
 10
10.5
 20
14.5
 11
14.5
 21
14.5
  0
LINE
  5
31C
100
AcDbEntity
  8
vcc
  6
ByLayer
 62
  256
370
   -1
100
AcDbLine
 10
15.5
 20
8.500000000000002
 11
15.5
 21
29.5
  0
LINE
  5
31D
100
AcDbEntity
  8
vcc
  6
ByLayer
 62
  256
370
   -1
100
AcDbLine
 10
9.5
 20
16.4
 11
15.5
 21
16.4
  0
LINE
  5
31E
100
AcDbEntity
  8
gnd
  6
ByLayer
 62
  256
370
   -1
100
AcDbLine
 10
10.5
 20
17.5
 11
10.5
 21
16.5
  0
LINE
  5
31F
100
AcDbEntity
  8
clk
  6
ByLayer
 62
  256
370
   -1
100
AcDbLine
 10
10.8
 20
14.5
 11
10.8
 21
17.8
  0
LINE
  5
320
100
AcDbEntity
  8
vcc
  6
ByLayer
 62
  256
370
   -1
100
AcDbLine
 10
9.5
 20
13.5
 11
9.500000000000002
 21
16.4
  0
LINE
  5
321
100
AcDbEntity
  8
gnd
  6
ByLayer
 62
  256
370
   -1
100
AcDbLine
 10
10.5
 20
15.5
 11
10.5
 21
16.5
  0
INSERT
  5
322
100
AcDbEntity
  8
0
  6
ByLayer
 62
  256
370
   -1
100
AcDbBlockReference
  2
BNC
 10
6
 20
22
 30
0
 41
1
 42
1
 43
0
 50
0
 70
    1
 71
    1
 44
0
 45
0
  0
LINE
  5
323
100
AcDbEntity
  8
clk
  6
ByLayer
 62
  256
370
   -1
100
AcDbLine
 10
5.5
 20
18.6
 11
5.5
 21
17.8
  0
LINE
  5
324
100
AcDbEntity
  8
clk
  6
ByLayer
 62
  256
370
   -1
100
AcDbLine
 10
5.5
 20
17.8
 11
10.8
 21
17.8
  0
LINE
  5
325
100
AcDbEntity
  8
gnd
  6
ByLayer
 62
  256
370
   -1
100
AcDbLine
 10
5.5
 20
17.5
 11
10.5
 21
17.5
  0
INSERT
  5
326
100
AcDbEntity
  8
0
  6
ByLayer
 62
  256
370
   -1
100
AcDbBlockReference
  2
banana
 10
11
 20
28.99999999999999
 30
0
 41
1
 42
1
 43
0
 50
0
 70
    1
 71
    1
 44
0
 45
0
  0
INSERT
  5
327
100
AcDbEntity
  8
0
  6
ByLayer
 62
  256
370
   -1
100
AcDbBlockReference
  2
banana
 10
11
 20
34
 30
0
 41
1
 42
1
 43
0
 50
0
 70
    1
 71
    1
 44
1
 45
1
  0
INSERT
  5
328
100
AcDbEntity
  8
0
  6
ByLayer
 62
  256
370
   -1
100
AcDbBlockReference
  2
capacitor_lg
 10
13.5
 20
30
 30
0
 41
1
 42
1
 43
0
 50
0
 70
    1
 71
    1
 44
0
 45
0
  0
LINE
  5
329
100
AcDbEntity
  8
vcc
  6
ByLayer
 62
  256
370
   -1
100
AcDbLine
 10
9.5
 20
31.5
 11
12.5
 21
31.5
  0
LINE
  5
32A
100
AcDbEntity
  8
gnd
  6
ByLayer
 62
  256
370
   -1
100
AcDbLine
 10
12.5
 20
26.5
 11
12.5
 21
28.5
  0
LINE
  5
32B
100
AcDbEntity
  8
gnd
  6
ByLayer
 62
  256
370
   -1
100
AcDbLine
 10
9.5
 20
26.5
 11
12.5
 21
26.5
  0
LINE
  5
32C
100
AcDbEntity
  8
vcc
  6
ByLayer
 62
  256
370
   -1
100
AcDbLine
 10
12.5
 20
31.5
 11
12.5
 21
29.5
  0
LINE
  5
32D
100
AcDbEntity
  8
vcc
  6
ByLayer
 62
  256
370
   -1
100
AcDbLine
 10
12.5
 20
29.5
 11
14.5
 21
29.5
  0
LINE
  5
32E
100
AcDbEntity
  8
gnd
  6
ByLayer
 62
  256
370
   -1
100
AcDbLine
 10
12.5
 20
26.5
 11
14.5
 21
26.5
  0
INSERT
  5
32F
100
AcDbEntity
  8
0
  6
ByLayer
 62
  256
370
   -1
100
AcDbBlockReference
  2
resistor_sm_h
 10
15
 20
26
 30
0
 41
1
 42
1
 43
0
 50
270
 70
    1
 71
    1
 44
0
 45
0
  0
INSERT
  5
330
100
AcDbEntity
  8
0
  6
ByLayer
 62
  256
370
   -1
100
AcDbBlockReference
  2
LED
 10
14
 20
32
 30
0
 41
1
 42
1
 43
0
 50
0
 70
    1
 71
    1
 44
0
 45
0
  0
LINE
  5
331
100
AcDbEntity
  8
vcc
  6
ByLayer
 62
  256
370
   -1
100
AcDbLine
 10
13.5
 20
31.5
 11
14.5
 21
31.5
  0
LINE
  5
332
100
AcDbEntity
  8
vcc
  6
ByLayer
 62
  256
370
   -1
100
AcDbLine
 10
12.5
 20
29.5
 11
15.5
 21
29.5
  0
LWPOLYLINE
  5
333
100
AcDbEntity
  8
0
  6
ByLayer
 62
  256
370
   -1
100
AcDbPolyline
 90
    4
 70
    1
 43
0
 10
3
 20
0
 10
60
 20
0
 10
60
 20
37
 10
3
 20
37
  0
INSERT
  5
334
100
AcDbEntity
  8
0
  6
ByLayer
 62
  256
370
   -1
100
AcDbBlockReference
  2
quartz
 10
50
 20
9
 30
0
 41
1
 42
1
 43
0
 50
270
 70
    1
 71
    1
 44
0
 45
0
  0
INSERT
  5
335
100
AcDbEntity
  8
0
  6
ByLayer
 62
  256
370
   -1
100
AcDbBlockReference
  2
resistor_sm_h-1
 10
51
 20
7
 30
0
 41
1
 42
1
 43
0
 50
270
 70
    1
 71
    1
 44
0
 45
0
  0
LINE
  5
336
100
AcDbEntity
  8
signal
  6
ByLayer
 62
  256
370
   -1
100
AcDbLine
 10
49.5
 20
11.5
 11
50.5
 21
12.5
  0
LINE
  5
337
100
AcDbEntity
  8
signal
  6
ByLayer
 62
  256
370
   -1
100
AcDbLine
 10
50.5
 20
7.500000000000001
 11
49.5
 21
9.5
  0
LINE
  5
338
100
AcDbEntity
  8
signal
  6
ByLayer
 62
  256
370
   -1
100
AcDbLine
 10
46.5
 20
11.5
 11
49.59999999999999
 21
11.5
  0
LWPOLYLINE
  5
339
100
AcDbEntity
  8
0
  6
ByLayer
 62
  256
370
   -1
100
AcDbPolyline
 90
    4
 70
    1
 43
0
 10
52
 20
10
 10
54
 20
10
 10
54
 20
3
 10
52
 20
3
  0
LINE
  5
33A
100
AcDbEntity
  8
signal
  6
ByLayer
 62
  256
370
   -1
100
AcDbLine
 10
48.5
 20
9.5
 11
49.5
 21
9.5
  0
MTEXT
  5
33B
100
AcDbEntity
  8
0
  6
ByLayer
 62
  256
370
   -1
100
AcDbMText
 10
53.2
 20
3.7
 30
0
 40
0.3
 41
0.7
 71
    1
 72
    1
  1
EXT
  7
STANDARD
210
0
220
0
230
1
 50
0
 73
    2
 44
1
  0
MTEXT
  5
33C
100
AcDbEntity
  8
0
  6
ByLayer
 62
  256
370
   -1
100
AcDbMText
 10
52.2
 20
3.7
 30
0
 40
0.3
 41
0.7000000000000373
 71
    1
 72
    1
  1
GND
  7
STANDARD
210
0
220
0
230
1
 50
0
 73
    2
 44
1
  0
MTEXT
  5
33D
100
AcDbEntity
  8
0
  6
ByLayer
 62
  256
370
   -1
100
AcDbMText
 10
52.2
 20
5.6
 30
0
 40
0.3
 41
0.6999999363993552
 71
    1
 72
    1
  1
RTS
  7
STANDARD
210
0
220
0
230
1
 50
0
 73
    2
 44
1
  0
MTEXT
  5
33E
100
AcDbEntity
  8
0
  6
ByLayer
 62
  256
370
   -1
100
AcDbMText
 10
52.2
 20
4.7
 30
0
 40
0.3
 41
0.6666666666666853
 71
    1
 72
    1
  1
RxD
  7
STANDARD
210
0
220
0
230
1
 50
0
 73
    2
 44
1
  0
MTEXT
  5
33F
100
AcDbEntity
  8
0
  6
ByLayer
 62
  256
370
   -1
100
AcDbMText
 10
53.2
 20
5.6
 30
0
 40
0.3
 41
0.6666666666666853
 71
    1
 72
    1
  1
TxD
  7
STANDARD
210
0
220
0
230
1
 50
0
 73
    2
 44
1
  0
MTEXT
  5
340
100
AcDbEntity
  8
0
  6
ByLayer
 62
  256
370
   -1
100
AcDbMText
 10
53.2
 20
4.7
 30
0
 40
0.3
 41
0.5666666666666667
 71
    1
 72
    1
  1
VIO
  7
STANDARD
210
0
220
0
230
1
 50
0
 73
    2
 44
1
  0
MTEXT
  5
341
100
AcDbEntity
  8
0
  6
ByLayer
 62
  256
370
   -1
100
AcDbMText
 10
53.2
 20
6.6
 30
0
 40
0.3
 41
0.6666666030660404
 71
    1
 72
    1
  1
CTS
  7
STANDARD
210
0
220
0
230
1
 50
0
 73
    2
 44
1
  0
LINE
  5
342
100
AcDbEntity
  8
gnd
  6
ByLayer
 62
  256
370
   -1
100
AcDbLine
 10
45.5
 20
4.5
 11
50.5
 21
4.5
  0
LINE
  5
343
100
AcDbEntity
  8
gnd
  6
ByLayer
 62
  256
370
   -1
100
AcDbLine
 10
50.5
 20
4.5
 11
50.5
 21
3.5
  0
LINE
  5
344
100
AcDbEntity
  8
gnd
  6
ByLayer
 62
  256
370
   -1
100
AcDbLine
 10
50.5
 20
3.5
 11
52.5
 21
3.5
  0
LINE
  5
345
100
AcDbEntity
  8
vcc
  6
ByLayer
 62
  256
370
   -1
100
AcDbLine
 10
44.5
 20
3.5
 11
49.5
 21
3.5
  0
LINE
  5
346
100
AcDbEntity
  8
vcc
  6
ByLayer
 62
  256
370
   -1
100
AcDbLine
 10
49.5
 20
3.5
 11
50
 21
4
  0
LINE
  5
347
100
AcDbEntity
  8
vcc
  6
ByLayer
 62
  256
370
   -1
100
AcDbLine
 10
50
 20
4
 11
53.5
 21
4
  0
LINE
  5
348
100
AcDbEntity
  8
vcc
  6
ByLayer
 62
  256
370
   -1
100
AcDbLine
 10
53.5
 20
4
 11
53.5
 21
4.600000000000001
  0
LINE
  5
349
100
AcDbEntity
  8
vcc
  6
ByLayer
 62
  256
370
   -1
100
AcDbLine
 10
53.5
 20
3.6
 11
53.5
 21
4
  0
LINE
  5
34A
100
AcDbEntity
  8
signal2
  6
ByLayer
 62
  256
370
   -1
100
AcDbLine
 10
47.5
 20
14.5
 11
51.5
 21
14.5
  0
LINE
  5
34B
100
AcDbEntity
  8
signal2
  6
ByLayer
 62
  256
370
   -1
100
AcDbLine
 10
51.5
 20
14.5
 11
51.5
 21
13.5
  0
LINE
  5
34C
100
AcDbEntity
  8
signal2
  6
ByLayer
 62
  256
370
   -1
100
AcDbLine
 10
52.50000000000001
 20
4.5
 11
51.50000000000001
 21
4.5
  0
LINE
  5
34D
100
AcDbEntity
  8
signal2
  6
ByLayer
 62
  256
370
   -1
100
AcDbLine
 10
51.50000000000001
 20
4.5
 11
51.5
 21
13.5
  0
LINE
  5
34E
100
AcDbEntity
  8
signal
  6
ByLayer
 62
  256
370
   -1
100
AcDbLine
 10
47.5
 20
16.5
 11
54.40000000000001
 21
16.5
  0
LINE
  5
34F
100
AcDbEntity
  8
signal
  6
ByLayer
 62
  256
370
   -1
100
AcDbLine
 10
54.40000000000001
 20
16.5
 11
54.40000000000001
 21
5.500000000000001
  0
LINE
  5
350
100
AcDbEntity
  8
signal
  6
ByLayer
 62
  256
370
   -1
100
AcDbLine
 10
54.40000000000001
 20
5.500000000000001
 11
53.50000000000001
 21
5.500000000000001
  0
LINE
  5
351
100
AcDbEntity
  8
vcc
  6
ByLayer
 62
  256
370
   -1
100
AcDbLine
 10
22.5
 20
7.5
 11
23.5
 21
7.5
  0
LINE
  5
352
100
AcDbEntity
  8
vcc
  6
ByLayer
 62
  256
370
   -1
100
AcDbLine
 10
22.5
 20
11.5
 11
22.5
 21
7.5
  0
LINE
  5
353
100
AcDbEntity
  8
vcc
  6
ByLayer
 62
  256
370
   -1
100
AcDbLine
 10
23.5
 20
5.5
 11
23.5
 21
7.5
  0
LINE
  5
354
100
AcDbEntity
  8
signal2
  6
ByLayer
 62
  256
370
   -1
100
AcDbLine
 10
7.5
 20
15.7
 11
22.3
 21
15.7
  0
LINE
  5
355
100
AcDbEntity
  8
signal2
  6
ByLayer
 62
  256
370
   -1
100
AcDbLine
 10
22.3
 20
15.7
 11
22.3
 21
16.7
  0
LINE
  5
356
100
AcDbEntity
  8
signal2
  6
ByLayer
 62
  256
370
   -1
100
AcDbLine
 10
22.3
 20
16.7
 11
31.6
 21
16.7
  0
LINE
  5
357
100
AcDbEntity
  8
gnd
  6
ByLayer
 62
  256
370
   -1
100
AcDbLine
 10
18.5
 20
0.5
 11
18.5
 21
1.5
  0
LINE
  5
358
100
AcDbEntity
  8
vcc
  6
ByLayer
 62
  256
370
   -1
100
AcDbLine
 10
15.5
 20
2.5
 11
19.5
 21
2.5
  0
LINE
  5
359
100
AcDbEntity
  8
vcc
  6
ByLayer
 62
  256
370
   -1
100
AcDbLine
 10
19.5
 20
2.5
 11
19.5
 21
1.5
  0
LINE
  5
35A
100
AcDbEntity
  8
vcc
  6
ByLayer
 62
  256
370
   -1
100
AcDbLine
 10
6.000000000000001
 20
8.000000000000002
 11
7.000000000000001
 21
8.000000000000002
  0
LINE
  5
35B
100
AcDbEntity
  8
vcc
  6
ByLayer
 62
  256
370
   -1
100
AcDbLine
 10
5.5
 20
7.500000000000002
 11
6
 21
8.000000000000002
  0
LINE
  5
35C
100
AcDbEntity
  8
vcc
  6
ByLayer
 62
  256
370
   -1
100
AcDbLine
 10
7.000000000000001
 20
8.000000000000002
 11
8.5
 21
8.000000000000002
  0
ENDSEC
  0
SECTION
  2
OBJECTS
  0
DICTIONARY
  5
C
330
0
100
AcDbDictionary
281
    1
  3
ACAD_GROUP
350
D
  0
DICTIONARY
  5
D
330
C
100
AcDbDictionary
281
    1
  0
PLOTSETTINGS
  5
35D
100
AcDbPlotSettings
  6
1x1
 40
0
 41
0
 42
0
 43
0
  0
ENDSEC
  0
EOF
